{
    "header": {
        "formatType": 0,
        "trackCount": 1,
        "ticksPerBeat": 480
    },
    "tracks": [
        [
            {
                "deltaTime": 0,
                "type": "meta",
                "subtype": "trackName",
                "text": "Das wohltemperierte Klavier I - Praeludium und Fuge 1 in C-Dur BWV 846"
            },
            {
                "deltaTime": 0,
                "type": "meta",
                "subtype": "copyrightNotice",
                "text": "Copyright © 1996  Bernd Krueger."
            },
            {
                "deltaTime": 0,
                "type": "meta",
                "subtype": "text",
                "text": "Johann Sebastian Bach"
            },
            {
                "deltaTime": 0,
                "type": "meta",
                "subtype": "text",
                "text": "Fertiggestellt am 29.10.97\n"
            },
            {
                "deltaTime": 0,
                "type": "meta",
                "subtype": "text",
                "text": "Pan's auf Standard am 18.1.98\n"
            },
            {
                "deltaTime": 0,
                "type": "meta",
                "subtype": "text",
                "text": "Normierung: 23.12.2002\n"
            },
            {
                "deltaTime": 0,
                "type": "meta",
                "subtype": "text",
                "text": "Update am 25.9.2004\n"
            },
            {
                "deltaTime": 0,
                "type": "meta",
                "subtype": "text",
                "text": "Dauer: 3:46 Minuten\n"
            },
            {
                "deltaTime": 0,
                "type": "meta",
                "subtype": "timeSignature",
                "numerator": 4,
                "denominator": 4,
                "metronome": 24,
                "thirtyseconds": 8
            },
            {
                "deltaTime": 0,
                "type": "meta",
                "subtype": "keySignature",
                "key": 0,
                "scale": 0
            },
            {
                "deltaTime": 0,
                "type": "meta",
                "subtype": "setTempo",
                "microsecondsPerBeat": 810811
            },
            {
                "deltaTime": 0,
                "type": "meta",
                "subtype": "marker",
                "text": "Prelude"
            },
            {
                "deltaTime": 0,
                "channel": 0,
                "type": "channel",
                "subtype": "programChange",
                "programNumber": 0
            },
            {
                "deltaTime": 0,
                "channel": 0,
                "type": "channel",
                "subtype": "controller",
                "controllerType": 7,
                "value": 100
            },
            {
                "deltaTime": 0,
                "channel": 0,
                "type": "channel",
                "subtype": "controller",
                "controllerType": 10,
                "value": 64
            },
            {
                "deltaTime": 0,
                "channel": 0,
                "type": "channel",
                "subtype": "controller",
                "controllerType": 91,
                "value": 127
            },
            {
                "deltaTime": 0,
                "type": "meta",
                "subtype": "text",
                "text": "bdca426d104a26ac9dcb070447587523"
            },
            {
                "deltaTime": 0,
                "channel": 0,
                "type": "channel",
                "subtype": "programChange",
                "programNumber": 0
            },
            {
                "deltaTime": 0,
                "channel": 0,
                "type": "channel",
                "subtype": "controller",
                "controllerType": 7,
                "value": 100
            },
            {
                "deltaTime": 0,
                "channel": 0,
                "type": "channel",
                "subtype": "controller",
                "controllerType": 10,
                "value": 64
            },
            {
                "deltaTime": 0,
                "channel": 0,
                "type": "channel",
                "subtype": "controller",
                "controllerType": 64,
                "value": 127
            },
            {
                "deltaTime": 0,
                "channel": 0,
                "type": "channel",
                "subtype": "controller",
                "controllerType": 91,
                "value": 127
            },
            {
                "deltaTime": 0,
                "channel": 2,
                "type": "channel",
                "subtype": "programChange",
                "programNumber": 0
            },
            {
                "deltaTime": 0,
                "channel": 2,
                "type": "channel",
                "subtype": "controller",
                "controllerType": 7,
                "value": 110
            },
            {
                "deltaTime": 0,
                "channel": 2,
                "type": "channel",
                "subtype": "controller",
                "controllerType": 10,
                "value": 64
            },
            {
                "deltaTime": 0,
                "channel": 3,
                "type": "channel",
                "subtype": "programChange",
                "programNumber": 0
            },
            {
                "deltaTime": 0,
                "channel": 3,
                "type": "channel",
                "subtype": "controller",
                "controllerType": 7,
                "value": 110
            },
            {
                "deltaTime": 0,
                "channel": 3,
                "type": "channel",
                "subtype": "controller",
                "controllerType": 10,
                "value": 64
            },
            {
                "deltaTime": 0,
                "channel": 4,
                "type": "channel",
                "subtype": "programChange",
                "programNumber": 0
            },
            {
                "deltaTime": 0,
                "channel": 4,
                "type": "channel",
                "subtype": "controller",
                "controllerType": 7,
                "value": 100
            },
            {
                "deltaTime": 0,
                "channel": 4,
                "type": "channel",
                "subtype": "controller",
                "controllerType": 10,
                "value": 64
            },
            {
                "deltaTime": 0,
                "channel": 5,
                "type": "channel",
                "subtype": "programChange",
                "programNumber": 0
            },
            {
                "deltaTime": 0,
                "channel": 5,
                "type": "channel",
                "subtype": "controller",
                "controllerType": 7,
                "value": 100
            },
            {
                "deltaTime": 0,
                "channel": 5,
                "type": "channel",
                "subtype": "controller",
                "controllerType": 10,
                "value": 64
            },
            {
                "deltaTime": 1,
                "channel": 0,
                "type": "channel",
                "noteNumber": 60,
                "velocity": 61,
                "subtype": "noteOn"
            },
            {
                "deltaTime": 120,
                "channel": 0,
                "type": "channel",
                "noteNumber": 64,
                "velocity": 57,
                "subtype": "noteOn"
            },
            {
                "deltaTime": 120,
                "channel": 0,
                "type": "channel",
                "noteNumber": 67,
                "velocity": 56,
                "subtype": "noteOn"
            },
            {
                "deltaTime": 120,
                "channel": 0,
                "type": "channel",
                "noteNumber": 67,
                "velocity": 0,
                "subtype": "noteOff"
            },
            {
                "deltaTime": 0,
                "channel": 0,
                "type": "channel",
                "noteNumber": 72,
                "velocity": 60,
                "subtype": "noteOn"
            },
            {
                "deltaTime": 119,
                "type": "meta",
                "subtype": "setTempo",
                "microsecondsPerBeat": 794702
            },
            {
                "deltaTime": 1,
                "channel": 0,
                "type": "channel",
                "noteNumber": 72,
                "velocity": 0,
                "subtype": "noteOff"
            },
            {
                "deltaTime": 0,
                "channel": 0,
                "type": "channel",
                "noteNumber": 76,
                "velocity": 63,
                "subtype": "noteOn"
            },
            {
                "deltaTime": 108,
                "channel": 0,
                "type": "channel",
                "noteNumber": 76,
                "velocity": 0,
                "subtype": "noteOff"
            },
            {
                "deltaTime": 11,
                "type": "meta",
                "subtype": "setTempo",
                "microsecondsPerBeat": 810811
            },
            {
                "deltaTime": 1,
                "channel": 0,
                "type": "channel",
                "noteNumber": 67,
                "velocity": 50,
                "subtype": "noteOn"
            },
            {
                "deltaTime": 120,
                "channel": 0,
                "type": "channel",
                "noteNumber": 67,
                "velocity": 0,
                "subtype": "noteOff"
            },
            {
                "deltaTime": 0,
                "channel": 0,
                "type": "channel",
                "noteNumber": 72,
                "velocity": 47,
                "subtype": "noteOn"
            },
            {
                "deltaTime": 120,
                "channel": 0,
                "type": "channel",
                "noteNumber": 72,
                "velocity": 0,
                "subtype": "noteOff"
            },
            {
                "deltaTime": 0,
                "channel": 0,
                "type": "channel",
                "noteNumber": 76,
                "velocity": 47,
                "subtype": "noteOn"
            },
            {
                "deltaTime": 120,
                "channel": 0,
                "type": "channel",
                "noteNumber": 76,
                "velocity": 0,
                "subtype": "noteOff"
            },
            {
                "deltaTime": 0,
                "channel": 0,
                "type": "channel",
                "noteNumber": 64,
                "velocity": 0,
                "subtype": "noteOff"
            },
            {
                "deltaTime": 0,
                "channel": 0,
                "type": "channel",
                "noteNumber": 60,
                "velocity": 0,
                "subtype": "noteOff"
            },
            {
                "deltaTime": 0,
                "channel": 0,
                "type": "channel",
                "noteNumber": 60,
                "velocity": 62,
                "subtype": "noteOn"
            },
            {
                "deltaTime": 120,
                "channel": 0,
                "type": "channel",
                "noteNumber": 64,
                "velocity": 57,
                "subtype": "noteOn"
            },
            {
                "deltaTime": 120,
                "channel": 0,
                "type": "channel",
                "noteNumber": 67,
                "velocity": 56,
                "subtype": "noteOn"
            },
            {
                "deltaTime": 120,
                "channel": 0,
                "type": "channel",
                "noteNumber": 67,
                "velocity": 0,
                "subtype": "noteOff"
            },
            {
                "deltaTime": 0,
                "channel": 0,
                "type": "channel",
                "noteNumber": 72,
                "velocity": 60,
                "subtype": "noteOn"
            },
            {
                "deltaTime": 120,
                "channel": 0,
                "type": "channel",
                "noteNumber": 72,
                "velocity": 0,
                "subtype": "noteOff"
            },
            {
                "deltaTime": 0,
                "channel": 0,
                "type": "channel",
                "noteNumber": 76,
                "velocity": 62,
                "subtype": "noteOn"
            },
            {
                "deltaTime": 108,
                "channel": 0,
                "type": "channel",
                "noteNumber": 76,
                "velocity": 0,
                "subtype": "noteOff"
            },
            {
                "deltaTime": 11,
                "type": "meta",
                "subtype": "setTempo",
                "microsecondsPerBeat": 800000
            },
            {
                "deltaTime": 1,
                "channel": 0,
                "type": "channel",
                "noteNumber": 67,
                "velocity": 50,
                "subtype": "noteOn"
            },
            {
                "deltaTime": 120,
                "channel": 0,
                "type": "channel",
                "noteNumber": 67,
                "velocity": 0,
                "subtype": "noteOff"
            },
            {
                "deltaTime": 0,
                "channel": 0,
                "type": "channel",
                "noteNumber": 72,
                "velocity": 48,
                "subtype": "noteOn"
            },
            {
                "deltaTime": 120,
                "channel": 0,
                "type": "channel",
                "noteNumber": 72,
                "velocity": 0,
                "subtype": "noteOff"
            },
            {
                "deltaTime": 0,
                "channel": 0,
                "type": "channel",
                "noteNumber": 76,
                "velocity": 48,
                "subtype": "noteOn"
            },
            {
                "deltaTime": 119,
                "type": "meta",
                "subtype": "setTempo",
                "microsecondsPerBeat": 810811
            },
            {
                "deltaTime": 0,
                "channel": 0,
                "type": "channel",
                "subtype": "controller",
                "controllerType": 91,
                "value": 127
            },
            {
                "deltaTime": 0,
                "channel": 0,
                "type": "channel",
                "subtype": "controller",
                "controllerType": 91,
                "value": 127
            },
            {
                "deltaTime": 1,
                "channel": 0,
                "type": "channel",
                "noteNumber": 76,
                "velocity": 0,
                "subtype": "noteOff"
            },
            {
                "deltaTime": 0,
                "channel": 0,
                "type": "channel",
                "noteNumber": 64,
                "velocity": 0,
                "subtype": "noteOff"
            },
            {
                "deltaTime": 0,
                "channel": 0,
                "type": "channel",
                "noteNumber": 60,
                "velocity": 0,
                "subtype": "noteOff"
            },
            {
                "deltaTime": 0,
                "channel": 0,
                "type": "channel",
                "noteNumber": 60,
                "velocity": 65,
                "subtype": "noteOn"
            },
            {
                "deltaTime": 9,
                "channel": 0,
                "type": "channel",
                "subtype": "controller",
                "controllerType": 64,
                "value": 0
            },
            {
                "deltaTime": 96,
                "channel": 0,
                "type": "channel",
                "subtype": "controller",
                "controllerType": 64,
                "value": 127
            },
            {
                "deltaTime": 15,
                "channel": 0,
                "type": "channel",
                "noteNumber": 62,
                "velocity": 60,
                "subtype": "noteOn"
            },
            {
                "deltaTime": 120,
                "channel": 0,
                "type": "channel",
                "noteNumber": 69,
                "velocity": 56,
                "subtype": "noteOn"
            },
            {
                "deltaTime": 119,
                "type": "meta",
                "subtype": "setTempo",
                "microsecondsPerBeat": 789474
            },
            {
                "deltaTime": 1,
                "channel": 0,
                "type": "channel",
                "noteNumber": 69,
                "velocity": 0,
                "subtype": "noteOff"
            },
            {
                "deltaTime": 0,
                "channel": 0,
                "type": "channel",
                "noteNumber": 74,
                "velocity": 60,
                "subtype": "noteOn"
            },
            {
                "deltaTime": 119,
                "type": "meta",
                "subtype": "setTempo",
                "microsecondsPerBeat": 769231
            },
            {
                "deltaTime": 1,
                "channel": 0,
                "type": "channel",
                "noteNumber": 74,
                "velocity": 0,
                "subtype": "noteOff"
            },
            {
                "deltaTime": 0,
                "channel": 0,
                "type": "channel",
                "noteNumber": 77,
                "velocity": 65,
                "subtype": "noteOn"
            },
            {
                "deltaTime": 108,
                "channel": 0,
                "type": "channel",
                "noteNumber": 77,
                "velocity": 0,
                "subtype": "noteOff"
            },
            {
                "deltaTime": 11,
                "type": "meta",
                "subtype": "setTempo",
                "microsecondsPerBeat": 789474
            },
            {
                "deltaTime": 1,
                "channel": 0,
                "type": "channel",
                "noteNumber": 69,
                "velocity": 51,
                "subtype": "noteOn"
            },
            {
                "deltaTime": 120,
                "channel": 0,
                "type": "channel",
                "noteNumber": 69,
                "velocity": 0,
                "subtype": "noteOff"
            },
            {
                "deltaTime": 0,
                "channel": 0,
                "type": "channel",
                "noteNumber": 74,
                "velocity": 50,
                "subtype": "noteOn"
            },
            {
                "deltaTime": 120,
                "channel": 0,
                "type": "channel",
                "noteNumber": 74,
                "velocity": 0,
                "subtype": "noteOff"
            },
            {
                "deltaTime": 0,
                "channel": 0,
                "type": "channel",
                "noteNumber": 77,
                "velocity": 50,
                "subtype": "noteOn"
            },
            {
                "deltaTime": 119,
                "type": "meta",
                "subtype": "setTempo",
                "microsecondsPerBeat": 794702
            },
            {
                "deltaTime": 1,
                "channel": 0,
                "type": "channel",
                "noteNumber": 77,
                "velocity": 0,
                "subtype": "noteOff"
            },
            {
                "deltaTime": 0,
                "channel": 0,
                "type": "channel",
                "noteNumber": 62,
                "velocity": 0,
                "subtype": "noteOff"
            },
            {
                "deltaTime": 0,
                "channel": 0,
                "type": "channel",
                "noteNumber": 60,
                "velocity": 0,
                "subtype": "noteOff"
            },
            {
                "deltaTime": 0,
                "channel": 0,
                "type": "channel",
                "noteNumber": 60,
                "velocity": 65,
                "subtype": "noteOn"
            },
            {
                "deltaTime": 120,
                "channel": 0,
                "type": "channel",
                "noteNumber": 62,
                "velocity": 60,
                "subtype": "noteOn"
            },
            {
                "deltaTime": 120,
                "channel": 0,
                "type": "channel",
                "noteNumber": 69,
                "velocity": 58,
                "subtype": "noteOn"
            },
            {
                "deltaTime": 119,
                "type": "meta",
                "subtype": "setTempo",
                "microsecondsPerBeat": 779221
            },
            {
                "deltaTime": 1,
                "channel": 0,
                "type": "channel",
                "noteNumber": 69,
                "velocity": 0,
                "subtype": "noteOff"
            },
            {
                "deltaTime": 0,
                "channel": 0,
                "type": "channel",
                "noteNumber": 74,
                "velocity": 60,
                "subtype": "noteOn"
            },
            {
                "deltaTime": 119,
                "type": "meta",
                "subtype": "setTempo",
                "microsecondsPerBeat": 759494
            },
            {
                "deltaTime": 1,
                "channel": 0,
                "type": "channel",
                "noteNumber": 74,
                "velocity": 0,
                "subtype": "noteOff"
            },
            {
                "deltaTime": 0,
                "channel": 0,
                "type": "channel",
                "noteNumber": 77,
                "velocity": 65,
                "subtype": "noteOn"
            },
            {
                "deltaTime": 108,
                "channel": 0,
                "type": "channel",
                "noteNumber": 77,
                "velocity": 0,
                "subtype": "noteOff"
            },
            {
                "deltaTime": 11,
                "type": "meta",
                "subtype": "setTempo",
                "microsecondsPerBeat": 779221
            },
            {
                "deltaTime": 1,
                "channel": 0,
                "type": "channel",
                "noteNumber": 69,
                "velocity": 52,
                "subtype": "noteOn"
            },
            {
                "deltaTime": 120,
                "channel": 0,
                "type": "channel",
                "noteNumber": 69,
                "velocity": 0,
                "subtype": "noteOff"
            },
            {
                "deltaTime": 0,
                "channel": 0,
                "type": "channel",
                "noteNumber": 74,
                "velocity": 50,
                "subtype": "noteOn"
            },
            {
                "deltaTime": 119,
                "type": "meta",
                "subtype": "setTempo",
                "microsecondsPerBeat": 810811
            },
            {
                "deltaTime": 1,
                "channel": 0,
                "type": "channel",
                "noteNumber": 74,
                "velocity": 0,
                "subtype": "noteOff"
            },
            {
                "deltaTime": 0,
                "channel": 0,
                "type": "channel",
                "noteNumber": 77,
                "velocity": 50,
                "subtype": "noteOn"
            },
            {
                "deltaTime": 119,
                "type": "meta",
                "subtype": "setTempo",
                "microsecondsPerBeat": 805369
            },
            {
                "deltaTime": 0,
                "channel": 0,
                "type": "channel",
                "subtype": "controller",
                "controllerType": 91,
                "value": 127
            },
            {
                "deltaTime": 0,
                "channel": 0,
                "type": "channel",
                "subtype": "controller",
                "controllerType": 91,
                "value": 127
            },
            {
                "deltaTime": 1,
                "channel": 0,
                "type": "channel",
                "noteNumber": 77,
                "velocity": 0,
                "subtype": "noteOff"
            },
            {
                "deltaTime": 0,
                "channel": 0,
                "type": "channel",
                "noteNumber": 62,
                "velocity": 0,
                "subtype": "noteOff"
            },
            {
                "deltaTime": 0,
                "channel": 0,
                "type": "channel",
                "noteNumber": 60,
                "velocity": 0,
                "subtype": "noteOff"
            },
            {
                "deltaTime": 0,
                "channel": 0,
                "type": "channel",
                "noteNumber": 59,
                "velocity": 65,
                "subtype": "noteOn"
            },
            {
                "deltaTime": 8,
                "channel": 0,
                "type": "channel",
                "subtype": "controller",
                "controllerType": 64,
                "value": 0
            },
            {
                "deltaTime": 76,
                "channel": 0,
                "type": "channel",
                "subtype": "controller",
                "controllerType": 64,
                "value": 127
            },
            {
                "deltaTime": 36,
                "channel": 0,
                "type": "channel",
                "noteNumber": 62,
                "velocity": 60,
                "subtype": "noteOn"
            },
            {
                "deltaTime": 120,
                "channel": 0,
                "type": "channel",
                "noteNumber": 67,
                "velocity": 56,
                "subtype": "noteOn"
            },
            {
                "deltaTime": 119,
                "type": "meta",
                "subtype": "setTempo",
                "microsecondsPerBeat": 779221
            },
            {
                "deltaTime": 1,
                "channel": 0,
                "type": "channel",
                "noteNumber": 67,
                "velocity": 0,
                "subtype": "noteOff"
            },
            {
                "deltaTime": 0,
                "channel": 0,
                "type": "channel",
                "noteNumber": 74,
                "velocity": 60,
                "subtype": "noteOn"
            },
            {
                "deltaTime": 119,
                "type": "meta",
                "subtype": "setTempo",
                "microsecondsPerBeat": 750000
            },
            {
                "deltaTime": 1,
                "channel": 0,
                "type": "channel",
                "noteNumber": 74,
                "velocity": 0,
                "subtype": "noteOff"
            },
            {
                "deltaTime": 0,
                "channel": 0,
                "type": "channel",
                "noteNumber": 77,
                "velocity": 65,
                "subtype": "noteOn"
            },
            {
                "deltaTime": 108,
                "channel": 0,
                "type": "channel",
                "noteNumber": 77,
                "velocity": 0,
                "subtype": "noteOff"
            },
            {
                "deltaTime": 11,
                "type": "meta",
                "subtype": "setTempo",
                "microsecondsPerBeat": 779221
            },
            {
                "deltaTime": 1,
                "channel": 0,
                "type": "channel",
                "noteNumber": 67,
                "velocity": 51,
                "subtype": "noteOn"
            },
            {
                "deltaTime": 120,
                "channel": 0,
                "type": "channel",
                "noteNumber": 67,
                "velocity": 0,
                "subtype": "noteOff"
            },
            {
                "deltaTime": 0,
                "channel": 0,
                "type": "channel",
                "noteNumber": 74,
                "velocity": 50,
                "subtype": "noteOn"
            },
            {
                "deltaTime": 119,
                "type": "meta",
                "subtype": "setTempo",
                "microsecondsPerBeat": 779221
            },
            {
                "deltaTime": 1,
                "channel": 0,
                "type": "channel",
                "noteNumber": 74,
                "velocity": 0,
                "subtype": "noteOff"
            },
            {
                "deltaTime": 0,
                "channel": 0,
                "type": "channel",
                "noteNumber": 77,
                "velocity": 50,
                "subtype": "noteOn"
            },
            {
                "deltaTime": 119,
                "type": "meta",
                "subtype": "setTempo",
                "microsecondsPerBeat": 805369
            },
            {
                "deltaTime": 1,
                "channel": 0,
                "type": "channel",
                "noteNumber": 77,
                "velocity": 0,
                "subtype": "noteOff"
            },
            {
                "deltaTime": 0,
                "channel": 0,
                "type": "channel",
                "noteNumber": 62,
                "velocity": 0,
                "subtype": "noteOff"
            },
            {
                "deltaTime": 0,
                "channel": 0,
                "type": "channel",
                "noteNumber": 59,
                "velocity": 0,
                "subtype": "noteOff"
            },
            {
                "deltaTime": 0,
                "channel": 0,
                "type": "channel",
                "noteNumber": 59,
                "velocity": 65,
                "subtype": "noteOn"
            },
            {
                "deltaTime": 120,
                "channel": 0,
                "type": "channel",
                "noteNumber": 62,
                "velocity": 60,
                "subtype": "noteOn"
            },
            {
                "deltaTime": 120,
                "channel": 0,
                "type": "channel",
                "noteNumber": 67,
                "velocity": 56,
                "subtype": "noteOn"
            },
            {
                "deltaTime": 119,
                "type": "meta",
                "subtype": "setTempo",
                "microsecondsPerBeat": 789474
            },
            {
                "deltaTime": 1,
                "channel": 0,
                "type": "channel",
                "noteNumber": 67,
                "velocity": 0,
                "subtype": "noteOff"
            },
            {
                "deltaTime": 0,
                "channel": 0,
                "type": "channel",
                "noteNumber": 74,
                "velocity": 60,
                "subtype": "noteOn"
            },
            {
                "deltaTime": 119,
                "type": "meta",
                "subtype": "setTempo",
                "microsecondsPerBeat": 769231
            },
            {
                "deltaTime": 1,
                "channel": 0,
                "type": "channel",
                "noteNumber": 74,
                "velocity": 0,
                "subtype": "noteOff"
            },
            {
                "deltaTime": 0,
                "channel": 0,
                "type": "channel",
                "noteNumber": 77,
                "velocity": 65,
                "subtype": "noteOn"
            },
            {
                "deltaTime": 108,
                "channel": 0,
                "type": "channel",
                "noteNumber": 77,
                "velocity": 0,
                "subtype": "noteOff"
            },
            {
                "deltaTime": 11,
                "type": "meta",
                "subtype": "setTempo",
                "microsecondsPerBeat": 789474
            },
            {
                "deltaTime": 1,
                "channel": 0,
                "type": "channel",
                "noteNumber": 67,
                "velocity": 52,
                "subtype": "noteOn"
            },
            {
                "deltaTime": 120,
                "channel": 0,
                "type": "channel",
                "noteNumber": 67,
                "velocity": 0,
                "subtype": "noteOff"
            },
            {
                "deltaTime": 0,
                "channel": 0,
                "type": "channel",
                "noteNumber": 74,
                "velocity": 50,
                "subtype": "noteOn"
            },
            {
                "deltaTime": 119,
                "type": "meta",
                "subtype": "setTempo",
                "microsecondsPerBeat": 827586
            },
            {
                "deltaTime": 1,
                "channel": 0,
                "type": "channel",
                "noteNumber": 74,
                "velocity": 0,
                "subtype": "noteOff"
            },
            {
                "deltaTime": 0,
                "channel": 0,
                "type": "channel",
                "noteNumber": 77,
                "velocity": 50,
                "subtype": "noteOn"
            },
            {
                "deltaTime": 119,
                "type": "meta",
                "subtype": "setTempo",
                "microsecondsPerBeat": 789474
            },
            {
                "deltaTime": 0,
                "channel": 0,
                "type": "channel",
                "subtype": "controller",
                "controllerType": 91,
                "value": 127
            },
            {
                "deltaTime": 0,
                "channel": 0,
                "type": "channel",
                "subtype": "controller",
                "controllerType": 91,
                "value": 127
            },
            {
                "deltaTime": 1,
                "channel": 0,
                "type": "channel",
                "noteNumber": 77,
                "velocity": 0,
                "subtype": "noteOff"
            },
            {
                "deltaTime": 0,
                "channel": 0,
                "type": "channel",
                "noteNumber": 62,
                "velocity": 0,
                "subtype": "noteOff"
            },
            {
                "deltaTime": 0,
                "channel": 0,
                "type": "channel",
                "noteNumber": 59,
                "velocity": 0,
                "subtype": "noteOff"
            },
            {
                "deltaTime": 0,
                "channel": 0,
                "type": "channel",
                "noteNumber": 60,
                "velocity": 61,
                "subtype": "noteOn"
            },
            {
                "deltaTime": 8,
                "channel": 0,
                "type": "channel",
                "subtype": "controller",
                "controllerType": 64,
                "value": 0
            },
            {
                "deltaTime": 90,
                "channel": 0,
                "type": "channel",
                "subtype": "controller",
                "controllerType": 64,
                "value": 127
            },
            {
                "deltaTime": 22,
                "channel": 0,
                "type": "channel",
                "noteNumber": 64,
                "velocity": 57,
                "subtype": "noteOn"
            },
            {
                "deltaTime": 120,
                "channel": 0,
                "type": "channel",
                "noteNumber": 67,
                "velocity": 53,
                "subtype": "noteOn"
            },
            {
                "deltaTime": 120,
                "channel": 0,
                "type": "channel",
                "noteNumber": 67,
                "velocity": 0,
                "subtype": "noteOff"
            },
            {
                "deltaTime": 0,
                "channel": 0,
                "type": "channel",
                "noteNumber": 72,
                "velocity": 55,
                "subtype": "noteOn"
            },
            {
                "deltaTime": 119,
                "type": "meta",
                "subtype": "setTempo",
                "microsecondsPerBeat": 764331
            },
            {
                "deltaTime": 1,
                "channel": 0,
                "type": "channel",
                "noteNumber": 72,
                "velocity": 0,
                "subtype": "noteOff"
            },
            {
                "deltaTime": 0,
                "channel": 0,
                "type": "channel",
                "noteNumber": 76,
                "velocity": 60,
                "subtype": "noteOn"
            },
            {
                "deltaTime": 108,
                "channel": 0,
                "type": "channel",
                "noteNumber": 76,
                "velocity": 0,
                "subtype": "noteOff"
            },
            {
                "deltaTime": 11,
                "type": "meta",
                "subtype": "setTempo",
                "microsecondsPerBeat": 789474
            },
            {
                "deltaTime": 1,
                "channel": 0,
                "type": "channel",
                "noteNumber": 67,
                "velocity": 50,
                "subtype": "noteOn"
            },
            {
                "deltaTime": 120,
                "channel": 0,
                "type": "channel",
                "noteNumber": 67,
                "velocity": 0,
                "subtype": "noteOff"
            },
            {
                "deltaTime": 0,
                "channel": 0,
                "type": "channel",
                "noteNumber": 72,
                "velocity": 47,
                "subtype": "noteOn"
            },
            {
                "deltaTime": 119,
                "type": "meta",
                "subtype": "setTempo",
                "microsecondsPerBeat": 816327
            },
            {
                "deltaTime": 1,
                "channel": 0,
                "type": "channel",
                "noteNumber": 72,
                "velocity": 0,
                "subtype": "noteOff"
            },
            {
                "deltaTime": 0,
                "channel": 0,
                "type": "channel",
                "noteNumber": 76,
                "velocity": 47,
                "subtype": "noteOn"
            },
            {
                "deltaTime": 119,
                "type": "meta",
                "subtype": "setTempo",
                "microsecondsPerBeat": 789474
            },
            {
                "deltaTime": 1,
                "channel": 0,
                "type": "channel",
                "noteNumber": 76,
                "velocity": 0,
                "subtype": "noteOff"
            },
            {
                "deltaTime": 0,
                "channel": 0,
                "type": "channel",
                "noteNumber": 64,
                "velocity": 0,
                "subtype": "noteOff"
            },
            {
                "deltaTime": 0,
                "channel": 0,
                "type": "channel",
                "noteNumber": 60,
                "velocity": 0,
                "subtype": "noteOff"
            },
            {
                "deltaTime": 0,
                "channel": 0,
                "type": "channel",
                "noteNumber": 60,
                "velocity": 62,
                "subtype": "noteOn"
            },
            {
                "deltaTime": 120,
                "channel": 0,
                "type": "channel",
                "noteNumber": 64,
                "velocity": 57,
                "subtype": "noteOn"
            },
            {
                "deltaTime": 120,
                "channel": 0,
                "type": "channel",
                "noteNumber": 67,
                "velocity": 55,
                "subtype": "noteOn"
            },
            {
                "deltaTime": 120,
                "channel": 0,
                "type": "channel",
                "noteNumber": 67,
                "velocity": 0,
                "subtype": "noteOff"
            },
            {
                "deltaTime": 0,
                "channel": 0,
                "type": "channel",
                "noteNumber": 72,
                "velocity": 57,
                "subtype": "noteOn"
            },
            {
                "deltaTime": 119,
                "type": "meta",
                "subtype": "setTempo",
                "microsecondsPerBeat": 769231
            },
            {
                "deltaTime": 1,
                "channel": 0,
                "type": "channel",
                "noteNumber": 72,
                "velocity": 0,
                "subtype": "noteOff"
            },
            {
                "deltaTime": 0,
                "channel": 0,
                "type": "channel",
                "noteNumber": 76,
                "velocity": 61,
                "subtype": "noteOn"
            },
            {
                "deltaTime": 108,
                "channel": 0,
                "type": "channel",
                "noteNumber": 76,
                "velocity": 0,
                "subtype": "noteOff"
            },
            {
                "deltaTime": 11,
                "type": "meta",
                "subtype": "setTempo",
                "microsecondsPerBeat": 789474
            },
            {
                "deltaTime": 1,
                "channel": 0,
                "type": "channel",
                "noteNumber": 67,
                "velocity": 50,
                "subtype": "noteOn"
            },
            {
                "deltaTime": 120,
                "channel": 0,
                "type": "channel",
                "noteNumber": 67,
                "velocity": 0,
                "subtype": "noteOff"
            },
            {
                "deltaTime": 0,
                "channel": 0,
                "type": "channel",
                "noteNumber": 72,
                "velocity": 48,
                "subtype": "noteOn"
            },
            {
                "deltaTime": 120,
                "channel": 0,
                "type": "channel",
                "noteNumber": 72,
                "velocity": 0,
                "subtype": "noteOff"
            },
            {
                "deltaTime": 0,
                "channel": 0,
                "type": "channel",
                "noteNumber": 76,
                "velocity": 48,
                "subtype": "noteOn"
            },
            {
                "deltaTime": 119,
                "type": "meta",
                "subtype": "setTempo",
                "microsecondsPerBeat": 810811
            },
            {
                "deltaTime": 0,
                "channel": 0,
                "type": "channel",
                "subtype": "controller",
                "controllerType": 91,
                "value": 127
            },
            {
                "deltaTime": 0,
                "channel": 0,
                "type": "channel",
                "subtype": "controller",
                "controllerType": 91,
                "value": 127
            },
            {
                "deltaTime": 1,
                "channel": 0,
                "type": "channel",
                "noteNumber": 76,
                "velocity": 0,
                "subtype": "noteOff"
            },
            {
                "deltaTime": 0,
                "channel": 0,
                "type": "channel",
                "noteNumber": 64,
                "velocity": 0,
                "subtype": "noteOff"
            },
            {
                "deltaTime": 0,
                "channel": 0,
                "type": "channel",
                "noteNumber": 60,
                "velocity": 0,
                "subtype": "noteOff"
            },
            {
                "deltaTime": 0,
                "channel": 0,
                "type": "channel",
                "noteNumber": 60,
                "velocity": 67,
                "subtype": "noteOn"
            },
            {
                "deltaTime": 7,
                "channel": 0,
                "type": "channel",
                "subtype": "controller",
                "controllerType": 64,
                "value": 0
            },
            {
                "deltaTime": 98,
                "channel": 0,
                "type": "channel",
                "subtype": "controller",
                "controllerType": 64,
                "value": 127
            },
            {
                "deltaTime": 15,
                "channel": 0,
                "type": "channel",
                "noteNumber": 64,
                "velocity": 62,
                "subtype": "noteOn"
            },
            {
                "deltaTime": 120,
                "channel": 0,
                "type": "channel",
                "noteNumber": 69,
                "velocity": 61,
                "subtype": "noteOn"
            },
            {
                "deltaTime": 119,
                "type": "meta",
                "subtype": "setTempo",
                "microsecondsPerBeat": 789474
            },
            {
                "deltaTime": 1,
                "channel": 0,
                "type": "channel",
                "noteNumber": 69,
                "velocity": 0,
                "subtype": "noteOff"
            },
            {
                "deltaTime": 0,
                "channel": 0,
                "type": "channel",
                "noteNumber": 76,
                "velocity": 66,
                "subtype": "noteOn"
            },
            {
                "deltaTime": 119,
                "type": "meta",
                "subtype": "setTempo",
                "microsecondsPerBeat": 769231
            },
            {
                "deltaTime": 1,
                "channel": 0,
                "type": "channel",
                "noteNumber": 76,
                "velocity": 0,
                "subtype": "noteOff"
            },
            {
                "deltaTime": 0,
                "channel": 0,
                "type": "channel",
                "noteNumber": 81,
                "velocity": 70,
                "subtype": "noteOn"
            },
            {
                "deltaTime": 108,
                "channel": 0,
                "type": "channel",
                "noteNumber": 81,
                "velocity": 0,
                "subtype": "noteOff"
            },
            {
                "deltaTime": 11,
                "type": "meta",
                "subtype": "setTempo",
                "microsecondsPerBeat": 784314
            },
            {
                "deltaTime": 1,
                "channel": 0,
                "type": "channel",
                "noteNumber": 69,
                "velocity": 55,
                "subtype": "noteOn"
            },
            {
                "deltaTime": 120,
                "channel": 0,
                "type": "channel",
                "noteNumber": 69,
                "velocity": 0,
                "subtype": "noteOff"
            },
            {
                "deltaTime": 0,
                "channel": 0,
                "type": "channel",
                "noteNumber": 76,
                "velocity": 51,
                "subtype": "noteOn"
            },
            {
                "deltaTime": 120,
                "channel": 0,
                "type": "channel",
                "noteNumber": 76,
                "velocity": 0,
                "subtype": "noteOff"
            },
            {
                "deltaTime": 0,
                "channel": 0,
                "type": "channel",
                "noteNumber": 81,
                "velocity": 51,
                "subtype": "noteOn"
            },
            {
                "deltaTime": 119,
                "type": "meta",
                "subtype": "setTempo",
                "microsecondsPerBeat": 810811
            },
            {
                "deltaTime": 1,
                "channel": 0,
                "type": "channel",
                "noteNumber": 81,
                "velocity": 0,
                "subtype": "noteOff"
            },
            {
                "deltaTime": 0,
                "channel": 0,
                "type": "channel",
                "noteNumber": 64,
                "velocity": 0,
                "subtype": "noteOff"
            },
            {
                "deltaTime": 0,
                "channel": 0,
                "type": "channel",
                "noteNumber": 60,
                "velocity": 0,
                "subtype": "noteOff"
            },
            {
                "deltaTime": 0,
                "channel": 0,
                "type": "channel",
                "noteNumber": 60,
                "velocity": 68,
                "subtype": "noteOn"
            },
            {
                "deltaTime": 120,
                "channel": 0,
                "type": "channel",
                "noteNumber": 64,
                "velocity": 62,
                "subtype": "noteOn"
            },
            {
                "deltaTime": 120,
                "channel": 0,
                "type": "channel",
                "noteNumber": 69,
                "velocity": 61,
                "subtype": "noteOn"
            },
            {
                "deltaTime": 119,
                "type": "meta",
                "subtype": "setTempo",
                "microsecondsPerBeat": 784314
            },
            {
                "deltaTime": 1,
                "channel": 0,
                "type": "channel",
                "noteNumber": 69,
                "velocity": 0,
                "subtype": "noteOff"
            },
            {
                "deltaTime": 0,
                "channel": 0,
                "type": "channel",
                "noteNumber": 76,
                "velocity": 65,
                "subtype": "noteOn"
            },
            {
                "deltaTime": 119,
                "type": "meta",
                "subtype": "setTempo",
                "microsecondsPerBeat": 769231
            },
            {
                "deltaTime": 1,
                "channel": 0,
                "type": "channel",
                "noteNumber": 76,
                "velocity": 0,
                "subtype": "noteOff"
            },
            {
                "deltaTime": 0,
                "channel": 0,
                "type": "channel",
                "noteNumber": 81,
                "velocity": 68,
                "subtype": "noteOn"
            },
            {
                "deltaTime": 108,
                "channel": 0,
                "type": "channel",
                "noteNumber": 81,
                "velocity": 0,
                "subtype": "noteOff"
            },
            {
                "deltaTime": 11,
                "type": "meta",
                "subtype": "setTempo",
                "microsecondsPerBeat": 784314
            },
            {
                "deltaTime": 1,
                "channel": 0,
                "type": "channel",
                "noteNumber": 69,
                "velocity": 55,
                "subtype": "noteOn"
            },
            {
                "deltaTime": 120,
                "channel": 0,
                "type": "channel",
                "noteNumber": 69,
                "velocity": 0,
                "subtype": "noteOff"
            },
            {
                "deltaTime": 0,
                "channel": 0,
                "type": "channel",
                "noteNumber": 76,
                "velocity": 52,
                "subtype": "noteOn"
            },
            {
                "deltaTime": 119,
                "type": "meta",
                "subtype": "setTempo",
                "microsecondsPerBeat": 805369
            },
            {
                "deltaTime": 1,
                "channel": 0,
                "type": "channel",
                "noteNumber": 76,
                "velocity": 0,
                "subtype": "noteOff"
            },
            {
                "deltaTime": 0,
                "channel": 0,
                "type": "channel",
                "noteNumber": 81,
                "velocity": 52,
                "subtype": "noteOn"
            },
            {
                "deltaTime": 119,
                "type": "meta",
                "subtype": "setTempo",
                "microsecondsPerBeat": 784314
            },
            {
                "deltaTime": 0,
                "channel": 0,
                "type": "channel",
                "subtype": "controller",
                "controllerType": 91,
                "value": 127
            },
            {
                "deltaTime": 0,
                "channel": 0,
                "type": "channel",
                "subtype": "controller",
                "controllerType": 91,
                "value": 127
            },
            {
                "deltaTime": 1,
                "channel": 0,
                "type": "channel",
                "noteNumber": 81,
                "velocity": 0,
                "subtype": "noteOff"
            },
            {
                "deltaTime": 0,
                "channel": 0,
                "type": "channel",
                "noteNumber": 64,
                "velocity": 0,
                "subtype": "noteOff"
            },
            {
                "deltaTime": 0,
                "channel": 0,
                "type": "channel",
                "noteNumber": 60,
                "velocity": 0,
                "subtype": "noteOff"
            },
            {
                "deltaTime": 0,
                "channel": 0,
                "type": "channel",
                "noteNumber": 60,
                "velocity": 61,
                "subtype": "noteOn"
            },
            {
                "deltaTime": 6,
                "channel": 0,
                "type": "channel",
                "subtype": "controller",
                "controllerType": 64,
                "value": 0
            },
            {
                "deltaTime": 73,
                "channel": 0,
                "type": "channel",
                "subtype": "controller",
                "controllerType": 64,
                "value": 127
            },
            {
                "deltaTime": 41,
                "channel": 0,
                "type": "channel",
                "noteNumber": 62,
                "velocity": 57,
                "subtype": "noteOn"
            },
            {
                "deltaTime": 120,
                "channel": 0,
                "type": "channel",
                "noteNumber": 66,
                "velocity": 56,
                "subtype": "noteOn"
            },
            {
                "deltaTime": 120,
                "channel": 0,
                "type": "channel",
                "noteNumber": 66,
                "velocity": 0,
                "subtype": "noteOff"
            },
            {
                "deltaTime": 0,
                "channel": 0,
                "type": "channel",
                "noteNumber": 69,
                "velocity": 60,
                "subtype": "noteOn"
            },
            {
                "deltaTime": 119,
                "type": "meta",
                "subtype": "setTempo",
                "microsecondsPerBeat": 764331
            },
            {
                "deltaTime": 1,
                "channel": 0,
                "type": "channel",
                "noteNumber": 69,
                "velocity": 0,
                "subtype": "noteOff"
            },
            {
                "deltaTime": 0,
                "channel": 0,
                "type": "channel",
                "noteNumber": 74,
                "velocity": 63,
                "subtype": "noteOn"
            },
            {
                "deltaTime": 108,
                "channel": 0,
                "type": "channel",
                "noteNumber": 74,
                "velocity": 0,
                "subtype": "noteOff"
            },
            {
                "deltaTime": 11,
                "type": "meta",
                "subtype": "setTempo",
                "microsecondsPerBeat": 779221
            },
            {
                "deltaTime": 1,
                "channel": 0,
                "type": "channel",
                "noteNumber": 66,
                "velocity": 50,
                "subtype": "noteOn"
            },
            {
                "deltaTime": 120,
                "channel": 0,
                "type": "channel",
                "noteNumber": 66,
                "velocity": 0,
                "subtype": "noteOff"
            },
            {
                "deltaTime": 0,
                "channel": 0,
                "type": "channel",
                "noteNumber": 69,
                "velocity": 47,
                "subtype": "noteOn"
            },
            {
                "deltaTime": 120,
                "channel": 0,
                "type": "channel",
                "noteNumber": 69,
                "velocity": 0,
                "subtype": "noteOff"
            },
            {
                "deltaTime": 0,
                "channel": 0,
                "type": "channel",
                "noteNumber": 74,
                "velocity": 47,
                "subtype": "noteOn"
            },
            {
                "deltaTime": 119,
                "type": "meta",
                "subtype": "setTempo",
                "microsecondsPerBeat": 805369
            },
            {
                "deltaTime": 1,
                "channel": 0,
                "type": "channel",
                "noteNumber": 74,
                "velocity": 0,
                "subtype": "noteOff"
            },
            {
                "deltaTime": 0,
                "channel": 0,
                "type": "channel",
                "noteNumber": 62,
                "velocity": 0,
                "subtype": "noteOff"
            },
            {
                "deltaTime": 0,
                "channel": 0,
                "type": "channel",
                "noteNumber": 60,
                "velocity": 0,
                "subtype": "noteOff"
            },
            {
                "deltaTime": 0,
                "channel": 0,
                "type": "channel",
                "noteNumber": 60,
                "velocity": 62,
                "subtype": "noteOn"
            },
            {
                "deltaTime": 120,
                "channel": 0,
                "type": "channel",
                "noteNumber": 62,
                "velocity": 57,
                "subtype": "noteOn"
            },
            {
                "deltaTime": 120,
                "channel": 0,
                "type": "channel",
                "noteNumber": 66,
                "velocity": 56,
                "subtype": "noteOn"
            },
            {
                "deltaTime": 120,
                "channel": 0,
                "type": "channel",
                "noteNumber": 66,
                "velocity": 0,
                "subtype": "noteOff"
            },
            {
                "deltaTime": 0,
                "channel": 0,
                "type": "channel",
                "noteNumber": 69,
                "velocity": 60,
                "subtype": "noteOn"
            },
            {
                "deltaTime": 119,
                "type": "meta",
                "subtype": "setTempo",
                "microsecondsPerBeat": 779221
            },
            {
                "deltaTime": 1,
                "channel": 0,
                "type": "channel",
                "noteNumber": 69,
                "velocity": 0,
                "subtype": "noteOff"
            },
            {
                "deltaTime": 0,
                "channel": 0,
                "type": "channel",
                "noteNumber": 74,
                "velocity": 62,
                "subtype": "noteOn"
            },
            {
                "deltaTime": 108,
                "channel": 0,
                "type": "channel",
                "noteNumber": 74,
                "velocity": 0,
                "subtype": "noteOff"
            },
            {
                "deltaTime": 12,
                "channel": 0,
                "type": "channel",
                "noteNumber": 66,
                "velocity": 50,
                "subtype": "noteOn"
            },
            {
                "deltaTime": 120,
                "channel": 0,
                "type": "channel",
                "noteNumber": 66,
                "velocity": 0,
                "subtype": "noteOff"
            },
            {
                "deltaTime": 0,
                "channel": 0,
                "type": "channel",
                "noteNumber": 69,
                "velocity": 48,
                "subtype": "noteOn"
            },
            {
                "deltaTime": 119,
                "type": "meta",
                "subtype": "setTempo",
                "microsecondsPerBeat": 827586
            },
            {
                "deltaTime": 1,
                "channel": 0,
                "type": "channel",
                "noteNumber": 69,
                "velocity": 0,
                "subtype": "noteOff"
            },
            {
                "deltaTime": 0,
                "channel": 0,
                "type": "channel",
                "noteNumber": 74,
                "velocity": 48,
                "subtype": "noteOn"
            },
            {
                "deltaTime": 119,
                "type": "meta",
                "subtype": "setTempo",
                "microsecondsPerBeat": 800000
            },
            {
                "deltaTime": 0,
                "channel": 0,
                "type": "channel",
                "subtype": "controller",
                "controllerType": 91,
                "value": 127
            },
            {
                "deltaTime": 0,
                "channel": 0,
                "type": "channel",
                "subtype": "controller",
                "controllerType": 64,
                "value": 0
            },
            {
                "deltaTime": 0,
                "channel": 0,
                "type": "channel",
                "subtype": "controller",
                "controllerType": 91,
                "value": 127
            },
            {
                "deltaTime": 1,
                "channel": 0,
                "type": "channel",
                "noteNumber": 74,
                "velocity": 0,
                "subtype": "noteOff"
            },
            {
                "deltaTime": 0,
                "channel": 0,
                "type": "channel",
                "noteNumber": 62,
                "velocity": 0,
                "subtype": "noteOff"
            },
            {
                "deltaTime": 0,
                "channel": 0,
                "type": "channel",
                "noteNumber": 60,
                "velocity": 0,
                "subtype": "noteOff"
            },
            {
                "deltaTime": 0,
                "channel": 0,
                "type": "channel",
                "noteNumber": 59,
                "velocity": 65,
                "subtype": "noteOn"
            },
            {
                "deltaTime": 112,
                "channel": 0,
                "type": "channel",
                "subtype": "controller",
                "controllerType": 64,
                "value": 127
            },
            {
                "deltaTime": 8,
                "channel": 0,
                "type": "channel",
                "noteNumber": 62,
                "velocity": 60,
                "subtype": "noteOn"
            },
            {
                "deltaTime": 120,
                "channel": 0,
                "type": "channel",
                "noteNumber": 67,
                "velocity": 58,
                "subtype": "noteOn"
            },
            {
                "deltaTime": 119,
                "type": "meta",
                "subtype": "setTempo",
                "microsecondsPerBeat": 779221
            },
            {
                "deltaTime": 1,
                "channel": 0,
                "type": "channel",
                "noteNumber": 67,
                "velocity": 0,
                "subtype": "noteOff"
            },
            {
                "deltaTime": 0,
                "channel": 0,
                "type": "channel",
                "noteNumber": 74,
                "velocity": 63,
                "subtype": "noteOn"
            },
            {
                "deltaTime": 119,
                "type": "meta",
                "subtype": "setTempo",
                "microsecondsPerBeat": 769231
            },
            {
                "deltaTime": 1,
                "channel": 0,
                "type": "channel",
                "noteNumber": 74,
                "velocity": 0,
                "subtype": "noteOff"
            },
            {
                "deltaTime": 0,
                "channel": 0,
                "type": "channel",
                "noteNumber": 79,
                "velocity": 66,
                "subtype": "noteOn"
            },
            {
                "deltaTime": 108,
                "channel": 0,
                "type": "channel",
                "noteNumber": 79,
                "velocity": 0,
                "subtype": "noteOff"
            },
            {
                "deltaTime": 11,
                "type": "meta",
                "subtype": "setTempo",
                "microsecondsPerBeat": 779221
            },
            {
                "deltaTime": 1,
                "channel": 0,
                "type": "channel",
                "noteNumber": 67,
                "velocity": 51,
                "subtype": "noteOn"
            },
            {
                "deltaTime": 120,
                "channel": 0,
                "type": "channel",
                "noteNumber": 67,
                "velocity": 0,
                "subtype": "noteOff"
            },
            {
                "deltaTime": 0,
                "channel": 0,
                "type": "channel",
                "noteNumber": 74,
                "velocity": 50,
                "subtype": "noteOn"
            },
            {
                "deltaTime": 119,
                "type": "meta",
                "subtype": "setTempo",
                "microsecondsPerBeat": 810811
            },
            {
                "deltaTime": 1,
                "channel": 0,
                "type": "channel",
                "noteNumber": 74,
                "velocity": 0,
                "subtype": "noteOff"
            },
            {
                "deltaTime": 0,
                "channel": 0,
                "type": "channel",
                "noteNumber": 79,
                "velocity": 50,
                "subtype": "noteOn"
            },
            {
                "deltaTime": 119,
                "type": "meta",
                "subtype": "setTempo",
                "microsecondsPerBeat": 800000
            },
            {
                "deltaTime": 1,
                "channel": 0,
                "type": "channel",
                "noteNumber": 79,
                "velocity": 0,
                "subtype": "noteOff"
            },
            {
                "deltaTime": 0,
                "channel": 0,
                "type": "channel",
                "noteNumber": 62,
                "velocity": 0,
                "subtype": "noteOff"
            },
            {
                "deltaTime": 0,
                "channel": 0,
                "type": "channel",
                "noteNumber": 59,
                "velocity": 0,
                "subtype": "noteOff"
            },
            {
                "deltaTime": 0,
                "channel": 0,
                "type": "channel",
                "noteNumber": 59,
                "velocity": 65,
                "subtype": "noteOn"
            },
            {
                "deltaTime": 120,
                "channel": 0,
                "type": "channel",
                "noteNumber": 62,
                "velocity": 60,
                "subtype": "noteOn"
            },
            {
                "deltaTime": 120,
                "channel": 0,
                "type": "channel",
                "noteNumber": 67,
                "velocity": 58,
                "subtype": "noteOn"
            },
            {
                "deltaTime": 119,
                "type": "meta",
                "subtype": "setTempo",
                "microsecondsPerBeat": 774194
            },
            {
                "deltaTime": 1,
                "channel": 0,
                "type": "channel",
                "noteNumber": 67,
                "velocity": 0,
                "subtype": "noteOff"
            },
            {
                "deltaTime": 0,
                "channel": 0,
                "type": "channel",
                "noteNumber": 74,
                "velocity": 62,
                "subtype": "noteOn"
            },
            {
                "deltaTime": 120,
                "channel": 0,
                "type": "channel",
                "noteNumber": 74,
                "velocity": 0,
                "subtype": "noteOff"
            },
            {
                "deltaTime": 0,
                "channel": 0,
                "type": "channel",
                "noteNumber": 79,
                "velocity": 65,
                "subtype": "noteOn"
            },
            {
                "deltaTime": 108,
                "channel": 0,
                "type": "channel",
                "noteNumber": 79,
                "velocity": 0,
                "subtype": "noteOff"
            },
            {
                "deltaTime": 12,
                "channel": 0,
                "type": "channel",
                "noteNumber": 67,
                "velocity": 52,
                "subtype": "noteOn"
            },
            {
                "deltaTime": 120,
                "channel": 0,
                "type": "channel",
                "noteNumber": 67,
                "velocity": 0,
                "subtype": "noteOff"
            },
            {
                "deltaTime": 0,
                "channel": 0,
                "type": "channel",
                "noteNumber": 74,
                "velocity": 50,
                "subtype": "noteOn"
            },
            {
                "deltaTime": 119,
                "type": "meta",
                "subtype": "setTempo",
                "microsecondsPerBeat": 827586
            },
            {
                "deltaTime": 1,
                "channel": 0,
                "type": "channel",
                "noteNumber": 74,
                "velocity": 0,
                "subtype": "noteOff"
            },
            {
                "deltaTime": 0,
                "channel": 0,
                "type": "channel",
                "noteNumber": 79,
                "velocity": 50,
                "subtype": "noteOn"
            },
            {
                "deltaTime": 119,
                "type": "meta",
                "subtype": "setTempo",
                "microsecondsPerBeat": 805369
            },
            {
                "deltaTime": 0,
                "channel": 0,
                "type": "channel",
                "subtype": "controller",
                "controllerType": 91,
                "value": 127
            },
            {
                "deltaTime": 0,
                "channel": 0,
                "type": "channel",
                "subtype": "controller",
                "controllerType": 91,
                "value": 127
            },
            {
                "deltaTime": 1,
                "channel": 0,
                "type": "channel",
                "noteNumber": 79,
                "velocity": 0,
                "subtype": "noteOff"
            },
            {
                "deltaTime": 0,
                "channel": 0,
                "type": "channel",
                "noteNumber": 62,
                "velocity": 0,
                "subtype": "noteOff"
            },
            {
                "deltaTime": 0,
                "channel": 0,
                "type": "channel",
                "noteNumber": 59,
                "velocity": 0,
                "subtype": "noteOff"
            },
            {
                "deltaTime": 0,
                "channel": 0,
                "type": "channel",
                "noteNumber": 59,
                "velocity": 61,
                "subtype": "noteOn"
            },
            {
                "deltaTime": 12,
                "channel": 0,
                "type": "channel",
                "subtype": "controller",
                "controllerType": 64,
                "value": 0
            },
            {
                "deltaTime": 58,
                "channel": 0,
                "type": "channel",
                "subtype": "controller",
                "controllerType": 64,
                "value": 127
            },
            {
                "deltaTime": 50,
                "channel": 0,
                "type": "channel",
                "noteNumber": 60,
                "velocity": 57,
                "subtype": "noteOn"
            },
            {
                "deltaTime": 120,
                "channel": 0,
                "type": "channel",
                "noteNumber": 64,
                "velocity": 56,
                "subtype": "noteOn"
            },
            {
                "deltaTime": 120,
                "channel": 0,
                "type": "channel",
                "noteNumber": 64,
                "velocity": 0,
                "subtype": "noteOff"
            },
            {
                "deltaTime": 0,
                "channel": 0,
                "type": "channel",
                "noteNumber": 67,
                "velocity": 60,
                "subtype": "noteOn"
            },
            {
                "deltaTime": 119,
                "type": "meta",
                "subtype": "setTempo",
                "microsecondsPerBeat": 774194
            },
            {
                "deltaTime": 1,
                "channel": 0,
                "type": "channel",
                "noteNumber": 67,
                "velocity": 0,
                "subtype": "noteOff"
            },
            {
                "deltaTime": 0,
                "channel": 0,
                "type": "channel",
                "noteNumber": 72,
                "velocity": 63,
                "subtype": "noteOn"
            },
            {
                "deltaTime": 108,
                "channel": 0,
                "type": "channel",
                "noteNumber": 72,
                "velocity": 0,
                "subtype": "noteOff"
            },
            {
                "deltaTime": 12,
                "channel": 0,
                "type": "channel",
                "noteNumber": 64,
                "velocity": 50,
                "subtype": "noteOn"
            },
            {
                "deltaTime": 120,
                "channel": 0,
                "type": "channel",
                "noteNumber": 64,
                "velocity": 0,
                "subtype": "noteOff"
            },
            {
                "deltaTime": 0,
                "channel": 0,
                "type": "channel",
                "noteNumber": 67,
                "velocity": 47,
                "subtype": "noteOn"
            },
            {
                "deltaTime": 119,
                "type": "meta",
                "subtype": "setTempo",
                "microsecondsPerBeat": 810811
            },
            {
                "deltaTime": 1,
                "channel": 0,
                "type": "channel",
                "noteNumber": 67,
                "velocity": 0,
                "subtype": "noteOff"
            },
            {
                "deltaTime": 0,
                "channel": 0,
                "type": "channel",
                "noteNumber": 72,
                "velocity": 47,
                "subtype": "noteOn"
            },
            {
                "deltaTime": 119,
                "type": "meta",
                "subtype": "setTempo",
                "microsecondsPerBeat": 784314
            },
            {
                "deltaTime": 1,
                "channel": 0,
                "type": "channel",
                "noteNumber": 72,
                "velocity": 0,
                "subtype": "noteOff"
            },
            {
                "deltaTime": 0,
                "channel": 0,
                "type": "channel",
                "noteNumber": 60,
                "velocity": 0,
                "subtype": "noteOff"
            },
            {
                "deltaTime": 0,
                "channel": 0,
                "type": "channel",
                "noteNumber": 59,
                "velocity": 0,
                "subtype": "noteOff"
            },
            {
                "deltaTime": 0,
                "channel": 0,
                "type": "channel",
                "noteNumber": 59,
                "velocity": 62,
                "subtype": "noteOn"
            },
            {
                "deltaTime": 120,
                "channel": 0,
                "type": "channel",
                "noteNumber": 60,
                "velocity": 57,
                "subtype": "noteOn"
            },
            {
                "deltaTime": 120,
                "channel": 0,
                "type": "channel",
                "noteNumber": 64,
                "velocity": 56,
                "subtype": "noteOn"
            },
            {
                "deltaTime": 120,
                "channel": 0,
                "type": "channel",
                "noteNumber": 64,
                "velocity": 0,
                "subtype": "noteOff"
            },
            {
                "deltaTime": 0,
                "channel": 0,
                "type": "channel",
                "noteNumber": 67,
                "velocity": 60,
                "subtype": "noteOn"
            },
            {
                "deltaTime": 119,
                "type": "meta",
                "subtype": "setTempo",
                "microsecondsPerBeat": 774194
            },
            {
                "deltaTime": 1,
                "channel": 0,
                "type": "channel",
                "noteNumber": 67,
                "velocity": 0,
                "subtype": "noteOff"
            },
            {
                "deltaTime": 0,
                "channel": 0,
                "type": "channel",
                "noteNumber": 72,
                "velocity": 62,
                "subtype": "noteOn"
            },
            {
                "deltaTime": 108,
                "channel": 0,
                "type": "channel",
                "noteNumber": 72,
                "velocity": 0,
                "subtype": "noteOff"
            },
            {
                "deltaTime": 12,
                "channel": 0,
                "type": "channel",
                "noteNumber": 64,
                "velocity": 50,
                "subtype": "noteOn"
            },
            {
                "deltaTime": 120,
                "channel": 0,
                "type": "channel",
                "noteNumber": 64,
                "velocity": 0,
                "subtype": "noteOff"
            },
            {
                "deltaTime": 0,
                "channel": 0,
                "type": "channel",
                "noteNumber": 67,
                "velocity": 48,
                "subtype": "noteOn"
            },
            {
                "deltaTime": 119,
                "type": "meta",
                "subtype": "setTempo",
                "microsecondsPerBeat": 827586
            },
            {
                "deltaTime": 1,
                "channel": 0,
                "type": "channel",
                "noteNumber": 67,
                "velocity": 0,
                "subtype": "noteOff"
            },
            {
                "deltaTime": 0,
                "channel": 0,
                "type": "channel",
                "noteNumber": 72,
                "velocity": 48,
                "subtype": "noteOn"
            },
            {
                "deltaTime": 119,
                "type": "meta",
                "subtype": "setTempo",
                "microsecondsPerBeat": 789474
            },
            {
                "deltaTime": 0,
                "channel": 0,
                "type": "channel",
                "subtype": "controller",
                "controllerType": 91,
                "value": 127
            },
            {
                "deltaTime": 0,
                "channel": 0,
                "type": "channel",
                "subtype": "controller",
                "controllerType": 91,
                "value": 127
            },
            {
                "deltaTime": 1,
                "channel": 0,
                "type": "channel",
                "noteNumber": 72,
                "velocity": 0,
                "subtype": "noteOff"
            },
            {
                "deltaTime": 0,
                "channel": 0,
                "type": "channel",
                "noteNumber": 60,
                "velocity": 0,
                "subtype": "noteOff"
            },
            {
                "deltaTime": 0,
                "channel": 0,
                "type": "channel",
                "noteNumber": 59,
                "velocity": 0,
                "subtype": "noteOff"
            },
            {
                "deltaTime": 0,
                "channel": 0,
                "type": "channel",
                "noteNumber": 57,
                "velocity": 61,
                "subtype": "noteOn"
            },
            {
                "deltaTime": 9,
                "channel": 0,
                "type": "channel",
                "subtype": "controller",
                "controllerType": 64,
                "value": 0
            },
            {
                "deltaTime": 103,
                "channel": 0,
                "type": "channel",
                "subtype": "controller",
                "controllerType": 64,
                "value": 127
            },
            {
                "deltaTime": 8,
                "channel": 0,
                "type": "channel",
                "noteNumber": 60,
                "velocity": 57,
                "subtype": "noteOn"
            },
            {
                "deltaTime": 120,
                "channel": 0,
                "type": "channel",
                "noteNumber": 64,
                "velocity": 56,
                "subtype": "noteOn"
            },
            {
                "deltaTime": 120,
                "channel": 0,
                "type": "channel",
                "noteNumber": 64,
                "velocity": 0,
                "subtype": "noteOff"
            },
            {
                "deltaTime": 0,
                "channel": 0,
                "type": "channel",
                "noteNumber": 67,
                "velocity": 60,
                "subtype": "noteOn"
            },
            {
                "deltaTime": 120,
                "channel": 0,
                "type": "channel",
                "noteNumber": 67,
                "velocity": 0,
                "subtype": "noteOff"
            },
            {
                "deltaTime": 0,
                "channel": 0,
                "type": "channel",
                "noteNumber": 72,
                "velocity": 63,
                "subtype": "noteOn"
            },
            {
                "deltaTime": 108,
                "channel": 0,
                "type": "channel",
                "noteNumber": 72,
                "velocity": 0,
                "subtype": "noteOff"
            },
            {
                "deltaTime": 11,
                "type": "meta",
                "subtype": "setTempo",
                "microsecondsPerBeat": 810811
            },
            {
                "deltaTime": 1,
                "channel": 0,
                "type": "channel",
                "noteNumber": 64,
                "velocity": 50,
                "subtype": "noteOn"
            },
            {
                "deltaTime": 120,
                "channel": 0,
                "type": "channel",
                "noteNumber": 64,
                "velocity": 0,
                "subtype": "noteOff"
            },
            {
                "deltaTime": 0,
                "channel": 0,
                "type": "channel",
                "noteNumber": 67,
                "velocity": 47,
                "subtype": "noteOn"
            },
            {
                "deltaTime": 120,
                "channel": 0,
                "type": "channel",
                "noteNumber": 67,
                "velocity": 0,
                "subtype": "noteOff"
            },
            {
                "deltaTime": 0,
                "channel": 0,
                "type": "channel",
                "noteNumber": 72,
                "velocity": 47,
                "subtype": "noteOn"
            },
            {
                "deltaTime": 119,
                "type": "meta",
                "subtype": "setTempo",
                "microsecondsPerBeat": 794702
            },
            {
                "deltaTime": 1,
                "channel": 0,
                "type": "channel",
                "noteNumber": 72,
                "velocity": 0,
                "subtype": "noteOff"
            },
            {
                "deltaTime": 0,
                "channel": 0,
                "type": "channel",
                "noteNumber": 60,
                "velocity": 0,
                "subtype": "noteOff"
            },
            {
                "deltaTime": 0,
                "channel": 0,
                "type": "channel",
                "noteNumber": 57,
                "velocity": 0,
                "subtype": "noteOff"
            },
            {
                "deltaTime": 0,
                "channel": 0,
                "type": "channel",
                "noteNumber": 57,
                "velocity": 62,
                "subtype": "noteOn"
            },
            {
                "deltaTime": 120,
                "channel": 0,
                "type": "channel",
                "noteNumber": 60,
                "velocity": 57,
                "subtype": "noteOn"
            },
            {
                "deltaTime": 120,
                "channel": 0,
                "type": "channel",
                "noteNumber": 64,
                "velocity": 56,
                "subtype": "noteOn"
            },
            {
                "deltaTime": 120,
                "channel": 0,
                "type": "channel",
                "noteNumber": 64,
                "velocity": 0,
                "subtype": "noteOff"
            },
            {
                "deltaTime": 0,
                "channel": 0,
                "type": "channel",
                "noteNumber": 67,
                "velocity": 60,
                "subtype": "noteOn"
            },
            {
                "deltaTime": 120,
                "channel": 0,
                "type": "channel",
                "noteNumber": 67,
                "velocity": 0,
                "subtype": "noteOff"
            },
            {
                "deltaTime": 0,
                "channel": 0,
                "type": "channel",
                "noteNumber": 72,
                "velocity": 62,
                "subtype": "noteOn"
            },
            {
                "deltaTime": 108,
                "channel": 0,
                "type": "channel",
                "noteNumber": 72,
                "velocity": 0,
                "subtype": "noteOff"
            },
            {
                "deltaTime": 11,
                "type": "meta",
                "subtype": "setTempo",
                "microsecondsPerBeat": 816327
            },
            {
                "deltaTime": 1,
                "channel": 0,
                "type": "channel",
                "noteNumber": 64,
                "velocity": 50,
                "subtype": "noteOn"
            },
            {
                "deltaTime": 120,
                "channel": 0,
                "type": "channel",
                "noteNumber": 64,
                "velocity": 0,
                "subtype": "noteOff"
            },
            {
                "deltaTime": 0,
                "channel": 0,
                "type": "channel",
                "noteNumber": 67,
                "velocity": 48,
                "subtype": "noteOn"
            },
            {
                "deltaTime": 119,
                "type": "meta",
                "subtype": "setTempo",
                "microsecondsPerBeat": 875912
            },
            {
                "deltaTime": 1,
                "channel": 0,
                "type": "channel",
                "noteNumber": 67,
                "velocity": 0,
                "subtype": "noteOff"
            },
            {
                "deltaTime": 0,
                "channel": 0,
                "type": "channel",
                "noteNumber": 72,
                "velocity": 48,
                "subtype": "noteOn"
            },
            {
                "deltaTime": 119,
                "type": "meta",
                "subtype": "setTempo",
                "microsecondsPerBeat": 816327
            },
            {
                "deltaTime": 0,
                "channel": 0,
                "type": "channel",
                "subtype": "controller",
                "controllerType": 91,
                "value": 127
            },
            {
                "deltaTime": 0,
                "channel": 0,
                "type": "channel",
                "subtype": "controller",
                "controllerType": 91,
                "value": 127
            },
            {
                "deltaTime": 1,
                "channel": 0,
                "type": "channel",
                "noteNumber": 72,
                "velocity": 0,
                "subtype": "noteOff"
            },
            {
                "deltaTime": 0,
                "channel": 0,
                "type": "channel",
                "noteNumber": 60,
                "velocity": 0,
                "subtype": "noteOff"
            },
            {
                "deltaTime": 0,
                "channel": 0,
                "type": "channel",
                "noteNumber": 57,
                "velocity": 0,
                "subtype": "noteOff"
            },
            {
                "deltaTime": 0,
                "channel": 0,
                "type": "channel",
                "noteNumber": 50,
                "velocity": 61,
                "subtype": "noteOn"
            },
            {
                "deltaTime": 9,
                "channel": 0,
                "type": "channel",
                "subtype": "controller",
                "controllerType": 64,
                "value": 0
            },
            {
                "deltaTime": 70,
                "channel": 0,
                "type": "channel",
                "subtype": "controller",
                "controllerType": 64,
                "value": 127
            },
            {
                "deltaTime": 41,
                "channel": 0,
                "type": "channel",
                "noteNumber": 57,
                "velocity": 57,
                "subtype": "noteOn"
            },
            {
                "deltaTime": 120,
                "channel": 0,
                "type": "channel",
                "noteNumber": 62,
                "velocity": 56,
                "subtype": "noteOn"
            },
            {
                "deltaTime": 119,
                "type": "meta",
                "subtype": "setTempo",
                "microsecondsPerBeat": 800000
            },
            {
                "deltaTime": 1,
                "channel": 0,
                "type": "channel",
                "noteNumber": 62,
                "velocity": 0,
                "subtype": "noteOff"
            },
            {
                "deltaTime": 0,
                "channel": 0,
                "type": "channel",
                "noteNumber": 66,
                "velocity": 60,
                "subtype": "noteOn"
            },
            {
                "deltaTime": 120,
                "channel": 0,
                "type": "channel",
                "noteNumber": 66,
                "velocity": 0,
                "subtype": "noteOff"
            },
            {
                "deltaTime": 0,
                "channel": 0,
                "type": "channel",
                "noteNumber": 72,
                "velocity": 63,
                "subtype": "noteOn"
            },
            {
                "deltaTime": 108,
                "channel": 0,
                "type": "channel",
                "noteNumber": 72,
                "velocity": 0,
                "subtype": "noteOff"
            },
            {
                "deltaTime": 12,
                "channel": 0,
                "type": "channel",
                "noteNumber": 62,
                "velocity": 50,
                "subtype": "noteOn"
            },
            {
                "deltaTime": 120,
                "channel": 0,
                "type": "channel",
                "noteNumber": 62,
                "velocity": 0,
                "subtype": "noteOff"
            },
            {
                "deltaTime": 0,
                "channel": 0,
                "type": "channel",
                "noteNumber": 66,
                "velocity": 47,
                "subtype": "noteOn"
            },
            {
                "deltaTime": 120,
                "channel": 0,
                "type": "channel",
                "noteNumber": 66,
                "velocity": 0,
                "subtype": "noteOff"
            },
            {
                "deltaTime": 0,
                "channel": 0,
                "type": "channel",
                "noteNumber": 72,
                "velocity": 47,
                "subtype": "noteOn"
            },
            {
                "deltaTime": 119,
                "type": "meta",
                "subtype": "setTempo",
                "microsecondsPerBeat": 816327
            },
            {
                "deltaTime": 1,
                "channel": 0,
                "type": "channel",
                "noteNumber": 72,
                "velocity": 0,
                "subtype": "noteOff"
            },
            {
                "deltaTime": 0,
                "channel": 0,
                "type": "channel",
                "noteNumber": 57,
                "velocity": 0,
                "subtype": "noteOff"
            },
            {
                "deltaTime": 0,
                "channel": 0,
                "type": "channel",
                "noteNumber": 50,
                "velocity": 0,
                "subtype": "noteOff"
            },
            {
                "deltaTime": 0,
                "channel": 0,
                "type": "channel",
                "noteNumber": 50,
                "velocity": 62,
                "subtype": "noteOn"
            },
            {
                "deltaTime": 120,
                "channel": 0,
                "type": "channel",
                "noteNumber": 57,
                "velocity": 57,
                "subtype": "noteOn"
            },
            {
                "deltaTime": 120,
                "channel": 0,
                "type": "channel",
                "noteNumber": 62,
                "velocity": 56,
                "subtype": "noteOn"
            },
            {
                "deltaTime": 119,
                "type": "meta",
                "subtype": "setTempo",
                "microsecondsPerBeat": 794702
            },
            {
                "deltaTime": 1,
                "channel": 0,
                "type": "channel",
                "noteNumber": 62,
                "velocity": 0,
                "subtype": "noteOff"
            },
            {
                "deltaTime": 0,
                "channel": 0,
                "type": "channel",
                "noteNumber": 66,
                "velocity": 60,
                "subtype": "noteOn"
            },
            {
                "deltaTime": 120,
                "channel": 0,
                "type": "channel",
                "noteNumber": 66,
                "velocity": 0,
                "subtype": "noteOff"
            },
            {
                "deltaTime": 0,
                "channel": 0,
                "type": "channel",
                "noteNumber": 72,
                "velocity": 62,
                "subtype": "noteOn"
            },
            {
                "deltaTime": 108,
                "channel": 0,
                "type": "channel",
                "noteNumber": 72,
                "velocity": 0,
                "subtype": "noteOff"
            },
            {
                "deltaTime": 12,
                "channel": 0,
                "type": "channel",
                "noteNumber": 62,
                "velocity": 50,
                "subtype": "noteOn"
            },
            {
                "deltaTime": 120,
                "channel": 0,
                "type": "channel",
                "noteNumber": 62,
                "velocity": 0,
                "subtype": "noteOff"
            },
            {
                "deltaTime": 0,
                "channel": 0,
                "type": "channel",
                "noteNumber": 66,
                "velocity": 48,
                "subtype": "noteOn"
            },
            {
                "deltaTime": 119,
                "type": "meta",
                "subtype": "setTempo",
                "microsecondsPerBeat": 827586
            },
            {
                "deltaTime": 1,
                "channel": 0,
                "type": "channel",
                "noteNumber": 66,
                "velocity": 0,
                "subtype": "noteOff"
            },
            {
                "deltaTime": 0,
                "channel": 0,
                "type": "channel",
                "noteNumber": 72,
                "velocity": 48,
                "subtype": "noteOn"
            },
            {
                "deltaTime": 119,
                "type": "meta",
                "subtype": "setTempo",
                "microsecondsPerBeat": 794702
            },
            {
                "deltaTime": 0,
                "channel": 0,
                "type": "channel",
                "subtype": "controller",
                "controllerType": 91,
                "value": 127
            },
            {
                "deltaTime": 0,
                "channel": 0,
                "type": "channel",
                "subtype": "controller",
                "controllerType": 91,
                "value": 127
            },
            {
                "deltaTime": 1,
                "channel": 0,
                "type": "channel",
                "noteNumber": 72,
                "velocity": 0,
                "subtype": "noteOff"
            },
            {
                "deltaTime": 0,
                "channel": 0,
                "type": "channel",
                "noteNumber": 57,
                "velocity": 0,
                "subtype": "noteOff"
            },
            {
                "deltaTime": 0,
                "channel": 0,
                "type": "channel",
                "noteNumber": 50,
                "velocity": 0,
                "subtype": "noteOff"
            },
            {
                "deltaTime": 0,
                "channel": 0,
                "type": "channel",
                "noteNumber": 55,
                "velocity": 57,
                "subtype": "noteOn"
            },
            {
                "deltaTime": 8,
                "channel": 0,
                "type": "channel",
                "subtype": "controller",
                "controllerType": 64,
                "value": 0
            },
            {
                "deltaTime": 90,
                "channel": 0,
                "type": "channel",
                "subtype": "controller",
                "controllerType": 64,
                "value": 127
            },
            {
                "deltaTime": 22,
                "channel": 0,
                "type": "channel",
                "noteNumber": 59,
                "velocity": 55,
                "subtype": "noteOn"
            },
            {
                "deltaTime": 120,
                "channel": 0,
                "type": "channel",
                "noteNumber": 62,
                "velocity": 53,
                "subtype": "noteOn"
            },
            {
                "deltaTime": 120,
                "channel": 0,
                "type": "channel",
                "noteNumber": 62,
                "velocity": 0,
                "subtype": "noteOff"
            },
            {
                "deltaTime": 0,
                "channel": 0,
                "type": "channel",
                "noteNumber": 67,
                "velocity": 56,
                "subtype": "noteOn"
            },
            {
                "deltaTime": 119,
                "type": "meta",
                "subtype": "setTempo",
                "microsecondsPerBeat": 784314
            },
            {
                "deltaTime": 1,
                "channel": 0,
                "type": "channel",
                "noteNumber": 67,
                "velocity": 0,
                "subtype": "noteOff"
            },
            {
                "deltaTime": 0,
                "channel": 0,
                "type": "channel",
                "noteNumber": 71,
                "velocity": 60,
                "subtype": "noteOn"
            },
            {
                "deltaTime": 108,
                "channel": 0,
                "type": "channel",
                "noteNumber": 71,
                "velocity": 0,
                "subtype": "noteOff"
            },
            {
                "deltaTime": 12,
                "channel": 0,
                "type": "channel",
                "noteNumber": 62,
                "velocity": 46,
                "subtype": "noteOn"
            },
            {
                "deltaTime": 120,
                "channel": 0,
                "type": "channel",
                "noteNumber": 62,
                "velocity": 0,
                "subtype": "noteOff"
            },
            {
                "deltaTime": 0,
                "channel": 0,
                "type": "channel",
                "noteNumber": 67,
                "velocity": 45,
                "subtype": "noteOn"
            },
            {
                "deltaTime": 120,
                "channel": 0,
                "type": "channel",
                "noteNumber": 67,
                "velocity": 0,
                "subtype": "noteOff"
            },
            {
                "deltaTime": 0,
                "channel": 0,
                "type": "channel",
                "noteNumber": 71,
                "velocity": 45,
                "subtype": "noteOn"
            },
            {
                "deltaTime": 119,
                "type": "meta",
                "subtype": "setTempo",
                "microsecondsPerBeat": 794702
            },
            {
                "deltaTime": 1,
                "channel": 0,
                "type": "channel",
                "noteNumber": 71,
                "velocity": 0,
                "subtype": "noteOff"
            },
            {
                "deltaTime": 0,
                "channel": 0,
                "type": "channel",
                "noteNumber": 59,
                "velocity": 0,
                "subtype": "noteOff"
            },
            {
                "deltaTime": 0,
                "channel": 0,
                "type": "channel",
                "noteNumber": 55,
                "velocity": 0,
                "subtype": "noteOff"
            },
            {
                "deltaTime": 0,
                "channel": 0,
                "type": "channel",
                "noteNumber": 55,
                "velocity": 58,
                "subtype": "noteOn"
            },
            {
                "deltaTime": 120,
                "channel": 0,
                "type": "channel",
                "noteNumber": 59,
                "velocity": 55,
                "subtype": "noteOn"
            },
            {
                "deltaTime": 120,
                "channel": 0,
                "type": "channel",
                "noteNumber": 62,
                "velocity": 53,
                "subtype": "noteOn"
            },
            {
                "deltaTime": 120,
                "channel": 0,
                "type": "channel",
                "noteNumber": 62,
                "velocity": 0,
                "subtype": "noteOff"
            },
            {
                "deltaTime": 0,
                "channel": 0,
                "type": "channel",
                "noteNumber": 67,
                "velocity": 56,
                "subtype": "noteOn"
            },
            {
                "deltaTime": 119,
                "type": "meta",
                "subtype": "setTempo",
                "microsecondsPerBeat": 779221
            },
            {
                "deltaTime": 1,
                "channel": 0,
                "type": "channel",
                "noteNumber": 67,
                "velocity": 0,
                "subtype": "noteOff"
            },
            {
                "deltaTime": 0,
                "channel": 0,
                "type": "channel",
                "noteNumber": 71,
                "velocity": 58,
                "subtype": "noteOn"
            },
            {
                "deltaTime": 108,
                "channel": 0,
                "type": "channel",
                "noteNumber": 71,
                "velocity": 0,
                "subtype": "noteOff"
            },
            {
                "deltaTime": 12,
                "channel": 0,
                "type": "channel",
                "noteNumber": 62,
                "velocity": 47,
                "subtype": "noteOn"
            },
            {
                "deltaTime": 120,
                "channel": 0,
                "type": "channel",
                "noteNumber": 62,
                "velocity": 0,
                "subtype": "noteOff"
            },
            {
                "deltaTime": 0,
                "channel": 0,
                "type": "channel",
                "noteNumber": 67,
                "velocity": 45,
                "subtype": "noteOn"
            },
            {
                "deltaTime": 120,
                "channel": 0,
                "type": "channel",
                "noteNumber": 67,
                "velocity": 0,
                "subtype": "noteOff"
            },
            {
                "deltaTime": 0,
                "channel": 0,
                "type": "channel",
                "noteNumber": 71,
                "velocity": 45,
                "subtype": "noteOn"
            },
            {
                "deltaTime": 19,
                "type": "meta",
                "subtype": "setTempo",
                "microsecondsPerBeat": 810811
            },
            {
                "deltaTime": 100,
                "type": "meta",
                "subtype": "setTempo",
                "microsecondsPerBeat": 794702
            },
            {
                "deltaTime": 0,
                "channel": 0,
                "type": "channel",
                "subtype": "controller",
                "controllerType": 91,
                "value": 127
            },
            {
                "deltaTime": 0,
                "channel": 0,
                "type": "channel",
                "subtype": "controller",
                "controllerType": 91,
                "value": 127
            },
            {
                "deltaTime": 1,
                "channel": 0,
                "type": "channel",
                "noteNumber": 71,
                "velocity": 0,
                "subtype": "noteOff"
            },
            {
                "deltaTime": 0,
                "channel": 0,
                "type": "channel",
                "noteNumber": 59,
                "velocity": 0,
                "subtype": "noteOff"
            },
            {
                "deltaTime": 0,
                "channel": 0,
                "type": "channel",
                "noteNumber": 55,
                "velocity": 0,
                "subtype": "noteOff"
            },
            {
                "deltaTime": 0,
                "channel": 0,
                "type": "channel",
                "noteNumber": 55,
                "velocity": 57,
                "subtype": "noteOn"
            },
            {
                "deltaTime": 6,
                "channel": 0,
                "type": "channel",
                "subtype": "controller",
                "controllerType": 64,
                "value": 0
            },
            {
                "deltaTime": 84,
                "channel": 0,
                "type": "channel",
                "subtype": "controller",
                "controllerType": 64,
                "value": 127
            },
            {
                "deltaTime": 30,
                "channel": 0,
                "type": "channel",
                "noteNumber": 58,
                "velocity": 55,
                "subtype": "noteOn"
            },
            {
                "deltaTime": 120,
                "channel": 0,
                "type": "channel",
                "noteNumber": 64,
                "velocity": 53,
                "subtype": "noteOn"
            },
            {
                "deltaTime": 120,
                "channel": 0,
                "type": "channel",
                "noteNumber": 64,
                "velocity": 0,
                "subtype": "noteOff"
            },
            {
                "deltaTime": 0,
                "channel": 0,
                "type": "channel",
                "noteNumber": 67,
                "velocity": 56,
                "subtype": "noteOn"
            },
            {
                "deltaTime": 119,
                "type": "meta",
                "subtype": "setTempo",
                "microsecondsPerBeat": 779221
            },
            {
                "deltaTime": 1,
                "channel": 0,
                "type": "channel",
                "noteNumber": 67,
                "velocity": 0,
                "subtype": "noteOff"
            },
            {
                "deltaTime": 0,
                "channel": 0,
                "type": "channel",
                "noteNumber": 73,
                "velocity": 60,
                "subtype": "noteOn"
            },
            {
                "deltaTime": 108,
                "channel": 0,
                "type": "channel",
                "noteNumber": 73,
                "velocity": 0,
                "subtype": "noteOff"
            },
            {
                "deltaTime": 12,
                "channel": 0,
                "type": "channel",
                "noteNumber": 64,
                "velocity": 46,
                "subtype": "noteOn"
            },
            {
                "deltaTime": 120,
                "channel": 0,
                "type": "channel",
                "noteNumber": 64,
                "velocity": 0,
                "subtype": "noteOff"
            },
            {
                "deltaTime": 0,
                "channel": 0,
                "type": "channel",
                "noteNumber": 67,
                "velocity": 45,
                "subtype": "noteOn"
            },
            {
                "deltaTime": 119,
                "type": "meta",
                "subtype": "setTempo",
                "microsecondsPerBeat": 827586
            },
            {
                "deltaTime": 1,
                "channel": 0,
                "type": "channel",
                "noteNumber": 67,
                "velocity": 0,
                "subtype": "noteOff"
            },
            {
                "deltaTime": 0,
                "channel": 0,
                "type": "channel",
                "noteNumber": 73,
                "velocity": 45,
                "subtype": "noteOn"
            },
            {
                "deltaTime": 119,
                "type": "meta",
                "subtype": "setTempo",
                "microsecondsPerBeat": 794702
            },
            {
                "deltaTime": 1,
                "channel": 0,
                "type": "channel",
                "noteNumber": 73,
                "velocity": 0,
                "subtype": "noteOff"
            },
            {
                "deltaTime": 0,
                "channel": 0,
                "type": "channel",
                "noteNumber": 58,
                "velocity": 0,
                "subtype": "noteOff"
            },
            {
                "deltaTime": 0,
                "channel": 0,
                "type": "channel",
                "noteNumber": 55,
                "velocity": 0,
                "subtype": "noteOff"
            },
            {
                "deltaTime": 0,
                "channel": 0,
                "type": "channel",
                "noteNumber": 55,
                "velocity": 58,
                "subtype": "noteOn"
            },
            {
                "deltaTime": 120,
                "channel": 0,
                "type": "channel",
                "noteNumber": 58,
                "velocity": 55,
                "subtype": "noteOn"
            },
            {
                "deltaTime": 120,
                "channel": 0,
                "type": "channel",
                "noteNumber": 64,
                "velocity": 53,
                "subtype": "noteOn"
            },
            {
                "deltaTime": 120,
                "channel": 0,
                "type": "channel",
                "noteNumber": 64,
                "velocity": 0,
                "subtype": "noteOff"
            },
            {
                "deltaTime": 0,
                "channel": 0,
                "type": "channel",
                "noteNumber": 67,
                "velocity": 56,
                "subtype": "noteOn"
            },
            {
                "deltaTime": 120,
                "channel": 0,
                "type": "channel",
                "noteNumber": 67,
                "velocity": 0,
                "subtype": "noteOff"
            },
            {
                "deltaTime": 0,
                "channel": 0,
                "type": "channel",
                "noteNumber": 73,
                "velocity": 58,
                "subtype": "noteOn"
            },
            {
                "deltaTime": 19,
                "type": "meta",
                "subtype": "setTempo",
                "microsecondsPerBeat": 784314
            },
            {
                "deltaTime": 89,
                "channel": 0,
                "type": "channel",
                "noteNumber": 73,
                "velocity": 0,
                "subtype": "noteOff"
            },
            {
                "deltaTime": 12,
                "channel": 0,
                "type": "channel",
                "noteNumber": 64,
                "velocity": 47,
                "subtype": "noteOn"
            },
            {
                "deltaTime": 120,
                "channel": 0,
                "type": "channel",
                "noteNumber": 64,
                "velocity": 0,
                "subtype": "noteOff"
            },
            {
                "deltaTime": 0,
                "channel": 0,
                "type": "channel",
                "noteNumber": 67,
                "velocity": 45,
                "subtype": "noteOn"
            },
            {
                "deltaTime": 119,
                "type": "meta",
                "subtype": "setTempo",
                "microsecondsPerBeat": 821918
            },
            {
                "deltaTime": 1,
                "channel": 0,
                "type": "channel",
                "noteNumber": 67,
                "velocity": 0,
                "subtype": "noteOff"
            },
            {
                "deltaTime": 0,
                "channel": 0,
                "type": "channel",
                "noteNumber": 73,
                "velocity": 45,
                "subtype": "noteOn"
            },
            {
                "deltaTime": 119,
                "type": "meta",
                "subtype": "setTempo",
                "microsecondsPerBeat": 833333
            },
            {
                "deltaTime": 0,
                "channel": 0,
                "type": "channel",
                "subtype": "controller",
                "controllerType": 91,
                "value": 127
            },
            {
                "deltaTime": 0,
                "channel": 0,
                "type": "channel",
                "subtype": "controller",
                "controllerType": 91,
                "value": 127
            },
            {
                "deltaTime": 1,
                "channel": 0,
                "type": "channel",
                "noteNumber": 73,
                "velocity": 0,
                "subtype": "noteOff"
            },
            {
                "deltaTime": 0,
                "channel": 0,
                "type": "channel",
                "noteNumber": 58,
                "velocity": 0,
                "subtype": "noteOff"
            },
            {
                "deltaTime": 0,
                "channel": 0,
                "type": "channel",
                "noteNumber": 55,
                "velocity": 0,
                "subtype": "noteOff"
            },
            {
                "deltaTime": 0,
                "channel": 0,
                "type": "channel",
                "noteNumber": 53,
                "velocity": 61,
                "subtype": "noteOn"
            },
            {
                "deltaTime": 12,
                "channel": 0,
                "type": "channel",
                "subtype": "controller",
                "controllerType": 64,
                "value": 0
            },
            {
                "deltaTime": 107,
                "type": "meta",
                "subtype": "setTempo",
                "microsecondsPerBeat": 794702
            },
            {
                "deltaTime": 1,
                "channel": 0,
                "type": "channel",
                "noteNumber": 57,
                "velocity": 57,
                "subtype": "noteOn"
            },
            {
                "deltaTime": 20,
                "channel": 0,
                "type": "channel",
                "subtype": "controller",
                "controllerType": 64,
                "value": 127
            },
            {
                "deltaTime": 100,
                "channel": 0,
                "type": "channel",
                "noteNumber": 62,
                "velocity": 56,
                "subtype": "noteOn"
            },
            {
                "deltaTime": 120,
                "channel": 0,
                "type": "channel",
                "noteNumber": 62,
                "velocity": 0,
                "subtype": "noteOff"
            },
            {
                "deltaTime": 0,
                "channel": 0,
                "type": "channel",
                "noteNumber": 69,
                "velocity": 60,
                "subtype": "noteOn"
            },
            {
                "deltaTime": 119,
                "type": "meta",
                "subtype": "setTempo",
                "microsecondsPerBeat": 784314
            },
            {
                "deltaTime": 1,
                "channel": 0,
                "type": "channel",
                "noteNumber": 69,
                "velocity": 0,
                "subtype": "noteOff"
            },
            {
                "deltaTime": 0,
                "channel": 0,
                "type": "channel",
                "noteNumber": 74,
                "velocity": 63,
                "subtype": "noteOn"
            },
            {
                "deltaTime": 108,
                "channel": 0,
                "type": "channel",
                "noteNumber": 74,
                "velocity": 0,
                "subtype": "noteOff"
            },
            {
                "deltaTime": 12,
                "channel": 0,
                "type": "channel",
                "noteNumber": 62,
                "velocity": 50,
                "subtype": "noteOn"
            },
            {
                "deltaTime": 120,
                "channel": 0,
                "type": "channel",
                "noteNumber": 62,
                "velocity": 0,
                "subtype": "noteOff"
            },
            {
                "deltaTime": 0,
                "channel": 0,
                "type": "channel",
                "noteNumber": 69,
                "velocity": 47,
                "subtype": "noteOn"
            },
            {
                "deltaTime": 120,
                "channel": 0,
                "type": "channel",
                "noteNumber": 69,
                "velocity": 0,
                "subtype": "noteOff"
            },
            {
                "deltaTime": 0,
                "channel": 0,
                "type": "channel",
                "noteNumber": 74,
                "velocity": 47,
                "subtype": "noteOn"
            },
            {
                "deltaTime": 119,
                "type": "meta",
                "subtype": "setTempo",
                "microsecondsPerBeat": 794702
            },
            {
                "deltaTime": 1,
                "channel": 0,
                "type": "channel",
                "noteNumber": 74,
                "velocity": 0,
                "subtype": "noteOff"
            },
            {
                "deltaTime": 0,
                "channel": 0,
                "type": "channel",
                "noteNumber": 57,
                "velocity": 0,
                "subtype": "noteOff"
            },
            {
                "deltaTime": 0,
                "channel": 0,
                "type": "channel",
                "noteNumber": 53,
                "velocity": 0,
                "subtype": "noteOff"
            },
            {
                "deltaTime": 0,
                "channel": 0,
                "type": "channel",
                "noteNumber": 53,
                "velocity": 62,
                "subtype": "noteOn"
            },
            {
                "deltaTime": 120,
                "channel": 0,
                "type": "channel",
                "noteNumber": 57,
                "velocity": 57,
                "subtype": "noteOn"
            },
            {
                "deltaTime": 120,
                "channel": 0,
                "type": "channel",
                "noteNumber": 62,
                "velocity": 56,
                "subtype": "noteOn"
            },
            {
                "deltaTime": 120,
                "channel": 0,
                "type": "channel",
                "noteNumber": 62,
                "velocity": 0,
                "subtype": "noteOff"
            },
            {
                "deltaTime": 0,
                "channel": 0,
                "type": "channel",
                "noteNumber": 69,
                "velocity": 60,
                "subtype": "noteOn"
            },
            {
                "deltaTime": 119,
                "type": "meta",
                "subtype": "setTempo",
                "microsecondsPerBeat": 784314
            },
            {
                "deltaTime": 1,
                "channel": 0,
                "type": "channel",
                "noteNumber": 69,
                "velocity": 0,
                "subtype": "noteOff"
            },
            {
                "deltaTime": 0,
                "channel": 0,
                "type": "channel",
                "noteNumber": 74,
                "velocity": 62,
                "subtype": "noteOn"
            },
            {
                "deltaTime": 108,
                "channel": 0,
                "type": "channel",
                "noteNumber": 74,
                "velocity": 0,
                "subtype": "noteOff"
            },
            {
                "deltaTime": 12,
                "channel": 0,
                "type": "channel",
                "noteNumber": 62,
                "velocity": 50,
                "subtype": "noteOn"
            },
            {
                "deltaTime": 120,
                "channel": 0,
                "type": "channel",
                "noteNumber": 62,
                "velocity": 0,
                "subtype": "noteOff"
            },
            {
                "deltaTime": 0,
                "channel": 0,
                "type": "channel",
                "noteNumber": 69,
                "velocity": 48,
                "subtype": "noteOn"
            },
            {
                "deltaTime": 119,
                "type": "meta",
                "subtype": "setTempo",
                "microsecondsPerBeat": 833333
            },
            {
                "deltaTime": 1,
                "channel": 0,
                "type": "channel",
                "noteNumber": 69,
                "velocity": 0,
                "subtype": "noteOff"
            },
            {
                "deltaTime": 0,
                "channel": 0,
                "type": "channel",
                "noteNumber": 74,
                "velocity": 48,
                "subtype": "noteOn"
            },
            {
                "deltaTime": 119,
                "type": "meta",
                "subtype": "setTempo",
                "microsecondsPerBeat": 800000
            },
            {
                "deltaTime": 0,
                "channel": 0,
                "type": "channel",
                "subtype": "controller",
                "controllerType": 91,
                "value": 127
            },
            {
                "deltaTime": 0,
                "channel": 0,
                "type": "channel",
                "subtype": "controller",
                "controllerType": 91,
                "value": 127
            },
            {
                "deltaTime": 1,
                "channel": 0,
                "type": "channel",
                "noteNumber": 74,
                "velocity": 0,
                "subtype": "noteOff"
            },
            {
                "deltaTime": 0,
                "channel": 0,
                "type": "channel",
                "noteNumber": 57,
                "velocity": 0,
                "subtype": "noteOff"
            },
            {
                "deltaTime": 0,
                "channel": 0,
                "type": "channel",
                "noteNumber": 53,
                "velocity": 0,
                "subtype": "noteOff"
            },
            {
                "deltaTime": 0,
                "channel": 0,
                "type": "channel",
                "noteNumber": 53,
                "velocity": 57,
                "subtype": "noteOn"
            },
            {
                "deltaTime": 8,
                "channel": 0,
                "type": "channel",
                "subtype": "controller",
                "controllerType": 64,
                "value": 0
            },
            {
                "deltaTime": 112,
                "channel": 0,
                "type": "channel",
                "noteNumber": 56,
                "velocity": 55,
                "subtype": "noteOn"
            },
            {
                "deltaTime": 20,
                "channel": 0,
                "type": "channel",
                "subtype": "controller",
                "controllerType": 64,
                "value": 127
            },
            {
                "deltaTime": 100,
                "channel": 0,
                "type": "channel",
                "noteNumber": 62,
                "velocity": 53,
                "subtype": "noteOn"
            },
            {
                "deltaTime": 120,
                "channel": 0,
                "type": "channel",
                "noteNumber": 62,
                "velocity": 0,
                "subtype": "noteOff"
            },
            {
                "deltaTime": 0,
                "channel": 0,
                "type": "channel",
                "noteNumber": 65,
                "velocity": 56,
                "subtype": "noteOn"
            },
            {
                "deltaTime": 119,
                "type": "meta",
                "subtype": "setTempo",
                "microsecondsPerBeat": 784314
            },
            {
                "deltaTime": 1,
                "channel": 0,
                "type": "channel",
                "noteNumber": 65,
                "velocity": 0,
                "subtype": "noteOff"
            },
            {
                "deltaTime": 0,
                "channel": 0,
                "type": "channel",
                "noteNumber": 71,
                "velocity": 60,
                "subtype": "noteOn"
            },
            {
                "deltaTime": 108,
                "channel": 0,
                "type": "channel",
                "noteNumber": 71,
                "velocity": 0,
                "subtype": "noteOff"
            },
            {
                "deltaTime": 12,
                "channel": 0,
                "type": "channel",
                "noteNumber": 62,
                "velocity": 46,
                "subtype": "noteOn"
            },
            {
                "deltaTime": 120,
                "channel": 0,
                "type": "channel",
                "noteNumber": 62,
                "velocity": 0,
                "subtype": "noteOff"
            },
            {
                "deltaTime": 0,
                "channel": 0,
                "type": "channel",
                "noteNumber": 65,
                "velocity": 45,
                "subtype": "noteOn"
            },
            {
                "deltaTime": 120,
                "channel": 0,
                "type": "channel",
                "noteNumber": 65,
                "velocity": 0,
                "subtype": "noteOff"
            },
            {
                "deltaTime": 0,
                "channel": 0,
                "type": "channel",
                "noteNumber": 71,
                "velocity": 45,
                "subtype": "noteOn"
            },
            {
                "deltaTime": 119,
                "type": "meta",
                "subtype": "setTempo",
                "microsecondsPerBeat": 800000
            },
            {
                "deltaTime": 1,
                "channel": 0,
                "type": "channel",
                "noteNumber": 71,
                "velocity": 0,
                "subtype": "noteOff"
            },
            {
                "deltaTime": 0,
                "channel": 0,
                "type": "channel",
                "noteNumber": 56,
                "velocity": 0,
                "subtype": "noteOff"
            },
            {
                "deltaTime": 0,
                "channel": 0,
                "type": "channel",
                "noteNumber": 53,
                "velocity": 0,
                "subtype": "noteOff"
            },
            {
                "deltaTime": 0,
                "channel": 0,
                "type": "channel",
                "noteNumber": 53,
                "velocity": 58,
                "subtype": "noteOn"
            },
            {
                "deltaTime": 120,
                "channel": 0,
                "type": "channel",
                "noteNumber": 56,
                "velocity": 55,
                "subtype": "noteOn"
            },
            {
                "deltaTime": 120,
                "channel": 0,
                "type": "channel",
                "noteNumber": 62,
                "velocity": 53,
                "subtype": "noteOn"
            },
            {
                "deltaTime": 120,
                "channel": 0,
                "type": "channel",
                "noteNumber": 62,
                "velocity": 0,
                "subtype": "noteOff"
            },
            {
                "deltaTime": 0,
                "channel": 0,
                "type": "channel",
                "noteNumber": 65,
                "velocity": 56,
                "subtype": "noteOn"
            },
            {
                "deltaTime": 119,
                "type": "meta",
                "subtype": "setTempo",
                "microsecondsPerBeat": 784314
            },
            {
                "deltaTime": 1,
                "channel": 0,
                "type": "channel",
                "noteNumber": 65,
                "velocity": 0,
                "subtype": "noteOff"
            },
            {
                "deltaTime": 0,
                "channel": 0,
                "type": "channel",
                "noteNumber": 71,
                "velocity": 58,
                "subtype": "noteOn"
            },
            {
                "deltaTime": 108,
                "channel": 0,
                "type": "channel",
                "noteNumber": 71,
                "velocity": 0,
                "subtype": "noteOff"
            },
            {
                "deltaTime": 12,
                "channel": 0,
                "type": "channel",
                "noteNumber": 62,
                "velocity": 47,
                "subtype": "noteOn"
            },
            {
                "deltaTime": 120,
                "channel": 0,
                "type": "channel",
                "noteNumber": 62,
                "velocity": 0,
                "subtype": "noteOff"
            },
            {
                "deltaTime": 0,
                "channel": 0,
                "type": "channel",
                "noteNumber": 65,
                "velocity": 45,
                "subtype": "noteOn"
            },
            {
                "deltaTime": 119,
                "type": "meta",
                "subtype": "setTempo",
                "microsecondsPerBeat": 821918
            },
            {
                "deltaTime": 1,
                "channel": 0,
                "type": "channel",
                "noteNumber": 65,
                "velocity": 0,
                "subtype": "noteOff"
            },
            {
                "deltaTime": 0,
                "channel": 0,
                "type": "channel",
                "noteNumber": 71,
                "velocity": 45,
                "subtype": "noteOn"
            },
            {
                "deltaTime": 119,
                "type": "meta",
                "subtype": "setTempo",
                "microsecondsPerBeat": 800000
            },
            {
                "deltaTime": 0,
                "channel": 0,
                "type": "channel",
                "subtype": "controller",
                "controllerType": 91,
                "value": 127
            },
            {
                "deltaTime": 0,
                "channel": 0,
                "type": "channel",
                "subtype": "controller",
                "controllerType": 91,
                "value": 127
            },
            {
                "deltaTime": 1,
                "channel": 0,
                "type": "channel",
                "noteNumber": 71,
                "velocity": 0,
                "subtype": "noteOff"
            },
            {
                "deltaTime": 0,
                "channel": 0,
                "type": "channel",
                "noteNumber": 56,
                "velocity": 0,
                "subtype": "noteOff"
            },
            {
                "deltaTime": 0,
                "channel": 0,
                "type": "channel",
                "noteNumber": 53,
                "velocity": 0,
                "subtype": "noteOff"
            },
            {
                "deltaTime": 0,
                "channel": 0,
                "type": "channel",
                "noteNumber": 52,
                "velocity": 57,
                "subtype": "noteOn"
            },
            {
                "deltaTime": 13,
                "channel": 0,
                "type": "channel",
                "subtype": "controller",
                "controllerType": 64,
                "value": 0
            },
            {
                "deltaTime": 107,
                "channel": 0,
                "type": "channel",
                "noteNumber": 55,
                "velocity": 55,
                "subtype": "noteOn"
            },
            {
                "deltaTime": 27,
                "channel": 0,
                "type": "channel",
                "subtype": "controller",
                "controllerType": 64,
                "value": 127
            },
            {
                "deltaTime": 93,
                "channel": 0,
                "type": "channel",
                "noteNumber": 60,
                "velocity": 53,
                "subtype": "noteOn"
            },
            {
                "deltaTime": 119,
                "type": "meta",
                "subtype": "setTempo",
                "microsecondsPerBeat": 794702
            },
            {
                "deltaTime": 1,
                "channel": 0,
                "type": "channel",
                "noteNumber": 60,
                "velocity": 0,
                "subtype": "noteOff"
            },
            {
                "deltaTime": 0,
                "channel": 0,
                "type": "channel",
                "noteNumber": 67,
                "velocity": 56,
                "subtype": "noteOn"
            },
            {
                "deltaTime": 119,
                "type": "meta",
                "subtype": "setTempo",
                "microsecondsPerBeat": 774194
            },
            {
                "deltaTime": 1,
                "channel": 0,
                "type": "channel",
                "noteNumber": 67,
                "velocity": 0,
                "subtype": "noteOff"
            },
            {
                "deltaTime": 0,
                "channel": 0,
                "type": "channel",
                "noteNumber": 72,
                "velocity": 60,
                "subtype": "noteOn"
            },
            {
                "deltaTime": 108,
                "channel": 0,
                "type": "channel",
                "noteNumber": 72,
                "velocity": 0,
                "subtype": "noteOff"
            },
            {
                "deltaTime": 12,
                "channel": 0,
                "type": "channel",
                "noteNumber": 60,
                "velocity": 46,
                "subtype": "noteOn"
            },
            {
                "deltaTime": 120,
                "channel": 0,
                "type": "channel",
                "noteNumber": 60,
                "velocity": 0,
                "subtype": "noteOff"
            },
            {
                "deltaTime": 0,
                "channel": 0,
                "type": "channel",
                "noteNumber": 67,
                "velocity": 45,
                "subtype": "noteOn"
            },
            {
                "deltaTime": 120,
                "channel": 0,
                "type": "channel",
                "noteNumber": 67,
                "velocity": 0,
                "subtype": "noteOff"
            },
            {
                "deltaTime": 0,
                "channel": 0,
                "type": "channel",
                "noteNumber": 72,
                "velocity": 45,
                "subtype": "noteOn"
            },
            {
                "deltaTime": 119,
                "type": "meta",
                "subtype": "setTempo",
                "microsecondsPerBeat": 794702
            },
            {
                "deltaTime": 1,
                "channel": 0,
                "type": "channel",
                "noteNumber": 72,
                "velocity": 0,
                "subtype": "noteOff"
            },
            {
                "deltaTime": 0,
                "channel": 0,
                "type": "channel",
                "noteNumber": 55,
                "velocity": 0,
                "subtype": "noteOff"
            },
            {
                "deltaTime": 0,
                "channel": 0,
                "type": "channel",
                "noteNumber": 52,
                "velocity": 0,
                "subtype": "noteOff"
            },
            {
                "deltaTime": 0,
                "channel": 0,
                "type": "channel",
                "noteNumber": 52,
                "velocity": 58,
                "subtype": "noteOn"
            },
            {
                "deltaTime": 120,
                "channel": 0,
                "type": "channel",
                "noteNumber": 55,
                "velocity": 55,
                "subtype": "noteOn"
            },
            {
                "deltaTime": 120,
                "channel": 0,
                "type": "channel",
                "noteNumber": 60,
                "velocity": 53,
                "subtype": "noteOn"
            },
            {
                "deltaTime": 120,
                "channel": 0,
                "type": "channel",
                "noteNumber": 60,
                "velocity": 0,
                "subtype": "noteOff"
            },
            {
                "deltaTime": 0,
                "channel": 0,
                "type": "channel",
                "noteNumber": 67,
                "velocity": 56,
                "subtype": "noteOn"
            },
            {
                "deltaTime": 119,
                "type": "meta",
                "subtype": "setTempo",
                "microsecondsPerBeat": 779221
            },
            {
                "deltaTime": 1,
                "channel": 0,
                "type": "channel",
                "noteNumber": 67,
                "velocity": 0,
                "subtype": "noteOff"
            },
            {
                "deltaTime": 0,
                "channel": 0,
                "type": "channel",
                "noteNumber": 72,
                "velocity": 58,
                "subtype": "noteOn"
            },
            {
                "deltaTime": 108,
                "channel": 0,
                "type": "channel",
                "noteNumber": 72,
                "velocity": 0,
                "subtype": "noteOff"
            },
            {
                "deltaTime": 12,
                "channel": 0,
                "type": "channel",
                "noteNumber": 60,
                "velocity": 47,
                "subtype": "noteOn"
            },
            {
                "deltaTime": 120,
                "channel": 0,
                "type": "channel",
                "noteNumber": 60,
                "velocity": 0,
                "subtype": "noteOff"
            },
            {
                "deltaTime": 0,
                "channel": 0,
                "type": "channel",
                "noteNumber": 67,
                "velocity": 45,
                "subtype": "noteOn"
            },
            {
                "deltaTime": 119,
                "type": "meta",
                "subtype": "setTempo",
                "microsecondsPerBeat": 845070
            },
            {
                "deltaTime": 1,
                "channel": 0,
                "type": "channel",
                "noteNumber": 67,
                "velocity": 0,
                "subtype": "noteOff"
            },
            {
                "deltaTime": 0,
                "channel": 0,
                "type": "channel",
                "noteNumber": 72,
                "velocity": 45,
                "subtype": "noteOn"
            },
            {
                "deltaTime": 119,
                "type": "meta",
                "subtype": "setTempo",
                "microsecondsPerBeat": 805369
            },
            {
                "deltaTime": 0,
                "channel": 0,
                "type": "channel",
                "subtype": "controller",
                "controllerType": 91,
                "value": 127
            },
            {
                "deltaTime": 0,
                "channel": 0,
                "type": "channel",
                "subtype": "controller",
                "controllerType": 91,
                "value": 127
            },
            {
                "deltaTime": 1,
                "channel": 0,
                "type": "channel",
                "noteNumber": 72,
                "velocity": 0,
                "subtype": "noteOff"
            },
            {
                "deltaTime": 0,
                "channel": 0,
                "type": "channel",
                "noteNumber": 55,
                "velocity": 0,
                "subtype": "noteOff"
            },
            {
                "deltaTime": 0,
                "channel": 0,
                "type": "channel",
                "noteNumber": 52,
                "velocity": 0,
                "subtype": "noteOff"
            },
            {
                "deltaTime": 0,
                "channel": 0,
                "type": "channel",
                "noteNumber": 52,
                "velocity": 55,
                "subtype": "noteOn"
            },
            {
                "deltaTime": 9,
                "channel": 0,
                "type": "channel",
                "subtype": "controller",
                "controllerType": 64,
                "value": 0
            },
            {
                "deltaTime": 111,
                "channel": 0,
                "type": "channel",
                "noteNumber": 53,
                "velocity": 51,
                "subtype": "noteOn"
            },
            {
                "deltaTime": 55,
                "channel": 0,
                "type": "channel",
                "subtype": "controller",
                "controllerType": 64,
                "value": 127
            },
            {
                "deltaTime": 65,
                "channel": 0,
                "type": "channel",
                "noteNumber": 57,
                "velocity": 50,
                "subtype": "noteOn"
            },
            {
                "deltaTime": 120,
                "channel": 0,
                "type": "channel",
                "noteNumber": 57,
                "velocity": 0,
                "subtype": "noteOff"
            },
            {
                "deltaTime": 0,
                "channel": 0,
                "type": "channel",
                "noteNumber": 60,
                "velocity": 53,
                "subtype": "noteOn"
            },
            {
                "deltaTime": 119,
                "type": "meta",
                "subtype": "setTempo",
                "microsecondsPerBeat": 784314
            },
            {
                "deltaTime": 1,
                "channel": 0,
                "type": "channel",
                "noteNumber": 60,
                "velocity": 0,
                "subtype": "noteOff"
            },
            {
                "deltaTime": 0,
                "channel": 0,
                "type": "channel",
                "noteNumber": 65,
                "velocity": 56,
                "subtype": "noteOn"
            },
            {
                "deltaTime": 108,
                "channel": 0,
                "type": "channel",
                "noteNumber": 65,
                "velocity": 0,
                "subtype": "noteOff"
            },
            {
                "deltaTime": 12,
                "channel": 0,
                "type": "channel",
                "noteNumber": 57,
                "velocity": 45,
                "subtype": "noteOn"
            },
            {
                "deltaTime": 120,
                "channel": 0,
                "type": "channel",
                "noteNumber": 57,
                "velocity": 0,
                "subtype": "noteOff"
            },
            {
                "deltaTime": 0,
                "channel": 0,
                "type": "channel",
                "noteNumber": 60,
                "velocity": 42,
                "subtype": "noteOn"
            },
            {
                "deltaTime": 120,
                "channel": 0,
                "type": "channel",
                "noteNumber": 60,
                "velocity": 0,
                "subtype": "noteOff"
            },
            {
                "deltaTime": 0,
                "channel": 0,
                "type": "channel",
                "noteNumber": 65,
                "velocity": 42,
                "subtype": "noteOn"
            },
            {
                "deltaTime": 119,
                "type": "meta",
                "subtype": "setTempo",
                "microsecondsPerBeat": 805369
            },
            {
                "deltaTime": 1,
                "channel": 0,
                "type": "channel",
                "noteNumber": 65,
                "velocity": 0,
                "subtype": "noteOff"
            },
            {
                "deltaTime": 0,
                "channel": 0,
                "type": "channel",
                "noteNumber": 53,
                "velocity": 0,
                "subtype": "noteOff"
            },
            {
                "deltaTime": 0,
                "channel": 0,
                "type": "channel",
                "noteNumber": 52,
                "velocity": 0,
                "subtype": "noteOff"
            },
            {
                "deltaTime": 0,
                "channel": 0,
                "type": "channel",
                "noteNumber": 52,
                "velocity": 55,
                "subtype": "noteOn"
            },
            {
                "deltaTime": 120,
                "channel": 0,
                "type": "channel",
                "noteNumber": 53,
                "velocity": 51,
                "subtype": "noteOn"
            },
            {
                "deltaTime": 120,
                "channel": 0,
                "type": "channel",
                "noteNumber": 57,
                "velocity": 50,
                "subtype": "noteOn"
            },
            {
                "deltaTime": 120,
                "channel": 0,
                "type": "channel",
                "noteNumber": 57,
                "velocity": 0,
                "subtype": "noteOff"
            },
            {
                "deltaTime": 0,
                "channel": 0,
                "type": "channel",
                "noteNumber": 60,
                "velocity": 53,
                "subtype": "noteOn"
            },
            {
                "deltaTime": 119,
                "type": "meta",
                "subtype": "setTempo",
                "microsecondsPerBeat": 789474
            },
            {
                "deltaTime": 1,
                "channel": 0,
                "type": "channel",
                "noteNumber": 60,
                "velocity": 0,
                "subtype": "noteOff"
            },
            {
                "deltaTime": 0,
                "channel": 0,
                "type": "channel",
                "noteNumber": 65,
                "velocity": 55,
                "subtype": "noteOn"
            },
            {
                "deltaTime": 108,
                "channel": 0,
                "type": "channel",
                "noteNumber": 65,
                "velocity": 0,
                "subtype": "noteOff"
            },
            {
                "deltaTime": 12,
                "channel": 0,
                "type": "channel",
                "noteNumber": 57,
                "velocity": 45,
                "subtype": "noteOn"
            },
            {
                "deltaTime": 120,
                "channel": 0,
                "type": "channel",
                "noteNumber": 57,
                "velocity": 0,
                "subtype": "noteOff"
            },
            {
                "deltaTime": 0,
                "channel": 0,
                "type": "channel",
                "noteNumber": 60,
                "velocity": 43,
                "subtype": "noteOn"
            },
            {
                "deltaTime": 119,
                "type": "meta",
                "subtype": "setTempo",
                "microsecondsPerBeat": 851064
            },
            {
                "deltaTime": 1,
                "channel": 0,
                "type": "channel",
                "noteNumber": 60,
                "velocity": 0,
                "subtype": "noteOff"
            },
            {
                "deltaTime": 0,
                "channel": 0,
                "type": "channel",
                "noteNumber": 65,
                "velocity": 43,
                "subtype": "noteOn"
            },
            {
                "deltaTime": 119,
                "type": "meta",
                "subtype": "setTempo",
                "microsecondsPerBeat": 805369
            },
            {
                "deltaTime": 0,
                "channel": 0,
                "type": "channel",
                "subtype": "controller",
                "controllerType": 91,
                "value": 127
            },
            {
                "deltaTime": 0,
                "channel": 0,
                "type": "channel",
                "subtype": "controller",
                "controllerType": 91,
                "value": 127
            },
            {
                "deltaTime": 1,
                "channel": 0,
                "type": "channel",
                "noteNumber": 65,
                "velocity": 0,
                "subtype": "noteOff"
            },
            {
                "deltaTime": 0,
                "channel": 0,
                "type": "channel",
                "noteNumber": 53,
                "velocity": 0,
                "subtype": "noteOff"
            },
            {
                "deltaTime": 0,
                "channel": 0,
                "type": "channel",
                "noteNumber": 52,
                "velocity": 0,
                "subtype": "noteOff"
            },
            {
                "deltaTime": 0,
                "channel": 0,
                "type": "channel",
                "noteNumber": 50,
                "velocity": 55,
                "subtype": "noteOn"
            },
            {
                "deltaTime": 6,
                "channel": 0,
                "type": "channel",
                "subtype": "controller",
                "controllerType": 64,
                "value": 0
            },
            {
                "deltaTime": 113,
                "channel": 0,
                "type": "channel",
                "subtype": "controller",
                "controllerType": 64,
                "value": 127
            },
            {
                "deltaTime": 1,
                "channel": 0,
                "type": "channel",
                "noteNumber": 53,
                "velocity": 51,
                "subtype": "noteOn"
            },
            {
                "deltaTime": 120,
                "channel": 0,
                "type": "channel",
                "noteNumber": 57,
                "velocity": 50,
                "subtype": "noteOn"
            },
            {
                "deltaTime": 120,
                "channel": 0,
                "type": "channel",
                "noteNumber": 57,
                "velocity": 0,
                "subtype": "noteOff"
            },
            {
                "deltaTime": 0,
                "channel": 0,
                "type": "channel",
                "noteNumber": 60,
                "velocity": 53,
                "subtype": "noteOn"
            },
            {
                "deltaTime": 119,
                "type": "meta",
                "subtype": "setTempo",
                "microsecondsPerBeat": 789474
            },
            {
                "deltaTime": 1,
                "channel": 0,
                "type": "channel",
                "noteNumber": 60,
                "velocity": 0,
                "subtype": "noteOff"
            },
            {
                "deltaTime": 0,
                "channel": 0,
                "type": "channel",
                "noteNumber": 65,
                "velocity": 56,
                "subtype": "noteOn"
            },
            {
                "deltaTime": 108,
                "channel": 0,
                "type": "channel",
                "noteNumber": 65,
                "velocity": 0,
                "subtype": "noteOff"
            },
            {
                "deltaTime": 12,
                "channel": 0,
                "type": "channel",
                "noteNumber": 57,
                "velocity": 45,
                "subtype": "noteOn"
            },
            {
                "deltaTime": 120,
                "channel": 0,
                "type": "channel",
                "noteNumber": 57,
                "velocity": 0,
                "subtype": "noteOff"
            },
            {
                "deltaTime": 0,
                "channel": 0,
                "type": "channel",
                "noteNumber": 60,
                "velocity": 42,
                "subtype": "noteOn"
            },
            {
                "deltaTime": 119,
                "type": "meta",
                "subtype": "setTempo",
                "microsecondsPerBeat": 845070
            },
            {
                "deltaTime": 1,
                "channel": 0,
                "type": "channel",
                "noteNumber": 60,
                "velocity": 0,
                "subtype": "noteOff"
            },
            {
                "deltaTime": 0,
                "channel": 0,
                "type": "channel",
                "noteNumber": 65,
                "velocity": 42,
                "subtype": "noteOn"
            },
            {
                "deltaTime": 119,
                "type": "meta",
                "subtype": "setTempo",
                "microsecondsPerBeat": 805369
            },
            {
                "deltaTime": 1,
                "channel": 0,
                "type": "channel",
                "noteNumber": 65,
                "velocity": 0,
                "subtype": "noteOff"
            },
            {
                "deltaTime": 0,
                "channel": 0,
                "type": "channel",
                "noteNumber": 53,
                "velocity": 0,
                "subtype": "noteOff"
            },
            {
                "deltaTime": 0,
                "channel": 0,
                "type": "channel",
                "noteNumber": 50,
                "velocity": 0,
                "subtype": "noteOff"
            },
            {
                "deltaTime": 0,
                "channel": 0,
                "type": "channel",
                "noteNumber": 50,
                "velocity": 55,
                "subtype": "noteOn"
            },
            {
                "deltaTime": 120,
                "channel": 0,
                "type": "channel",
                "noteNumber": 53,
                "velocity": 51,
                "subtype": "noteOn"
            },
            {
                "deltaTime": 120,
                "channel": 0,
                "type": "channel",
                "noteNumber": 57,
                "velocity": 50,
                "subtype": "noteOn"
            },
            {
                "deltaTime": 120,
                "channel": 0,
                "type": "channel",
                "noteNumber": 57,
                "velocity": 0,
                "subtype": "noteOff"
            },
            {
                "deltaTime": 0,
                "channel": 0,
                "type": "channel",
                "noteNumber": 60,
                "velocity": 53,
                "subtype": "noteOn"
            },
            {
                "deltaTime": 119,
                "type": "meta",
                "subtype": "setTempo",
                "microsecondsPerBeat": 794702
            },
            {
                "deltaTime": 1,
                "channel": 0,
                "type": "channel",
                "noteNumber": 60,
                "velocity": 0,
                "subtype": "noteOff"
            },
            {
                "deltaTime": 0,
                "channel": 0,
                "type": "channel",
                "noteNumber": 65,
                "velocity": 55,
                "subtype": "noteOn"
            },
            {
                "deltaTime": 108,
                "channel": 0,
                "type": "channel",
                "noteNumber": 65,
                "velocity": 0,
                "subtype": "noteOff"
            },
            {
                "deltaTime": 12,
                "channel": 0,
                "type": "channel",
                "noteNumber": 57,
                "velocity": 45,
                "subtype": "noteOn"
            },
            {
                "deltaTime": 120,
                "channel": 0,
                "type": "channel",
                "noteNumber": 57,
                "velocity": 0,
                "subtype": "noteOff"
            },
            {
                "deltaTime": 0,
                "channel": 0,
                "type": "channel",
                "noteNumber": 60,
                "velocity": 43,
                "subtype": "noteOn"
            },
            {
                "deltaTime": 119,
                "type": "meta",
                "subtype": "setTempo",
                "microsecondsPerBeat": 851064
            },
            {
                "deltaTime": 1,
                "channel": 0,
                "type": "channel",
                "noteNumber": 60,
                "velocity": 0,
                "subtype": "noteOff"
            },
            {
                "deltaTime": 0,
                "channel": 0,
                "type": "channel",
                "noteNumber": 65,
                "velocity": 43,
                "subtype": "noteOn"
            },
            {
                "deltaTime": 119,
                "type": "meta",
                "subtype": "setTempo",
                "microsecondsPerBeat": 805369
            },
            {
                "deltaTime": 0,
                "channel": 0,
                "type": "channel",
                "subtype": "controller",
                "controllerType": 91,
                "value": 127
            },
            {
                "deltaTime": 0,
                "channel": 0,
                "type": "channel",
                "subtype": "controller",
                "controllerType": 91,
                "value": 127
            },
            {
                "deltaTime": 1,
                "channel": 0,
                "type": "channel",
                "noteNumber": 65,
                "velocity": 0,
                "subtype": "noteOff"
            },
            {
                "deltaTime": 0,
                "channel": 0,
                "type": "channel",
                "noteNumber": 53,
                "velocity": 0,
                "subtype": "noteOff"
            },
            {
                "deltaTime": 0,
                "channel": 0,
                "type": "channel",
                "noteNumber": 50,
                "velocity": 0,
                "subtype": "noteOff"
            },
            {
                "deltaTime": 0,
                "channel": 0,
                "type": "channel",
                "noteNumber": 43,
                "velocity": 55,
                "subtype": "noteOn"
            },
            {
                "deltaTime": 10,
                "channel": 0,
                "type": "channel",
                "subtype": "controller",
                "controllerType": 64,
                "value": 0
            },
            {
                "deltaTime": 88,
                "channel": 0,
                "type": "channel",
                "subtype": "controller",
                "controllerType": 64,
                "value": 127
            },
            {
                "deltaTime": 22,
                "channel": 0,
                "type": "channel",
                "noteNumber": 50,
                "velocity": 51,
                "subtype": "noteOn"
            },
            {
                "deltaTime": 120,
                "channel": 0,
                "type": "channel",
                "noteNumber": 55,
                "velocity": 50,
                "subtype": "noteOn"
            },
            {
                "deltaTime": 120,
                "channel": 0,
                "type": "channel",
                "noteNumber": 55,
                "velocity": 0,
                "subtype": "noteOff"
            },
            {
                "deltaTime": 0,
                "channel": 0,
                "type": "channel",
                "noteNumber": 59,
                "velocity": 53,
                "subtype": "noteOn"
            },
            {
                "deltaTime": 120,
                "channel": 0,
                "type": "channel",
                "noteNumber": 59,
                "velocity": 0,
                "subtype": "noteOff"
            },
            {
                "deltaTime": 0,
                "channel": 0,
                "type": "channel",
                "noteNumber": 65,
                "velocity": 56,
                "subtype": "noteOn"
            },
            {
                "deltaTime": 108,
                "channel": 0,
                "type": "channel",
                "noteNumber": 65,
                "velocity": 0,
                "subtype": "noteOff"
            },
            {
                "deltaTime": 12,
                "channel": 0,
                "type": "channel",
                "noteNumber": 55,
                "velocity": 45,
                "subtype": "noteOn"
            },
            {
                "deltaTime": 120,
                "channel": 0,
                "type": "channel",
                "noteNumber": 55,
                "velocity": 0,
                "subtype": "noteOff"
            },
            {
                "deltaTime": 0,
                "channel": 0,
                "type": "channel",
                "noteNumber": 59,
                "velocity": 42,
                "subtype": "noteOn"
            },
            {
                "deltaTime": 120,
                "channel": 0,
                "type": "channel",
                "noteNumber": 59,
                "velocity": 0,
                "subtype": "noteOff"
            },
            {
                "deltaTime": 0,
                "channel": 0,
                "type": "channel",
                "noteNumber": 65,
                "velocity": 42,
                "subtype": "noteOn"
            },
            {
                "deltaTime": 119,
                "type": "meta",
                "subtype": "setTempo",
                "microsecondsPerBeat": 805369
            },
            {
                "deltaTime": 1,
                "channel": 0,
                "type": "channel",
                "noteNumber": 65,
                "velocity": 0,
                "subtype": "noteOff"
            },
            {
                "deltaTime": 0,
                "channel": 0,
                "type": "channel",
                "noteNumber": 50,
                "velocity": 0,
                "subtype": "noteOff"
            },
            {
                "deltaTime": 0,
                "channel": 0,
                "type": "channel",
                "noteNumber": 43,
                "velocity": 0,
                "subtype": "noteOff"
            },
            {
                "deltaTime": 0,
                "channel": 0,
                "type": "channel",
                "noteNumber": 43,
                "velocity": 55,
                "subtype": "noteOn"
            },
            {
                "deltaTime": 120,
                "channel": 0,
                "type": "channel",
                "noteNumber": 50,
                "velocity": 51,
                "subtype": "noteOn"
            },
            {
                "deltaTime": 120,
                "channel": 0,
                "type": "channel",
                "noteNumber": 55,
                "velocity": 50,
                "subtype": "noteOn"
            },
            {
                "deltaTime": 120,
                "channel": 0,
                "type": "channel",
                "noteNumber": 55,
                "velocity": 0,
                "subtype": "noteOff"
            },
            {
                "deltaTime": 0,
                "channel": 0,
                "type": "channel",
                "noteNumber": 59,
                "velocity": 53,
                "subtype": "noteOn"
            },
            {
                "deltaTime": 120,
                "channel": 0,
                "type": "channel",
                "noteNumber": 59,
                "velocity": 0,
                "subtype": "noteOff"
            },
            {
                "deltaTime": 0,
                "channel": 0,
                "type": "channel",
                "noteNumber": 65,
                "velocity": 55,
                "subtype": "noteOn"
            },
            {
                "deltaTime": 108,
                "channel": 0,
                "type": "channel",
                "noteNumber": 65,
                "velocity": 0,
                "subtype": "noteOff"
            },
            {
                "deltaTime": 12,
                "channel": 0,
                "type": "channel",
                "noteNumber": 55,
                "velocity": 45,
                "subtype": "noteOn"
            },
            {
                "deltaTime": 120,
                "channel": 0,
                "type": "channel",
                "noteNumber": 55,
                "velocity": 0,
                "subtype": "noteOff"
            },
            {
                "deltaTime": 0,
                "channel": 0,
                "type": "channel",
                "noteNumber": 59,
                "velocity": 43,
                "subtype": "noteOn"
            },
            {
                "deltaTime": 120,
                "channel": 0,
                "type": "channel",
                "noteNumber": 59,
                "velocity": 0,
                "subtype": "noteOff"
            },
            {
                "deltaTime": 0,
                "channel": 0,
                "type": "channel",
                "noteNumber": 65,
                "velocity": 43,
                "subtype": "noteOn"
            },
            {
                "deltaTime": 119,
                "type": "meta",
                "subtype": "setTempo",
                "microsecondsPerBeat": 827586
            },
            {
                "deltaTime": 0,
                "channel": 0,
                "type": "channel",
                "subtype": "controller",
                "controllerType": 91,
                "value": 127
            },
            {
                "deltaTime": 0,
                "channel": 0,
                "type": "channel",
                "subtype": "controller",
                "controllerType": 91,
                "value": 127
            },
            {
                "deltaTime": 1,
                "channel": 0,
                "type": "channel",
                "noteNumber": 65,
                "velocity": 0,
                "subtype": "noteOff"
            },
            {
                "deltaTime": 0,
                "channel": 0,
                "type": "channel",
                "noteNumber": 50,
                "velocity": 0,
                "subtype": "noteOff"
            },
            {
                "deltaTime": 0,
                "channel": 0,
                "type": "channel",
                "noteNumber": 43,
                "velocity": 0,
                "subtype": "noteOff"
            },
            {
                "deltaTime": 0,
                "channel": 0,
                "type": "channel",
                "noteNumber": 48,
                "velocity": 55,
                "subtype": "noteOn"
            },
            {
                "deltaTime": 9,
                "channel": 0,
                "type": "channel",
                "subtype": "controller",
                "controllerType": 64,
                "value": 0
            },
            {
                "deltaTime": 110,
                "channel": 0,
                "type": "channel",
                "subtype": "controller",
                "controllerType": 64,
                "value": 127
            },
            {
                "deltaTime": 1,
                "channel": 0,
                "type": "channel",
                "noteNumber": 52,
                "velocity": 51,
                "subtype": "noteOn"
            },
            {
                "deltaTime": 120,
                "channel": 0,
                "type": "channel",
                "noteNumber": 55,
                "velocity": 50,
                "subtype": "noteOn"
            },
            {
                "deltaTime": 119,
                "type": "meta",
                "subtype": "setTempo",
                "microsecondsPerBeat": 805369
            },
            {
                "deltaTime": 1,
                "channel": 0,
                "type": "channel",
                "noteNumber": 55,
                "velocity": 0,
                "subtype": "noteOff"
            },
            {
                "deltaTime": 0,
                "channel": 0,
                "type": "channel",
                "noteNumber": 60,
                "velocity": 53,
                "subtype": "noteOn"
            },
            {
                "deltaTime": 120,
                "channel": 0,
                "type": "channel",
                "noteNumber": 60,
                "velocity": 0,
                "subtype": "noteOff"
            },
            {
                "deltaTime": 0,
                "channel": 0,
                "type": "channel",
                "noteNumber": 64,
                "velocity": 56,
                "subtype": "noteOn"
            },
            {
                "deltaTime": 108,
                "channel": 0,
                "type": "channel",
                "noteNumber": 64,
                "velocity": 0,
                "subtype": "noteOff"
            },
            {
                "deltaTime": 12,
                "channel": 0,
                "type": "channel",
                "noteNumber": 55,
                "velocity": 45,
                "subtype": "noteOn"
            },
            {
                "deltaTime": 120,
                "channel": 0,
                "type": "channel",
                "noteNumber": 55,
                "velocity": 0,
                "subtype": "noteOff"
            },
            {
                "deltaTime": 0,
                "channel": 0,
                "type": "channel",
                "noteNumber": 60,
                "velocity": 42,
                "subtype": "noteOn"
            },
            {
                "deltaTime": 120,
                "channel": 0,
                "type": "channel",
                "noteNumber": 60,
                "velocity": 0,
                "subtype": "noteOff"
            },
            {
                "deltaTime": 0,
                "channel": 0,
                "type": "channel",
                "noteNumber": 64,
                "velocity": 42,
                "subtype": "noteOn"
            },
            {
                "deltaTime": 119,
                "type": "meta",
                "subtype": "setTempo",
                "microsecondsPerBeat": 821918
            },
            {
                "deltaTime": 1,
                "channel": 0,
                "type": "channel",
                "noteNumber": 64,
                "velocity": 0,
                "subtype": "noteOff"
            },
            {
                "deltaTime": 0,
                "channel": 0,
                "type": "channel",
                "noteNumber": 52,
                "velocity": 0,
                "subtype": "noteOff"
            },
            {
                "deltaTime": 0,
                "channel": 0,
                "type": "channel",
                "noteNumber": 48,
                "velocity": 0,
                "subtype": "noteOff"
            },
            {
                "deltaTime": 0,
                "channel": 0,
                "type": "channel",
                "noteNumber": 48,
                "velocity": 55,
                "subtype": "noteOn"
            },
            {
                "deltaTime": 120,
                "channel": 0,
                "type": "channel",
                "noteNumber": 52,
                "velocity": 51,
                "subtype": "noteOn"
            },
            {
                "deltaTime": 120,
                "channel": 0,
                "type": "channel",
                "noteNumber": 55,
                "velocity": 50,
                "subtype": "noteOn"
            },
            {
                "deltaTime": 119,
                "type": "meta",
                "subtype": "setTempo",
                "microsecondsPerBeat": 800000
            },
            {
                "deltaTime": 1,
                "channel": 0,
                "type": "channel",
                "noteNumber": 55,
                "velocity": 0,
                "subtype": "noteOff"
            },
            {
                "deltaTime": 0,
                "channel": 0,
                "type": "channel",
                "noteNumber": 60,
                "velocity": 53,
                "subtype": "noteOn"
            },
            {
                "deltaTime": 120,
                "channel": 0,
                "type": "channel",
                "noteNumber": 60,
                "velocity": 0,
                "subtype": "noteOff"
            },
            {
                "deltaTime": 0,
                "channel": 0,
                "type": "channel",
                "noteNumber": 64,
                "velocity": 55,
                "subtype": "noteOn"
            },
            {
                "deltaTime": 108,
                "channel": 0,
                "type": "channel",
                "noteNumber": 64,
                "velocity": 0,
                "subtype": "noteOff"
            },
            {
                "deltaTime": 12,
                "channel": 0,
                "type": "channel",
                "noteNumber": 55,
                "velocity": 45,
                "subtype": "noteOn"
            },
            {
                "deltaTime": 120,
                "channel": 0,
                "type": "channel",
                "noteNumber": 55,
                "velocity": 0,
                "subtype": "noteOff"
            },
            {
                "deltaTime": 0,
                "channel": 0,
                "type": "channel",
                "noteNumber": 60,
                "velocity": 43,
                "subtype": "noteOn"
            },
            {
                "deltaTime": 120,
                "channel": 0,
                "type": "channel",
                "noteNumber": 60,
                "velocity": 0,
                "subtype": "noteOff"
            },
            {
                "deltaTime": 0,
                "channel": 0,
                "type": "channel",
                "noteNumber": 64,
                "velocity": 43,
                "subtype": "noteOn"
            },
            {
                "deltaTime": 119,
                "type": "meta",
                "subtype": "setTempo",
                "microsecondsPerBeat": 800000
            },
            {
                "deltaTime": 0,
                "channel": 0,
                "type": "channel",
                "subtype": "controller",
                "controllerType": 91,
                "value": 127
            },
            {
                "deltaTime": 0,
                "channel": 0,
                "type": "channel",
                "subtype": "controller",
                "controllerType": 91,
                "value": 127
            },
            {
                "deltaTime": 1,
                "channel": 0,
                "type": "channel",
                "noteNumber": 64,
                "velocity": 0,
                "subtype": "noteOff"
            },
            {
                "deltaTime": 0,
                "channel": 0,
                "type": "channel",
                "noteNumber": 52,
                "velocity": 0,
                "subtype": "noteOff"
            },
            {
                "deltaTime": 0,
                "channel": 0,
                "type": "channel",
                "noteNumber": 48,
                "velocity": 0,
                "subtype": "noteOff"
            },
            {
                "deltaTime": 0,
                "channel": 0,
                "type": "channel",
                "noteNumber": 48,
                "velocity": 51,
                "subtype": "noteOn"
            },
            {
                "deltaTime": 9,
                "channel": 0,
                "type": "channel",
                "subtype": "controller",
                "controllerType": 64,
                "value": 0
            },
            {
                "deltaTime": 81,
                "channel": 0,
                "type": "channel",
                "subtype": "controller",
                "controllerType": 64,
                "value": 127
            },
            {
                "deltaTime": 30,
                "channel": 0,
                "type": "channel",
                "noteNumber": 55,
                "velocity": 48,
                "subtype": "noteOn"
            },
            {
                "deltaTime": 120,
                "channel": 0,
                "type": "channel",
                "noteNumber": 58,
                "velocity": 47,
                "subtype": "noteOn"
            },
            {
                "deltaTime": 120,
                "channel": 0,
                "type": "channel",
                "noteNumber": 58,
                "velocity": 0,
                "subtype": "noteOff"
            },
            {
                "deltaTime": 0,
                "channel": 0,
                "type": "channel",
                "noteNumber": 60,
                "velocity": 50,
                "subtype": "noteOn"
            },
            {
                "deltaTime": 119,
                "type": "meta",
                "subtype": "setTempo",
                "microsecondsPerBeat": 779221
            },
            {
                "deltaTime": 1,
                "channel": 0,
                "type": "channel",
                "noteNumber": 60,
                "velocity": 0,
                "subtype": "noteOff"
            },
            {
                "deltaTime": 0,
                "channel": 0,
                "type": "channel",
                "noteNumber": 64,
                "velocity": 53,
                "subtype": "noteOn"
            },
            {
                "deltaTime": 108,
                "channel": 0,
                "type": "channel",
                "noteNumber": 64,
                "velocity": 0,
                "subtype": "noteOff"
            },
            {
                "deltaTime": 11,
                "type": "meta",
                "subtype": "setTempo",
                "microsecondsPerBeat": 794702
            },
            {
                "deltaTime": 1,
                "channel": 0,
                "type": "channel",
                "noteNumber": 58,
                "velocity": 41,
                "subtype": "noteOn"
            },
            {
                "deltaTime": 120,
                "channel": 0,
                "type": "channel",
                "noteNumber": 58,
                "velocity": 0,
                "subtype": "noteOff"
            },
            {
                "deltaTime": 0,
                "channel": 0,
                "type": "channel",
                "noteNumber": 60,
                "velocity": 40,
                "subtype": "noteOn"
            },
            {
                "deltaTime": 120,
                "channel": 0,
                "type": "channel",
                "noteNumber": 60,
                "velocity": 0,
                "subtype": "noteOff"
            },
            {
                "deltaTime": 0,
                "channel": 0,
                "type": "channel",
                "noteNumber": 64,
                "velocity": 40,
                "subtype": "noteOn"
            },
            {
                "deltaTime": 119,
                "type": "meta",
                "subtype": "setTempo",
                "microsecondsPerBeat": 800000
            },
            {
                "deltaTime": 1,
                "channel": 0,
                "type": "channel",
                "noteNumber": 64,
                "velocity": 0,
                "subtype": "noteOff"
            },
            {
                "deltaTime": 0,
                "channel": 0,
                "type": "channel",
                "noteNumber": 55,
                "velocity": 0,
                "subtype": "noteOff"
            },
            {
                "deltaTime": 0,
                "channel": 0,
                "type": "channel",
                "noteNumber": 48,
                "velocity": 0,
                "subtype": "noteOff"
            },
            {
                "deltaTime": 0,
                "channel": 0,
                "type": "channel",
                "noteNumber": 48,
                "velocity": 52,
                "subtype": "noteOn"
            },
            {
                "deltaTime": 120,
                "channel": 0,
                "type": "channel",
                "noteNumber": 55,
                "velocity": 48,
                "subtype": "noteOn"
            },
            {
                "deltaTime": 120,
                "channel": 0,
                "type": "channel",
                "noteNumber": 58,
                "velocity": 47,
                "subtype": "noteOn"
            },
            {
                "deltaTime": 120,
                "channel": 0,
                "type": "channel",
                "noteNumber": 58,
                "velocity": 0,
                "subtype": "noteOff"
            },
            {
                "deltaTime": 0,
                "channel": 0,
                "type": "channel",
                "noteNumber": 60,
                "velocity": 50,
                "subtype": "noteOn"
            },
            {
                "deltaTime": 119,
                "type": "meta",
                "subtype": "setTempo",
                "microsecondsPerBeat": 779221
            },
            {
                "deltaTime": 1,
                "channel": 0,
                "type": "channel",
                "noteNumber": 60,
                "velocity": 0,
                "subtype": "noteOff"
            },
            {
                "deltaTime": 0,
                "channel": 0,
                "type": "channel",
                "noteNumber": 64,
                "velocity": 52,
                "subtype": "noteOn"
            },
            {
                "deltaTime": 108,
                "channel": 0,
                "type": "channel",
                "noteNumber": 64,
                "velocity": 0,
                "subtype": "noteOff"
            },
            {
                "deltaTime": 11,
                "type": "meta",
                "subtype": "setTempo",
                "microsecondsPerBeat": 800000
            },
            {
                "deltaTime": 1,
                "channel": 0,
                "type": "channel",
                "noteNumber": 58,
                "velocity": 42,
                "subtype": "noteOn"
            },
            {
                "deltaTime": 120,
                "channel": 0,
                "type": "channel",
                "noteNumber": 58,
                "velocity": 0,
                "subtype": "noteOff"
            },
            {
                "deltaTime": 0,
                "channel": 0,
                "type": "channel",
                "noteNumber": 60,
                "velocity": 40,
                "subtype": "noteOn"
            },
            {
                "deltaTime": 119,
                "type": "meta",
                "subtype": "setTempo",
                "microsecondsPerBeat": 875912
            },
            {
                "deltaTime": 1,
                "channel": 0,
                "type": "channel",
                "noteNumber": 60,
                "velocity": 0,
                "subtype": "noteOff"
            },
            {
                "deltaTime": 0,
                "channel": 0,
                "type": "channel",
                "noteNumber": 64,
                "velocity": 40,
                "subtype": "noteOn"
            },
            {
                "deltaTime": 119,
                "type": "meta",
                "subtype": "setTempo",
                "microsecondsPerBeat": 800000
            },
            {
                "deltaTime": 0,
                "channel": 0,
                "type": "channel",
                "subtype": "controller",
                "controllerType": 91,
                "value": 127
            },
            {
                "deltaTime": 0,
                "channel": 0,
                "type": "channel",
                "subtype": "controller",
                "controllerType": 91,
                "value": 127
            },
            {
                "deltaTime": 1,
                "channel": 0,
                "type": "channel",
                "noteNumber": 64,
                "velocity": 0,
                "subtype": "noteOff"
            },
            {
                "deltaTime": 0,
                "channel": 0,
                "type": "channel",
                "noteNumber": 55,
                "velocity": 0,
                "subtype": "noteOff"
            },
            {
                "deltaTime": 0,
                "channel": 0,
                "type": "channel",
                "noteNumber": 48,
                "velocity": 0,
                "subtype": "noteOff"
            },
            {
                "deltaTime": 0,
                "channel": 0,
                "type": "channel",
                "noteNumber": 41,
                "velocity": 51,
                "subtype": "noteOn"
            },
            {
                "deltaTime": 8,
                "channel": 0,
                "type": "channel",
                "subtype": "controller",
                "controllerType": 64,
                "value": 0
            },
            {
                "deltaTime": 112,
                "channel": 0,
                "type": "channel",
                "noteNumber": 53,
                "velocity": 48,
                "subtype": "noteOn"
            },
            {
                "deltaTime": 6,
                "channel": 0,
                "type": "channel",
                "subtype": "controller",
                "controllerType": 64,
                "value": 127
            },
            {
                "deltaTime": 114,
                "channel": 0,
                "type": "channel",
                "noteNumber": 57,
                "velocity": 47,
                "subtype": "noteOn"
            },
            {
                "deltaTime": 120,
                "channel": 0,
                "type": "channel",
                "noteNumber": 57,
                "velocity": 0,
                "subtype": "noteOff"
            },
            {
                "deltaTime": 0,
                "channel": 0,
                "type": "channel",
                "noteNumber": 60,
                "velocity": 50,
                "subtype": "noteOn"
            },
            {
                "deltaTime": 119,
                "type": "meta",
                "subtype": "setTempo",
                "microsecondsPerBeat": 784314
            },
            {
                "deltaTime": 1,
                "channel": 0,
                "type": "channel",
                "noteNumber": 60,
                "velocity": 0,
                "subtype": "noteOff"
            },
            {
                "deltaTime": 0,
                "channel": 0,
                "type": "channel",
                "noteNumber": 64,
                "velocity": 53,
                "subtype": "noteOn"
            },
            {
                "deltaTime": 108,
                "channel": 0,
                "type": "channel",
                "noteNumber": 64,
                "velocity": 0,
                "subtype": "noteOff"
            },
            {
                "deltaTime": 12,
                "channel": 0,
                "type": "channel",
                "noteNumber": 57,
                "velocity": 41,
                "subtype": "noteOn"
            },
            {
                "deltaTime": 120,
                "channel": 0,
                "type": "channel",
                "noteNumber": 57,
                "velocity": 0,
                "subtype": "noteOff"
            },
            {
                "deltaTime": 0,
                "channel": 0,
                "type": "channel",
                "noteNumber": 60,
                "velocity": 40,
                "subtype": "noteOn"
            },
            {
                "deltaTime": 120,
                "channel": 0,
                "type": "channel",
                "noteNumber": 60,
                "velocity": 0,
                "subtype": "noteOff"
            },
            {
                "deltaTime": 0,
                "channel": 0,
                "type": "channel",
                "noteNumber": 64,
                "velocity": 40,
                "subtype": "noteOn"
            },
            {
                "deltaTime": 119,
                "type": "meta",
                "subtype": "setTempo",
                "microsecondsPerBeat": 800000
            },
            {
                "deltaTime": 1,
                "channel": 0,
                "type": "channel",
                "noteNumber": 64,
                "velocity": 0,
                "subtype": "noteOff"
            },
            {
                "deltaTime": 0,
                "channel": 0,
                "type": "channel",
                "noteNumber": 53,
                "velocity": 0,
                "subtype": "noteOff"
            },
            {
                "deltaTime": 0,
                "channel": 0,
                "type": "channel",
                "noteNumber": 41,
                "velocity": 0,
                "subtype": "noteOff"
            },
            {
                "deltaTime": 0,
                "channel": 0,
                "type": "channel",
                "noteNumber": 41,
                "velocity": 52,
                "subtype": "noteOn"
            },
            {
                "deltaTime": 120,
                "channel": 0,
                "type": "channel",
                "noteNumber": 53,
                "velocity": 48,
                "subtype": "noteOn"
            },
            {
                "deltaTime": 120,
                "channel": 0,
                "type": "channel",
                "noteNumber": 57,
                "velocity": 47,
                "subtype": "noteOn"
            },
            {
                "deltaTime": 120,
                "channel": 0,
                "type": "channel",
                "noteNumber": 57,
                "velocity": 0,
                "subtype": "noteOff"
            },
            {
                "deltaTime": 0,
                "channel": 0,
                "type": "channel",
                "noteNumber": 60,
                "velocity": 50,
                "subtype": "noteOn"
            },
            {
                "deltaTime": 119,
                "type": "meta",
                "subtype": "setTempo",
                "microsecondsPerBeat": 789474
            },
            {
                "deltaTime": 1,
                "channel": 0,
                "type": "channel",
                "noteNumber": 60,
                "velocity": 0,
                "subtype": "noteOff"
            },
            {
                "deltaTime": 0,
                "channel": 0,
                "type": "channel",
                "noteNumber": 64,
                "velocity": 52,
                "subtype": "noteOn"
            },
            {
                "deltaTime": 108,
                "channel": 0,
                "type": "channel",
                "noteNumber": 64,
                "velocity": 0,
                "subtype": "noteOff"
            },
            {
                "deltaTime": 12,
                "channel": 0,
                "type": "channel",
                "noteNumber": 57,
                "velocity": 42,
                "subtype": "noteOn"
            },
            {
                "deltaTime": 120,
                "channel": 0,
                "type": "channel",
                "noteNumber": 57,
                "velocity": 0,
                "subtype": "noteOff"
            },
            {
                "deltaTime": 0,
                "channel": 0,
                "type": "channel",
                "noteNumber": 60,
                "velocity": 40,
                "subtype": "noteOn"
            },
            {
                "deltaTime": 119,
                "type": "meta",
                "subtype": "setTempo",
                "microsecondsPerBeat": 863309
            },
            {
                "deltaTime": 1,
                "channel": 0,
                "type": "channel",
                "noteNumber": 60,
                "velocity": 0,
                "subtype": "noteOff"
            },
            {
                "deltaTime": 0,
                "channel": 0,
                "type": "channel",
                "noteNumber": 64,
                "velocity": 40,
                "subtype": "noteOn"
            },
            {
                "deltaTime": 119,
                "type": "meta",
                "subtype": "setTempo",
                "microsecondsPerBeat": 816327
            },
            {
                "deltaTime": 0,
                "channel": 0,
                "type": "channel",
                "subtype": "controller",
                "controllerType": 91,
                "value": 127
            },
            {
                "deltaTime": 0,
                "channel": 0,
                "type": "channel",
                "subtype": "controller",
                "controllerType": 91,
                "value": 127
            },
            {
                "deltaTime": 1,
                "channel": 0,
                "type": "channel",
                "noteNumber": 64,
                "velocity": 0,
                "subtype": "noteOff"
            },
            {
                "deltaTime": 0,
                "channel": 0,
                "type": "channel",
                "noteNumber": 53,
                "velocity": 0,
                "subtype": "noteOff"
            },
            {
                "deltaTime": 0,
                "channel": 0,
                "type": "channel",
                "noteNumber": 41,
                "velocity": 0,
                "subtype": "noteOff"
            },
            {
                "deltaTime": 0,
                "channel": 0,
                "type": "channel",
                "noteNumber": 42,
                "velocity": 55,
                "subtype": "noteOn"
            },
            {
                "deltaTime": 11,
                "channel": 0,
                "type": "channel",
                "subtype": "controller",
                "controllerType": 64,
                "value": 0
            },
            {
                "deltaTime": 79,
                "channel": 0,
                "type": "channel",
                "subtype": "controller",
                "controllerType": 64,
                "value": 127
            },
            {
                "deltaTime": 30,
                "channel": 0,
                "type": "channel",
                "noteNumber": 48,
                "velocity": 51,
                "subtype": "noteOn"
            },
            {
                "deltaTime": 120,
                "channel": 0,
                "type": "channel",
                "noteNumber": 57,
                "velocity": 50,
                "subtype": "noteOn"
            },
            {
                "deltaTime": 120,
                "channel": 0,
                "type": "channel",
                "noteNumber": 57,
                "velocity": 0,
                "subtype": "noteOff"
            },
            {
                "deltaTime": 0,
                "channel": 0,
                "type": "channel",
                "noteNumber": 60,
                "velocity": 53,
                "subtype": "noteOn"
            },
            {
                "deltaTime": 119,
                "type": "meta",
                "subtype": "setTempo",
                "microsecondsPerBeat": 805369
            },
            {
                "deltaTime": 1,
                "channel": 0,
                "type": "channel",
                "noteNumber": 60,
                "velocity": 0,
                "subtype": "noteOff"
            },
            {
                "deltaTime": 0,
                "channel": 0,
                "type": "channel",
                "noteNumber": 63,
                "velocity": 56,
                "subtype": "noteOn"
            },
            {
                "deltaTime": 108,
                "channel": 0,
                "type": "channel",
                "noteNumber": 63,
                "velocity": 0,
                "subtype": "noteOff"
            },
            {
                "deltaTime": 12,
                "channel": 0,
                "type": "channel",
                "noteNumber": 57,
                "velocity": 45,
                "subtype": "noteOn"
            },
            {
                "deltaTime": 120,
                "channel": 0,
                "type": "channel",
                "noteNumber": 57,
                "velocity": 0,
                "subtype": "noteOff"
            },
            {
                "deltaTime": 0,
                "channel": 0,
                "type": "channel",
                "noteNumber": 60,
                "velocity": 42,
                "subtype": "noteOn"
            },
            {
                "deltaTime": 120,
                "channel": 0,
                "type": "channel",
                "noteNumber": 60,
                "velocity": 0,
                "subtype": "noteOff"
            },
            {
                "deltaTime": 0,
                "channel": 0,
                "type": "channel",
                "noteNumber": 63,
                "velocity": 42,
                "subtype": "noteOn"
            },
            {
                "deltaTime": 119,
                "type": "meta",
                "subtype": "setTempo",
                "microsecondsPerBeat": 816327
            },
            {
                "deltaTime": 1,
                "channel": 0,
                "type": "channel",
                "noteNumber": 63,
                "velocity": 0,
                "subtype": "noteOff"
            },
            {
                "deltaTime": 0,
                "channel": 0,
                "type": "channel",
                "noteNumber": 48,
                "velocity": 0,
                "subtype": "noteOff"
            },
            {
                "deltaTime": 0,
                "channel": 0,
                "type": "channel",
                "noteNumber": 42,
                "velocity": 0,
                "subtype": "noteOff"
            },
            {
                "deltaTime": 0,
                "channel": 0,
                "type": "channel",
                "noteNumber": 42,
                "velocity": 55,
                "subtype": "noteOn"
            },
            {
                "deltaTime": 120,
                "channel": 0,
                "type": "channel",
                "noteNumber": 48,
                "velocity": 51,
                "subtype": "noteOn"
            },
            {
                "deltaTime": 120,
                "channel": 0,
                "type": "channel",
                "noteNumber": 57,
                "velocity": 50,
                "subtype": "noteOn"
            },
            {
                "deltaTime": 120,
                "channel": 0,
                "type": "channel",
                "noteNumber": 57,
                "velocity": 0,
                "subtype": "noteOff"
            },
            {
                "deltaTime": 0,
                "channel": 0,
                "type": "channel",
                "noteNumber": 60,
                "velocity": 53,
                "subtype": "noteOn"
            },
            {
                "deltaTime": 119,
                "type": "meta",
                "subtype": "setTempo",
                "microsecondsPerBeat": 800000
            },
            {
                "deltaTime": 1,
                "channel": 0,
                "type": "channel",
                "noteNumber": 60,
                "velocity": 0,
                "subtype": "noteOff"
            },
            {
                "deltaTime": 0,
                "channel": 0,
                "type": "channel",
                "noteNumber": 63,
                "velocity": 55,
                "subtype": "noteOn"
            },
            {
                "deltaTime": 108,
                "channel": 0,
                "type": "channel",
                "noteNumber": 63,
                "velocity": 0,
                "subtype": "noteOff"
            },
            {
                "deltaTime": 12,
                "channel": 0,
                "type": "channel",
                "noteNumber": 57,
                "velocity": 45,
                "subtype": "noteOn"
            },
            {
                "deltaTime": 120,
                "channel": 0,
                "type": "channel",
                "noteNumber": 57,
                "velocity": 0,
                "subtype": "noteOff"
            },
            {
                "deltaTime": 0,
                "channel": 0,
                "type": "channel",
                "noteNumber": 60,
                "velocity": 43,
                "subtype": "noteOn"
            },
            {
                "deltaTime": 119,
                "type": "meta",
                "subtype": "setTempo",
                "microsecondsPerBeat": 937500
            },
            {
                "deltaTime": 1,
                "channel": 0,
                "type": "channel",
                "noteNumber": 60,
                "velocity": 0,
                "subtype": "noteOff"
            },
            {
                "deltaTime": 0,
                "channel": 0,
                "type": "channel",
                "noteNumber": 63,
                "velocity": 43,
                "subtype": "noteOn"
            },
            {
                "deltaTime": 119,
                "type": "meta",
                "subtype": "setTempo",
                "microsecondsPerBeat": 789474
            },
            {
                "deltaTime": 0,
                "channel": 0,
                "type": "channel",
                "subtype": "controller",
                "controllerType": 91,
                "value": 127
            },
            {
                "deltaTime": 0,
                "channel": 0,
                "type": "channel",
                "subtype": "controller",
                "controllerType": 91,
                "value": 127
            },
            {
                "deltaTime": 1,
                "channel": 0,
                "type": "channel",
                "noteNumber": 63,
                "velocity": 0,
                "subtype": "noteOff"
            },
            {
                "deltaTime": 0,
                "channel": 0,
                "type": "channel",
                "noteNumber": 48,
                "velocity": 0,
                "subtype": "noteOff"
            },
            {
                "deltaTime": 0,
                "channel": 0,
                "type": "channel",
                "noteNumber": 42,
                "velocity": 0,
                "subtype": "noteOff"
            },
            {
                "deltaTime": 0,
                "channel": 0,
                "type": "channel",
                "noteNumber": 44,
                "velocity": 51,
                "subtype": "noteOn"
            },
            {
                "deltaTime": 6,
                "channel": 0,
                "type": "channel",
                "subtype": "controller",
                "controllerType": 64,
                "value": 0
            },
            {
                "deltaTime": 113,
                "channel": 0,
                "type": "channel",
                "subtype": "controller",
                "controllerType": 64,
                "value": 127
            },
            {
                "deltaTime": 1,
                "channel": 0,
                "type": "channel",
                "noteNumber": 53,
                "velocity": 48,
                "subtype": "noteOn"
            },
            {
                "deltaTime": 120,
                "channel": 0,
                "type": "channel",
                "noteNumber": 59,
                "velocity": 47,
                "subtype": "noteOn"
            },
            {
                "deltaTime": 120,
                "channel": 0,
                "type": "channel",
                "noteNumber": 59,
                "velocity": 0,
                "subtype": "noteOff"
            },
            {
                "deltaTime": 0,
                "channel": 0,
                "type": "channel",
                "noteNumber": 60,
                "velocity": 50,
                "subtype": "noteOn"
            },
            {
                "deltaTime": 120,
                "channel": 0,
                "type": "channel",
                "noteNumber": 60,
                "velocity": 0,
                "subtype": "noteOff"
            },
            {
                "deltaTime": 0,
                "channel": 0,
                "type": "channel",
                "noteNumber": 62,
                "velocity": 53,
                "subtype": "noteOn"
            },
            {
                "deltaTime": 108,
                "channel": 0,
                "type": "channel",
                "noteNumber": 62,
                "velocity": 0,
                "subtype": "noteOff"
            },
            {
                "deltaTime": 11,
                "type": "meta",
                "subtype": "setTempo",
                "microsecondsPerBeat": 769231
            },
            {
                "deltaTime": 1,
                "channel": 0,
                "type": "channel",
                "noteNumber": 59,
                "velocity": 41,
                "subtype": "noteOn"
            },
            {
                "deltaTime": 120,
                "channel": 0,
                "type": "channel",
                "noteNumber": 59,
                "velocity": 0,
                "subtype": "noteOff"
            },
            {
                "deltaTime": 0,
                "channel": 0,
                "type": "channel",
                "noteNumber": 60,
                "velocity": 40,
                "subtype": "noteOn"
            },
            {
                "deltaTime": 119,
                "type": "meta",
                "subtype": "setTempo",
                "microsecondsPerBeat": 821918
            },
            {
                "deltaTime": 1,
                "channel": 0,
                "type": "channel",
                "noteNumber": 60,
                "velocity": 0,
                "subtype": "noteOff"
            },
            {
                "deltaTime": 0,
                "channel": 0,
                "type": "channel",
                "noteNumber": 62,
                "velocity": 40,
                "subtype": "noteOn"
            },
            {
                "deltaTime": 119,
                "type": "meta",
                "subtype": "setTempo",
                "microsecondsPerBeat": 789474
            },
            {
                "deltaTime": 1,
                "channel": 0,
                "type": "channel",
                "noteNumber": 62,
                "velocity": 0,
                "subtype": "noteOff"
            },
            {
                "deltaTime": 0,
                "channel": 0,
                "type": "channel",
                "noteNumber": 53,
                "velocity": 0,
                "subtype": "noteOff"
            },
            {
                "deltaTime": 0,
                "channel": 0,
                "type": "channel",
                "noteNumber": 44,
                "velocity": 0,
                "subtype": "noteOff"
            },
            {
                "deltaTime": 0,
                "channel": 0,
                "type": "channel",
                "noteNumber": 44,
                "velocity": 52,
                "subtype": "noteOn"
            },
            {
                "deltaTime": 120,
                "channel": 0,
                "type": "channel",
                "noteNumber": 53,
                "velocity": 48,
                "subtype": "noteOn"
            },
            {
                "deltaTime": 120,
                "channel": 0,
                "type": "channel",
                "noteNumber": 59,
                "velocity": 47,
                "subtype": "noteOn"
            },
            {
                "deltaTime": 120,
                "channel": 0,
                "type": "channel",
                "noteNumber": 59,
                "velocity": 0,
                "subtype": "noteOff"
            },
            {
                "deltaTime": 0,
                "channel": 0,
                "type": "channel",
                "noteNumber": 60,
                "velocity": 50,
                "subtype": "noteOn"
            },
            {
                "deltaTime": 120,
                "channel": 0,
                "type": "channel",
                "noteNumber": 60,
                "velocity": 0,
                "subtype": "noteOff"
            },
            {
                "deltaTime": 0,
                "channel": 0,
                "type": "channel",
                "noteNumber": 62,
                "velocity": 52,
                "subtype": "noteOn"
            },
            {
                "deltaTime": 108,
                "channel": 0,
                "type": "channel",
                "noteNumber": 62,
                "velocity": 0,
                "subtype": "noteOff"
            },
            {
                "deltaTime": 11,
                "type": "meta",
                "subtype": "setTempo",
                "microsecondsPerBeat": 774194
            },
            {
                "deltaTime": 1,
                "channel": 0,
                "type": "channel",
                "noteNumber": 59,
                "velocity": 42,
                "subtype": "noteOn"
            },
            {
                "deltaTime": 120,
                "channel": 0,
                "type": "channel",
                "noteNumber": 59,
                "velocity": 0,
                "subtype": "noteOff"
            },
            {
                "deltaTime": 0,
                "channel": 0,
                "type": "channel",
                "noteNumber": 60,
                "velocity": 40,
                "subtype": "noteOn"
            },
            {
                "deltaTime": 119,
                "type": "meta",
                "subtype": "setTempo",
                "microsecondsPerBeat": 816327
            },
            {
                "deltaTime": 1,
                "channel": 0,
                "type": "channel",
                "noteNumber": 60,
                "velocity": 0,
                "subtype": "noteOff"
            },
            {
                "deltaTime": 0,
                "channel": 0,
                "type": "channel",
                "noteNumber": 62,
                "velocity": 40,
                "subtype": "noteOn"
            },
            {
                "deltaTime": 119,
                "type": "meta",
                "subtype": "setTempo",
                "microsecondsPerBeat": 816327
            },
            {
                "deltaTime": 0,
                "channel": 0,
                "type": "channel",
                "subtype": "controller",
                "controllerType": 91,
                "value": 127
            },
            {
                "deltaTime": 0,
                "channel": 0,
                "type": "channel",
                "subtype": "controller",
                "controllerType": 91,
                "value": 127
            },
            {
                "deltaTime": 1,
                "channel": 0,
                "type": "channel",
                "noteNumber": 62,
                "velocity": 0,
                "subtype": "noteOff"
            },
            {
                "deltaTime": 0,
                "channel": 0,
                "type": "channel",
                "noteNumber": 53,
                "velocity": 0,
                "subtype": "noteOff"
            },
            {
                "deltaTime": 0,
                "channel": 0,
                "type": "channel",
                "noteNumber": 44,
                "velocity": 0,
                "subtype": "noteOff"
            },
            {
                "deltaTime": 0,
                "channel": 0,
                "type": "channel",
                "noteNumber": 43,
                "velocity": 55,
                "subtype": "noteOn"
            },
            {
                "deltaTime": 6,
                "channel": 0,
                "type": "channel",
                "subtype": "controller",
                "controllerType": 64,
                "value": 0
            },
            {
                "deltaTime": 114,
                "channel": 0,
                "type": "channel",
                "noteNumber": 53,
                "velocity": 51,
                "subtype": "noteOn"
            },
            {
                "deltaTime": 13,
                "channel": 0,
                "type": "channel",
                "subtype": "controller",
                "controllerType": 64,
                "value": 127
            },
            {
                "deltaTime": 107,
                "channel": 0,
                "type": "channel",
                "noteNumber": 55,
                "velocity": 50,
                "subtype": "noteOn"
            },
            {
                "deltaTime": 119,
                "type": "meta",
                "subtype": "setTempo",
                "microsecondsPerBeat": 789474
            },
            {
                "deltaTime": 1,
                "channel": 0,
                "type": "channel",
                "noteNumber": 55,
                "velocity": 0,
                "subtype": "noteOff"
            },
            {
                "deltaTime": 0,
                "channel": 0,
                "type": "channel",
                "noteNumber": 59,
                "velocity": 53,
                "subtype": "noteOn"
            },
            {
                "deltaTime": 120,
                "channel": 0,
                "type": "channel",
                "noteNumber": 59,
                "velocity": 0,
                "subtype": "noteOff"
            },
            {
                "deltaTime": 0,
                "channel": 0,
                "type": "channel",
                "noteNumber": 62,
                "velocity": 56,
                "subtype": "noteOn"
            },
            {
                "deltaTime": 108,
                "channel": 0,
                "type": "channel",
                "noteNumber": 62,
                "velocity": 0,
                "subtype": "noteOff"
            },
            {
                "deltaTime": 12,
                "channel": 0,
                "type": "channel",
                "noteNumber": 55,
                "velocity": 45,
                "subtype": "noteOn"
            },
            {
                "deltaTime": 120,
                "channel": 0,
                "type": "channel",
                "noteNumber": 55,
                "velocity": 0,
                "subtype": "noteOff"
            },
            {
                "deltaTime": 0,
                "channel": 0,
                "type": "channel",
                "noteNumber": 59,
                "velocity": 42,
                "subtype": "noteOn"
            },
            {
                "deltaTime": 120,
                "channel": 0,
                "type": "channel",
                "noteNumber": 59,
                "velocity": 0,
                "subtype": "noteOff"
            },
            {
                "deltaTime": 0,
                "channel": 0,
                "type": "channel",
                "noteNumber": 62,
                "velocity": 42,
                "subtype": "noteOn"
            },
            {
                "deltaTime": 119,
                "type": "meta",
                "subtype": "setTempo",
                "microsecondsPerBeat": 810811
            },
            {
                "deltaTime": 1,
                "channel": 0,
                "type": "channel",
                "noteNumber": 62,
                "velocity": 0,
                "subtype": "noteOff"
            },
            {
                "deltaTime": 0,
                "channel": 0,
                "type": "channel",
                "noteNumber": 53,
                "velocity": 0,
                "subtype": "noteOff"
            },
            {
                "deltaTime": 0,
                "channel": 0,
                "type": "channel",
                "noteNumber": 43,
                "velocity": 0,
                "subtype": "noteOff"
            },
            {
                "deltaTime": 0,
                "channel": 0,
                "type": "channel",
                "noteNumber": 43,
                "velocity": 55,
                "subtype": "noteOn"
            },
            {
                "deltaTime": 120,
                "channel": 0,
                "type": "channel",
                "noteNumber": 53,
                "velocity": 51,
                "subtype": "noteOn"
            },
            {
                "deltaTime": 120,
                "channel": 0,
                "type": "channel",
                "noteNumber": 55,
                "velocity": 50,
                "subtype": "noteOn"
            },
            {
                "deltaTime": 119,
                "type": "meta",
                "subtype": "setTempo",
                "microsecondsPerBeat": 789474
            },
            {
                "deltaTime": 1,
                "channel": 0,
                "type": "channel",
                "noteNumber": 55,
                "velocity": 0,
                "subtype": "noteOff"
            },
            {
                "deltaTime": 0,
                "channel": 0,
                "type": "channel",
                "noteNumber": 59,
                "velocity": 53,
                "subtype": "noteOn"
            },
            {
                "deltaTime": 120,
                "channel": 0,
                "type": "channel",
                "noteNumber": 59,
                "velocity": 0,
                "subtype": "noteOff"
            },
            {
                "deltaTime": 0,
                "channel": 0,
                "type": "channel",
                "noteNumber": 62,
                "velocity": 55,
                "subtype": "noteOn"
            },
            {
                "deltaTime": 108,
                "channel": 0,
                "type": "channel",
                "noteNumber": 62,
                "velocity": 0,
                "subtype": "noteOff"
            },
            {
                "deltaTime": 12,
                "channel": 0,
                "type": "channel",
                "noteNumber": 55,
                "velocity": 45,
                "subtype": "noteOn"
            },
            {
                "deltaTime": 120,
                "channel": 0,
                "type": "channel",
                "noteNumber": 55,
                "velocity": 0,
                "subtype": "noteOff"
            },
            {
                "deltaTime": 0,
                "channel": 0,
                "type": "channel",
                "noteNumber": 59,
                "velocity": 43,
                "subtype": "noteOn"
            },
            {
                "deltaTime": 119,
                "type": "meta",
                "subtype": "setTempo",
                "microsecondsPerBeat": 833333
            },
            {
                "deltaTime": 1,
                "channel": 0,
                "type": "channel",
                "noteNumber": 59,
                "velocity": 0,
                "subtype": "noteOff"
            },
            {
                "deltaTime": 0,
                "channel": 0,
                "type": "channel",
                "noteNumber": 62,
                "velocity": 43,
                "subtype": "noteOn"
            },
            {
                "deltaTime": 119,
                "type": "meta",
                "subtype": "setTempo",
                "microsecondsPerBeat": 805369
            },
            {
                "deltaTime": 0,
                "channel": 0,
                "type": "channel",
                "subtype": "controller",
                "controllerType": 91,
                "value": 127
            },
            {
                "deltaTime": 0,
                "channel": 0,
                "type": "channel",
                "subtype": "controller",
                "controllerType": 91,
                "value": 127
            },
            {
                "deltaTime": 1,
                "channel": 0,
                "type": "channel",
                "noteNumber": 62,
                "velocity": 0,
                "subtype": "noteOff"
            },
            {
                "deltaTime": 0,
                "channel": 0,
                "type": "channel",
                "noteNumber": 53,
                "velocity": 0,
                "subtype": "noteOff"
            },
            {
                "deltaTime": 0,
                "channel": 0,
                "type": "channel",
                "noteNumber": 43,
                "velocity": 0,
                "subtype": "noteOff"
            },
            {
                "deltaTime": 0,
                "channel": 0,
                "type": "channel",
                "noteNumber": 43,
                "velocity": 55,
                "subtype": "noteOn"
            },
            {
                "deltaTime": 10,
                "channel": 0,
                "type": "channel",
                "subtype": "controller",
                "controllerType": 64,
                "value": 0
            },
            {
                "deltaTime": 110,
                "channel": 0,
                "type": "channel",
                "noteNumber": 52,
                "velocity": 51,
                "subtype": "noteOn"
            },
            {
                "deltaTime": 20,
                "channel": 0,
                "type": "channel",
                "subtype": "controller",
                "controllerType": 64,
                "value": 127
            },
            {
                "deltaTime": 100,
                "channel": 0,
                "type": "channel",
                "noteNumber": 55,
                "velocity": 50,
                "subtype": "noteOn"
            },
            {
                "deltaTime": 120,
                "channel": 0,
                "type": "channel",
                "noteNumber": 55,
                "velocity": 0,
                "subtype": "noteOff"
            },
            {
                "deltaTime": 0,
                "channel": 0,
                "type": "channel",
                "noteNumber": 60,
                "velocity": 53,
                "subtype": "noteOn"
            },
            {
                "deltaTime": 119,
                "type": "meta",
                "subtype": "setTempo",
                "microsecondsPerBeat": 789474
            },
            {
                "deltaTime": 1,
                "channel": 0,
                "type": "channel",
                "noteNumber": 60,
                "velocity": 0,
                "subtype": "noteOff"
            },
            {
                "deltaTime": 0,
                "channel": 0,
                "type": "channel",
                "noteNumber": 64,
                "velocity": 56,
                "subtype": "noteOn"
            },
            {
                "deltaTime": 108,
                "channel": 0,
                "type": "channel",
                "noteNumber": 64,
                "velocity": 0,
                "subtype": "noteOff"
            },
            {
                "deltaTime": 12,
                "channel": 0,
                "type": "channel",
                "noteNumber": 55,
                "velocity": 45,
                "subtype": "noteOn"
            },
            {
                "deltaTime": 120,
                "channel": 0,
                "type": "channel",
                "noteNumber": 55,
                "velocity": 0,
                "subtype": "noteOff"
            },
            {
                "deltaTime": 0,
                "channel": 0,
                "type": "channel",
                "noteNumber": 60,
                "velocity": 42,
                "subtype": "noteOn"
            },
            {
                "deltaTime": 120,
                "channel": 0,
                "type": "channel",
                "noteNumber": 60,
                "velocity": 0,
                "subtype": "noteOff"
            },
            {
                "deltaTime": 0,
                "channel": 0,
                "type": "channel",
                "noteNumber": 64,
                "velocity": 42,
                "subtype": "noteOn"
            },
            {
                "deltaTime": 119,
                "type": "meta",
                "subtype": "setTempo",
                "microsecondsPerBeat": 805369
            },
            {
                "deltaTime": 1,
                "channel": 0,
                "type": "channel",
                "noteNumber": 64,
                "velocity": 0,
                "subtype": "noteOff"
            },
            {
                "deltaTime": 0,
                "channel": 0,
                "type": "channel",
                "noteNumber": 52,
                "velocity": 0,
                "subtype": "noteOff"
            },
            {
                "deltaTime": 0,
                "channel": 0,
                "type": "channel",
                "noteNumber": 43,
                "velocity": 0,
                "subtype": "noteOff"
            },
            {
                "deltaTime": 0,
                "channel": 0,
                "type": "channel",
                "noteNumber": 43,
                "velocity": 55,
                "subtype": "noteOn"
            },
            {
                "deltaTime": 120,
                "channel": 0,
                "type": "channel",
                "noteNumber": 52,
                "velocity": 51,
                "subtype": "noteOn"
            },
            {
                "deltaTime": 120,
                "channel": 0,
                "type": "channel",
                "noteNumber": 55,
                "velocity": 50,
                "subtype": "noteOn"
            },
            {
                "deltaTime": 120,
                "channel": 0,
                "type": "channel",
                "noteNumber": 55,
                "velocity": 0,
                "subtype": "noteOff"
            },
            {
                "deltaTime": 0,
                "channel": 0,
                "type": "channel",
                "noteNumber": 60,
                "velocity": 53,
                "subtype": "noteOn"
            },
            {
                "deltaTime": 119,
                "type": "meta",
                "subtype": "setTempo",
                "microsecondsPerBeat": 784314
            },
            {
                "deltaTime": 1,
                "channel": 0,
                "type": "channel",
                "noteNumber": 60,
                "velocity": 0,
                "subtype": "noteOff"
            },
            {
                "deltaTime": 0,
                "channel": 0,
                "type": "channel",
                "noteNumber": 64,
                "velocity": 55,
                "subtype": "noteOn"
            },
            {
                "deltaTime": 108,
                "channel": 0,
                "type": "channel",
                "noteNumber": 64,
                "velocity": 0,
                "subtype": "noteOff"
            },
            {
                "deltaTime": 12,
                "channel": 0,
                "type": "channel",
                "noteNumber": 55,
                "velocity": 45,
                "subtype": "noteOn"
            },
            {
                "deltaTime": 120,
                "channel": 0,
                "type": "channel",
                "noteNumber": 55,
                "velocity": 0,
                "subtype": "noteOff"
            },
            {
                "deltaTime": 0,
                "channel": 0,
                "type": "channel",
                "noteNumber": 60,
                "velocity": 43,
                "subtype": "noteOn"
            },
            {
                "deltaTime": 120,
                "channel": 0,
                "type": "channel",
                "noteNumber": 60,
                "velocity": 0,
                "subtype": "noteOff"
            },
            {
                "deltaTime": 0,
                "channel": 0,
                "type": "channel",
                "noteNumber": 64,
                "velocity": 43,
                "subtype": "noteOn"
            },
            {
                "deltaTime": 119,
                "type": "meta",
                "subtype": "setTempo",
                "microsecondsPerBeat": 789474
            },
            {
                "deltaTime": 0,
                "channel": 0,
                "type": "channel",
                "subtype": "controller",
                "controllerType": 91,
                "value": 127
            },
            {
                "deltaTime": 0,
                "channel": 0,
                "type": "channel",
                "subtype": "controller",
                "controllerType": 91,
                "value": 127
            },
            {
                "deltaTime": 1,
                "channel": 0,
                "type": "channel",
                "noteNumber": 64,
                "velocity": 0,
                "subtype": "noteOff"
            },
            {
                "deltaTime": 0,
                "channel": 0,
                "type": "channel",
                "noteNumber": 52,
                "velocity": 0,
                "subtype": "noteOff"
            },
            {
                "deltaTime": 0,
                "channel": 0,
                "type": "channel",
                "noteNumber": 43,
                "velocity": 0,
                "subtype": "noteOff"
            },
            {
                "deltaTime": 0,
                "channel": 0,
                "type": "channel",
                "noteNumber": 43,
                "velocity": 57,
                "subtype": "noteOn"
            },
            {
                "deltaTime": 13,
                "channel": 0,
                "type": "channel",
                "subtype": "controller",
                "controllerType": 64,
                "value": 0
            },
            {
                "deltaTime": 107,
                "channel": 0,
                "type": "channel",
                "noteNumber": 50,
                "velocity": 55,
                "subtype": "noteOn"
            },
            {
                "deltaTime": 41,
                "channel": 0,
                "type": "channel",
                "subtype": "controller",
                "controllerType": 64,
                "value": 127
            },
            {
                "deltaTime": 79,
                "channel": 0,
                "type": "channel",
                "noteNumber": 55,
                "velocity": 53,
                "subtype": "noteOn"
            },
            {
                "deltaTime": 120,
                "channel": 0,
                "type": "channel",
                "noteNumber": 55,
                "velocity": 0,
                "subtype": "noteOff"
            },
            {
                "deltaTime": 0,
                "channel": 0,
                "type": "channel",
                "noteNumber": 60,
                "velocity": 56,
                "subtype": "noteOn"
            },
            {
                "deltaTime": 119,
                "type": "meta",
                "subtype": "setTempo",
                "microsecondsPerBeat": 769231
            },
            {
                "deltaTime": 1,
                "channel": 0,
                "type": "channel",
                "noteNumber": 60,
                "velocity": 0,
                "subtype": "noteOff"
            },
            {
                "deltaTime": 0,
                "channel": 0,
                "type": "channel",
                "noteNumber": 65,
                "velocity": 60,
                "subtype": "noteOn"
            },
            {
                "deltaTime": 108,
                "channel": 0,
                "type": "channel",
                "noteNumber": 65,
                "velocity": 0,
                "subtype": "noteOff"
            },
            {
                "deltaTime": 12,
                "channel": 0,
                "type": "channel",
                "noteNumber": 55,
                "velocity": 46,
                "subtype": "noteOn"
            },
            {
                "deltaTime": 120,
                "channel": 0,
                "type": "channel",
                "noteNumber": 55,
                "velocity": 0,
                "subtype": "noteOff"
            },
            {
                "deltaTime": 0,
                "channel": 0,
                "type": "channel",
                "noteNumber": 60,
                "velocity": 45,
                "subtype": "noteOn"
            },
            {
                "deltaTime": 119,
                "type": "meta",
                "subtype": "setTempo",
                "microsecondsPerBeat": 816327
            },
            {
                "deltaTime": 1,
                "channel": 0,
                "type": "channel",
                "noteNumber": 60,
                "velocity": 0,
                "subtype": "noteOff"
            },
            {
                "deltaTime": 0,
                "channel": 0,
                "type": "channel",
                "noteNumber": 65,
                "velocity": 45,
                "subtype": "noteOn"
            },
            {
                "deltaTime": 119,
                "type": "meta",
                "subtype": "setTempo",
                "microsecondsPerBeat": 810811
            },
            {
                "deltaTime": 1,
                "channel": 0,
                "type": "channel",
                "noteNumber": 65,
                "velocity": 0,
                "subtype": "noteOff"
            },
            {
                "deltaTime": 0,
                "channel": 0,
                "type": "channel",
                "noteNumber": 50,
                "velocity": 0,
                "subtype": "noteOff"
            },
            {
                "deltaTime": 0,
                "channel": 0,
                "type": "channel",
                "noteNumber": 43,
                "velocity": 0,
                "subtype": "noteOff"
            },
            {
                "deltaTime": 0,
                "channel": 0,
                "type": "channel",
                "noteNumber": 43,
                "velocity": 58,
                "subtype": "noteOn"
            },
            {
                "deltaTime": 119,
                "type": "meta",
                "subtype": "setTempo",
                "microsecondsPerBeat": 794702
            },
            {
                "deltaTime": 1,
                "channel": 0,
                "type": "channel",
                "noteNumber": 50,
                "velocity": 55,
                "subtype": "noteOn"
            },
            {
                "deltaTime": 120,
                "channel": 0,
                "type": "channel",
                "noteNumber": 55,
                "velocity": 53,
                "subtype": "noteOn"
            },
            {
                "deltaTime": 120,
                "channel": 0,
                "type": "channel",
                "noteNumber": 55,
                "velocity": 0,
                "subtype": "noteOff"
            },
            {
                "deltaTime": 0,
                "channel": 0,
                "type": "channel",
                "noteNumber": 60,
                "velocity": 56,
                "subtype": "noteOn"
            },
            {
                "deltaTime": 119,
                "type": "meta",
                "subtype": "setTempo",
                "microsecondsPerBeat": 769231
            },
            {
                "deltaTime": 1,
                "channel": 0,
                "type": "channel",
                "noteNumber": 60,
                "velocity": 0,
                "subtype": "noteOff"
            },
            {
                "deltaTime": 0,
                "channel": 0,
                "type": "channel",
                "noteNumber": 65,
                "velocity": 58,
                "subtype": "noteOn"
            },
            {
                "deltaTime": 108,
                "channel": 0,
                "type": "channel",
                "noteNumber": 65,
                "velocity": 0,
                "subtype": "noteOff"
            },
            {
                "deltaTime": 12,
                "channel": 0,
                "type": "channel",
                "noteNumber": 55,
                "velocity": 47,
                "subtype": "noteOn"
            },
            {
                "deltaTime": 119,
                "type": "meta",
                "subtype": "setTempo",
                "microsecondsPerBeat": 779221
            },
            {
                "deltaTime": 1,
                "channel": 0,
                "type": "channel",
                "noteNumber": 55,
                "velocity": 0,
                "subtype": "noteOff"
            },
            {
                "deltaTime": 0,
                "channel": 0,
                "type": "channel",
                "noteNumber": 60,
                "velocity": 45,
                "subtype": "noteOn"
            },
            {
                "deltaTime": 119,
                "type": "meta",
                "subtype": "setTempo",
                "microsecondsPerBeat": 816327
            },
            {
                "deltaTime": 1,
                "channel": 0,
                "type": "channel",
                "noteNumber": 60,
                "velocity": 0,
                "subtype": "noteOff"
            },
            {
                "deltaTime": 0,
                "channel": 0,
                "type": "channel",
                "noteNumber": 65,
                "velocity": 45,
                "subtype": "noteOn"
            },
            {
                "deltaTime": 119,
                "type": "meta",
                "subtype": "setTempo",
                "microsecondsPerBeat": 794702
            },
            {
                "deltaTime": 0,
                "channel": 0,
                "type": "channel",
                "subtype": "controller",
                "controllerType": 91,
                "value": 127
            },
            {
                "deltaTime": 0,
                "channel": 0,
                "type": "channel",
                "subtype": "controller",
                "controllerType": 91,
                "value": 127
            },
            {
                "deltaTime": 1,
                "channel": 0,
                "type": "channel",
                "noteNumber": 65,
                "velocity": 0,
                "subtype": "noteOff"
            },
            {
                "deltaTime": 0,
                "channel": 0,
                "type": "channel",
                "noteNumber": 50,
                "velocity": 0,
                "subtype": "noteOff"
            },
            {
                "deltaTime": 0,
                "channel": 0,
                "type": "channel",
                "noteNumber": 43,
                "velocity": 0,
                "subtype": "noteOff"
            },
            {
                "deltaTime": 0,
                "channel": 0,
                "type": "channel",
                "noteNumber": 43,
                "velocity": 57,
                "subtype": "noteOn"
            },
            {
                "deltaTime": 6,
                "channel": 0,
                "type": "channel",
                "subtype": "controller",
                "controllerType": 64,
                "value": 0
            },
            {
                "deltaTime": 71,
                "channel": 0,
                "type": "channel",
                "subtype": "controller",
                "controllerType": 64,
                "value": 127
            },
            {
                "deltaTime": 43,
                "channel": 0,
                "type": "channel",
                "noteNumber": 50,
                "velocity": 55,
                "subtype": "noteOn"
            },
            {
                "deltaTime": 120,
                "channel": 0,
                "type": "channel",
                "noteNumber": 55,
                "velocity": 53,
                "subtype": "noteOn"
            },
            {
                "deltaTime": 120,
                "channel": 0,
                "type": "channel",
                "noteNumber": 55,
                "velocity": 0,
                "subtype": "noteOff"
            },
            {
                "deltaTime": 0,
                "channel": 0,
                "type": "channel",
                "noteNumber": 59,
                "velocity": 56,
                "subtype": "noteOn"
            },
            {
                "deltaTime": 119,
                "type": "meta",
                "subtype": "setTempo",
                "microsecondsPerBeat": 779221
            },
            {
                "deltaTime": 1,
                "channel": 0,
                "type": "channel",
                "noteNumber": 59,
                "velocity": 0,
                "subtype": "noteOff"
            },
            {
                "deltaTime": 0,
                "channel": 0,
                "type": "channel",
                "noteNumber": 65,
                "velocity": 60,
                "subtype": "noteOn"
            },
            {
                "deltaTime": 108,
                "channel": 0,
                "type": "channel",
                "noteNumber": 65,
                "velocity": 0,
                "subtype": "noteOff"
            },
            {
                "deltaTime": 12,
                "channel": 0,
                "type": "channel",
                "noteNumber": 55,
                "velocity": 46,
                "subtype": "noteOn"
            },
            {
                "deltaTime": 120,
                "channel": 0,
                "type": "channel",
                "noteNumber": 55,
                "velocity": 0,
                "subtype": "noteOff"
            },
            {
                "deltaTime": 0,
                "channel": 0,
                "type": "channel",
                "noteNumber": 59,
                "velocity": 45,
                "subtype": "noteOn"
            },
            {
                "deltaTime": 120,
                "channel": 0,
                "type": "channel",
                "noteNumber": 59,
                "velocity": 0,
                "subtype": "noteOff"
            },
            {
                "deltaTime": 0,
                "channel": 0,
                "type": "channel",
                "noteNumber": 65,
                "velocity": 45,
                "subtype": "noteOn"
            },
            {
                "deltaTime": 119,
                "type": "meta",
                "subtype": "setTempo",
                "microsecondsPerBeat": 794702
            },
            {
                "deltaTime": 1,
                "channel": 0,
                "type": "channel",
                "noteNumber": 65,
                "velocity": 0,
                "subtype": "noteOff"
            },
            {
                "deltaTime": 0,
                "channel": 0,
                "type": "channel",
                "noteNumber": 50,
                "velocity": 0,
                "subtype": "noteOff"
            },
            {
                "deltaTime": 0,
                "channel": 0,
                "type": "channel",
                "noteNumber": 43,
                "velocity": 0,
                "subtype": "noteOff"
            },
            {
                "deltaTime": 0,
                "channel": 0,
                "type": "channel",
                "noteNumber": 43,
                "velocity": 58,
                "subtype": "noteOn"
            },
            {
                "deltaTime": 120,
                "channel": 0,
                "type": "channel",
                "noteNumber": 50,
                "velocity": 55,
                "subtype": "noteOn"
            },
            {
                "deltaTime": 120,
                "channel": 0,
                "type": "channel",
                "noteNumber": 55,
                "velocity": 53,
                "subtype": "noteOn"
            },
            {
                "deltaTime": 120,
                "channel": 0,
                "type": "channel",
                "noteNumber": 55,
                "velocity": 0,
                "subtype": "noteOff"
            },
            {
                "deltaTime": 0,
                "channel": 0,
                "type": "channel",
                "noteNumber": 59,
                "velocity": 56,
                "subtype": "noteOn"
            },
            {
                "deltaTime": 119,
                "type": "meta",
                "subtype": "setTempo",
                "microsecondsPerBeat": 779221
            },
            {
                "deltaTime": 1,
                "channel": 0,
                "type": "channel",
                "noteNumber": 59,
                "velocity": 0,
                "subtype": "noteOff"
            },
            {
                "deltaTime": 0,
                "channel": 0,
                "type": "channel",
                "noteNumber": 65,
                "velocity": 58,
                "subtype": "noteOn"
            },
            {
                "deltaTime": 108,
                "channel": 0,
                "type": "channel",
                "noteNumber": 65,
                "velocity": 0,
                "subtype": "noteOff"
            },
            {
                "deltaTime": 12,
                "channel": 0,
                "type": "channel",
                "noteNumber": 55,
                "velocity": 47,
                "subtype": "noteOn"
            },
            {
                "deltaTime": 120,
                "channel": 0,
                "type": "channel",
                "noteNumber": 55,
                "velocity": 0,
                "subtype": "noteOff"
            },
            {
                "deltaTime": 0,
                "channel": 0,
                "type": "channel",
                "noteNumber": 59,
                "velocity": 45,
                "subtype": "noteOn"
            },
            {
                "deltaTime": 119,
                "type": "meta",
                "subtype": "setTempo",
                "microsecondsPerBeat": 821918
            },
            {
                "deltaTime": 1,
                "channel": 0,
                "type": "channel",
                "noteNumber": 59,
                "velocity": 0,
                "subtype": "noteOff"
            },
            {
                "deltaTime": 0,
                "channel": 0,
                "type": "channel",
                "noteNumber": 65,
                "velocity": 45,
                "subtype": "noteOn"
            },
            {
                "deltaTime": 119,
                "type": "meta",
                "subtype": "setTempo",
                "microsecondsPerBeat": 794702
            },
            {
                "deltaTime": 0,
                "channel": 0,
                "type": "channel",
                "subtype": "controller",
                "controllerType": 91,
                "value": 127
            },
            {
                "deltaTime": 0,
                "channel": 0,
                "type": "channel",
                "subtype": "controller",
                "controllerType": 91,
                "value": 127
            },
            {
                "deltaTime": 1,
                "channel": 0,
                "type": "channel",
                "noteNumber": 65,
                "velocity": 0,
                "subtype": "noteOff"
            },
            {
                "deltaTime": 0,
                "channel": 0,
                "type": "channel",
                "noteNumber": 50,
                "velocity": 0,
                "subtype": "noteOff"
            },
            {
                "deltaTime": 0,
                "channel": 0,
                "type": "channel",
                "noteNumber": 43,
                "velocity": 0,
                "subtype": "noteOff"
            },
            {
                "deltaTime": 0,
                "channel": 0,
                "type": "channel",
                "noteNumber": 43,
                "velocity": 61,
                "subtype": "noteOn"
            },
            {
                "deltaTime": 5,
                "channel": 0,
                "type": "channel",
                "subtype": "controller",
                "controllerType": 64,
                "value": 0
            },
            {
                "deltaTime": 91,
                "channel": 0,
                "type": "channel",
                "subtype": "controller",
                "controllerType": 64,
                "value": 127
            },
            {
                "deltaTime": 24,
                "channel": 0,
                "type": "channel",
                "noteNumber": 51,
                "velocity": 57,
                "subtype": "noteOn"
            },
            {
                "deltaTime": 120,
                "channel": 0,
                "type": "channel",
                "noteNumber": 57,
                "velocity": 56,
                "subtype": "noteOn"
            },
            {
                "deltaTime": 120,
                "channel": 0,
                "type": "channel",
                "noteNumber": 57,
                "velocity": 0,
                "subtype": "noteOff"
            },
            {
                "deltaTime": 0,
                "channel": 0,
                "type": "channel",
                "noteNumber": 60,
                "velocity": 60,
                "subtype": "noteOn"
            },
            {
                "deltaTime": 120,
                "channel": 0,
                "type": "channel",
                "noteNumber": 60,
                "velocity": 0,
                "subtype": "noteOff"
            },
            {
                "deltaTime": 0,
                "channel": 0,
                "type": "channel",
                "noteNumber": 66,
                "velocity": 63,
                "subtype": "noteOn"
            },
            {
                "deltaTime": 108,
                "channel": 0,
                "type": "channel",
                "noteNumber": 66,
                "velocity": 0,
                "subtype": "noteOff"
            },
            {
                "deltaTime": 11,
                "type": "meta",
                "subtype": "setTempo",
                "microsecondsPerBeat": 816327
            },
            {
                "deltaTime": 1,
                "channel": 0,
                "type": "channel",
                "noteNumber": 57,
                "velocity": 50,
                "subtype": "noteOn"
            },
            {
                "deltaTime": 120,
                "channel": 0,
                "type": "channel",
                "noteNumber": 57,
                "velocity": 0,
                "subtype": "noteOff"
            },
            {
                "deltaTime": 0,
                "channel": 0,
                "type": "channel",
                "noteNumber": 60,
                "velocity": 47,
                "subtype": "noteOn"
            },
            {
                "deltaTime": 120,
                "channel": 0,
                "type": "channel",
                "noteNumber": 60,
                "velocity": 0,
                "subtype": "noteOff"
            },
            {
                "deltaTime": 0,
                "channel": 0,
                "type": "channel",
                "noteNumber": 66,
                "velocity": 47,
                "subtype": "noteOn"
            },
            {
                "deltaTime": 119,
                "type": "meta",
                "subtype": "setTempo",
                "microsecondsPerBeat": 794702
            },
            {
                "deltaTime": 1,
                "channel": 0,
                "type": "channel",
                "noteNumber": 66,
                "velocity": 0,
                "subtype": "noteOff"
            },
            {
                "deltaTime": 0,
                "channel": 0,
                "type": "channel",
                "noteNumber": 51,
                "velocity": 0,
                "subtype": "noteOff"
            },
            {
                "deltaTime": 0,
                "channel": 0,
                "type": "channel",
                "noteNumber": 43,
                "velocity": 0,
                "subtype": "noteOff"
            },
            {
                "deltaTime": 0,
                "channel": 0,
                "type": "channel",
                "noteNumber": 43,
                "velocity": 62,
                "subtype": "noteOn"
            },
            {
                "deltaTime": 120,
                "channel": 0,
                "type": "channel",
                "noteNumber": 51,
                "velocity": 57,
                "subtype": "noteOn"
            },
            {
                "deltaTime": 120,
                "channel": 0,
                "type": "channel",
                "noteNumber": 57,
                "velocity": 56,
                "subtype": "noteOn"
            },
            {
                "deltaTime": 120,
                "channel": 0,
                "type": "channel",
                "noteNumber": 57,
                "velocity": 0,
                "subtype": "noteOff"
            },
            {
                "deltaTime": 0,
                "channel": 0,
                "type": "channel",
                "noteNumber": 60,
                "velocity": 60,
                "subtype": "noteOn"
            },
            {
                "deltaTime": 120,
                "channel": 0,
                "type": "channel",
                "noteNumber": 60,
                "velocity": 0,
                "subtype": "noteOff"
            },
            {
                "deltaTime": 0,
                "channel": 0,
                "type": "channel",
                "noteNumber": 66,
                "velocity": 62,
                "subtype": "noteOn"
            },
            {
                "deltaTime": 108,
                "channel": 0,
                "type": "channel",
                "noteNumber": 66,
                "velocity": 0,
                "subtype": "noteOff"
            },
            {
                "deltaTime": 11,
                "type": "meta",
                "subtype": "setTempo",
                "microsecondsPerBeat": 821918
            },
            {
                "deltaTime": 1,
                "channel": 0,
                "type": "channel",
                "noteNumber": 57,
                "velocity": 50,
                "subtype": "noteOn"
            },
            {
                "deltaTime": 120,
                "channel": 0,
                "type": "channel",
                "noteNumber": 57,
                "velocity": 0,
                "subtype": "noteOff"
            },
            {
                "deltaTime": 0,
                "channel": 0,
                "type": "channel",
                "noteNumber": 60,
                "velocity": 48,
                "subtype": "noteOn"
            },
            {
                "deltaTime": 119,
                "type": "meta",
                "subtype": "setTempo",
                "microsecondsPerBeat": 869565
            },
            {
                "deltaTime": 1,
                "channel": 0,
                "type": "channel",
                "noteNumber": 60,
                "velocity": 0,
                "subtype": "noteOff"
            },
            {
                "deltaTime": 0,
                "channel": 0,
                "type": "channel",
                "noteNumber": 66,
                "velocity": 48,
                "subtype": "noteOn"
            },
            {
                "deltaTime": 119,
                "type": "meta",
                "subtype": "setTempo",
                "microsecondsPerBeat": 857143
            },
            {
                "deltaTime": 0,
                "channel": 0,
                "type": "channel",
                "subtype": "controller",
                "controllerType": 91,
                "value": 127
            },
            {
                "deltaTime": 0,
                "channel": 0,
                "type": "channel",
                "subtype": "controller",
                "controllerType": 91,
                "value": 127
            },
            {
                "deltaTime": 1,
                "channel": 0,
                "type": "channel",
                "noteNumber": 66,
                "velocity": 0,
                "subtype": "noteOff"
            },
            {
                "deltaTime": 0,
                "channel": 0,
                "type": "channel",
                "noteNumber": 51,
                "velocity": 0,
                "subtype": "noteOff"
            },
            {
                "deltaTime": 0,
                "channel": 0,
                "type": "channel",
                "noteNumber": 43,
                "velocity": 0,
                "subtype": "noteOff"
            },
            {
                "deltaTime": 0,
                "channel": 0,
                "type": "channel",
                "noteNumber": 43,
                "velocity": 65,
                "subtype": "noteOn"
            },
            {
                "deltaTime": 13,
                "channel": 0,
                "type": "channel",
                "subtype": "controller",
                "controllerType": 64,
                "value": 0
            },
            {
                "deltaTime": 107,
                "channel": 0,
                "type": "channel",
                "noteNumber": 52,
                "velocity": 60,
                "subtype": "noteOn"
            },
            {
                "deltaTime": 34,
                "channel": 0,
                "type": "channel",
                "subtype": "controller",
                "controllerType": 64,
                "value": 127
            },
            {
                "deltaTime": 86,
                "channel": 0,
                "type": "channel",
                "noteNumber": 55,
                "velocity": 58,
                "subtype": "noteOn"
            },
            {
                "deltaTime": 119,
                "type": "meta",
                "subtype": "setTempo",
                "microsecondsPerBeat": 800000
            },
            {
                "deltaTime": 1,
                "channel": 0,
                "type": "channel",
                "noteNumber": 55,
                "velocity": 0,
                "subtype": "noteOff"
            },
            {
                "deltaTime": 0,
                "channel": 0,
                "type": "channel",
                "noteNumber": 60,
                "velocity": 63,
                "subtype": "noteOn"
            },
            {
                "deltaTime": 120,
                "channel": 0,
                "type": "channel",
                "noteNumber": 60,
                "velocity": 0,
                "subtype": "noteOff"
            },
            {
                "deltaTime": 0,
                "channel": 0,
                "type": "channel",
                "noteNumber": 67,
                "velocity": 66,
                "subtype": "noteOn"
            },
            {
                "deltaTime": 108,
                "channel": 0,
                "type": "channel",
                "noteNumber": 67,
                "velocity": 0,
                "subtype": "noteOff"
            },
            {
                "deltaTime": 11,
                "type": "meta",
                "subtype": "setTempo",
                "microsecondsPerBeat": 800000
            },
            {
                "deltaTime": 1,
                "channel": 0,
                "type": "channel",
                "noteNumber": 55,
                "velocity": 51,
                "subtype": "noteOn"
            },
            {
                "deltaTime": 120,
                "channel": 0,
                "type": "channel",
                "noteNumber": 55,
                "velocity": 0,
                "subtype": "noteOff"
            },
            {
                "deltaTime": 0,
                "channel": 0,
                "type": "channel",
                "noteNumber": 60,
                "velocity": 50,
                "subtype": "noteOn"
            },
            {
                "deltaTime": 120,
                "channel": 0,
                "type": "channel",
                "noteNumber": 60,
                "velocity": 0,
                "subtype": "noteOff"
            },
            {
                "deltaTime": 0,
                "channel": 0,
                "type": "channel",
                "noteNumber": 67,
                "velocity": 50,
                "subtype": "noteOn"
            },
            {
                "deltaTime": 119,
                "type": "meta",
                "subtype": "setTempo",
                "microsecondsPerBeat": 839161
            },
            {
                "deltaTime": 1,
                "channel": 0,
                "type": "channel",
                "noteNumber": 67,
                "velocity": 0,
                "subtype": "noteOff"
            },
            {
                "deltaTime": 0,
                "channel": 0,
                "type": "channel",
                "noteNumber": 52,
                "velocity": 0,
                "subtype": "noteOff"
            },
            {
                "deltaTime": 0,
                "channel": 0,
                "type": "channel",
                "noteNumber": 43,
                "velocity": 0,
                "subtype": "noteOff"
            },
            {
                "deltaTime": 0,
                "channel": 0,
                "type": "channel",
                "noteNumber": 43,
                "velocity": 65,
                "subtype": "noteOn"
            },
            {
                "deltaTime": 120,
                "channel": 0,
                "type": "channel",
                "noteNumber": 52,
                "velocity": 60,
                "subtype": "noteOn"
            },
            {
                "deltaTime": 120,
                "channel": 0,
                "type": "channel",
                "noteNumber": 55,
                "velocity": 58,
                "subtype": "noteOn"
            },
            {
                "deltaTime": 119,
                "type": "meta",
                "subtype": "setTempo",
                "microsecondsPerBeat": 800000
            },
            {
                "deltaTime": 1,
                "channel": 0,
                "type": "channel",
                "noteNumber": 55,
                "velocity": 0,
                "subtype": "noteOff"
            },
            {
                "deltaTime": 0,
                "channel": 0,
                "type": "channel",
                "noteNumber": 60,
                "velocity": 62,
                "subtype": "noteOn"
            },
            {
                "deltaTime": 120,
                "channel": 0,
                "type": "channel",
                "noteNumber": 60,
                "velocity": 0,
                "subtype": "noteOff"
            },
            {
                "deltaTime": 0,
                "channel": 0,
                "type": "channel",
                "noteNumber": 67,
                "velocity": 65,
                "subtype": "noteOn"
            },
            {
                "deltaTime": 108,
                "channel": 0,
                "type": "channel",
                "noteNumber": 67,
                "velocity": 0,
                "subtype": "noteOff"
            },
            {
                "deltaTime": 12,
                "channel": 0,
                "type": "channel",
                "noteNumber": 55,
                "velocity": 52,
                "subtype": "noteOn"
            },
            {
                "deltaTime": 120,
                "channel": 0,
                "type": "channel",
                "noteNumber": 55,
                "velocity": 0,
                "subtype": "noteOff"
            },
            {
                "deltaTime": 0,
                "channel": 0,
                "type": "channel",
                "noteNumber": 60,
                "velocity": 50,
                "subtype": "noteOn"
            },
            {
                "deltaTime": 119,
                "type": "meta",
                "subtype": "setTempo",
                "microsecondsPerBeat": 857143
            },
            {
                "deltaTime": 1,
                "channel": 0,
                "type": "channel",
                "noteNumber": 60,
                "velocity": 0,
                "subtype": "noteOff"
            },
            {
                "deltaTime": 0,
                "channel": 0,
                "type": "channel",
                "noteNumber": 67,
                "velocity": 50,
                "subtype": "noteOn"
            },
            {
                "deltaTime": 119,
                "type": "meta",
                "subtype": "setTempo",
                "microsecondsPerBeat": 800000
            },
            {
                "deltaTime": 0,
                "channel": 0,
                "type": "channel",
                "subtype": "controller",
                "controllerType": 91,
                "value": 127
            },
            {
                "deltaTime": 0,
                "channel": 0,
                "type": "channel",
                "subtype": "controller",
                "controllerType": 91,
                "value": 127
            },
            {
                "deltaTime": 1,
                "channel": 0,
                "type": "channel",
                "noteNumber": 67,
                "velocity": 0,
                "subtype": "noteOff"
            },
            {
                "deltaTime": 0,
                "channel": 0,
                "type": "channel",
                "noteNumber": 52,
                "velocity": 0,
                "subtype": "noteOff"
            },
            {
                "deltaTime": 0,
                "channel": 0,
                "type": "channel",
                "noteNumber": 43,
                "velocity": 0,
                "subtype": "noteOff"
            },
            {
                "deltaTime": 0,
                "channel": 0,
                "type": "channel",
                "noteNumber": 43,
                "velocity": 55,
                "subtype": "noteOn"
            },
            {
                "deltaTime": 7,
                "channel": 0,
                "type": "channel",
                "subtype": "controller",
                "controllerType": 64,
                "value": 0
            },
            {
                "deltaTime": 77,
                "channel": 0,
                "type": "channel",
                "subtype": "controller",
                "controllerType": 64,
                "value": 127
            },
            {
                "deltaTime": 36,
                "channel": 0,
                "type": "channel",
                "noteNumber": 50,
                "velocity": 51,
                "subtype": "noteOn"
            },
            {
                "deltaTime": 120,
                "channel": 0,
                "type": "channel",
                "noteNumber": 55,
                "velocity": 50,
                "subtype": "noteOn"
            },
            {
                "deltaTime": 120,
                "channel": 0,
                "type": "channel",
                "noteNumber": 55,
                "velocity": 0,
                "subtype": "noteOff"
            },
            {
                "deltaTime": 0,
                "channel": 0,
                "type": "channel",
                "noteNumber": 60,
                "velocity": 53,
                "subtype": "noteOn"
            },
            {
                "deltaTime": 120,
                "channel": 0,
                "type": "channel",
                "noteNumber": 60,
                "velocity": 0,
                "subtype": "noteOff"
            },
            {
                "deltaTime": 0,
                "channel": 0,
                "type": "channel",
                "noteNumber": 65,
                "velocity": 56,
                "subtype": "noteOn"
            },
            {
                "deltaTime": 108,
                "channel": 0,
                "type": "channel",
                "noteNumber": 65,
                "velocity": 0,
                "subtype": "noteOff"
            },
            {
                "deltaTime": 11,
                "type": "meta",
                "subtype": "setTempo",
                "microsecondsPerBeat": 784314
            },
            {
                "deltaTime": 1,
                "channel": 0,
                "type": "channel",
                "noteNumber": 55,
                "velocity": 45,
                "subtype": "noteOn"
            },
            {
                "deltaTime": 120,
                "channel": 0,
                "type": "channel",
                "noteNumber": 55,
                "velocity": 0,
                "subtype": "noteOff"
            },
            {
                "deltaTime": 0,
                "channel": 0,
                "type": "channel",
                "noteNumber": 60,
                "velocity": 42,
                "subtype": "noteOn"
            },
            {
                "deltaTime": 120,
                "channel": 0,
                "type": "channel",
                "noteNumber": 60,
                "velocity": 0,
                "subtype": "noteOff"
            },
            {
                "deltaTime": 0,
                "channel": 0,
                "type": "channel",
                "noteNumber": 65,
                "velocity": 42,
                "subtype": "noteOn"
            },
            {
                "deltaTime": 119,
                "type": "meta",
                "subtype": "setTempo",
                "microsecondsPerBeat": 800000
            },
            {
                "deltaTime": 1,
                "channel": 0,
                "type": "channel",
                "noteNumber": 65,
                "velocity": 0,
                "subtype": "noteOff"
            },
            {
                "deltaTime": 0,
                "channel": 0,
                "type": "channel",
                "noteNumber": 50,
                "velocity": 0,
                "subtype": "noteOff"
            },
            {
                "deltaTime": 0,
                "channel": 0,
                "type": "channel",
                "noteNumber": 43,
                "velocity": 0,
                "subtype": "noteOff"
            },
            {
                "deltaTime": 0,
                "channel": 0,
                "type": "channel",
                "noteNumber": 43,
                "velocity": 55,
                "subtype": "noteOn"
            },
            {
                "deltaTime": 120,
                "channel": 0,
                "type": "channel",
                "noteNumber": 50,
                "velocity": 51,
                "subtype": "noteOn"
            },
            {
                "deltaTime": 120,
                "channel": 0,
                "type": "channel",
                "noteNumber": 55,
                "velocity": 50,
                "subtype": "noteOn"
            },
            {
                "deltaTime": 120,
                "channel": 0,
                "type": "channel",
                "noteNumber": 55,
                "velocity": 0,
                "subtype": "noteOff"
            },
            {
                "deltaTime": 0,
                "channel": 0,
                "type": "channel",
                "noteNumber": 60,
                "velocity": 53,
                "subtype": "noteOn"
            },
            {
                "deltaTime": 120,
                "channel": 0,
                "type": "channel",
                "noteNumber": 60,
                "velocity": 0,
                "subtype": "noteOff"
            },
            {
                "deltaTime": 0,
                "channel": 0,
                "type": "channel",
                "noteNumber": 65,
                "velocity": 55,
                "subtype": "noteOn"
            },
            {
                "deltaTime": 108,
                "channel": 0,
                "type": "channel",
                "noteNumber": 65,
                "velocity": 0,
                "subtype": "noteOff"
            },
            {
                "deltaTime": 11,
                "type": "meta",
                "subtype": "setTempo",
                "microsecondsPerBeat": 784314
            },
            {
                "deltaTime": 1,
                "channel": 0,
                "type": "channel",
                "noteNumber": 55,
                "velocity": 45,
                "subtype": "noteOn"
            },
            {
                "deltaTime": 120,
                "channel": 0,
                "type": "channel",
                "noteNumber": 55,
                "velocity": 0,
                "subtype": "noteOff"
            },
            {
                "deltaTime": 0,
                "channel": 0,
                "type": "channel",
                "noteNumber": 60,
                "velocity": 43,
                "subtype": "noteOn"
            },
            {
                "deltaTime": 120,
                "channel": 0,
                "type": "channel",
                "noteNumber": 60,
                "velocity": 0,
                "subtype": "noteOff"
            },
            {
                "deltaTime": 0,
                "channel": 0,
                "type": "channel",
                "noteNumber": 65,
                "velocity": 43,
                "subtype": "noteOn"
            },
            {
                "deltaTime": 119,
                "type": "meta",
                "subtype": "setTempo",
                "microsecondsPerBeat": 851064
            },
            {
                "deltaTime": 0,
                "channel": 0,
                "type": "channel",
                "subtype": "controller",
                "controllerType": 91,
                "value": 127
            },
            {
                "deltaTime": 0,
                "channel": 0,
                "type": "channel",
                "subtype": "controller",
                "controllerType": 91,
                "value": 127
            },
            {
                "deltaTime": 1,
                "channel": 0,
                "type": "channel",
                "noteNumber": 65,
                "velocity": 0,
                "subtype": "noteOff"
            },
            {
                "deltaTime": 0,
                "channel": 0,
                "type": "channel",
                "noteNumber": 50,
                "velocity": 0,
                "subtype": "noteOff"
            },
            {
                "deltaTime": 0,
                "channel": 0,
                "type": "channel",
                "noteNumber": 43,
                "velocity": 0,
                "subtype": "noteOff"
            },
            {
                "deltaTime": 0,
                "channel": 0,
                "type": "channel",
                "noteNumber": 43,
                "velocity": 55,
                "subtype": "noteOn"
            },
            {
                "deltaTime": 10,
                "channel": 0,
                "type": "channel",
                "subtype": "controller",
                "controllerType": 64,
                "value": 0
            },
            {
                "deltaTime": 109,
                "type": "meta",
                "subtype": "setTempo",
                "microsecondsPerBeat": 800000
            },
            {
                "deltaTime": 1,
                "channel": 0,
                "type": "channel",
                "noteNumber": 50,
                "velocity": 51,
                "subtype": "noteOn"
            },
            {
                "deltaTime": 13,
                "channel": 0,
                "type": "channel",
                "subtype": "controller",
                "controllerType": 64,
                "value": 127
            },
            {
                "deltaTime": 107,
                "channel": 0,
                "type": "channel",
                "noteNumber": 55,
                "velocity": 50,
                "subtype": "noteOn"
            },
            {
                "deltaTime": 120,
                "channel": 0,
                "type": "channel",
                "noteNumber": 55,
                "velocity": 0,
                "subtype": "noteOff"
            },
            {
                "deltaTime": 0,
                "channel": 0,
                "type": "channel",
                "noteNumber": 59,
                "velocity": 53,
                "subtype": "noteOn"
            },
            {
                "deltaTime": 120,
                "channel": 0,
                "type": "channel",
                "noteNumber": 59,
                "velocity": 0,
                "subtype": "noteOff"
            },
            {
                "deltaTime": 0,
                "channel": 0,
                "type": "channel",
                "noteNumber": 65,
                "velocity": 56,
                "subtype": "noteOn"
            },
            {
                "deltaTime": 108,
                "channel": 0,
                "type": "channel",
                "noteNumber": 65,
                "velocity": 0,
                "subtype": "noteOff"
            },
            {
                "deltaTime": 12,
                "channel": 0,
                "type": "channel",
                "noteNumber": 55,
                "velocity": 45,
                "subtype": "noteOn"
            },
            {
                "deltaTime": 120,
                "channel": 0,
                "type": "channel",
                "noteNumber": 55,
                "velocity": 0,
                "subtype": "noteOff"
            },
            {
                "deltaTime": 0,
                "channel": 0,
                "type": "channel",
                "noteNumber": 59,
                "velocity": 42,
                "subtype": "noteOn"
            },
            {
                "deltaTime": 120,
                "channel": 0,
                "type": "channel",
                "noteNumber": 59,
                "velocity": 0,
                "subtype": "noteOff"
            },
            {
                "deltaTime": 0,
                "channel": 0,
                "type": "channel",
                "noteNumber": 65,
                "velocity": 42,
                "subtype": "noteOn"
            },
            {
                "deltaTime": 119,
                "type": "meta",
                "subtype": "setTempo",
                "microsecondsPerBeat": 839161
            },
            {
                "deltaTime": 1,
                "channel": 0,
                "type": "channel",
                "noteNumber": 65,
                "velocity": 0,
                "subtype": "noteOff"
            },
            {
                "deltaTime": 0,
                "channel": 0,
                "type": "channel",
                "noteNumber": 50,
                "velocity": 0,
                "subtype": "noteOff"
            },
            {
                "deltaTime": 0,
                "channel": 0,
                "type": "channel",
                "noteNumber": 43,
                "velocity": 0,
                "subtype": "noteOff"
            },
            {
                "deltaTime": 0,
                "channel": 0,
                "type": "channel",
                "noteNumber": 43,
                "velocity": 55,
                "subtype": "noteOn"
            },
            {
                "deltaTime": 119,
                "type": "meta",
                "subtype": "setTempo",
                "microsecondsPerBeat": 805369
            },
            {
                "deltaTime": 1,
                "channel": 0,
                "type": "channel",
                "noteNumber": 50,
                "velocity": 51,
                "subtype": "noteOn"
            },
            {
                "deltaTime": 120,
                "channel": 0,
                "type": "channel",
                "noteNumber": 55,
                "velocity": 50,
                "subtype": "noteOn"
            },
            {
                "deltaTime": 120,
                "channel": 0,
                "type": "channel",
                "noteNumber": 55,
                "velocity": 0,
                "subtype": "noteOff"
            },
            {
                "deltaTime": 0,
                "channel": 0,
                "type": "channel",
                "noteNumber": 59,
                "velocity": 53,
                "subtype": "noteOn"
            },
            {
                "deltaTime": 120,
                "channel": 0,
                "type": "channel",
                "noteNumber": 59,
                "velocity": 0,
                "subtype": "noteOff"
            },
            {
                "deltaTime": 0,
                "channel": 0,
                "type": "channel",
                "noteNumber": 65,
                "velocity": 55,
                "subtype": "noteOn"
            },
            {
                "deltaTime": 108,
                "channel": 0,
                "type": "channel",
                "noteNumber": 65,
                "velocity": 0,
                "subtype": "noteOff"
            },
            {
                "deltaTime": 12,
                "channel": 0,
                "type": "channel",
                "noteNumber": 55,
                "velocity": 45,
                "subtype": "noteOn"
            },
            {
                "deltaTime": 120,
                "channel": 0,
                "type": "channel",
                "noteNumber": 55,
                "velocity": 0,
                "subtype": "noteOff"
            },
            {
                "deltaTime": 0,
                "channel": 0,
                "type": "channel",
                "noteNumber": 59,
                "velocity": 43,
                "subtype": "noteOn"
            },
            {
                "deltaTime": 120,
                "channel": 0,
                "type": "channel",
                "noteNumber": 59,
                "velocity": 0,
                "subtype": "noteOff"
            },
            {
                "deltaTime": 0,
                "channel": 0,
                "type": "channel",
                "noteNumber": 65,
                "velocity": 43,
                "subtype": "noteOn"
            },
            {
                "deltaTime": 119,
                "type": "meta",
                "subtype": "setTempo",
                "microsecondsPerBeat": 816327
            },
            {
                "deltaTime": 0,
                "channel": 0,
                "type": "channel",
                "subtype": "controller",
                "controllerType": 91,
                "value": 127
            },
            {
                "deltaTime": 0,
                "channel": 0,
                "type": "channel",
                "subtype": "controller",
                "controllerType": 91,
                "value": 127
            },
            {
                "deltaTime": 1,
                "channel": 0,
                "type": "channel",
                "noteNumber": 65,
                "velocity": 0,
                "subtype": "noteOff"
            },
            {
                "deltaTime": 0,
                "channel": 0,
                "type": "channel",
                "noteNumber": 50,
                "velocity": 0,
                "subtype": "noteOff"
            },
            {
                "deltaTime": 0,
                "channel": 0,
                "type": "channel",
                "noteNumber": 43,
                "velocity": 0,
                "subtype": "noteOff"
            },
            {
                "deltaTime": 0,
                "channel": 0,
                "type": "channel",
                "noteNumber": 36,
                "velocity": 57,
                "subtype": "noteOn"
            },
            {
                "deltaTime": 9,
                "channel": 0,
                "type": "channel",
                "subtype": "controller",
                "controllerType": 64,
                "value": 0
            },
            {
                "deltaTime": 70,
                "channel": 0,
                "type": "channel",
                "subtype": "controller",
                "controllerType": 64,
                "value": 127
            },
            {
                "deltaTime": 41,
                "channel": 0,
                "type": "channel",
                "noteNumber": 48,
                "velocity": 55,
                "subtype": "noteOn"
            },
            {
                "deltaTime": 120,
                "channel": 0,
                "type": "channel",
                "noteNumber": 55,
                "velocity": 53,
                "subtype": "noteOn"
            },
            {
                "deltaTime": 120,
                "channel": 0,
                "type": "channel",
                "noteNumber": 55,
                "velocity": 0,
                "subtype": "noteOff"
            },
            {
                "deltaTime": 0,
                "channel": 0,
                "type": "channel",
                "noteNumber": 58,
                "velocity": 56,
                "subtype": "noteOn"
            },
            {
                "deltaTime": 119,
                "type": "meta",
                "subtype": "setTempo",
                "microsecondsPerBeat": 805369
            },
            {
                "deltaTime": 1,
                "channel": 0,
                "type": "channel",
                "noteNumber": 58,
                "velocity": 0,
                "subtype": "noteOff"
            },
            {
                "deltaTime": 0,
                "channel": 0,
                "type": "channel",
                "noteNumber": 64,
                "velocity": 60,
                "subtype": "noteOn"
            },
            {
                "deltaTime": 108,
                "channel": 0,
                "type": "channel",
                "noteNumber": 64,
                "velocity": 0,
                "subtype": "noteOff"
            },
            {
                "deltaTime": 12,
                "channel": 0,
                "type": "channel",
                "noteNumber": 55,
                "velocity": 46,
                "subtype": "noteOn"
            },
            {
                "deltaTime": 120,
                "channel": 0,
                "type": "channel",
                "noteNumber": 55,
                "velocity": 0,
                "subtype": "noteOff"
            },
            {
                "deltaTime": 0,
                "channel": 0,
                "type": "channel",
                "noteNumber": 58,
                "velocity": 45,
                "subtype": "noteOn"
            },
            {
                "deltaTime": 119,
                "type": "meta",
                "subtype": "setTempo",
                "microsecondsPerBeat": 851064
            },
            {
                "deltaTime": 1,
                "channel": 0,
                "type": "channel",
                "noteNumber": 58,
                "velocity": 0,
                "subtype": "noteOff"
            },
            {
                "deltaTime": 0,
                "channel": 0,
                "type": "channel",
                "noteNumber": 64,
                "velocity": 45,
                "subtype": "noteOn"
            },
            {
                "deltaTime": 119,
                "type": "meta",
                "subtype": "setTempo",
                "microsecondsPerBeat": 816327
            },
            {
                "deltaTime": 1,
                "channel": 0,
                "type": "channel",
                "noteNumber": 64,
                "velocity": 0,
                "subtype": "noteOff"
            },
            {
                "deltaTime": 0,
                "channel": 0,
                "type": "channel",
                "noteNumber": 48,
                "velocity": 0,
                "subtype": "noteOff"
            },
            {
                "deltaTime": 0,
                "channel": 0,
                "type": "channel",
                "noteNumber": 36,
                "velocity": 0,
                "subtype": "noteOff"
            },
            {
                "deltaTime": 0,
                "channel": 0,
                "type": "channel",
                "noteNumber": 36,
                "velocity": 58,
                "subtype": "noteOn"
            },
            {
                "deltaTime": 120,
                "channel": 0,
                "type": "channel",
                "noteNumber": 48,
                "velocity": 55,
                "subtype": "noteOn"
            },
            {
                "deltaTime": 120,
                "channel": 0,
                "type": "channel",
                "noteNumber": 55,
                "velocity": 53,
                "subtype": "noteOn"
            },
            {
                "deltaTime": 120,
                "channel": 0,
                "type": "channel",
                "noteNumber": 55,
                "velocity": 0,
                "subtype": "noteOff"
            },
            {
                "deltaTime": 0,
                "channel": 0,
                "type": "channel",
                "noteNumber": 58,
                "velocity": 56,
                "subtype": "noteOn"
            },
            {
                "deltaTime": 119,
                "type": "meta",
                "subtype": "setTempo",
                "microsecondsPerBeat": 805369
            },
            {
                "deltaTime": 1,
                "channel": 0,
                "type": "channel",
                "noteNumber": 58,
                "velocity": 0,
                "subtype": "noteOff"
            },
            {
                "deltaTime": 0,
                "channel": 0,
                "type": "channel",
                "noteNumber": 64,
                "velocity": 58,
                "subtype": "noteOn"
            },
            {
                "deltaTime": 108,
                "channel": 0,
                "type": "channel",
                "noteNumber": 64,
                "velocity": 0,
                "subtype": "noteOff"
            },
            {
                "deltaTime": 12,
                "channel": 0,
                "type": "channel",
                "noteNumber": 55,
                "velocity": 47,
                "subtype": "noteOn"
            },
            {
                "deltaTime": 120,
                "channel": 0,
                "type": "channel",
                "noteNumber": 55,
                "velocity": 0,
                "subtype": "noteOff"
            },
            {
                "deltaTime": 0,
                "channel": 0,
                "type": "channel",
                "noteNumber": 58,
                "velocity": 45,
                "subtype": "noteOn"
            },
            {
                "deltaTime": 119,
                "type": "meta",
                "subtype": "setTempo",
                "microsecondsPerBeat": 839161
            },
            {
                "deltaTime": 1,
                "channel": 0,
                "type": "channel",
                "noteNumber": 58,
                "velocity": 0,
                "subtype": "noteOff"
            },
            {
                "deltaTime": 0,
                "channel": 0,
                "type": "channel",
                "noteNumber": 64,
                "velocity": 45,
                "subtype": "noteOn"
            },
            {
                "deltaTime": 119,
                "type": "meta",
                "subtype": "setTempo",
                "microsecondsPerBeat": 816327
            },
            {
                "deltaTime": 1,
                "channel": 0,
                "type": "channel",
                "noteNumber": 64,
                "velocity": 0,
                "subtype": "noteOff"
            },
            {
                "deltaTime": 0,
                "channel": 0,
                "type": "channel",
                "noteNumber": 48,
                "velocity": 0,
                "subtype": "noteOff"
            },
            {
                "deltaTime": 0,
                "channel": 0,
                "type": "channel",
                "noteNumber": 36,
                "velocity": 0,
                "subtype": "noteOff"
            },
            {
                "deltaTime": 0,
                "channel": 0,
                "type": "channel",
                "noteNumber": 36,
                "velocity": 55,
                "subtype": "noteOn"
            },
            {
                "deltaTime": 9,
                "channel": 0,
                "type": "channel",
                "subtype": "controller",
                "controllerType": 64,
                "value": 0
            },
            {
                "deltaTime": 96,
                "channel": 0,
                "type": "channel",
                "subtype": "controller",
                "controllerType": 64,
                "value": 127
            },
            {
                "deltaTime": 14,
                "channel": 0,
                "type": "channel",
                "noteNumber": 48,
                "velocity": 51,
                "subtype": "noteOn"
            },
            {
                "deltaTime": 120,
                "channel": 0,
                "type": "channel",
                "noteNumber": 53,
                "velocity": 50,
                "subtype": "noteOn"
            },
            {
                "deltaTime": 120,
                "type": "meta",
                "subtype": "setTempo",
                "microsecondsPerBeat": 794702
            },
            {
                "deltaTime": 0,
                "channel": 0,
                "type": "channel",
                "noteNumber": 53,
                "velocity": 0,
                "subtype": "noteOff"
            },
            {
                "deltaTime": 0,
                "channel": 0,
                "type": "channel",
                "noteNumber": 57,
                "velocity": 53,
                "subtype": "noteOn"
            },
            {
                "deltaTime": 120,
                "channel": 0,
                "type": "channel",
                "noteNumber": 57,
                "velocity": 0,
                "subtype": "noteOff"
            },
            {
                "deltaTime": 0,
                "channel": 0,
                "type": "channel",
                "noteNumber": 60,
                "velocity": 55,
                "subtype": "noteOn"
            },
            {
                "deltaTime": 100,
                "type": "meta",
                "subtype": "setTempo",
                "microsecondsPerBeat": 816327
            },
            {
                "deltaTime": 20,
                "channel": 0,
                "type": "channel",
                "noteNumber": 60,
                "velocity": 0,
                "subtype": "noteOff"
            },
            {
                "deltaTime": 0,
                "channel": 0,
                "type": "channel",
                "noteNumber": 65,
                "velocity": 53,
                "subtype": "noteOn"
            },
            {
                "deltaTime": 120,
                "channel": 0,
                "type": "channel",
                "noteNumber": 65,
                "velocity": 0,
                "subtype": "noteOff"
            },
            {
                "deltaTime": 0,
                "channel": 0,
                "type": "channel",
                "noteNumber": 60,
                "velocity": 53,
                "subtype": "noteOn"
            },
            {
                "deltaTime": 120,
                "channel": 0,
                "type": "channel",
                "noteNumber": 60,
                "velocity": 0,
                "subtype": "noteOff"
            },
            {
                "deltaTime": 0,
                "channel": 0,
                "type": "channel",
                "noteNumber": 57,
                "velocity": 53,
                "subtype": "noteOn"
            },
            {
                "deltaTime": 120,
                "type": "meta",
                "subtype": "setTempo",
                "microsecondsPerBeat": 789474
            },
            {
                "deltaTime": 0,
                "channel": 0,
                "type": "channel",
                "noteNumber": 57,
                "velocity": 0,
                "subtype": "noteOff"
            },
            {
                "deltaTime": 0,
                "channel": 0,
                "type": "channel",
                "noteNumber": 60,
                "velocity": 55,
                "subtype": "noteOn"
            },
            {
                "deltaTime": 120,
                "type": "meta",
                "subtype": "setTempo",
                "microsecondsPerBeat": 816327
            },
            {
                "deltaTime": 0,
                "channel": 0,
                "type": "channel",
                "noteNumber": 60,
                "velocity": 0,
                "subtype": "noteOff"
            },
            {
                "deltaTime": 0,
                "channel": 0,
                "type": "channel",
                "noteNumber": 57,
                "velocity": 50,
                "subtype": "noteOn"
            },
            {
                "deltaTime": 120,
                "channel": 0,
                "type": "channel",
                "noteNumber": 57,
                "velocity": 0,
                "subtype": "noteOff"
            },
            {
                "deltaTime": 0,
                "channel": 0,
                "type": "channel",
                "noteNumber": 53,
                "velocity": 47,
                "subtype": "noteOn"
            },
            {
                "deltaTime": 120,
                "channel": 0,
                "type": "channel",
                "noteNumber": 53,
                "velocity": 0,
                "subtype": "noteOff"
            },
            {
                "deltaTime": 0,
                "channel": 0,
                "type": "channel",
                "noteNumber": 57,
                "velocity": 46,
                "subtype": "noteOn"
            },
            {
                "deltaTime": 120,
                "type": "meta",
                "subtype": "setTempo",
                "microsecondsPerBeat": 845070
            },
            {
                "deltaTime": 0,
                "channel": 0,
                "type": "channel",
                "noteNumber": 57,
                "velocity": 0,
                "subtype": "noteOff"
            },
            {
                "deltaTime": 0,
                "channel": 0,
                "type": "channel",
                "noteNumber": 53,
                "velocity": 46,
                "subtype": "noteOn"
            },
            {
                "deltaTime": 120,
                "channel": 0,
                "type": "channel",
                "noteNumber": 53,
                "velocity": 0,
                "subtype": "noteOff"
            },
            {
                "deltaTime": 0,
                "channel": 0,
                "type": "channel",
                "noteNumber": 50,
                "velocity": 42,
                "subtype": "noteOn"
            },
            {
                "deltaTime": 120,
                "type": "meta",
                "subtype": "setTempo",
                "microsecondsPerBeat": 902256
            },
            {
                "deltaTime": 0,
                "channel": 0,
                "type": "channel",
                "noteNumber": 50,
                "velocity": 0,
                "subtype": "noteOff"
            },
            {
                "deltaTime": 0,
                "channel": 0,
                "type": "channel",
                "noteNumber": 53,
                "velocity": 43,
                "subtype": "noteOn"
            },
            {
                "deltaTime": 120,
                "type": "meta",
                "subtype": "setTempo",
                "microsecondsPerBeat": 1008403
            },
            {
                "deltaTime": 0,
                "channel": 0,
                "type": "channel",
                "noteNumber": 53,
                "velocity": 0,
                "subtype": "noteOff"
            },
            {
                "deltaTime": 0,
                "channel": 0,
                "type": "channel",
                "noteNumber": 50,
                "velocity": 38,
                "subtype": "noteOn"
            },
            {
                "deltaTime": 120,
                "type": "meta",
                "subtype": "setTempo",
                "microsecondsPerBeat": 845070
            },
            {
                "deltaTime": 0,
                "channel": 0,
                "type": "channel",
                "noteNumber": 50,
                "velocity": 0,
                "subtype": "noteOff"
            },
            {
                "deltaTime": 0,
                "channel": 0,
                "type": "channel",
                "noteNumber": 48,
                "velocity": 0,
                "subtype": "noteOff"
            },
            {
                "deltaTime": 1,
                "channel": 0,
                "type": "channel",
                "noteNumber": 36,
                "velocity": 0,
                "subtype": "noteOff"
            },
            {
                "deltaTime": 0,
                "channel": 0,
                "type": "channel",
                "noteNumber": 36,
                "velocity": 55,
                "subtype": "noteOn"
            },
            {
                "deltaTime": 9,
                "channel": 0,
                "type": "channel",
                "subtype": "controller",
                "controllerType": 64,
                "value": 0
            },
            {
                "deltaTime": 110,
                "channel": 0,
                "type": "channel",
                "noteNumber": 50,
                "velocity": 51,
                "subtype": "noteOn"
            },
            {
                "deltaTime": 21,
                "channel": 0,
                "type": "channel",
                "subtype": "controller",
                "controllerType": 64,
                "value": 127
            },
            {
                "deltaTime": 99,
                "channel": 0,
                "type": "channel",
                "noteNumber": 67,
                "velocity": 50,
                "subtype": "noteOn"
            },
            {
                "deltaTime": 120,
                "channel": 0,
                "type": "channel",
                "noteNumber": 67,
                "velocity": 0,
                "subtype": "noteOff"
            },
            {
                "deltaTime": 0,
                "channel": 0,
                "type": "channel",
                "noteNumber": 71,
                "velocity": 53,
                "subtype": "noteOn"
            },
            {
                "deltaTime": 120,
                "channel": 0,
                "type": "channel",
                "noteNumber": 71,
                "velocity": 0,
                "subtype": "noteOff"
            },
            {
                "deltaTime": 0,
                "channel": 0,
                "type": "channel",
                "noteNumber": 74,
                "velocity": 55,
                "subtype": "noteOn"
            },
            {
                "deltaTime": 120,
                "channel": 0,
                "type": "channel",
                "noteNumber": 74,
                "velocity": 0,
                "subtype": "noteOff"
            },
            {
                "deltaTime": 0,
                "channel": 0,
                "type": "channel",
                "noteNumber": 77,
                "velocity": 60,
                "subtype": "noteOn"
            },
            {
                "deltaTime": 120,
                "channel": 0,
                "type": "channel",
                "noteNumber": 77,
                "velocity": 0,
                "subtype": "noteOff"
            },
            {
                "deltaTime": 0,
                "channel": 0,
                "type": "channel",
                "noteNumber": 74,
                "velocity": 55,
                "subtype": "noteOn"
            },
            {
                "deltaTime": 120,
                "channel": 0,
                "type": "channel",
                "noteNumber": 74,
                "velocity": 0,
                "subtype": "noteOff"
            },
            {
                "deltaTime": 0,
                "channel": 0,
                "type": "channel",
                "noteNumber": 71,
                "velocity": 53,
                "subtype": "noteOn"
            },
            {
                "deltaTime": 120,
                "type": "meta",
                "subtype": "setTempo",
                "microsecondsPerBeat": 944882
            },
            {
                "deltaTime": 0,
                "channel": 0,
                "type": "channel",
                "noteNumber": 71,
                "velocity": 0,
                "subtype": "noteOff"
            },
            {
                "deltaTime": 0,
                "channel": 0,
                "type": "channel",
                "noteNumber": 74,
                "velocity": 56,
                "subtype": "noteOn"
            },
            {
                "deltaTime": 120,
                "channel": 0,
                "type": "channel",
                "noteNumber": 74,
                "velocity": 0,
                "subtype": "noteOff"
            },
            {
                "deltaTime": 0,
                "channel": 0,
                "type": "channel",
                "noteNumber": 71,
                "velocity": 53,
                "subtype": "noteOn"
            },
            {
                "deltaTime": 120,
                "channel": 0,
                "type": "channel",
                "noteNumber": 71,
                "velocity": 0,
                "subtype": "noteOff"
            },
            {
                "deltaTime": 0,
                "channel": 0,
                "type": "channel",
                "noteNumber": 67,
                "velocity": 56,
                "subtype": "noteOn"
            },
            {
                "deltaTime": 120,
                "channel": 0,
                "type": "channel",
                "noteNumber": 67,
                "velocity": 0,
                "subtype": "noteOff"
            },
            {
                "deltaTime": 0,
                "channel": 0,
                "type": "channel",
                "noteNumber": 71,
                "velocity": 53,
                "subtype": "noteOn"
            },
            {
                "deltaTime": 120,
                "type": "meta",
                "subtype": "setTempo",
                "microsecondsPerBeat": 1100917
            },
            {
                "deltaTime": 0,
                "channel": 0,
                "type": "channel",
                "noteNumber": 71,
                "velocity": 0,
                "subtype": "noteOff"
            },
            {
                "deltaTime": 0,
                "channel": 0,
                "type": "channel",
                "noteNumber": 62,
                "velocity": 55,
                "subtype": "noteOn"
            },
            {
                "deltaTime": 20,
                "type": "meta",
                "subtype": "setTempo",
                "microsecondsPerBeat": 1111111
            },
            {
                "deltaTime": 20,
                "type": "meta",
                "subtype": "setTempo",
                "microsecondsPerBeat": 1121495
            },
            {
                "deltaTime": 20,
                "type": "meta",
                "subtype": "setTempo",
                "microsecondsPerBeat": 1142857
            },
            {
                "deltaTime": 20,
                "type": "meta",
                "subtype": "setTempo",
                "microsecondsPerBeat": 1153846
            },
            {
                "deltaTime": 20,
                "type": "meta",
                "subtype": "setTempo",
                "microsecondsPerBeat": 1176471
            },
            {
                "deltaTime": 20,
                "type": "meta",
                "subtype": "setTempo",
                "microsecondsPerBeat": 1188119
            },
            {
                "deltaTime": 0,
                "channel": 0,
                "type": "channel",
                "noteNumber": 62,
                "velocity": 0,
                "subtype": "noteOff"
            },
            {
                "deltaTime": 0,
                "channel": 0,
                "type": "channel",
                "noteNumber": 65,
                "velocity": 50,
                "subtype": "noteOn"
            },
            {
                "deltaTime": 20,
                "type": "meta",
                "subtype": "setTempo",
                "microsecondsPerBeat": 1200000
            },
            {
                "deltaTime": 20,
                "type": "meta",
                "subtype": "setTempo",
                "microsecondsPerBeat": 1224490
            },
            {
                "deltaTime": 20,
                "type": "meta",
                "subtype": "setTempo",
                "microsecondsPerBeat": 1237113
            },
            {
                "deltaTime": 20,
                "type": "meta",
                "subtype": "setTempo",
                "microsecondsPerBeat": 1263158
            },
            {
                "deltaTime": 20,
                "type": "meta",
                "subtype": "setTempo",
                "microsecondsPerBeat": 1276596
            },
            {
                "deltaTime": 20,
                "type": "meta",
                "subtype": "setTempo",
                "microsecondsPerBeat": 1290323
            },
            {
                "deltaTime": 0,
                "channel": 0,
                "type": "channel",
                "noteNumber": 65,
                "velocity": 0,
                "subtype": "noteOff"
            },
            {
                "deltaTime": 0,
                "channel": 0,
                "type": "channel",
                "noteNumber": 64,
                "velocity": 50,
                "subtype": "noteOn"
            },
            {
                "deltaTime": 20,
                "type": "meta",
                "subtype": "setTempo",
                "microsecondsPerBeat": 1318681
            },
            {
                "deltaTime": 20,
                "type": "meta",
                "subtype": "setTempo",
                "microsecondsPerBeat": 1333333
            },
            {
                "deltaTime": 20,
                "type": "meta",
                "subtype": "setTempo",
                "microsecondsPerBeat": 1363636
            },
            {
                "deltaTime": 20,
                "type": "meta",
                "subtype": "setTempo",
                "microsecondsPerBeat": 1379310
            },
            {
                "deltaTime": 20,
                "type": "meta",
                "subtype": "setTempo",
                "microsecondsPerBeat": 1411765
            },
            {
                "deltaTime": 20,
                "type": "meta",
                "subtype": "setTempo",
                "microsecondsPerBeat": 1904762
            },
            {
                "deltaTime": 0,
                "channel": 0,
                "type": "channel",
                "noteNumber": 64,
                "velocity": 0,
                "subtype": "noteOff"
            },
            {
                "deltaTime": 0,
                "channel": 0,
                "type": "channel",
                "noteNumber": 62,
                "velocity": 50,
                "subtype": "noteOn"
            },
            {
                "deltaTime": 120,
                "channel": 0,
                "type": "channel",
                "noteNumber": 62,
                "velocity": 0,
                "subtype": "noteOff"
            },
            {
                "deltaTime": 0,
                "channel": 0,
                "type": "channel",
                "noteNumber": 50,
                "velocity": 0,
                "subtype": "noteOff"
            },
            {
                "deltaTime": 0,
                "channel": 0,
                "type": "channel",
                "subtype": "controller",
                "controllerType": 64,
                "value": 0
            },
            {
                "deltaTime": 1,
                "channel": 0,
                "type": "channel",
                "noteNumber": 36,
                "velocity": 0,
                "subtype": "noteOff"
            },
            {
                "deltaTime": 0,
                "channel": 0,
                "type": "channel",
                "noteNumber": 72,
                "velocity": 50,
                "subtype": "noteOn"
            },
            {
                "deltaTime": 0,
                "channel": 0,
                "type": "channel",
                "noteNumber": 67,
                "velocity": 50,
                "subtype": "noteOn"
            },
            {
                "deltaTime": 0,
                "channel": 0,
                "type": "channel",
                "noteNumber": 64,
                "velocity": 50,
                "subtype": "noteOn"
            },
            {
                "deltaTime": 0,
                "channel": 0,
                "type": "channel",
                "noteNumber": 36,
                "velocity": 53,
                "subtype": "noteOn"
            },
            {
                "deltaTime": 0,
                "channel": 0,
                "type": "channel",
                "noteNumber": 48,
                "velocity": 53,
                "subtype": "noteOn"
            },
            {
                "deltaTime": 319,
                "channel": 0,
                "type": "channel",
                "subtype": "controller",
                "controllerType": 64,
                "value": 127
            },
            {
                "deltaTime": 1121,
                "channel": 0,
                "type": "channel",
                "noteNumber": 48,
                "velocity": 0,
                "subtype": "noteOff"
            },
            {
                "deltaTime": 0,
                "channel": 0,
                "type": "channel",
                "noteNumber": 64,
                "velocity": 0,
                "subtype": "noteOff"
            },
            {
                "deltaTime": 0,
                "channel": 0,
                "type": "channel",
                "noteNumber": 72,
                "velocity": 0,
                "subtype": "noteOff"
            },
            {
                "deltaTime": 0,
                "channel": 0,
                "type": "channel",
                "noteNumber": 67,
                "velocity": 0,
                "subtype": "noteOff"
            },
            {
                "deltaTime": 0,
                "channel": 0,
                "type": "channel",
                "noteNumber": 36,
                "velocity": 0,
                "subtype": "noteOff"
            },
            {
                "deltaTime": 307,
                "channel": 0,
                "type": "channel",
                "subtype": "controller",
                "controllerType": 64,
                "value": 0
            },
            {
                "deltaTime": 172,
                "type": "meta",
                "subtype": "setTempo",
                "microsecondsPerBeat": 961384
            },
            {
                "deltaTime": 0,
                "type": "meta",
                "subtype": "marker",
                "text": "Fugue"
            },
            {
                "deltaTime": 0,
                "channel": 2,
                "type": "channel",
                "subtype": "controller",
                "controllerType": 91,
                "value": 127
            },
            {
                "deltaTime": 0,
                "channel": 2,
                "type": "channel",
                "subtype": "controller",
                "controllerType": 93,
                "value": 0
            },
            {
                "deltaTime": 0,
                "channel": 3,
                "type": "channel",
                "subtype": "controller",
                "controllerType": 91,
                "value": 127
            },
            {
                "deltaTime": 0,
                "channel": 3,
                "type": "channel",
                "subtype": "controller",
                "controllerType": 93,
                "value": 0
            },
            {
                "deltaTime": 0,
                "channel": 4,
                "type": "channel",
                "subtype": "controller",
                "controllerType": 91,
                "value": 127
            },
            {
                "deltaTime": 0,
                "channel": 4,
                "type": "channel",
                "subtype": "controller",
                "controllerType": 93,
                "value": 0
            },
            {
                "deltaTime": 0,
                "channel": 5,
                "type": "channel",
                "subtype": "controller",
                "controllerType": 91,
                "value": 127
            },
            {
                "deltaTime": 0,
                "channel": 5,
                "type": "channel",
                "subtype": "controller",
                "controllerType": 93,
                "value": 0
            },
            {
                "deltaTime": 240,
                "channel": 3,
                "type": "channel",
                "subtype": "controller",
                "controllerType": 7,
                "value": 127
            },
            {
                "deltaTime": 0,
                "channel": 3,
                "type": "channel",
                "noteNumber": 60,
                "velocity": 53,
                "subtype": "noteOn"
            },
            {
                "deltaTime": 240,
                "channel": 3,
                "type": "channel",
                "noteNumber": 60,
                "velocity": 0,
                "subtype": "noteOff"
            },
            {
                "deltaTime": 0,
                "channel": 3,
                "type": "channel",
                "noteNumber": 62,
                "velocity": 54,
                "subtype": "noteOn"
            },
            {
                "deltaTime": 240,
                "channel": 3,
                "type": "channel",
                "noteNumber": 62,
                "velocity": 0,
                "subtype": "noteOff"
            },
            {
                "deltaTime": 0,
                "channel": 3,
                "type": "channel",
                "noteNumber": 64,
                "velocity": 56,
                "subtype": "noteOn"
            },
            {
                "deltaTime": 240,
                "type": "meta",
                "subtype": "setTempo",
                "microsecondsPerBeat": 960000
            },
            {
                "deltaTime": 0,
                "channel": 3,
                "type": "channel",
                "noteNumber": 64,
                "velocity": 0,
                "subtype": "noteOff"
            },
            {
                "deltaTime": 0,
                "channel": 3,
                "type": "channel",
                "noteNumber": 65,
                "velocity": 60,
                "subtype": "noteOn"
            },
            {
                "deltaTime": 360,
                "type": "meta",
                "subtype": "setTempo",
                "microsecondsPerBeat": 895522
            },
            {
                "deltaTime": 0,
                "channel": 3,
                "type": "channel",
                "noteNumber": 65,
                "velocity": 0,
                "subtype": "noteOff"
            },
            {
                "deltaTime": 0,
                "channel": 3,
                "type": "channel",
                "noteNumber": 67,
                "velocity": 58,
                "subtype": "noteOn"
            },
            {
                "deltaTime": 60,
                "channel": 3,
                "type": "channel",
                "noteNumber": 67,
                "velocity": 0,
                "subtype": "noteOff"
            },
            {
                "deltaTime": 0,
                "channel": 3,
                "type": "channel",
                "noteNumber": 65,
                "velocity": 58,
                "subtype": "noteOn"
            },
            {
                "deltaTime": 60,
                "type": "meta",
                "subtype": "setTempo",
                "microsecondsPerBeat": 952381
            },
            {
                "deltaTime": 0,
                "channel": 3,
                "type": "channel",
                "noteNumber": 65,
                "velocity": 0,
                "subtype": "noteOff"
            },
            {
                "deltaTime": 0,
                "channel": 3,
                "type": "channel",
                "noteNumber": 64,
                "velocity": 60,
                "subtype": "noteOn"
            },
            {
                "deltaTime": 220,
                "channel": 3,
                "type": "channel",
                "noteNumber": 64,
                "velocity": 0,
                "subtype": "noteOff"
            },
            {
                "deltaTime": 20,
                "channel": 3,
                "type": "channel",
                "noteNumber": 69,
                "velocity": 60,
                "subtype": "noteOn"
            },
            {
                "deltaTime": 240,
                "type": "meta",
                "subtype": "setTempo",
                "microsecondsPerBeat": 975610
            },
            {
                "deltaTime": 0,
                "channel": 3,
                "type": "channel",
                "noteNumber": 69,
                "velocity": 0,
                "subtype": "noteOff"
            },
            {
                "deltaTime": 0,
                "channel": 3,
                "type": "channel",
                "noteNumber": 62,
                "velocity": 56,
                "subtype": "noteOn"
            },
            {
                "deltaTime": 220,
                "channel": 3,
                "type": "channel",
                "noteNumber": 62,
                "velocity": 0,
                "subtype": "noteOff"
            },
            {
                "deltaTime": 20,
                "type": "meta",
                "subtype": "setTempo",
                "microsecondsPerBeat": 944882
            },
            {
                "deltaTime": 0,
                "channel": 3,
                "type": "channel",
                "noteNumber": 67,
                "velocity": 60,
                "subtype": "noteOn"
            },
            {
                "deltaTime": 360,
                "channel": 3,
                "type": "channel",
                "noteNumber": 67,
                "velocity": 0,
                "subtype": "noteOff"
            },
            {
                "deltaTime": 0,
                "channel": 3,
                "type": "channel",
                "noteNumber": 69,
                "velocity": 59,
                "subtype": "noteOn"
            },
            {
                "deltaTime": 120,
                "channel": 3,
                "type": "channel",
                "noteNumber": 69,
                "velocity": 0,
                "subtype": "noteOff"
            },
            {
                "deltaTime": 0,
                "channel": 3,
                "type": "channel",
                "noteNumber": 67,
                "velocity": 59,
                "subtype": "noteOn"
            },
            {
                "deltaTime": 120,
                "channel": 3,
                "type": "channel",
                "noteNumber": 67,
                "velocity": 0,
                "subtype": "noteOff"
            },
            {
                "deltaTime": 0,
                "channel": 3,
                "type": "channel",
                "noteNumber": 65,
                "velocity": 59,
                "subtype": "noteOn"
            },
            {
                "deltaTime": 120,
                "channel": 3,
                "type": "channel",
                "noteNumber": 65,
                "velocity": 0,
                "subtype": "noteOff"
            },
            {
                "deltaTime": 0,
                "channel": 3,
                "type": "channel",
                "noteNumber": 64,
                "velocity": 58,
                "subtype": "noteOn"
            },
            {
                "deltaTime": 120,
                "type": "meta",
                "subtype": "setTempo",
                "microsecondsPerBeat": 975610
            },
            {
                "deltaTime": 0,
                "channel": 3,
                "type": "channel",
                "noteNumber": 64,
                "velocity": 0,
                "subtype": "noteOff"
            },
            {
                "deltaTime": 0,
                "channel": 3,
                "type": "channel",
                "noteNumber": 65,
                "velocity": 58,
                "subtype": "noteOn"
            },
            {
                "deltaTime": 119,
                "channel": 2,
                "type": "channel",
                "subtype": "controller",
                "controllerType": 7,
                "value": 127
            },
            {
                "deltaTime": 1,
                "type": "meta",
                "subtype": "setTempo",
                "microsecondsPerBeat": 944882
            },
            {
                "deltaTime": 0,
                "channel": 3,
                "type": "channel",
                "noteNumber": 65,
                "velocity": 0,
                "subtype": "noteOff"
            },
            {
                "deltaTime": 0,
                "channel": 2,
                "type": "channel",
                "noteNumber": 67,
                "velocity": 53,
                "subtype": "noteOn"
            },
            {
                "deltaTime": 0,
                "channel": 3,
                "type": "channel",
                "noteNumber": 64,
                "velocity": 58,
                "subtype": "noteOn"
            },
            {
                "deltaTime": 120,
                "channel": 3,
                "type": "channel",
                "noteNumber": 64,
                "velocity": 0,
                "subtype": "noteOff"
            },
            {
                "deltaTime": 0,
                "channel": 3,
                "type": "channel",
                "subtype": "controller",
                "controllerType": 7,
                "value": 110
            },
            {
                "deltaTime": 0,
                "channel": 3,
                "type": "channel",
                "noteNumber": 62,
                "velocity": 57,
                "subtype": "noteOn"
            },
            {
                "deltaTime": 120,
                "channel": 3,
                "type": "channel",
                "noteNumber": 62,
                "velocity": 0,
                "subtype": "noteOff"
            },
            {
                "deltaTime": 0,
                "channel": 2,
                "type": "channel",
                "noteNumber": 67,
                "velocity": 0,
                "subtype": "noteOff"
            },
            {
                "deltaTime": 0,
                "channel": 2,
                "type": "channel",
                "noteNumber": 69,
                "velocity": 54,
                "subtype": "noteOn"
            },
            {
                "deltaTime": 0,
                "channel": 3,
                "type": "channel",
                "noteNumber": 60,
                "velocity": 57,
                "subtype": "noteOn"
            },
            {
                "deltaTime": 120,
                "channel": 3,
                "type": "channel",
                "noteNumber": 60,
                "velocity": 0,
                "subtype": "noteOff"
            },
            {
                "deltaTime": 0,
                "channel": 3,
                "type": "channel",
                "noteNumber": 62,
                "velocity": 56,
                "subtype": "noteOn"
            },
            {
                "deltaTime": 120,
                "type": "meta",
                "subtype": "setTempo",
                "microsecondsPerBeat": 975610
            },
            {
                "deltaTime": 0,
                "channel": 3,
                "type": "channel",
                "noteNumber": 62,
                "velocity": 0,
                "subtype": "noteOff"
            },
            {
                "deltaTime": 0,
                "channel": 2,
                "type": "channel",
                "noteNumber": 69,
                "velocity": 0,
                "subtype": "noteOff"
            },
            {
                "deltaTime": 0,
                "channel": 2,
                "type": "channel",
                "noteNumber": 71,
                "velocity": 55,
                "subtype": "noteOn"
            },
            {
                "deltaTime": 0,
                "channel": 3,
                "type": "channel",
                "noteNumber": 60,
                "velocity": 56,
                "subtype": "noteOn"
            },
            {
                "deltaTime": 120,
                "channel": 3,
                "type": "channel",
                "noteNumber": 60,
                "velocity": 0,
                "subtype": "noteOff"
            },
            {
                "deltaTime": 0,
                "channel": 3,
                "type": "channel",
                "noteNumber": 59,
                "velocity": 56,
                "subtype": "noteOn"
            },
            {
                "deltaTime": 120,
                "type": "meta",
                "subtype": "setTempo",
                "microsecondsPerBeat": 944882
            },
            {
                "deltaTime": 0,
                "channel": 3,
                "type": "channel",
                "noteNumber": 59,
                "velocity": 0,
                "subtype": "noteOff"
            },
            {
                "deltaTime": 0,
                "channel": 2,
                "type": "channel",
                "noteNumber": 71,
                "velocity": 0,
                "subtype": "noteOff"
            },
            {
                "deltaTime": 0,
                "channel": 2,
                "type": "channel",
                "noteNumber": 72,
                "velocity": 60,
                "subtype": "noteOn"
            },
            {
                "deltaTime": 0,
                "channel": 3,
                "type": "channel",
                "noteNumber": 57,
                "velocity": 56,
                "subtype": "noteOn"
            },
            {
                "deltaTime": 240,
                "channel": 3,
                "type": "channel",
                "noteNumber": 57,
                "velocity": 0,
                "subtype": "noteOff"
            },
            {
                "deltaTime": 0,
                "channel": 3,
                "type": "channel",
                "noteNumber": 66,
                "velocity": 56,
                "subtype": "noteOn"
            },
            {
                "deltaTime": 120,
                "type": "meta",
                "subtype": "setTempo",
                "microsecondsPerBeat": 895522
            },
            {
                "deltaTime": 0,
                "channel": 2,
                "type": "channel",
                "noteNumber": 72,
                "velocity": 0,
                "subtype": "noteOff"
            },
            {
                "deltaTime": 0,
                "channel": 2,
                "type": "channel",
                "noteNumber": 74,
                "velocity": 57,
                "subtype": "noteOn"
            },
            {
                "deltaTime": 60,
                "channel": 2,
                "type": "channel",
                "noteNumber": 74,
                "velocity": 0,
                "subtype": "noteOff"
            },
            {
                "deltaTime": 0,
                "channel": 2,
                "type": "channel",
                "noteNumber": 72,
                "velocity": 57,
                "subtype": "noteOn"
            },
            {
                "deltaTime": 60,
                "type": "meta",
                "subtype": "setTempo",
                "microsecondsPerBeat": 944882
            },
            {
                "deltaTime": 0,
                "channel": 2,
                "type": "channel",
                "noteNumber": 72,
                "velocity": 0,
                "subtype": "noteOff"
            },
            {
                "deltaTime": 0,
                "channel": 3,
                "type": "channel",
                "noteNumber": 66,
                "velocity": 0,
                "subtype": "noteOff"
            },
            {
                "deltaTime": 0,
                "channel": 2,
                "type": "channel",
                "noteNumber": 71,
                "velocity": 57,
                "subtype": "noteOn"
            },
            {
                "deltaTime": 0,
                "channel": 3,
                "type": "channel",
                "noteNumber": 67,
                "velocity": 60,
                "subtype": "noteOn"
            },
            {
                "deltaTime": 220,
                "channel": 2,
                "type": "channel",
                "noteNumber": 71,
                "velocity": 0,
                "subtype": "noteOff"
            },
            {
                "deltaTime": 20,
                "channel": 2,
                "type": "channel",
                "noteNumber": 76,
                "velocity": 60,
                "subtype": "noteOn"
            },
            {
                "deltaTime": 240,
                "type": "meta",
                "subtype": "setTempo",
                "microsecondsPerBeat": 967742
            },
            {
                "deltaTime": 0,
                "channel": 2,
                "type": "channel",
                "noteNumber": 76,
                "velocity": 0,
                "subtype": "noteOff"
            },
            {
                "deltaTime": 0,
                "channel": 2,
                "type": "channel",
                "noteNumber": 69,
                "velocity": 56,
                "subtype": "noteOn"
            },
            {
                "deltaTime": 220,
                "channel": 2,
                "type": "channel",
                "noteNumber": 69,
                "velocity": 0,
                "subtype": "noteOff"
            },
            {
                "deltaTime": 20,
                "type": "meta",
                "subtype": "setTempo",
                "microsecondsPerBeat": 937500
            },
            {
                "deltaTime": 0,
                "channel": 3,
                "type": "channel",
                "noteNumber": 67,
                "velocity": 0,
                "subtype": "noteOff"
            },
            {
                "deltaTime": 0,
                "channel": 2,
                "type": "channel",
                "noteNumber": 74,
                "velocity": 60,
                "subtype": "noteOn"
            },
            {
                "deltaTime": 0,
                "channel": 3,
                "type": "channel",
                "noteNumber": 66,
                "velocity": 57,
                "subtype": "noteOn"
            },
            {
                "deltaTime": 120,
                "channel": 3,
                "type": "channel",
                "noteNumber": 66,
                "velocity": 0,
                "subtype": "noteOff"
            },
            {
                "deltaTime": 0,
                "channel": 3,
                "type": "channel",
                "noteNumber": 64,
                "velocity": 57,
                "subtype": "noteOn"
            },
            {
                "deltaTime": 120,
                "channel": 3,
                "type": "channel",
                "noteNumber": 64,
                "velocity": 0,
                "subtype": "noteOff"
            },
            {
                "deltaTime": 0,
                "channel": 3,
                "type": "channel",
                "noteNumber": 66,
                "velocity": 57,
                "subtype": "noteOn"
            },
            {
                "deltaTime": 120,
                "channel": 2,
                "type": "channel",
                "noteNumber": 74,
                "velocity": 0,
                "subtype": "noteOff"
            },
            {
                "deltaTime": 0,
                "channel": 2,
                "type": "channel",
                "noteNumber": 76,
                "velocity": 57,
                "subtype": "noteOn"
            },
            {
                "deltaTime": 100,
                "channel": 3,
                "type": "channel",
                "noteNumber": 66,
                "velocity": 0,
                "subtype": "noteOff"
            },
            {
                "deltaTime": 20,
                "channel": 2,
                "type": "channel",
                "noteNumber": 76,
                "velocity": 0,
                "subtype": "noteOff"
            },
            {
                "deltaTime": 0,
                "channel": 2,
                "type": "channel",
                "noteNumber": 74,
                "velocity": 57,
                "subtype": "noteOn"
            },
            {
                "deltaTime": 0,
                "channel": 3,
                "type": "channel",
                "noteNumber": 62,
                "velocity": 57,
                "subtype": "noteOn"
            },
            {
                "deltaTime": 120,
                "channel": 2,
                "type": "channel",
                "noteNumber": 74,
                "velocity": 0,
                "subtype": "noteOff"
            },
            {
                "deltaTime": 0,
                "channel": 2,
                "type": "channel",
                "noteNumber": 72,
                "velocity": 56,
                "subtype": "noteOn"
            },
            {
                "deltaTime": 120,
                "type": "meta",
                "subtype": "setTempo",
                "microsecondsPerBeat": 960000
            },
            {
                "deltaTime": 0,
                "channel": 2,
                "type": "channel",
                "noteNumber": 72,
                "velocity": 0,
                "subtype": "noteOff"
            },
            {
                "deltaTime": 0,
                "channel": 3,
                "type": "channel",
                "noteNumber": 62,
                "velocity": 0,
                "subtype": "noteOff"
            },
            {
                "deltaTime": 0,
                "channel": 2,
                "type": "channel",
                "noteNumber": 71,
                "velocity": 55,
                "subtype": "noteOn"
            },
            {
                "deltaTime": 0,
                "channel": 3,
                "type": "channel",
                "noteNumber": 67,
                "velocity": 59,
                "subtype": "noteOn"
            },
            {
                "deltaTime": 90,
                "channel": 2,
                "type": "channel",
                "noteNumber": 71,
                "velocity": 0,
                "subtype": "noteOff"
            },
            {
                "deltaTime": 30,
                "channel": 2,
                "type": "channel",
                "noteNumber": 67,
                "velocity": 55,
                "subtype": "noteOn"
            },
            {
                "deltaTime": 120,
                "type": "meta",
                "subtype": "setTempo",
                "microsecondsPerBeat": 944882
            },
            {
                "deltaTime": 0,
                "channel": 2,
                "type": "channel",
                "noteNumber": 67,
                "velocity": 0,
                "subtype": "noteOff"
            },
            {
                "deltaTime": 0,
                "channel": 3,
                "type": "channel",
                "noteNumber": 67,
                "velocity": 0,
                "subtype": "noteOff"
            },
            {
                "deltaTime": 0,
                "channel": 2,
                "type": "channel",
                "subtype": "controller",
                "controllerType": 7,
                "value": 110
            },
            {
                "deltaTime": 0,
                "channel": 2,
                "type": "channel",
                "noteNumber": 69,
                "velocity": 56,
                "subtype": "noteOn"
            },
            {
                "deltaTime": 0,
                "channel": 3,
                "type": "channel",
                "noteNumber": 65,
                "velocity": 58,
                "subtype": "noteOn"
            },
            {
                "deltaTime": 0,
                "channel": 4,
                "type": "channel",
                "subtype": "controller",
                "controllerType": 7,
                "value": 120
            },
            {
                "deltaTime": 0,
                "channel": 4,
                "type": "channel",
                "noteNumber": 55,
                "velocity": 50,
                "subtype": "noteOn"
            },
            {
                "deltaTime": 120,
                "channel": 2,
                "type": "channel",
                "noteNumber": 69,
                "velocity": 0,
                "subtype": "noteOff"
            },
            {
                "deltaTime": 0,
                "channel": 2,
                "type": "channel",
                "noteNumber": 71,
                "velocity": 57,
                "subtype": "noteOn"
            },
            {
                "deltaTime": 120,
                "type": "meta",
                "subtype": "setTempo",
                "microsecondsPerBeat": 937500
            },
            {
                "deltaTime": 0,
                "channel": 2,
                "type": "channel",
                "noteNumber": 71,
                "velocity": 0,
                "subtype": "noteOff"
            },
            {
                "deltaTime": 0,
                "channel": 4,
                "type": "channel",
                "noteNumber": 55,
                "velocity": 0,
                "subtype": "noteOff"
            },
            {
                "deltaTime": 0,
                "channel": 3,
                "type": "channel",
                "noteNumber": 65,
                "velocity": 0,
                "subtype": "noteOff"
            },
            {
                "deltaTime": 0,
                "channel": 2,
                "type": "channel",
                "noteNumber": 72,
                "velocity": 57,
                "subtype": "noteOn"
            },
            {
                "deltaTime": 0,
                "channel": 3,
                "type": "channel",
                "noteNumber": 64,
                "velocity": 57,
                "subtype": "noteOn"
            },
            {
                "deltaTime": 0,
                "channel": 4,
                "type": "channel",
                "noteNumber": 57,
                "velocity": 52,
                "subtype": "noteOn"
            },
            {
                "deltaTime": 120,
                "channel": 2,
                "type": "channel",
                "noteNumber": 72,
                "velocity": 0,
                "subtype": "noteOff"
            },
            {
                "deltaTime": 0,
                "channel": 2,
                "type": "channel",
                "noteNumber": 71,
                "velocity": 53,
                "subtype": "noteOn"
            },
            {
                "deltaTime": 120,
                "channel": 2,
                "type": "channel",
                "noteNumber": 71,
                "velocity": 0,
                "subtype": "noteOff"
            },
            {
                "deltaTime": 0,
                "channel": 4,
                "type": "channel",
                "noteNumber": 57,
                "velocity": 0,
                "subtype": "noteOff"
            },
            {
                "deltaTime": 0,
                "channel": 3,
                "type": "channel",
                "noteNumber": 64,
                "velocity": 0,
                "subtype": "noteOff"
            },
            {
                "deltaTime": 0,
                "channel": 2,
                "type": "channel",
                "noteNumber": 72,
                "velocity": 54,
                "subtype": "noteOn"
            },
            {
                "deltaTime": 0,
                "channel": 3,
                "type": "channel",
                "noteNumber": 62,
                "velocity": 56,
                "subtype": "noteOn"
            },
            {
                "deltaTime": 0,
                "channel": 4,
                "type": "channel",
                "noteNumber": 59,
                "velocity": 55,
                "subtype": "noteOn"
            },
            {
                "deltaTime": 120,
                "channel": 2,
                "type": "channel",
                "noteNumber": 72,
                "velocity": 0,
                "subtype": "noteOff"
            },
            {
                "deltaTime": 0,
                "channel": 2,
                "type": "channel",
                "noteNumber": 74,
                "velocity": 55,
                "subtype": "noteOn"
            },
            {
                "deltaTime": 120,
                "channel": 2,
                "type": "channel",
                "noteNumber": 74,
                "velocity": 0,
                "subtype": "noteOff"
            },
            {
                "deltaTime": 0,
                "channel": 4,
                "type": "channel",
                "noteNumber": 59,
                "velocity": 0,
                "subtype": "noteOff"
            },
            {
                "deltaTime": 0,
                "channel": 3,
                "type": "channel",
                "noteNumber": 62,
                "velocity": 0,
                "subtype": "noteOff"
            },
            {
                "deltaTime": 0,
                "channel": 2,
                "type": "channel",
                "noteNumber": 76,
                "velocity": 56,
                "subtype": "noteOn"
            },
            {
                "deltaTime": 0,
                "channel": 3,
                "type": "channel",
                "noteNumber": 60,
                "velocity": 55,
                "subtype": "noteOn"
            },
            {
                "deltaTime": 0,
                "channel": 4,
                "type": "channel",
                "noteNumber": 60,
                "velocity": 60,
                "subtype": "noteOn"
            },
            {
                "deltaTime": 120,
                "channel": 2,
                "type": "channel",
                "noteNumber": 76,
                "velocity": 0,
                "subtype": "noteOff"
            },
            {
                "deltaTime": 0,
                "channel": 2,
                "type": "channel",
                "noteNumber": 74,
                "velocity": 57,
                "subtype": "noteOn"
            },
            {
                "deltaTime": 120,
                "type": "meta",
                "subtype": "setTempo",
                "microsecondsPerBeat": 975610
            },
            {
                "deltaTime": 0,
                "channel": 2,
                "type": "channel",
                "noteNumber": 74,
                "velocity": 0,
                "subtype": "noteOff"
            },
            {
                "deltaTime": 0,
                "channel": 3,
                "type": "channel",
                "noteNumber": 60,
                "velocity": 0,
                "subtype": "noteOff"
            },
            {
                "deltaTime": 0,
                "channel": 2,
                "type": "channel",
                "noteNumber": 76,
                "velocity": 58,
                "subtype": "noteOn"
            },
            {
                "deltaTime": 120,
                "type": "meta",
                "subtype": "setTempo",
                "microsecondsPerBeat": 888889
            },
            {
                "deltaTime": 0,
                "channel": 2,
                "type": "channel",
                "noteNumber": 76,
                "velocity": 0,
                "subtype": "noteOff"
            },
            {
                "deltaTime": 0,
                "channel": 4,
                "type": "channel",
                "noteNumber": 60,
                "velocity": 0,
                "subtype": "noteOff"
            },
            {
                "deltaTime": 0,
                "channel": 2,
                "type": "channel",
                "noteNumber": 78,
                "velocity": 59,
                "subtype": "noteOn"
            },
            {
                "deltaTime": 0,
                "channel": 4,
                "type": "channel",
                "noteNumber": 62,
                "velocity": 57,
                "subtype": "noteOn"
            },
            {
                "deltaTime": 60,
                "channel": 4,
                "type": "channel",
                "noteNumber": 62,
                "velocity": 0,
                "subtype": "noteOff"
            },
            {
                "deltaTime": 0,
                "channel": 4,
                "type": "channel",
                "noteNumber": 60,
                "velocity": 57,
                "subtype": "noteOn"
            },
            {
                "deltaTime": 60,
                "type": "meta",
                "subtype": "setTempo",
                "microsecondsPerBeat": 937500
            },
            {
                "deltaTime": 0,
                "channel": 4,
                "type": "channel",
                "noteNumber": 60,
                "velocity": 0,
                "subtype": "noteOff"
            },
            {
                "deltaTime": 0,
                "channel": 2,
                "type": "channel",
                "noteNumber": 78,
                "velocity": 0,
                "subtype": "noteOff"
            },
            {
                "deltaTime": 0,
                "channel": 2,
                "type": "channel",
                "noteNumber": 79,
                "velocity": 60,
                "subtype": "noteOn"
            },
            {
                "deltaTime": 0,
                "channel": 4,
                "type": "channel",
                "noteNumber": 59,
                "velocity": 57,
                "subtype": "noteOn"
            },
            {
                "deltaTime": 220,
                "channel": 4,
                "type": "channel",
                "noteNumber": 59,
                "velocity": 0,
                "subtype": "noteOff"
            },
            {
                "deltaTime": 20,
                "channel": 2,
                "type": "channel",
                "noteNumber": 79,
                "velocity": 0,
                "subtype": "noteOff"
            },
            {
                "deltaTime": 0,
                "channel": 2,
                "type": "channel",
                "noteNumber": 71,
                "velocity": 56,
                "subtype": "noteOn"
            },
            {
                "deltaTime": 0,
                "channel": 3,
                "type": "channel",
                "noteNumber": 67,
                "velocity": 60,
                "subtype": "noteOn"
            },
            {
                "deltaTime": 0,
                "channel": 4,
                "type": "channel",
                "noteNumber": 64,
                "velocity": 60,
                "subtype": "noteOn"
            },
            {
                "deltaTime": 240,
                "type": "meta",
                "subtype": "setTempo",
                "microsecondsPerBeat": 975610
            },
            {
                "deltaTime": 0,
                "channel": 4,
                "type": "channel",
                "noteNumber": 64,
                "velocity": 0,
                "subtype": "noteOff"
            },
            {
                "deltaTime": 0,
                "channel": 2,
                "type": "channel",
                "noteNumber": 71,
                "velocity": 0,
                "subtype": "noteOff"
            },
            {
                "deltaTime": 0,
                "channel": 2,
                "type": "channel",
                "noteNumber": 72,
                "velocity": 60,
                "subtype": "noteOn"
            },
            {
                "deltaTime": 0,
                "channel": 4,
                "type": "channel",
                "noteNumber": 57,
                "velocity": 56,
                "subtype": "noteOn"
            },
            {
                "deltaTime": 220,
                "channel": 4,
                "type": "channel",
                "noteNumber": 57,
                "velocity": 0,
                "subtype": "noteOff"
            },
            {
                "deltaTime": 0,
                "channel": 2,
                "type": "channel",
                "noteNumber": 72,
                "velocity": 0,
                "subtype": "noteOff"
            },
            {
                "deltaTime": 20,
                "type": "meta",
                "subtype": "setTempo",
                "microsecondsPerBeat": 937500
            },
            {
                "deltaTime": 0,
                "channel": 3,
                "type": "channel",
                "noteNumber": 67,
                "velocity": 0,
                "subtype": "noteOff"
            },
            {
                "deltaTime": 0,
                "channel": 2,
                "type": "channel",
                "noteNumber": 69,
                "velocity": 55,
                "subtype": "noteOn"
            },
            {
                "deltaTime": 0,
                "channel": 3,
                "type": "channel",
                "noteNumber": 65,
                "velocity": 58,
                "subtype": "noteOn"
            },
            {
                "deltaTime": 0,
                "channel": 4,
                "type": "channel",
                "noteNumber": 62,
                "velocity": 60,
                "subtype": "noteOn"
            },
            {
                "deltaTime": 120,
                "channel": 3,
                "type": "channel",
                "noteNumber": 65,
                "velocity": 0,
                "subtype": "noteOff"
            },
            {
                "deltaTime": 0,
                "channel": 3,
                "type": "channel",
                "noteNumber": 64,
                "velocity": 58,
                "subtype": "noteOn"
            },
            {
                "deltaTime": 120,
                "channel": 3,
                "type": "channel",
                "noteNumber": 64,
                "velocity": 0,
                "subtype": "noteOff"
            },
            {
                "deltaTime": 0,
                "channel": 2,
                "type": "channel",
                "noteNumber": 69,
                "velocity": 0,
                "subtype": "noteOff"
            },
            {
                "deltaTime": 0,
                "channel": 2,
                "type": "channel",
                "noteNumber": 74,
                "velocity": 58,
                "subtype": "noteOn"
            },
            {
                "deltaTime": 0,
                "channel": 3,
                "type": "channel",
                "noteNumber": 65,
                "velocity": 58,
                "subtype": "noteOn"
            },
            {
                "deltaTime": 120,
                "channel": 2,
                "type": "channel",
                "noteNumber": 74,
                "velocity": 0,
                "subtype": "noteOff"
            },
            {
                "deltaTime": 0,
                "channel": 4,
                "type": "channel",
                "noteNumber": 62,
                "velocity": 0,
                "subtype": "noteOff"
            },
            {
                "deltaTime": 0,
                "channel": 2,
                "type": "channel",
                "noteNumber": 72,
                "velocity": 57,
                "subtype": "noteOn"
            },
            {
                "deltaTime": 0,
                "channel": 4,
                "type": "channel",
                "noteNumber": 64,
                "velocity": 58,
                "subtype": "noteOn"
            },
            {
                "deltaTime": 120,
                "channel": 4,
                "type": "channel",
                "noteNumber": 64,
                "velocity": 0,
                "subtype": "noteOff"
            },
            {
                "deltaTime": 0,
                "channel": 2,
                "type": "channel",
                "noteNumber": 72,
                "velocity": 0,
                "subtype": "noteOff"
            },
            {
                "deltaTime": 0,
                "channel": 2,
                "type": "channel",
                "noteNumber": 71,
                "velocity": 56,
                "subtype": "noteOn"
            },
            {
                "deltaTime": 0,
                "channel": 4,
                "type": "channel",
                "noteNumber": 62,
                "velocity": 57,
                "subtype": "noteOn"
            },
            {
                "deltaTime": 120,
                "channel": 4,
                "type": "channel",
                "noteNumber": 62,
                "velocity": 0,
                "subtype": "noteOff"
            },
            {
                "deltaTime": 0,
                "channel": 2,
                "type": "channel",
                "noteNumber": 71,
                "velocity": 0,
                "subtype": "noteOff"
            },
            {
                "deltaTime": 0,
                "channel": 2,
                "type": "channel",
                "noteNumber": 69,
                "velocity": 55,
                "subtype": "noteOn"
            },
            {
                "deltaTime": 0,
                "channel": 4,
                "type": "channel",
                "noteNumber": 60,
                "velocity": 56,
                "subtype": "noteOn"
            },
            {
                "deltaTime": 120,
                "channel": 4,
                "type": "channel",
                "noteNumber": 60,
                "velocity": 0,
                "subtype": "noteOff"
            },
            {
                "deltaTime": 0,
                "channel": 2,
                "type": "channel",
                "noteNumber": 69,
                "velocity": 0,
                "subtype": "noteOff"
            },
            {
                "deltaTime": 0,
                "channel": 2,
                "type": "channel",
                "noteNumber": 67,
                "velocity": 54,
                "subtype": "noteOn"
            },
            {
                "deltaTime": 0,
                "channel": 4,
                "type": "channel",
                "noteNumber": 59,
                "velocity": 55,
                "subtype": "noteOn"
            },
            {
                "deltaTime": 120,
                "channel": 3,
                "type": "channel",
                "noteNumber": 65,
                "velocity": 0,
                "subtype": "noteOff"
            },
            {
                "deltaTime": 0,
                "channel": 3,
                "type": "channel",
                "noteNumber": 65,
                "velocity": 57,
                "subtype": "noteOn"
            },
            {
                "deltaTime": 100,
                "channel": 4,
                "type": "channel",
                "noteNumber": 59,
                "velocity": 0,
                "subtype": "noteOff"
            },
            {
                "deltaTime": 20,
                "type": "meta",
                "subtype": "setTempo",
                "microsecondsPerBeat": 967742
            },
            {
                "deltaTime": 0,
                "channel": 3,
                "type": "channel",
                "noteNumber": 65,
                "velocity": 0,
                "subtype": "noteOff"
            },
            {
                "deltaTime": 0,
                "channel": 3,
                "type": "channel",
                "noteNumber": 64,
                "velocity": 57,
                "subtype": "noteOn"
            },
            {
                "deltaTime": 0,
                "channel": 4,
                "type": "channel",
                "subtype": "controller",
                "controllerType": 7,
                "value": 100
            },
            {
                "deltaTime": 0,
                "channel": 4,
                "type": "channel",
                "noteNumber": 60,
                "velocity": 60,
                "subtype": "noteOn"
            },
            {
                "deltaTime": 0,
                "channel": 5,
                "type": "channel",
                "subtype": "controller",
                "controllerType": 7,
                "value": 120
            },
            {
                "deltaTime": 0,
                "channel": 5,
                "type": "channel",
                "noteNumber": 48,
                "velocity": 51,
                "subtype": "noteOn"
            },
            {
                "deltaTime": 120,
                "channel": 2,
                "type": "channel",
                "noteNumber": 67,
                "velocity": 0,
                "subtype": "noteOff"
            },
            {
                "deltaTime": 0,
                "channel": 2,
                "type": "channel",
                "noteNumber": 67,
                "velocity": 56,
                "subtype": "noteOn"
            },
            {
                "deltaTime": 120,
                "type": "meta",
                "subtype": "setTempo",
                "microsecondsPerBeat": 937500
            },
            {
                "deltaTime": 0,
                "channel": 2,
                "type": "channel",
                "noteNumber": 67,
                "velocity": 0,
                "subtype": "noteOff"
            },
            {
                "deltaTime": 0,
                "channel": 5,
                "type": "channel",
                "noteNumber": 48,
                "velocity": 0,
                "subtype": "noteOff"
            },
            {
                "deltaTime": 0,
                "channel": 3,
                "type": "channel",
                "noteNumber": 64,
                "velocity": 0,
                "subtype": "noteOff"
            },
            {
                "deltaTime": 0,
                "channel": 2,
                "type": "channel",
                "noteNumber": 65,
                "velocity": 55,
                "subtype": "noteOn"
            },
            {
                "deltaTime": 0,
                "channel": 3,
                "type": "channel",
                "noteNumber": 62,
                "velocity": 57,
                "subtype": "noteOn"
            },
            {
                "deltaTime": 0,
                "channel": 5,
                "type": "channel",
                "noteNumber": 50,
                "velocity": 53,
                "subtype": "noteOn"
            },
            {
                "deltaTime": 120,
                "channel": 2,
                "type": "channel",
                "noteNumber": 65,
                "velocity": 0,
                "subtype": "noteOff"
            },
            {
                "deltaTime": 0,
                "channel": 2,
                "type": "channel",
                "noteNumber": 64,
                "velocity": 55,
                "subtype": "noteOn"
            },
            {
                "deltaTime": 120,
                "channel": 2,
                "type": "channel",
                "noteNumber": 64,
                "velocity": 0,
                "subtype": "noteOff"
            },
            {
                "deltaTime": 0,
                "channel": 5,
                "type": "channel",
                "noteNumber": 50,
                "velocity": 0,
                "subtype": "noteOff"
            },
            {
                "deltaTime": 0,
                "channel": 4,
                "type": "channel",
                "noteNumber": 60,
                "velocity": 0,
                "subtype": "noteOff"
            },
            {
                "deltaTime": 0,
                "channel": 2,
                "type": "channel",
                "noteNumber": 65,
                "velocity": 55,
                "subtype": "noteOn"
            },
            {
                "deltaTime": 0,
                "channel": 4,
                "type": "channel",
                "noteNumber": 58,
                "velocity": 58,
                "subtype": "noteOn"
            },
            {
                "deltaTime": 0,
                "channel": 5,
                "type": "channel",
                "noteNumber": 52,
                "velocity": 56,
                "subtype": "noteOn"
            },
            {
                "deltaTime": 120,
                "channel": 2,
                "type": "channel",
                "noteNumber": 65,
                "velocity": 0,
                "subtype": "noteOff"
            },
            {
                "deltaTime": 0,
                "channel": 2,
                "type": "channel",
                "noteNumber": 67,
                "velocity": 55,
                "subtype": "noteOn"
            },
            {
                "deltaTime": 120,
                "channel": 2,
                "type": "channel",
                "noteNumber": 67,
                "velocity": 0,
                "subtype": "noteOff"
            },
            {
                "deltaTime": 0,
                "channel": 5,
                "type": "channel",
                "noteNumber": 52,
                "velocity": 0,
                "subtype": "noteOff"
            },
            {
                "deltaTime": 0,
                "channel": 4,
                "type": "channel",
                "noteNumber": 58,
                "velocity": 0,
                "subtype": "noteOff"
            },
            {
                "deltaTime": 0,
                "channel": 3,
                "type": "channel",
                "noteNumber": 62,
                "velocity": 0,
                "subtype": "noteOff"
            },
            {
                "deltaTime": 0,
                "channel": 2,
                "type": "channel",
                "noteNumber": 69,
                "velocity": 55,
                "subtype": "noteOn"
            },
            {
                "deltaTime": 0,
                "channel": 3,
                "type": "channel",
                "noteNumber": 60,
                "velocity": 56,
                "subtype": "noteOn"
            },
            {
                "deltaTime": 0,
                "channel": 4,
                "type": "channel",
                "noteNumber": 57,
                "velocity": 56,
                "subtype": "noteOn"
            },
            {
                "deltaTime": 0,
                "channel": 5,
                "type": "channel",
                "noteNumber": 53,
                "velocity": 60,
                "subtype": "noteOn"
            },
            {
                "deltaTime": 120,
                "channel": 2,
                "type": "channel",
                "noteNumber": 69,
                "velocity": 0,
                "subtype": "noteOff"
            },
            {
                "deltaTime": 0,
                "channel": 2,
                "type": "channel",
                "noteNumber": 67,
                "velocity": 56,
                "subtype": "noteOn"
            },
            {
                "deltaTime": 100,
                "channel": 4,
                "type": "channel",
                "noteNumber": 57,
                "velocity": 0,
                "subtype": "noteOff"
            },
            {
                "deltaTime": 20,
                "channel": 3,
                "type": "channel",
                "noteNumber": 60,
                "velocity": 0,
                "subtype": "noteOff"
            },
            {
                "deltaTime": 0,
                "channel": 2,
                "type": "channel",
                "noteNumber": 67,
                "velocity": 0,
                "subtype": "noteOff"
            },
            {
                "deltaTime": 0,
                "channel": 2,
                "type": "channel",
                "noteNumber": 69,
                "velocity": 55,
                "subtype": "noteOn"
            },
            {
                "deltaTime": 0,
                "channel": 3,
                "type": "channel",
                "noteNumber": 65,
                "velocity": 60,
                "subtype": "noteOn"
            },
            {
                "deltaTime": 0,
                "channel": 4,
                "type": "channel",
                "noteNumber": 62,
                "velocity": 60,
                "subtype": "noteOn"
            },
            {
                "deltaTime": 120,
                "type": "meta",
                "subtype": "setTempo",
                "microsecondsPerBeat": 875912
            },
            {
                "deltaTime": 0,
                "channel": 2,
                "type": "channel",
                "noteNumber": 69,
                "velocity": 0,
                "subtype": "noteOff"
            },
            {
                "deltaTime": 0,
                "channel": 5,
                "type": "channel",
                "noteNumber": 53,
                "velocity": 0,
                "subtype": "noteOff"
            },
            {
                "deltaTime": 0,
                "channel": 2,
                "type": "channel",
                "noteNumber": 71,
                "velocity": 57,
                "subtype": "noteOn"
            },
            {
                "deltaTime": 0,
                "channel": 5,
                "type": "channel",
                "noteNumber": 55,
                "velocity": 57,
                "subtype": "noteOn"
            },
            {
                "deltaTime": 60,
                "channel": 5,
                "type": "channel",
                "noteNumber": 55,
                "velocity": 0,
                "subtype": "noteOff"
            },
            {
                "deltaTime": 0,
                "channel": 5,
                "type": "channel",
                "noteNumber": 53,
                "velocity": 57,
                "subtype": "noteOn"
            },
            {
                "deltaTime": 60,
                "type": "meta",
                "subtype": "setTempo",
                "microsecondsPerBeat": 944882
            },
            {
                "deltaTime": 0,
                "channel": 5,
                "type": "channel",
                "noteNumber": 53,
                "velocity": 0,
                "subtype": "noteOff"
            },
            {
                "deltaTime": 0,
                "channel": 2,
                "type": "channel",
                "noteNumber": 71,
                "velocity": 0,
                "subtype": "noteOff"
            },
            {
                "deltaTime": 0,
                "channel": 3,
                "type": "channel",
                "noteNumber": 65,
                "velocity": 0,
                "subtype": "noteOff"
            },
            {
                "deltaTime": 0,
                "channel": 4,
                "type": "channel",
                "noteNumber": 62,
                "velocity": 0,
                "subtype": "noteOff"
            },
            {
                "deltaTime": 0,
                "channel": 2,
                "type": "channel",
                "noteNumber": 72,
                "velocity": 59,
                "subtype": "noteOn"
            },
            {
                "deltaTime": 0,
                "channel": 4,
                "type": "channel",
                "noteNumber": 55,
                "velocity": 56,
                "subtype": "noteOn"
            },
            {
                "deltaTime": 0,
                "channel": 5,
                "type": "channel",
                "noteNumber": 52,
                "velocity": 57,
                "subtype": "noteOn"
            },
            {
                "deltaTime": 120,
                "channel": 3,
                "type": "channel",
                "noteNumber": 67,
                "velocity": 57,
                "subtype": "noteOn"
            },
            {
                "deltaTime": 100,
                "channel": 5,
                "type": "channel",
                "noteNumber": 52,
                "velocity": 0,
                "subtype": "noteOff"
            },
            {
                "deltaTime": 0,
                "channel": 4,
                "type": "channel",
                "noteNumber": 55,
                "velocity": 0,
                "subtype": "noteOff"
            },
            {
                "deltaTime": 20,
                "channel": 3,
                "type": "channel",
                "noteNumber": 67,
                "velocity": 0,
                "subtype": "noteOff"
            },
            {
                "deltaTime": 0,
                "channel": 3,
                "type": "channel",
                "noteNumber": 65,
                "velocity": 57,
                "subtype": "noteOn"
            },
            {
                "deltaTime": 0,
                "channel": 4,
                "type": "channel",
                "noteNumber": 60,
                "velocity": 60,
                "subtype": "noteOn"
            },
            {
                "deltaTime": 0,
                "channel": 5,
                "type": "channel",
                "noteNumber": 57,
                "velocity": 60,
                "subtype": "noteOn"
            },
            {
                "deltaTime": 120,
                "channel": 3,
                "type": "channel",
                "noteNumber": 65,
                "velocity": 0,
                "subtype": "noteOff"
            },
            {
                "deltaTime": 0,
                "channel": 3,
                "type": "channel",
                "noteNumber": 64,
                "velocity": 57,
                "subtype": "noteOn"
            },
            {
                "deltaTime": 120,
                "type": "meta",
                "subtype": "setTempo",
                "microsecondsPerBeat": 967742
            },
            {
                "deltaTime": 0,
                "channel": 3,
                "type": "channel",
                "noteNumber": 64,
                "velocity": 0,
                "subtype": "noteOff"
            },
            {
                "deltaTime": 0,
                "channel": 5,
                "type": "channel",
                "noteNumber": 57,
                "velocity": 0,
                "subtype": "noteOff"
            },
            {
                "deltaTime": 0,
                "channel": 4,
                "type": "channel",
                "noteNumber": 60,
                "velocity": 0,
                "subtype": "noteOff"
            },
            {
                "deltaTime": 0,
                "channel": 3,
                "type": "channel",
                "noteNumber": 65,
                "velocity": 57,
                "subtype": "noteOn"
            },
            {
                "deltaTime": 0,
                "channel": 5,
                "type": "channel",
                "noteNumber": 50,
                "velocity": 55,
                "subtype": "noteOn"
            },
            {
                "deltaTime": 120,
                "channel": 4,
                "type": "channel",
                "noteNumber": 57,
                "velocity": 55,
                "subtype": "noteOn"
            },
            {
                "deltaTime": 100,
                "channel": 5,
                "type": "channel",
                "noteNumber": 50,
                "velocity": 0,
                "subtype": "noteOff"
            },
            {
                "deltaTime": 0,
                "channel": 3,
                "type": "channel",
                "noteNumber": 65,
                "velocity": 0,
                "subtype": "noteOff"
            },
            {
                "deltaTime": 20,
                "type": "meta",
                "subtype": "setTempo",
                "microsecondsPerBeat": 944882
            },
            {
                "deltaTime": 0,
                "channel": 4,
                "type": "channel",
                "noteNumber": 57,
                "velocity": 0,
                "subtype": "noteOff"
            },
            {
                "deltaTime": 0,
                "channel": 3,
                "type": "channel",
                "noteNumber": 62,
                "velocity": 56,
                "subtype": "noteOn"
            },
            {
                "deltaTime": 0,
                "channel": 4,
                "type": "channel",
                "noteNumber": 59,
                "velocity": 56,
                "subtype": "noteOn"
            },
            {
                "deltaTime": 0,
                "channel": 5,
                "type": "channel",
                "noteNumber": 55,
                "velocity": 60,
                "subtype": "noteOn"
            },
            {
                "deltaTime": 120,
                "channel": 4,
                "type": "channel",
                "noteNumber": 59,
                "velocity": 0,
                "subtype": "noteOff"
            },
            {
                "deltaTime": 0,
                "channel": 4,
                "type": "channel",
                "noteNumber": 60,
                "velocity": 58,
                "subtype": "noteOn"
            },
            {
                "deltaTime": 120,
                "channel": 4,
                "type": "channel",
                "noteNumber": 60,
                "velocity": 0,
                "subtype": "noteOff"
            },
            {
                "deltaTime": 0,
                "channel": 2,
                "type": "channel",
                "noteNumber": 72,
                "velocity": 0,
                "subtype": "noteOff"
            },
            {
                "deltaTime": 0,
                "channel": 3,
                "type": "channel",
                "noteNumber": 62,
                "velocity": 0,
                "subtype": "noteOff"
            },
            {
                "deltaTime": 0,
                "channel": 2,
                "type": "channel",
                "noteNumber": 71,
                "velocity": 57,
                "subtype": "noteOn"
            },
            {
                "deltaTime": 0,
                "channel": 3,
                "type": "channel",
                "noteNumber": 67,
                "velocity": 62,
                "subtype": "noteOn"
            },
            {
                "deltaTime": 0,
                "channel": 4,
                "type": "channel",
                "noteNumber": 62,
                "velocity": 59,
                "subtype": "noteOn"
            },
            {
                "deltaTime": 120,
                "channel": 5,
                "type": "channel",
                "noteNumber": 55,
                "velocity": 0,
                "subtype": "noteOff"
            },
            {
                "deltaTime": 0,
                "channel": 5,
                "type": "channel",
                "noteNumber": 57,
                "velocity": 59,
                "subtype": "noteOn"
            },
            {
                "deltaTime": 120,
                "type": "meta",
                "subtype": "setTempo",
                "microsecondsPerBeat": 902256
            },
            {
                "deltaTime": 0,
                "channel": 5,
                "type": "channel",
                "noteNumber": 57,
                "velocity": 0,
                "subtype": "noteOff"
            },
            {
                "deltaTime": 0,
                "channel": 5,
                "type": "channel",
                "noteNumber": 55,
                "velocity": 58,
                "subtype": "noteOn"
            },
            {
                "deltaTime": 120,
                "channel": 5,
                "type": "channel",
                "noteNumber": 55,
                "velocity": 0,
                "subtype": "noteOff"
            },
            {
                "deltaTime": 0,
                "channel": 5,
                "type": "channel",
                "noteNumber": 53,
                "velocity": 57,
                "subtype": "noteOn"
            },
            {
                "deltaTime": 120,
                "type": "meta",
                "subtype": "setTempo",
                "microsecondsPerBeat": 944882
            },
            {
                "deltaTime": 0,
                "channel": 5,
                "type": "channel",
                "noteNumber": 53,
                "velocity": 0,
                "subtype": "noteOff"
            },
            {
                "deltaTime": 0,
                "channel": 4,
                "type": "channel",
                "noteNumber": 62,
                "velocity": 0,
                "subtype": "noteOff"
            },
            {
                "deltaTime": 0,
                "channel": 2,
                "type": "channel",
                "noteNumber": 71,
                "velocity": 0,
                "subtype": "noteOff"
            },
            {
                "deltaTime": 0,
                "channel": 4,
                "type": "channel",
                "noteNumber": 55,
                "velocity": 60,
                "subtype": "noteOn"
            },
            {
                "deltaTime": 0,
                "channel": 5,
                "type": "channel",
                "noteNumber": 52,
                "velocity": 56,
                "subtype": "noteOn"
            },
            {
                "deltaTime": 90,
                "channel": 5,
                "type": "channel",
                "noteNumber": 52,
                "velocity": 0,
                "subtype": "noteOff"
            },
            {
                "deltaTime": 30,
                "channel": 5,
                "type": "channel",
                "noteNumber": 53,
                "velocity": 57,
                "subtype": "noteOn"
            },
            {
                "deltaTime": 120,
                "channel": 5,
                "type": "channel",
                "noteNumber": 53,
                "velocity": 0,
                "subtype": "noteOff"
            },
            {
                "deltaTime": 0,
                "channel": 2,
                "type": "channel",
                "subtype": "controller",
                "controllerType": 7,
                "value": 127
            },
            {
                "deltaTime": 0,
                "channel": 2,
                "type": "channel",
                "noteNumber": 72,
                "velocity": 60,
                "subtype": "noteOn"
            },
            {
                "deltaTime": 0,
                "channel": 5,
                "type": "channel",
                "subtype": "controller",
                "controllerType": 7,
                "value": 100
            },
            {
                "deltaTime": 0,
                "channel": 5,
                "type": "channel",
                "noteNumber": 52,
                "velocity": 56,
                "subtype": "noteOn"
            },
            {
                "deltaTime": 120,
                "channel": 5,
                "type": "channel",
                "noteNumber": 52,
                "velocity": 0,
                "subtype": "noteOff"
            },
            {
                "deltaTime": 0,
                "channel": 5,
                "type": "channel",
                "noteNumber": 50,
                "velocity": 55,
                "subtype": "noteOn"
            },
            {
                "deltaTime": 120,
                "channel": 5,
                "type": "channel",
                "noteNumber": 50,
                "velocity": 0,
                "subtype": "noteOff"
            },
            {
                "deltaTime": 0,
                "channel": 2,
                "type": "channel",
                "noteNumber": 72,
                "velocity": 0,
                "subtype": "noteOff"
            },
            {
                "deltaTime": 0,
                "channel": 4,
                "type": "channel",
                "noteNumber": 55,
                "velocity": 0,
                "subtype": "noteOff"
            },
            {
                "deltaTime": 0,
                "channel": 3,
                "type": "channel",
                "noteNumber": 67,
                "velocity": 0,
                "subtype": "noteOff"
            },
            {
                "deltaTime": 0,
                "channel": 2,
                "type": "channel",
                "noteNumber": 74,
                "velocity": 63,
                "subtype": "noteOn"
            },
            {
                "deltaTime": 0,
                "channel": 5,
                "type": "channel",
                "noteNumber": 48,
                "velocity": 54,
                "subtype": "noteOn"
            },
            {
                "deltaTime": 90,
                "channel": 5,
                "type": "channel",
                "noteNumber": 48,
                "velocity": 0,
                "subtype": "noteOff"
            },
            {
                "deltaTime": 30,
                "channel": 5,
                "type": "channel",
                "noteNumber": 50,
                "velocity": 57,
                "subtype": "noteOn"
            },
            {
                "deltaTime": 120,
                "type": "meta",
                "subtype": "setTempo",
                "microsecondsPerBeat": 967742
            },
            {
                "deltaTime": 0,
                "channel": 5,
                "type": "channel",
                "noteNumber": 50,
                "velocity": 0,
                "subtype": "noteOff"
            },
            {
                "deltaTime": 0,
                "channel": 2,
                "type": "channel",
                "noteNumber": 74,
                "velocity": 0,
                "subtype": "noteOff"
            },
            {
                "deltaTime": 0,
                "channel": 2,
                "type": "channel",
                "noteNumber": 76,
                "velocity": 64,
                "subtype": "noteOn"
            },
            {
                "deltaTime": 0,
                "channel": 4,
                "type": "channel",
                "noteNumber": 55,
                "velocity": 53,
                "subtype": "noteOn"
            },
            {
                "deltaTime": 0,
                "channel": 5,
                "type": "channel",
                "noteNumber": 48,
                "velocity": 56,
                "subtype": "noteOn"
            },
            {
                "deltaTime": 120,
                "channel": 5,
                "type": "channel",
                "noteNumber": 48,
                "velocity": 0,
                "subtype": "noteOff"
            },
            {
                "deltaTime": 0,
                "channel": 5,
                "type": "channel",
                "noteNumber": 47,
                "velocity": 55,
                "subtype": "noteOn"
            },
            {
                "deltaTime": 120,
                "type": "meta",
                "subtype": "setTempo",
                "microsecondsPerBeat": 944882
            },
            {
                "deltaTime": 0,
                "channel": 5,
                "type": "channel",
                "noteNumber": 47,
                "velocity": 0,
                "subtype": "noteOff"
            },
            {
                "deltaTime": 0,
                "channel": 4,
                "type": "channel",
                "noteNumber": 55,
                "velocity": 0,
                "subtype": "noteOff"
            },
            {
                "deltaTime": 0,
                "channel": 2,
                "type": "channel",
                "noteNumber": 76,
                "velocity": 0,
                "subtype": "noteOff"
            },
            {
                "deltaTime": 0,
                "channel": 2,
                "type": "channel",
                "noteNumber": 77,
                "velocity": 69,
                "subtype": "noteOn"
            },
            {
                "deltaTime": 0,
                "channel": 4,
                "type": "channel",
                "noteNumber": 57,
                "velocity": 54,
                "subtype": "noteOn"
            },
            {
                "deltaTime": 0,
                "channel": 5,
                "type": "channel",
                "noteNumber": 45,
                "velocity": 54,
                "subtype": "noteOn"
            },
            {
                "deltaTime": 220,
                "channel": 5,
                "type": "channel",
                "noteNumber": 45,
                "velocity": 0,
                "subtype": "noteOff"
            },
            {
                "deltaTime": 20,
                "channel": 4,
                "type": "channel",
                "noteNumber": 57,
                "velocity": 0,
                "subtype": "noteOff"
            },
            {
                "deltaTime": 0,
                "channel": 4,
                "type": "channel",
                "noteNumber": 59,
                "velocity": 55,
                "subtype": "noteOn"
            },
            {
                "deltaTime": 0,
                "channel": 5,
                "type": "channel",
                "noteNumber": 50,
                "velocity": 57,
                "subtype": "noteOn"
            },
            {
                "deltaTime": 120,
                "type": "meta",
                "subtype": "setTempo",
                "microsecondsPerBeat": 895522
            },
            {
                "deltaTime": 0,
                "channel": 2,
                "type": "channel",
                "noteNumber": 77,
                "velocity": 0,
                "subtype": "noteOff"
            },
            {
                "deltaTime": 0,
                "channel": 2,
                "type": "channel",
                "noteNumber": 79,
                "velocity": 66,
                "subtype": "noteOn"
            },
            {
                "deltaTime": 60,
                "channel": 2,
                "type": "channel",
                "noteNumber": 79,
                "velocity": 0,
                "subtype": "noteOff"
            },
            {
                "deltaTime": 0,
                "channel": 2,
                "type": "channel",
                "noteNumber": 77,
                "velocity": 66,
                "subtype": "noteOn"
            },
            {
                "deltaTime": 60,
                "type": "meta",
                "subtype": "setTempo",
                "microsecondsPerBeat": 937500
            },
            {
                "deltaTime": 0,
                "channel": 2,
                "type": "channel",
                "noteNumber": 77,
                "velocity": 0,
                "subtype": "noteOff"
            },
            {
                "deltaTime": 0,
                "channel": 5,
                "type": "channel",
                "noteNumber": 50,
                "velocity": 0,
                "subtype": "noteOff"
            },
            {
                "deltaTime": 0,
                "channel": 4,
                "type": "channel",
                "noteNumber": 59,
                "velocity": 0,
                "subtype": "noteOff"
            },
            {
                "deltaTime": 0,
                "channel": 2,
                "type": "channel",
                "noteNumber": 76,
                "velocity": 66,
                "subtype": "noteOn"
            },
            {
                "deltaTime": 0,
                "channel": 4,
                "type": "channel",
                "noteNumber": 60,
                "velocity": 60,
                "subtype": "noteOn"
            },
            {
                "deltaTime": 0,
                "channel": 5,
                "type": "channel",
                "noteNumber": 57,
                "velocity": 60,
                "subtype": "noteOn"
            },
            {
                "deltaTime": 220,
                "channel": 2,
                "type": "channel",
                "noteNumber": 76,
                "velocity": 0,
                "subtype": "noteOff"
            },
            {
                "deltaTime": 20,
                "channel": 5,
                "type": "channel",
                "noteNumber": 57,
                "velocity": 0,
                "subtype": "noteOff"
            },
            {
                "deltaTime": 0,
                "channel": 2,
                "type": "channel",
                "noteNumber": 81,
                "velocity": 69,
                "subtype": "noteOn"
            },
            {
                "deltaTime": 0,
                "channel": 5,
                "type": "channel",
                "noteNumber": 54,
                "velocity": 57,
                "subtype": "noteOn"
            },
            {
                "deltaTime": 120,
                "channel": 4,
                "type": "channel",
                "noteNumber": 60,
                "velocity": 0,
                "subtype": "noteOff"
            },
            {
                "deltaTime": 0,
                "channel": 4,
                "type": "channel",
                "noteNumber": 62,
                "velocity": 58,
                "subtype": "noteOn"
            },
            {
                "deltaTime": 60,
                "channel": 4,
                "type": "channel",
                "noteNumber": 62,
                "velocity": 0,
                "subtype": "noteOff"
            },
            {
                "deltaTime": 0,
                "channel": 4,
                "type": "channel",
                "noteNumber": 60,
                "velocity": 58,
                "subtype": "noteOn"
            },
            {
                "deltaTime": 60,
                "channel": 4,
                "type": "channel",
                "noteNumber": 60,
                "velocity": 0,
                "subtype": "noteOff"
            },
            {
                "deltaTime": 0,
                "channel": 5,
                "type": "channel",
                "noteNumber": 54,
                "velocity": 0,
                "subtype": "noteOff"
            },
            {
                "deltaTime": 0,
                "channel": 2,
                "type": "channel",
                "noteNumber": 81,
                "velocity": 0,
                "subtype": "noteOff"
            },
            {
                "deltaTime": 0,
                "channel": 2,
                "type": "channel",
                "noteNumber": 74,
                "velocity": 64,
                "subtype": "noteOn"
            },
            {
                "deltaTime": 0,
                "channel": 4,
                "type": "channel",
                "noteNumber": 59,
                "velocity": 58,
                "subtype": "noteOn"
            },
            {
                "deltaTime": 0,
                "channel": 5,
                "type": "channel",
                "noteNumber": 55,
                "velocity": 58,
                "subtype": "noteOn"
            },
            {
                "deltaTime": 20,
                "type": "meta",
                "subtype": "setTempo",
                "microsecondsPerBeat": 967742
            },
            {
                "deltaTime": 100,
                "channel": 5,
                "type": "channel",
                "noteNumber": 55,
                "velocity": 0,
                "subtype": "noteOff"
            },
            {
                "deltaTime": 0,
                "channel": 5,
                "type": "channel",
                "noteNumber": 57,
                "velocity": 58,
                "subtype": "noteOn"
            },
            {
                "deltaTime": 100,
                "channel": 4,
                "type": "channel",
                "noteNumber": 59,
                "velocity": 0,
                "subtype": "noteOff"
            },
            {
                "deltaTime": 0,
                "channel": 2,
                "type": "channel",
                "noteNumber": 74,
                "velocity": 0,
                "subtype": "noteOff"
            },
            {
                "deltaTime": 20,
                "type": "meta",
                "subtype": "setTempo",
                "microsecondsPerBeat": 944882
            },
            {
                "deltaTime": 0,
                "channel": 5,
                "type": "channel",
                "noteNumber": 57,
                "velocity": 0,
                "subtype": "noteOff"
            },
            {
                "deltaTime": 0,
                "channel": 2,
                "type": "channel",
                "noteNumber": 79,
                "velocity": 69,
                "subtype": "noteOn"
            },
            {
                "deltaTime": 0,
                "channel": 4,
                "type": "channel",
                "noteNumber": 64,
                "velocity": 60,
                "subtype": "noteOn"
            },
            {
                "deltaTime": 0,
                "channel": 5,
                "type": "channel",
                "noteNumber": 58,
                "velocity": 60,
                "subtype": "noteOn"
            },
            {
                "deltaTime": 120,
                "channel": 5,
                "type": "channel",
                "noteNumber": 58,
                "velocity": 0,
                "subtype": "noteOff"
            },
            {
                "deltaTime": 0,
                "channel": 5,
                "type": "channel",
                "noteNumber": 55,
                "velocity": 58,
                "subtype": "noteOn"
            },
            {
                "deltaTime": 120,
                "type": "meta",
                "subtype": "setTempo",
                "microsecondsPerBeat": 944882
            },
            {
                "deltaTime": 0,
                "channel": 5,
                "type": "channel",
                "noteNumber": 55,
                "velocity": 0,
                "subtype": "noteOff"
            },
            {
                "deltaTime": 0,
                "channel": 4,
                "type": "channel",
                "noteNumber": 64,
                "velocity": 0,
                "subtype": "noteOff"
            },
            {
                "deltaTime": 0,
                "channel": 4,
                "type": "channel",
                "noteNumber": 57,
                "velocity": 56,
                "subtype": "noteOn"
            },
            {
                "deltaTime": 0,
                "channel": 5,
                "type": "channel",
                "noteNumber": 49,
                "velocity": 56,
                "subtype": "noteOn"
            },
            {
                "deltaTime": 120,
                "channel": 2,
                "type": "channel",
                "noteNumber": 79,
                "velocity": 0,
                "subtype": "noteOff"
            },
            {
                "deltaTime": 0,
                "channel": 2,
                "type": "channel",
                "noteNumber": 81,
                "velocity": 67,
                "subtype": "noteOn"
            },
            {
                "deltaTime": 100,
                "channel": 4,
                "type": "channel",
                "noteNumber": 57,
                "velocity": 0,
                "subtype": "noteOff"
            },
            {
                "deltaTime": 20,
                "type": "meta",
                "subtype": "setTempo",
                "microsecondsPerBeat": 909091
            },
            {
                "deltaTime": 0,
                "channel": 2,
                "type": "channel",
                "noteNumber": 81,
                "velocity": 0,
                "subtype": "noteOff"
            },
            {
                "deltaTime": 0,
                "channel": 5,
                "type": "channel",
                "noteNumber": 49,
                "velocity": 0,
                "subtype": "noteOff"
            },
            {
                "deltaTime": 0,
                "channel": 2,
                "type": "channel",
                "noteNumber": 79,
                "velocity": 66,
                "subtype": "noteOn"
            },
            {
                "deltaTime": 0,
                "channel": 4,
                "type": "channel",
                "noteNumber": 62,
                "velocity": 60,
                "subtype": "noteOn"
            },
            {
                "deltaTime": 0,
                "channel": 5,
                "type": "channel",
                "noteNumber": 50,
                "velocity": 57,
                "subtype": "noteOn"
            },
            {
                "deltaTime": 120,
                "channel": 2,
                "type": "channel",
                "noteNumber": 79,
                "velocity": 0,
                "subtype": "noteOff"
            },
            {
                "deltaTime": 0,
                "channel": 2,
                "type": "channel",
                "noteNumber": 77,
                "velocity": 64,
                "subtype": "noteOn"
            },
            {
                "deltaTime": 120,
                "type": "meta",
                "subtype": "setTempo",
                "microsecondsPerBeat": 975610
            },
            {
                "deltaTime": 0,
                "channel": 2,
                "type": "channel",
                "noteNumber": 77,
                "velocity": 0,
                "subtype": "noteOff"
            },
            {
                "deltaTime": 0,
                "channel": 5,
                "type": "channel",
                "noteNumber": 50,
                "velocity": 0,
                "subtype": "noteOff"
            },
            {
                "deltaTime": 0,
                "channel": 2,
                "type": "channel",
                "noteNumber": 76,
                "velocity": 63,
                "subtype": "noteOn"
            },
            {
                "deltaTime": 0,
                "channel": 5,
                "type": "channel",
                "noteNumber": 57,
                "velocity": 58,
                "subtype": "noteOn"
            },
            {
                "deltaTime": 120,
                "channel": 4,
                "type": "channel",
                "noteNumber": 62,
                "velocity": 0,
                "subtype": "noteOff"
            },
            {
                "deltaTime": 0,
                "channel": 4,
                "type": "channel",
                "noteNumber": 64,
                "velocity": 57,
                "subtype": "noteOn"
            },
            {
                "deltaTime": 100,
                "channel": 2,
                "type": "channel",
                "noteNumber": 76,
                "velocity": 0,
                "subtype": "noteOff"
            },
            {
                "deltaTime": 20,
                "type": "meta",
                "subtype": "setTempo",
                "microsecondsPerBeat": 944882
            },
            {
                "deltaTime": 0,
                "channel": 4,
                "type": "channel",
                "noteNumber": 64,
                "velocity": 0,
                "subtype": "noteOff"
            },
            {
                "deltaTime": 0,
                "channel": 2,
                "type": "channel",
                "noteNumber": 81,
                "velocity": 70,
                "subtype": "noteOn"
            },
            {
                "deltaTime": 0,
                "channel": 4,
                "type": "channel",
                "noteNumber": 62,
                "velocity": 56,
                "subtype": "noteOn"
            },
            {
                "deltaTime": 120,
                "channel": 4,
                "type": "channel",
                "noteNumber": 62,
                "velocity": 0,
                "subtype": "noteOff"
            },
            {
                "deltaTime": 0,
                "channel": 4,
                "type": "channel",
                "noteNumber": 60,
                "velocity": 56,
                "subtype": "noteOn"
            },
            {
                "deltaTime": 120,
                "channel": 4,
                "type": "channel",
                "noteNumber": 60,
                "velocity": 0,
                "subtype": "noteOff"
            },
            {
                "deltaTime": 0,
                "channel": 5,
                "type": "channel",
                "noteNumber": 57,
                "velocity": 0,
                "subtype": "noteOff"
            },
            {
                "deltaTime": 0,
                "channel": 4,
                "type": "channel",
                "noteNumber": 59,
                "velocity": 55,
                "subtype": "noteOn"
            },
            {
                "deltaTime": 0,
                "channel": 5,
                "type": "channel",
                "noteNumber": 52,
                "velocity": 56,
                "subtype": "noteOn"
            },
            {
                "deltaTime": 120,
                "channel": 2,
                "type": "channel",
                "noteNumber": 81,
                "velocity": 0,
                "subtype": "noteOff"
            },
            {
                "deltaTime": 0,
                "channel": 2,
                "type": "channel",
                "noteNumber": 83,
                "velocity": 68,
                "subtype": "noteOn"
            },
            {
                "deltaTime": 120,
                "type": "meta",
                "subtype": "setTempo",
                "microsecondsPerBeat": 909091
            },
            {
                "deltaTime": 0,
                "channel": 2,
                "type": "channel",
                "noteNumber": 83,
                "velocity": 0,
                "subtype": "noteOff"
            },
            {
                "deltaTime": 0,
                "channel": 4,
                "type": "channel",
                "noteNumber": 59,
                "velocity": 0,
                "subtype": "noteOff"
            },
            {
                "deltaTime": 0,
                "channel": 2,
                "type": "channel",
                "noteNumber": 81,
                "velocity": 67,
                "subtype": "noteOn"
            },
            {
                "deltaTime": 0,
                "channel": 4,
                "type": "channel",
                "noteNumber": 64,
                "velocity": 60,
                "subtype": "noteOn"
            },
            {
                "deltaTime": 120,
                "type": "meta",
                "subtype": "setTempo",
                "microsecondsPerBeat": 967742
            },
            {
                "deltaTime": 0,
                "channel": 2,
                "type": "channel",
                "noteNumber": 81,
                "velocity": 0,
                "subtype": "noteOff"
            },
            {
                "deltaTime": 0,
                "channel": 2,
                "type": "channel",
                "noteNumber": 79,
                "velocity": 66,
                "subtype": "noteOn"
            },
            {
                "deltaTime": 120,
                "type": "meta",
                "subtype": "setTempo",
                "microsecondsPerBeat": 944882
            },
            {
                "deltaTime": 0,
                "channel": 2,
                "type": "channel",
                "noteNumber": 79,
                "velocity": 0,
                "subtype": "noteOff"
            },
            {
                "deltaTime": 0,
                "channel": 5,
                "type": "channel",
                "noteNumber": 52,
                "velocity": 0,
                "subtype": "noteOff"
            },
            {
                "deltaTime": 0,
                "channel": 2,
                "type": "channel",
                "noteNumber": 77,
                "velocity": 65,
                "subtype": "noteOn"
            },
            {
                "deltaTime": 0,
                "channel": 5,
                "type": "channel",
                "noteNumber": 57,
                "velocity": 56,
                "subtype": "noteOn"
            },
            {
                "deltaTime": 120,
                "channel": 5,
                "type": "channel",
                "noteNumber": 57,
                "velocity": 0,
                "subtype": "noteOff"
            },
            {
                "deltaTime": 0,
                "channel": 5,
                "type": "channel",
                "noteNumber": 59,
                "velocity": 57,
                "subtype": "noteOn"
            },
            {
                "deltaTime": 120,
                "channel": 5,
                "type": "channel",
                "noteNumber": 59,
                "velocity": 0,
                "subtype": "noteOff"
            },
            {
                "deltaTime": 0,
                "channel": 3,
                "type": "channel",
                "subtype": "controller",
                "controllerType": 7,
                "value": 127
            },
            {
                "deltaTime": 0,
                "channel": 3,
                "type": "channel",
                "noteNumber": 67,
                "velocity": 51,
                "subtype": "noteOn"
            },
            {
                "deltaTime": 0,
                "channel": 5,
                "type": "channel",
                "noteNumber": 60,
                "velocity": 58,
                "subtype": "noteOn"
            },
            {
                "deltaTime": 120,
                "channel": 5,
                "type": "channel",
                "noteNumber": 60,
                "velocity": 0,
                "subtype": "noteOff"
            },
            {
                "deltaTime": 0,
                "channel": 5,
                "type": "channel",
                "noteNumber": 62,
                "velocity": 59,
                "subtype": "noteOn"
            },
            {
                "deltaTime": 120,
                "channel": 5,
                "type": "channel",
                "noteNumber": 62,
                "velocity": 0,
                "subtype": "noteOff"
            },
            {
                "deltaTime": 0,
                "channel": 3,
                "type": "channel",
                "noteNumber": 67,
                "velocity": 0,
                "subtype": "noteOff"
            },
            {
                "deltaTime": 0,
                "channel": 4,
                "type": "channel",
                "noteNumber": 64,
                "velocity": 0,
                "subtype": "noteOff"
            },
            {
                "deltaTime": 0,
                "channel": 3,
                "type": "channel",
                "noteNumber": 69,
                "velocity": 53,
                "subtype": "noteOn"
            },
            {
                "deltaTime": 0,
                "channel": 4,
                "type": "channel",
                "noteNumber": 62,
                "velocity": 60,
                "subtype": "noteOn"
            },
            {
                "deltaTime": 0,
                "channel": 5,
                "type": "channel",
                "noteNumber": 60,
                "velocity": 60,
                "subtype": "noteOn"
            },
            {
                "deltaTime": 120,
                "channel": 5,
                "type": "channel",
                "noteNumber": 60,
                "velocity": 0,
                "subtype": "noteOff"
            },
            {
                "deltaTime": 0,
                "channel": 5,
                "type": "channel",
                "noteNumber": 59,
                "velocity": 57,
                "subtype": "noteOn"
            },
            {
                "deltaTime": 120,
                "channel": 5,
                "type": "channel",
                "noteNumber": 59,
                "velocity": 0,
                "subtype": "noteOff"
            },
            {
                "deltaTime": 0,
                "channel": 3,
                "type": "channel",
                "noteNumber": 69,
                "velocity": 0,
                "subtype": "noteOff"
            },
            {
                "deltaTime": 0,
                "channel": 3,
                "type": "channel",
                "noteNumber": 71,
                "velocity": 56,
                "subtype": "noteOn"
            },
            {
                "deltaTime": 0,
                "channel": 5,
                "type": "channel",
                "noteNumber": 57,
                "velocity": 56,
                "subtype": "noteOn"
            },
            {
                "deltaTime": 120,
                "channel": 5,
                "type": "channel",
                "noteNumber": 57,
                "velocity": 0,
                "subtype": "noteOff"
            },
            {
                "deltaTime": 0,
                "channel": 5,
                "type": "channel",
                "noteNumber": 55,
                "velocity": 55,
                "subtype": "noteOn"
            },
            {
                "deltaTime": 120,
                "channel": 5,
                "type": "channel",
                "noteNumber": 55,
                "velocity": 0,
                "subtype": "noteOff"
            },
            {
                "deltaTime": 0,
                "channel": 3,
                "type": "channel",
                "noteNumber": 71,
                "velocity": 0,
                "subtype": "noteOff"
            },
            {
                "deltaTime": 0,
                "channel": 4,
                "type": "channel",
                "noteNumber": 62,
                "velocity": 0,
                "subtype": "noteOff"
            },
            {
                "deltaTime": 0,
                "channel": 2,
                "type": "channel",
                "noteNumber": 77,
                "velocity": 0,
                "subtype": "noteOff"
            },
            {
                "deltaTime": 0,
                "channel": 2,
                "type": "channel",
                "subtype": "controller",
                "controllerType": 7,
                "value": 110
            },
            {
                "deltaTime": 0,
                "channel": 2,
                "type": "channel",
                "noteNumber": 76,
                "velocity": 60,
                "subtype": "noteOn"
            },
            {
                "deltaTime": 0,
                "channel": 3,
                "type": "channel",
                "noteNumber": 72,
                "velocity": 60,
                "subtype": "noteOn"
            },
            {
                "deltaTime": 0,
                "channel": 5,
                "type": "channel",
                "noteNumber": 60,
                "velocity": 60,
                "subtype": "noteOn"
            },
            {
                "deltaTime": 120,
                "channel": 4,
                "type": "channel",
                "noteNumber": 59,
                "velocity": 58,
                "subtype": "noteOn"
            },
            {
                "deltaTime": 120,
                "channel": 4,
                "type": "channel",
                "noteNumber": 59,
                "velocity": 0,
                "subtype": "noteOff"
            },
            {
                "deltaTime": 0,
                "channel": 5,
                "type": "channel",
                "noteNumber": 60,
                "velocity": 0,
                "subtype": "noteOff"
            },
            {
                "deltaTime": 0,
                "channel": 4,
                "type": "channel",
                "noteNumber": 60,
                "velocity": 60,
                "subtype": "noteOn"
            },
            {
                "deltaTime": 120,
                "type": "meta",
                "subtype": "setTempo",
                "microsecondsPerBeat": 895522
            },
            {
                "deltaTime": 0,
                "channel": 4,
                "type": "channel",
                "noteNumber": 60,
                "velocity": 0,
                "subtype": "noteOff"
            },
            {
                "deltaTime": 0,
                "channel": 3,
                "type": "channel",
                "noteNumber": 72,
                "velocity": 0,
                "subtype": "noteOff"
            },
            {
                "deltaTime": 0,
                "channel": 2,
                "type": "channel",
                "noteNumber": 76,
                "velocity": 0,
                "subtype": "noteOff"
            },
            {
                "deltaTime": 0,
                "channel": 2,
                "type": "channel",
                "noteNumber": 78,
                "velocity": 57,
                "subtype": "noteOn"
            },
            {
                "deltaTime": 0,
                "channel": 3,
                "type": "channel",
                "noteNumber": 74,
                "velocity": 57,
                "subtype": "noteOn"
            },
            {
                "deltaTime": 0,
                "channel": 4,
                "type": "channel",
                "noteNumber": 57,
                "velocity": 57,
                "subtype": "noteOn"
            },
            {
                "deltaTime": 60,
                "channel": 3,
                "type": "channel",
                "noteNumber": 74,
                "velocity": 0,
                "subtype": "noteOff"
            },
            {
                "deltaTime": 0,
                "channel": 3,
                "type": "channel",
                "noteNumber": 72,
                "velocity": 57,
                "subtype": "noteOn"
            },
            {
                "deltaTime": 30,
                "channel": 4,
                "type": "channel",
                "noteNumber": 57,
                "velocity": 0,
                "subtype": "noteOff"
            },
            {
                "deltaTime": 30,
                "type": "meta",
                "subtype": "setTempo",
                "microsecondsPerBeat": 944882
            },
            {
                "deltaTime": 0,
                "channel": 3,
                "type": "channel",
                "noteNumber": 72,
                "velocity": 0,
                "subtype": "noteOff"
            },
            {
                "deltaTime": 0,
                "channel": 2,
                "type": "channel",
                "noteNumber": 78,
                "velocity": 0,
                "subtype": "noteOff"
            },
            {
                "deltaTime": 0,
                "channel": 2,
                "type": "channel",
                "noteNumber": 79,
                "velocity": 63,
                "subtype": "noteOn"
            },
            {
                "deltaTime": 0,
                "channel": 3,
                "type": "channel",
                "noteNumber": 71,
                "velocity": 57,
                "subtype": "noteOn"
            },
            {
                "deltaTime": 0,
                "channel": 4,
                "type": "channel",
                "noteNumber": 64,
                "velocity": 58,
                "subtype": "noteOn"
            },
            {
                "deltaTime": 120,
                "channel": 4,
                "type": "channel",
                "noteNumber": 64,
                "velocity": 0,
                "subtype": "noteOff"
            },
            {
                "deltaTime": 0,
                "channel": 4,
                "type": "channel",
                "noteNumber": 62,
                "velocity": 58,
                "subtype": "noteOn"
            },
            {
                "deltaTime": 100,
                "channel": 3,
                "type": "channel",
                "noteNumber": 71,
                "velocity": 0,
                "subtype": "noteOff"
            },
            {
                "deltaTime": 20,
                "channel": 4,
                "type": "channel",
                "noteNumber": 62,
                "velocity": 0,
                "subtype": "noteOff"
            },
            {
                "deltaTime": 0,
                "channel": 3,
                "type": "channel",
                "noteNumber": 76,
                "velocity": 60,
                "subtype": "noteOn"
            },
            {
                "deltaTime": 0,
                "channel": 4,
                "type": "channel",
                "noteNumber": 60,
                "velocity": 57,
                "subtype": "noteOn"
            },
            {
                "deltaTime": 120,
                "type": "meta",
                "subtype": "setTempo",
                "microsecondsPerBeat": 937500
            },
            {
                "deltaTime": 0,
                "channel": 4,
                "type": "channel",
                "noteNumber": 60,
                "velocity": 0,
                "subtype": "noteOff"
            },
            {
                "deltaTime": 0,
                "channel": 4,
                "type": "channel",
                "noteNumber": 59,
                "velocity": 57,
                "subtype": "noteOn"
            },
            {
                "deltaTime": 120,
                "type": "meta",
                "subtype": "setTempo",
                "microsecondsPerBeat": 975610
            },
            {
                "deltaTime": 0,
                "channel": 4,
                "type": "channel",
                "noteNumber": 59,
                "velocity": 0,
                "subtype": "noteOff"
            },
            {
                "deltaTime": 0,
                "channel": 3,
                "type": "channel",
                "noteNumber": 76,
                "velocity": 0,
                "subtype": "noteOff"
            },
            {
                "deltaTime": 0,
                "channel": 3,
                "type": "channel",
                "noteNumber": 69,
                "velocity": 56,
                "subtype": "noteOn"
            },
            {
                "deltaTime": 0,
                "channel": 4,
                "type": "channel",
                "noteNumber": 60,
                "velocity": 60,
                "subtype": "noteOn"
            },
            {
                "deltaTime": 90,
                "channel": 4,
                "type": "channel",
                "noteNumber": 60,
                "velocity": 0,
                "subtype": "noteOff"
            },
            {
                "deltaTime": 30,
                "channel": 4,
                "type": "channel",
                "noteNumber": 57,
                "velocity": 54,
                "subtype": "noteOn"
            },
            {
                "deltaTime": 100,
                "channel": 3,
                "type": "channel",
                "noteNumber": 69,
                "velocity": 0,
                "subtype": "noteOff"
            },
            {
                "deltaTime": 20,
                "type": "meta",
                "subtype": "setTempo",
                "microsecondsPerBeat": 937500
            },
            {
                "deltaTime": 0,
                "channel": 4,
                "type": "channel",
                "noteNumber": 57,
                "velocity": 0,
                "subtype": "noteOff"
            },
            {
                "deltaTime": 0,
                "channel": 3,
                "type": "channel",
                "noteNumber": 74,
                "velocity": 60,
                "subtype": "noteOn"
            },
            {
                "deltaTime": 0,
                "channel": 4,
                "type": "channel",
                "noteNumber": 59,
                "velocity": 56,
                "subtype": "noteOn"
            },
            {
                "deltaTime": 120,
                "channel": 4,
                "type": "channel",
                "noteNumber": 59,
                "velocity": 0,
                "subtype": "noteOff"
            },
            {
                "deltaTime": 0,
                "channel": 4,
                "type": "channel",
                "noteNumber": 60,
                "velocity": 58,
                "subtype": "noteOn"
            },
            {
                "deltaTime": 120,
                "type": "meta",
                "subtype": "setTempo",
                "microsecondsPerBeat": 902256
            },
            {
                "deltaTime": 0,
                "channel": 4,
                "type": "channel",
                "noteNumber": 60,
                "velocity": 0,
                "subtype": "noteOff"
            },
            {
                "deltaTime": 0,
                "channel": 2,
                "type": "channel",
                "noteNumber": 79,
                "velocity": 0,
                "subtype": "noteOff"
            },
            {
                "deltaTime": 0,
                "channel": 2,
                "type": "channel",
                "noteNumber": 78,
                "velocity": 63,
                "subtype": "noteOn"
            },
            {
                "deltaTime": 0,
                "channel": 4,
                "type": "channel",
                "noteNumber": 62,
                "velocity": 60,
                "subtype": "noteOn"
            },
            {
                "deltaTime": 100,
                "type": "meta",
                "subtype": "setTempo",
                "microsecondsPerBeat": 909091
            },
            {
                "deltaTime": 20,
                "channel": 4,
                "type": "channel",
                "noteNumber": 62,
                "velocity": 0,
                "subtype": "noteOff"
            },
            {
                "deltaTime": 0,
                "channel": 3,
                "type": "channel",
                "noteNumber": 74,
                "velocity": 0,
                "subtype": "noteOff"
            },
            {
                "deltaTime": 0,
                "channel": 3,
                "type": "channel",
                "noteNumber": 76,
                "velocity": 57,
                "subtype": "noteOn"
            },
            {
                "deltaTime": 0,
                "channel": 4,
                "type": "channel",
                "noteNumber": 60,
                "velocity": 59,
                "subtype": "noteOn"
            },
            {
                "deltaTime": 80,
                "type": "meta",
                "subtype": "setTempo",
                "microsecondsPerBeat": 916031
            },
            {
                "deltaTime": 40,
                "channel": 4,
                "type": "channel",
                "noteNumber": 60,
                "velocity": 0,
                "subtype": "noteOff"
            },
            {
                "deltaTime": 0,
                "channel": 3,
                "type": "channel",
                "noteNumber": 76,
                "velocity": 0,
                "subtype": "noteOff"
            },
            {
                "deltaTime": 0,
                "channel": 3,
                "type": "channel",
                "noteNumber": 74,
                "velocity": 56,
                "subtype": "noteOn"
            },
            {
                "deltaTime": 0,
                "channel": 4,
                "type": "channel",
                "noteNumber": 59,
                "velocity": 58,
                "subtype": "noteOn"
            },
            {
                "deltaTime": 60,
                "type": "meta",
                "subtype": "setTempo",
                "microsecondsPerBeat": 923077
            },
            {
                "deltaTime": 60,
                "channel": 4,
                "type": "channel",
                "noteNumber": 59,
                "velocity": 0,
                "subtype": "noteOff"
            },
            {
                "deltaTime": 0,
                "channel": 3,
                "type": "channel",
                "noteNumber": 74,
                "velocity": 0,
                "subtype": "noteOff"
            },
            {
                "deltaTime": 0,
                "channel": 3,
                "type": "channel",
                "noteNumber": 72,
                "velocity": 55,
                "subtype": "noteOn"
            },
            {
                "deltaTime": 0,
                "channel": 4,
                "type": "channel",
                "noteNumber": 57,
                "velocity": 57,
                "subtype": "noteOn"
            },
            {
                "deltaTime": 40,
                "type": "meta",
                "subtype": "setTempo",
                "microsecondsPerBeat": 930233
            },
            {
                "deltaTime": 80,
                "type": "meta",
                "subtype": "setTempo",
                "microsecondsPerBeat": 909091
            },
            {
                "deltaTime": 0,
                "channel": 4,
                "type": "channel",
                "noteNumber": 57,
                "velocity": 0,
                "subtype": "noteOff"
            },
            {
                "deltaTime": 0,
                "channel": 3,
                "type": "channel",
                "noteNumber": 72,
                "velocity": 0,
                "subtype": "noteOff"
            },
            {
                "deltaTime": 0,
                "channel": 2,
                "type": "channel",
                "noteNumber": 78,
                "velocity": 0,
                "subtype": "noteOff"
            },
            {
                "deltaTime": 0,
                "channel": 2,
                "type": "channel",
                "noteNumber": 79,
                "velocity": 60,
                "subtype": "noteOn"
            },
            {
                "deltaTime": 0,
                "channel": 3,
                "type": "channel",
                "noteNumber": 71,
                "velocity": 54,
                "subtype": "noteOn"
            },
            {
                "deltaTime": 0,
                "channel": 4,
                "type": "channel",
                "noteNumber": 55,
                "velocity": 56,
                "subtype": "noteOn"
            },
            {
                "deltaTime": 120,
                "type": "meta",
                "subtype": "setTempo",
                "microsecondsPerBeat": 916031
            },
            {
                "deltaTime": 0,
                "channel": 2,
                "type": "channel",
                "noteNumber": 79,
                "velocity": 0,
                "subtype": "noteOff"
            },
            {
                "deltaTime": 0,
                "channel": 2,
                "type": "channel",
                "noteNumber": 77,
                "velocity": 59,
                "subtype": "noteOn"
            },
            {
                "deltaTime": 120,
                "type": "meta",
                "subtype": "setTempo",
                "microsecondsPerBeat": 923077
            },
            {
                "deltaTime": 0,
                "channel": 2,
                "type": "channel",
                "noteNumber": 77,
                "velocity": 0,
                "subtype": "noteOff"
            },
            {
                "deltaTime": 0,
                "channel": 3,
                "type": "channel",
                "noteNumber": 71,
                "velocity": 0,
                "subtype": "noteOff"
            },
            {
                "deltaTime": 0,
                "channel": 2,
                "type": "channel",
                "noteNumber": 76,
                "velocity": 58,
                "subtype": "noteOn"
            },
            {
                "deltaTime": 0,
                "channel": 5,
                "type": "channel",
                "subtype": "controller",
                "controllerType": 7,
                "value": 120
            },
            {
                "deltaTime": 0,
                "channel": 5,
                "type": "channel",
                "noteNumber": 43,
                "velocity": 54,
                "subtype": "noteOn"
            },
            {
                "deltaTime": 120,
                "type": "meta",
                "subtype": "setTempo",
                "microsecondsPerBeat": 930233
            },
            {
                "deltaTime": 0,
                "channel": 2,
                "type": "channel",
                "noteNumber": 76,
                "velocity": 0,
                "subtype": "noteOff"
            },
            {
                "deltaTime": 0,
                "channel": 2,
                "type": "channel",
                "noteNumber": 74,
                "velocity": 57,
                "subtype": "noteOn"
            },
            {
                "deltaTime": 120,
                "type": "meta",
                "subtype": "setTempo",
                "microsecondsPerBeat": 937500
            },
            {
                "deltaTime": 0,
                "channel": 2,
                "type": "channel",
                "noteNumber": 74,
                "velocity": 0,
                "subtype": "noteOff"
            },
            {
                "deltaTime": 0,
                "channel": 5,
                "type": "channel",
                "noteNumber": 43,
                "velocity": 0,
                "subtype": "noteOff"
            },
            {
                "deltaTime": 0,
                "channel": 4,
                "type": "channel",
                "noteNumber": 55,
                "velocity": 0,
                "subtype": "noteOff"
            },
            {
                "deltaTime": 0,
                "channel": 2,
                "type": "channel",
                "noteNumber": 72,
                "velocity": 56,
                "subtype": "noteOn"
            },
            {
                "deltaTime": 0,
                "channel": 5,
                "type": "channel",
                "noteNumber": 45,
                "velocity": 55,
                "subtype": "noteOn"
            },
            {
                "deltaTime": 120,
                "channel": 2,
                "type": "channel",
                "noteNumber": 72,
                "velocity": 0,
                "subtype": "noteOff"
            },
            {
                "deltaTime": 0,
                "channel": 2,
                "type": "channel",
                "noteNumber": 74,
                "velocity": 57,
                "subtype": "noteOn"
            },
            {
                "deltaTime": 120,
                "type": "meta",
                "subtype": "setTempo",
                "microsecondsPerBeat": 960000
            },
            {
                "deltaTime": 0,
                "channel": 2,
                "type": "channel",
                "noteNumber": 74,
                "velocity": 0,
                "subtype": "noteOff"
            },
            {
                "deltaTime": 0,
                "channel": 5,
                "type": "channel",
                "noteNumber": 45,
                "velocity": 0,
                "subtype": "noteOff"
            },
            {
                "deltaTime": 0,
                "channel": 2,
                "type": "channel",
                "noteNumber": 72,
                "velocity": 57,
                "subtype": "noteOn"
            },
            {
                "deltaTime": 0,
                "channel": 3,
                "type": "channel",
                "subtype": "controller",
                "controllerType": 7,
                "value": 110
            },
            {
                "deltaTime": 0,
                "channel": 3,
                "type": "channel",
                "noteNumber": 62,
                "velocity": 51,
                "subtype": "noteOn"
            },
            {
                "deltaTime": 0,
                "channel": 5,
                "type": "channel",
                "noteNumber": 47,
                "velocity": 55,
                "subtype": "noteOn"
            },
            {
                "deltaTime": 120,
                "channel": 2,
                "type": "channel",
                "noteNumber": 72,
                "velocity": 0,
                "subtype": "noteOff"
            },
            {
                "deltaTime": 0,
                "channel": 2,
                "type": "channel",
                "noteNumber": 71,
                "velocity": 57,
                "subtype": "noteOn"
            },
            {
                "deltaTime": 120,
                "type": "meta",
                "subtype": "setTempo",
                "microsecondsPerBeat": 937500
            },
            {
                "deltaTime": 0,
                "channel": 2,
                "type": "channel",
                "noteNumber": 71,
                "velocity": 0,
                "subtype": "noteOff"
            },
            {
                "deltaTime": 0,
                "channel": 5,
                "type": "channel",
                "noteNumber": 47,
                "velocity": 0,
                "subtype": "noteOff"
            },
            {
                "deltaTime": 0,
                "channel": 3,
                "type": "channel",
                "noteNumber": 62,
                "velocity": 0,
                "subtype": "noteOff"
            },
            {
                "deltaTime": 0,
                "channel": 2,
                "type": "channel",
                "noteNumber": 69,
                "velocity": 57,
                "subtype": "noteOn"
            },
            {
                "deltaTime": 0,
                "channel": 3,
                "type": "channel",
                "noteNumber": 64,
                "velocity": 52,
                "subtype": "noteOn"
            },
            {
                "deltaTime": 0,
                "channel": 5,
                "type": "channel",
                "noteNumber": 48,
                "velocity": 60,
                "subtype": "noteOn"
            },
            {
                "deltaTime": 120,
                "channel": 2,
                "type": "channel",
                "noteNumber": 69,
                "velocity": 0,
                "subtype": "noteOff"
            },
            {
                "deltaTime": 0,
                "channel": 2,
                "type": "channel",
                "noteNumber": 72,
                "velocity": 58,
                "subtype": "noteOn"
            },
            {
                "deltaTime": 120,
                "channel": 2,
                "type": "channel",
                "noteNumber": 72,
                "velocity": 0,
                "subtype": "noteOff"
            },
            {
                "deltaTime": 0,
                "channel": 3,
                "type": "channel",
                "noteNumber": 64,
                "velocity": 0,
                "subtype": "noteOff"
            },
            {
                "deltaTime": 0,
                "channel": 2,
                "type": "channel",
                "noteNumber": 71,
                "velocity": 58,
                "subtype": "noteOn"
            },
            {
                "deltaTime": 0,
                "channel": 3,
                "type": "channel",
                "noteNumber": 66,
                "velocity": 54,
                "subtype": "noteOn"
            },
            {
                "deltaTime": 120,
                "type": "meta",
                "subtype": "setTempo",
                "microsecondsPerBeat": 895522
            },
            {
                "deltaTime": 0,
                "channel": 2,
                "type": "channel",
                "noteNumber": 71,
                "velocity": 0,
                "subtype": "noteOff"
            },
            {
                "deltaTime": 0,
                "channel": 5,
                "type": "channel",
                "noteNumber": 48,
                "velocity": 0,
                "subtype": "noteOff"
            },
            {
                "deltaTime": 0,
                "channel": 2,
                "type": "channel",
                "noteNumber": 69,
                "velocity": 57,
                "subtype": "noteOn"
            },
            {
                "deltaTime": 0,
                "channel": 5,
                "type": "channel",
                "noteNumber": 50,
                "velocity": 58,
                "subtype": "noteOn"
            },
            {
                "deltaTime": 60,
                "channel": 5,
                "type": "channel",
                "noteNumber": 50,
                "velocity": 0,
                "subtype": "noteOff"
            },
            {
                "deltaTime": 0,
                "channel": 5,
                "type": "channel",
                "noteNumber": 48,
                "velocity": 58,
                "subtype": "noteOn"
            },
            {
                "deltaTime": 60,
                "type": "meta",
                "subtype": "setTempo",
                "microsecondsPerBeat": 937500
            },
            {
                "deltaTime": 0,
                "channel": 5,
                "type": "channel",
                "noteNumber": 48,
                "velocity": 0,
                "subtype": "noteOff"
            },
            {
                "deltaTime": 0,
                "channel": 2,
                "type": "channel",
                "noteNumber": 69,
                "velocity": 0,
                "subtype": "noteOff"
            },
            {
                "deltaTime": 0,
                "channel": 3,
                "type": "channel",
                "noteNumber": 66,
                "velocity": 0,
                "subtype": "noteOff"
            },
            {
                "deltaTime": 0,
                "channel": 3,
                "type": "channel",
                "noteNumber": 67,
                "velocity": 60,
                "subtype": "noteOn"
            },
            {
                "deltaTime": 0,
                "channel": 5,
                "type": "channel",
                "noteNumber": 47,
                "velocity": 58,
                "subtype": "noteOn"
            },
            {
                "deltaTime": 220,
                "channel": 5,
                "type": "channel",
                "noteNumber": 47,
                "velocity": 0,
                "subtype": "noteOff"
            },
            {
                "deltaTime": 20,
                "channel": 5,
                "type": "channel",
                "noteNumber": 52,
                "velocity": 60,
                "subtype": "noteOn"
            },
            {
                "deltaTime": 120,
                "type": "meta",
                "subtype": "setTempo",
                "microsecondsPerBeat": 888889
            },
            {
                "deltaTime": 0,
                "channel": 3,
                "type": "channel",
                "noteNumber": 67,
                "velocity": 0,
                "subtype": "noteOff"
            },
            {
                "deltaTime": 0,
                "channel": 3,
                "type": "channel",
                "noteNumber": 69,
                "velocity": 58,
                "subtype": "noteOn"
            },
            {
                "deltaTime": 60,
                "channel": 3,
                "type": "channel",
                "noteNumber": 69,
                "velocity": 0,
                "subtype": "noteOff"
            },
            {
                "deltaTime": 0,
                "channel": 3,
                "type": "channel",
                "noteNumber": 67,
                "velocity": 58,
                "subtype": "noteOn"
            },
            {
                "deltaTime": 60,
                "type": "meta",
                "subtype": "setTempo",
                "microsecondsPerBeat": 937500
            },
            {
                "deltaTime": 0,
                "channel": 3,
                "type": "channel",
                "noteNumber": 67,
                "velocity": 0,
                "subtype": "noteOff"
            },
            {
                "deltaTime": 0,
                "channel": 5,
                "type": "channel",
                "noteNumber": 52,
                "velocity": 0,
                "subtype": "noteOff"
            },
            {
                "deltaTime": 0,
                "channel": 3,
                "type": "channel",
                "noteNumber": 66,
                "velocity": 58,
                "subtype": "noteOn"
            },
            {
                "deltaTime": 0,
                "channel": 5,
                "type": "channel",
                "noteNumber": 45,
                "velocity": 55,
                "subtype": "noteOn"
            },
            {
                "deltaTime": 120,
                "channel": 2,
                "type": "channel",
                "noteNumber": 72,
                "velocity": 58,
                "subtype": "noteOn"
            },
            {
                "deltaTime": 100,
                "channel": 5,
                "type": "channel",
                "noteNumber": 45,
                "velocity": 0,
                "subtype": "noteOff"
            },
            {
                "deltaTime": 0,
                "channel": 3,
                "type": "channel",
                "noteNumber": 66,
                "velocity": 0,
                "subtype": "noteOff"
            },
            {
                "deltaTime": 20,
                "channel": 2,
                "type": "channel",
                "noteNumber": 72,
                "velocity": 0,
                "subtype": "noteOff"
            },
            {
                "deltaTime": 0,
                "channel": 3,
                "type": "channel",
                "noteNumber": 71,
                "velocity": 60,
                "subtype": "noteOn"
            },
            {
                "deltaTime": 0,
                "channel": 5,
                "type": "channel",
                "noteNumber": 50,
                "velocity": 60,
                "subtype": "noteOn"
            },
            {
                "deltaTime": 120,
                "channel": 2,
                "type": "channel",
                "noteNumber": 69,
                "velocity": 55,
                "subtype": "noteOn"
            },
            {
                "deltaTime": 120,
                "type": "meta",
                "subtype": "setTempo",
                "microsecondsPerBeat": 975610
            },
            {
                "deltaTime": 0,
                "channel": 2,
                "type": "channel",
                "noteNumber": 69,
                "velocity": 0,
                "subtype": "noteOff"
            },
            {
                "deltaTime": 0,
                "channel": 3,
                "type": "channel",
                "noteNumber": 71,
                "velocity": 0,
                "subtype": "noteOff"
            },
            {
                "deltaTime": 0,
                "channel": 2,
                "type": "channel",
                "noteNumber": 68,
                "velocity": 54,
                "subtype": "noteOn"
            },
            {
                "deltaTime": 0,
                "channel": 3,
                "type": "channel",
                "noteNumber": 64,
                "velocity": 57,
                "subtype": "noteOn"
            },
            {
                "deltaTime": 120,
                "channel": 5,
                "type": "channel",
                "noteNumber": 50,
                "velocity": 0,
                "subtype": "noteOff"
            },
            {
                "deltaTime": 0,
                "channel": 5,
                "type": "channel",
                "noteNumber": 52,
                "velocity": 60,
                "subtype": "noteOn"
            },
            {
                "deltaTime": 60,
                "channel": 2,
                "type": "channel",
                "noteNumber": 68,
                "velocity": 0,
                "subtype": "noteOff"
            },
            {
                "deltaTime": 40,
                "channel": 3,
                "type": "channel",
                "noteNumber": 64,
                "velocity": 0,
                "subtype": "noteOff"
            },
            {
                "deltaTime": 20,
                "type": "meta",
                "subtype": "setTempo",
                "microsecondsPerBeat": 937500
            },
            {
                "deltaTime": 0,
                "channel": 5,
                "type": "channel",
                "noteNumber": 52,
                "velocity": 0,
                "subtype": "noteOff"
            },
            {
                "deltaTime": 0,
                "channel": 2,
                "type": "channel",
                "noteNumber": 76,
                "velocity": 60,
                "subtype": "noteOn"
            },
            {
                "deltaTime": 0,
                "channel": 3,
                "type": "channel",
                "noteNumber": 69,
                "velocity": 60,
                "subtype": "noteOn"
            },
            {
                "deltaTime": 0,
                "channel": 5,
                "type": "channel",
                "noteNumber": 50,
                "velocity": 58,
                "subtype": "noteOn"
            },
            {
                "deltaTime": 120,
                "channel": 5,
                "type": "channel",
                "noteNumber": 50,
                "velocity": 0,
                "subtype": "noteOff"
            },
            {
                "deltaTime": 0,
                "channel": 5,
                "type": "channel",
                "noteNumber": 48,
                "velocity": 57,
                "subtype": "noteOn"
            },
            {
                "deltaTime": 120,
                "channel": 5,
                "type": "channel",
                "noteNumber": 48,
                "velocity": 0,
                "subtype": "noteOff"
            },
            {
                "deltaTime": 0,
                "channel": 2,
                "type": "channel",
                "noteNumber": 76,
                "velocity": 0,
                "subtype": "noteOff"
            },
            {
                "deltaTime": 0,
                "channel": 2,
                "type": "channel",
                "noteNumber": 74,
                "velocity": 58,
                "subtype": "noteOn"
            },
            {
                "deltaTime": 0,
                "channel": 5,
                "type": "channel",
                "noteNumber": 47,
                "velocity": 55,
                "subtype": "noteOn"
            },
            {
                "deltaTime": 120,
                "channel": 3,
                "type": "channel",
                "noteNumber": 69,
                "velocity": 0,
                "subtype": "noteOff"
            },
            {
                "deltaTime": 0,
                "channel": 3,
                "type": "channel",
                "noteNumber": 71,
                "velocity": 58,
                "subtype": "noteOn"
            },
            {
                "deltaTime": 120,
                "type": "meta",
                "subtype": "setTempo",
                "microsecondsPerBeat": 967742
            },
            {
                "deltaTime": 0,
                "channel": 3,
                "type": "channel",
                "noteNumber": 71,
                "velocity": 0,
                "subtype": "noteOff"
            },
            {
                "deltaTime": 0,
                "channel": 5,
                "type": "channel",
                "noteNumber": 47,
                "velocity": 0,
                "subtype": "noteOff"
            },
            {
                "deltaTime": 0,
                "channel": 2,
                "type": "channel",
                "noteNumber": 74,
                "velocity": 0,
                "subtype": "noteOff"
            },
            {
                "deltaTime": 0,
                "channel": 2,
                "type": "channel",
                "noteNumber": 72,
                "velocity": 56,
                "subtype": "noteOn"
            },
            {
                "deltaTime": 0,
                "channel": 3,
                "type": "channel",
                "noteNumber": 69,
                "velocity": 58,
                "subtype": "noteOn"
            },
            {
                "deltaTime": 0,
                "channel": 4,
                "type": "channel",
                "subtype": "controller",
                "controllerType": 7,
                "value": 120
            },
            {
                "deltaTime": 0,
                "channel": 4,
                "type": "channel",
                "noteNumber": 52,
                "velocity": 52,
                "subtype": "noteOn"
            },
            {
                "deltaTime": 120,
                "channel": 3,
                "type": "channel",
                "noteNumber": 69,
                "velocity": 0,
                "subtype": "noteOff"
            },
            {
                "deltaTime": 0,
                "channel": 2,
                "type": "channel",
                "noteNumber": 72,
                "velocity": 0,
                "subtype": "noteOff"
            },
            {
                "deltaTime": 0,
                "channel": 2,
                "type": "channel",
                "noteNumber": 71,
                "velocity": 56,
                "subtype": "noteOn"
            },
            {
                "deltaTime": 0,
                "channel": 3,
                "type": "channel",
                "noteNumber": 67,
                "velocity": 58,
                "subtype": "noteOn"
            },
            {
                "deltaTime": 120,
                "type": "meta",
                "subtype": "setTempo",
                "microsecondsPerBeat": 944882
            },
            {
                "deltaTime": 0,
                "channel": 3,
                "type": "channel",
                "noteNumber": 67,
                "velocity": 0,
                "subtype": "noteOff"
            },
            {
                "deltaTime": 0,
                "channel": 2,
                "type": "channel",
                "noteNumber": 71,
                "velocity": 0,
                "subtype": "noteOff"
            },
            {
                "deltaTime": 0,
                "channel": 4,
                "type": "channel",
                "noteNumber": 52,
                "velocity": 0,
                "subtype": "noteOff"
            },
            {
                "deltaTime": 0,
                "channel": 2,
                "type": "channel",
                "noteNumber": 69,
                "velocity": 54,
                "subtype": "noteOn"
            },
            {
                "deltaTime": 0,
                "channel": 3,
                "type": "channel",
                "noteNumber": 66,
                "velocity": 58,
                "subtype": "noteOn"
            },
            {
                "deltaTime": 0,
                "channel": 4,
                "type": "channel",
                "noteNumber": 54,
                "velocity": 54,
                "subtype": "noteOn"
            },
            {
                "deltaTime": 120,
                "channel": 2,
                "type": "channel",
                "noteNumber": 69,
                "velocity": 0,
                "subtype": "noteOff"
            },
            {
                "deltaTime": 0,
                "channel": 2,
                "type": "channel",
                "noteNumber": 68,
                "velocity": 54,
                "subtype": "noteOn"
            },
            {
                "deltaTime": 120,
                "channel": 2,
                "type": "channel",
                "noteNumber": 68,
                "velocity": 0,
                "subtype": "noteOff"
            },
            {
                "deltaTime": 0,
                "channel": 4,
                "type": "channel",
                "noteNumber": 54,
                "velocity": 0,
                "subtype": "noteOff"
            },
            {
                "deltaTime": 0,
                "channel": 3,
                "type": "channel",
                "noteNumber": 66,
                "velocity": 0,
                "subtype": "noteOff"
            },
            {
                "deltaTime": 0,
                "channel": 2,
                "type": "channel",
                "noteNumber": 69,
                "velocity": 54,
                "subtype": "noteOn"
            },
            {
                "deltaTime": 0,
                "channel": 3,
                "type": "channel",
                "noteNumber": 65,
                "velocity": 57,
                "subtype": "noteOn"
            },
            {
                "deltaTime": 0,
                "channel": 4,
                "type": "channel",
                "noteNumber": 56,
                "velocity": 56,
                "subtype": "noteOn"
            },
            {
                "deltaTime": 0,
                "channel": 5,
                "type": "channel",
                "subtype": "controller",
                "controllerType": 7,
                "value": 100
            },
            {
                "deltaTime": 0,
                "channel": 5,
                "type": "channel",
                "noteNumber": 50,
                "velocity": 58,
                "subtype": "noteOn"
            },
            {
                "deltaTime": 120,
                "channel": 2,
                "type": "channel",
                "noteNumber": 69,
                "velocity": 0,
                "subtype": "noteOff"
            },
            {
                "deltaTime": 0,
                "channel": 2,
                "type": "channel",
                "noteNumber": 71,
                "velocity": 53,
                "subtype": "noteOn"
            },
            {
                "deltaTime": 120,
                "channel": 2,
                "type": "channel",
                "noteNumber": 71,
                "velocity": 0,
                "subtype": "noteOff"
            },
            {
                "deltaTime": 0,
                "channel": 5,
                "type": "channel",
                "noteNumber": 50,
                "velocity": 0,
                "subtype": "noteOff"
            },
            {
                "deltaTime": 0,
                "channel": 4,
                "type": "channel",
                "noteNumber": 56,
                "velocity": 0,
                "subtype": "noteOff"
            },
            {
                "deltaTime": 0,
                "channel": 3,
                "type": "channel",
                "noteNumber": 65,
                "velocity": 0,
                "subtype": "noteOff"
            },
            {
                "deltaTime": 0,
                "channel": 2,
                "type": "channel",
                "noteNumber": 72,
                "velocity": 56,
                "subtype": "noteOn"
            },
            {
                "deltaTime": 0,
                "channel": 3,
                "type": "channel",
                "noteNumber": 64,
                "velocity": 55,
                "subtype": "noteOn"
            },
            {
                "deltaTime": 0,
                "channel": 4,
                "type": "channel",
                "noteNumber": 57,
                "velocity": 60,
                "subtype": "noteOn"
            },
            {
                "deltaTime": 0,
                "channel": 5,
                "type": "channel",
                "noteNumber": 48,
                "velocity": 58,
                "subtype": "noteOn"
            },
            {
                "deltaTime": 90,
                "channel": 2,
                "type": "channel",
                "noteNumber": 72,
                "velocity": 0,
                "subtype": "noteOff"
            },
            {
                "deltaTime": 30,
                "channel": 2,
                "type": "channel",
                "noteNumber": 66,
                "velocity": 54,
                "subtype": "noteOn"
            },
            {
                "deltaTime": 120,
                "channel": 2,
                "type": "channel",
                "noteNumber": 66,
                "velocity": 0,
                "subtype": "noteOff"
            },
            {
                "deltaTime": 0,
                "channel": 5,
                "type": "channel",
                "noteNumber": 48,
                "velocity": 0,
                "subtype": "noteOff"
            },
            {
                "deltaTime": 0,
                "channel": 3,
                "type": "channel",
                "noteNumber": 64,
                "velocity": 0,
                "subtype": "noteOff"
            },
            {
                "deltaTime": 0,
                "channel": 2,
                "type": "channel",
                "noteNumber": 69,
                "velocity": 54,
                "subtype": "noteOn"
            },
            {
                "deltaTime": 0,
                "channel": 3,
                "type": "channel",
                "noteNumber": 62,
                "velocity": 54,
                "subtype": "noteOn"
            },
            {
                "deltaTime": 0,
                "channel": 5,
                "type": "channel",
                "noteNumber": 53,
                "velocity": 60,
                "subtype": "noteOn"
            },
            {
                "deltaTime": 120,
                "type": "meta",
                "subtype": "setTempo",
                "microsecondsPerBeat": 895522
            },
            {
                "deltaTime": 0,
                "channel": 2,
                "type": "channel",
                "noteNumber": 69,
                "velocity": 0,
                "subtype": "noteOff"
            },
            {
                "deltaTime": 0,
                "channel": 4,
                "type": "channel",
                "noteNumber": 57,
                "velocity": 0,
                "subtype": "noteOff"
            },
            {
                "deltaTime": 0,
                "channel": 2,
                "type": "channel",
                "noteNumber": 68,
                "velocity": 55,
                "subtype": "noteOn"
            },
            {
                "deltaTime": 0,
                "channel": 4,
                "type": "channel",
                "noteNumber": 59,
                "velocity": 57,
                "subtype": "noteOn"
            },
            {
                "deltaTime": 60,
                "channel": 4,
                "type": "channel",
                "noteNumber": 59,
                "velocity": 0,
                "subtype": "noteOff"
            },
            {
                "deltaTime": 0,
                "channel": 4,
                "type": "channel",
                "noteNumber": 57,
                "velocity": 57,
                "subtype": "noteOn"
            },
            {
                "deltaTime": 60,
                "type": "meta",
                "subtype": "setTempo",
                "microsecondsPerBeat": 937500
            },
            {
                "deltaTime": 0,
                "channel": 4,
                "type": "channel",
                "noteNumber": 57,
                "velocity": 0,
                "subtype": "noteOff"
            },
            {
                "deltaTime": 0,
                "channel": 2,
                "type": "channel",
                "noteNumber": 68,
                "velocity": 0,
                "subtype": "noteOff"
            },
            {
                "deltaTime": 0,
                "channel": 2,
                "type": "channel",
                "noteNumber": 71,
                "velocity": 58,
                "subtype": "noteOn"
            },
            {
                "deltaTime": 0,
                "channel": 4,
                "type": "channel",
                "noteNumber": 56,
                "velocity": 57,
                "subtype": "noteOn"
            },
            {
                "deltaTime": 120,
                "channel": 3,
                "type": "channel",
                "noteNumber": 62,
                "velocity": 0,
                "subtype": "noteOff"
            },
            {
                "deltaTime": 0,
                "channel": 3,
                "type": "channel",
                "noteNumber": 64,
                "velocity": 54,
                "subtype": "noteOn"
            },
            {
                "deltaTime": 100,
                "channel": 4,
                "type": "channel",
                "noteNumber": 56,
                "velocity": 0,
                "subtype": "noteOff"
            },
            {
                "deltaTime": 20,
                "channel": 5,
                "type": "channel",
                "noteNumber": 53,
                "velocity": 0,
                "subtype": "noteOff"
            },
            {
                "deltaTime": 0,
                "channel": 2,
                "type": "channel",
                "noteNumber": 71,
                "velocity": 0,
                "subtype": "noteOff"
            },
            {
                "deltaTime": 0,
                "channel": 3,
                "type": "channel",
                "noteNumber": 64,
                "velocity": 0,
                "subtype": "noteOff"
            },
            {
                "deltaTime": 0,
                "channel": 2,
                "type": "channel",
                "noteNumber": 69,
                "velocity": 56,
                "subtype": "noteOn"
            },
            {
                "deltaTime": 0,
                "channel": 3,
                "type": "channel",
                "noteNumber": 66,
                "velocity": 55,
                "subtype": "noteOn"
            },
            {
                "deltaTime": 0,
                "channel": 4,
                "type": "channel",
                "noteNumber": 60,
                "velocity": 60,
                "subtype": "noteOn"
            },
            {
                "deltaTime": 0,
                "channel": 5,
                "type": "channel",
                "noteNumber": 52,
                "velocity": 58,
                "subtype": "noteOn"
            },
            {
                "deltaTime": 120,
                "channel": 3,
                "type": "channel",
                "noteNumber": 66,
                "velocity": 0,
                "subtype": "noteOff"
            },
            {
                "deltaTime": 0,
                "channel": 2,
                "type": "channel",
                "noteNumber": 69,
                "velocity": 0,
                "subtype": "noteOff"
            },
            {
                "deltaTime": 0,
                "channel": 2,
                "type": "channel",
                "noteNumber": 71,
                "velocity": 56,
                "subtype": "noteOn"
            },
            {
                "deltaTime": 0,
                "channel": 3,
                "type": "channel",
                "noteNumber": 68,
                "velocity": 55,
                "subtype": "noteOn"
            },
            {
                "deltaTime": 120,
                "type": "meta",
                "subtype": "setTempo",
                "microsecondsPerBeat": 975610
            },
            {
                "deltaTime": 0,
                "channel": 3,
                "type": "channel",
                "noteNumber": 68,
                "velocity": 0,
                "subtype": "noteOff"
            },
            {
                "deltaTime": 0,
                "channel": 2,
                "type": "channel",
                "noteNumber": 71,
                "velocity": 0,
                "subtype": "noteOff"
            },
            {
                "deltaTime": 0,
                "channel": 4,
                "type": "channel",
                "noteNumber": 60,
                "velocity": 0,
                "subtype": "noteOff"
            },
            {
                "deltaTime": 0,
                "channel": 2,
                "type": "channel",
                "noteNumber": 72,
                "velocity": 58,
                "subtype": "noteOn"
            },
            {
                "deltaTime": 0,
                "channel": 3,
                "type": "channel",
                "noteNumber": 69,
                "velocity": 57,
                "subtype": "noteOn"
            },
            {
                "deltaTime": 0,
                "channel": 4,
                "type": "channel",
                "noteNumber": 54,
                "velocity": 56,
                "subtype": "noteOn"
            },
            {
                "deltaTime": 120,
                "channel": 3,
                "type": "channel",
                "noteNumber": 69,
                "velocity": 0,
                "subtype": "noteOff"
            },
            {
                "deltaTime": 0,
                "channel": 3,
                "type": "channel",
                "noteNumber": 68,
                "velocity": 56,
                "subtype": "noteOn"
            },
            {
                "deltaTime": 100,
                "channel": 4,
                "type": "channel",
                "noteNumber": 54,
                "velocity": 0,
                "subtype": "noteOff"
            },
            {
                "deltaTime": 0,
                "channel": 2,
                "type": "channel",
                "noteNumber": 72,
                "velocity": 0,
                "subtype": "noteOff"
            },
            {
                "deltaTime": 20,
                "type": "meta",
                "subtype": "setTempo",
                "microsecondsPerBeat": 937500
            },
            {
                "deltaTime": 0,
                "channel": 5,
                "type": "channel",
                "noteNumber": 52,
                "velocity": 0,
                "subtype": "noteOff"
            },
            {
                "deltaTime": 0,
                "channel": 3,
                "type": "channel",
                "noteNumber": 68,
                "velocity": 0,
                "subtype": "noteOff"
            },
            {
                "deltaTime": 0,
                "channel": 2,
                "type": "channel",
                "noteNumber": 77,
                "velocity": 64,
                "subtype": "noteOn"
            },
            {
                "deltaTime": 0,
                "channel": 3,
                "type": "channel",
                "noteNumber": 69,
                "velocity": 56,
                "subtype": "noteOn"
            },
            {
                "deltaTime": 0,
                "channel": 4,
                "type": "channel",
                "noteNumber": 59,
                "velocity": 60,
                "subtype": "noteOn"
            },
            {
                "deltaTime": 0,
                "channel": 5,
                "type": "channel",
                "noteNumber": 50,
                "velocity": 57,
                "subtype": "noteOn"
            },
            {
                "deltaTime": 120,
                "channel": 3,
                "type": "channel",
                "noteNumber": 69,
                "velocity": 0,
                "subtype": "noteOff"
            },
            {
                "deltaTime": 0,
                "channel": 3,
                "type": "channel",
                "noteNumber": 71,
                "velocity": 56,
                "subtype": "noteOn"
            },
            {
                "deltaTime": 120,
                "channel": 3,
                "type": "channel",
                "noteNumber": 71,
                "velocity": 0,
                "subtype": "noteOff"
            },
            {
                "deltaTime": 0,
                "channel": 2,
                "type": "channel",
                "noteNumber": 77,
                "velocity": 0,
                "subtype": "noteOff"
            },
            {
                "deltaTime": 0,
                "channel": 2,
                "type": "channel",
                "noteNumber": 76,
                "velocity": 62,
                "subtype": "noteOn"
            },
            {
                "deltaTime": 0,
                "channel": 3,
                "type": "channel",
                "noteNumber": 68,
                "velocity": 58,
                "subtype": "noteOn"
            },
            {
                "deltaTime": 120,
                "channel": 3,
                "type": "channel",
                "noteNumber": 68,
                "velocity": 0,
                "subtype": "noteOff"
            },
            {
                "deltaTime": 0,
                "channel": 4,
                "type": "channel",
                "noteNumber": 59,
                "velocity": 0,
                "subtype": "noteOff"
            },
            {
                "deltaTime": 0,
                "channel": 3,
                "type": "channel",
                "noteNumber": 66,
                "velocity": 55,
                "subtype": "noteOn"
            },
            {
                "deltaTime": 0,
                "channel": 4,
                "type": "channel",
                "noteNumber": 60,
                "velocity": 60,
                "subtype": "noteOn"
            },
            {
                "deltaTime": 120,
                "channel": 4,
                "type": "channel",
                "noteNumber": 60,
                "velocity": 0,
                "subtype": "noteOff"
            },
            {
                "deltaTime": 0,
                "channel": 5,
                "type": "channel",
                "noteNumber": 50,
                "velocity": 0,
                "subtype": "noteOff"
            },
            {
                "deltaTime": 0,
                "channel": 2,
                "type": "channel",
                "noteNumber": 76,
                "velocity": 0,
                "subtype": "noteOff"
            },
            {
                "deltaTime": 0,
                "channel": 3,
                "type": "channel",
                "noteNumber": 66,
                "velocity": 0,
                "subtype": "noteOff"
            },
            {
                "deltaTime": 0,
                "channel": 2,
                "type": "channel",
                "noteNumber": 74,
                "velocity": 60,
                "subtype": "noteOn"
            },
            {
                "deltaTime": 0,
                "channel": 3,
                "type": "channel",
                "noteNumber": 68,
                "velocity": 55,
                "subtype": "noteOn"
            },
            {
                "deltaTime": 0,
                "channel": 4,
                "type": "channel",
                "noteNumber": 59,
                "velocity": 59,
                "subtype": "noteOn"
            },
            {
                "deltaTime": 0,
                "channel": 5,
                "type": "channel",
                "noteNumber": 52,
                "velocity": 57,
                "subtype": "noteOn"
            },
            {
                "deltaTime": 120,
                "channel": 4,
                "type": "channel",
                "noteNumber": 59,
                "velocity": 0,
                "subtype": "noteOff"
            },
            {
                "deltaTime": 0,
                "channel": 3,
                "type": "channel",
                "noteNumber": 68,
                "velocity": 0,
                "subtype": "noteOff"
            },
            {
                "deltaTime": 0,
                "channel": 3,
                "type": "channel",
                "noteNumber": 69,
                "velocity": 55,
                "subtype": "noteOn"
            },
            {
                "deltaTime": 0,
                "channel": 4,
                "type": "channel",
                "noteNumber": 57,
                "velocity": 57,
                "subtype": "noteOn"
            },
            {
                "deltaTime": 120,
                "channel": 4,
                "type": "channel",
                "noteNumber": 57,
                "velocity": 0,
                "subtype": "noteOff"
            },
            {
                "deltaTime": 0,
                "channel": 3,
                "type": "channel",
                "noteNumber": 69,
                "velocity": 0,
                "subtype": "noteOff"
            },
            {
                "deltaTime": 0,
                "channel": 5,
                "type": "channel",
                "noteNumber": 52,
                "velocity": 0,
                "subtype": "noteOff"
            },
            {
                "deltaTime": 0,
                "channel": 3,
                "type": "channel",
                "noteNumber": 71,
                "velocity": 59,
                "subtype": "noteOn"
            },
            {
                "deltaTime": 0,
                "channel": 4,
                "type": "channel",
                "noteNumber": 56,
                "velocity": 56,
                "subtype": "noteOn"
            },
            {
                "deltaTime": 0,
                "channel": 5,
                "type": "channel",
                "noteNumber": 53,
                "velocity": 60,
                "subtype": "noteOn"
            },
            {
                "deltaTime": 220,
                "channel": 4,
                "type": "channel",
                "noteNumber": 56,
                "velocity": 0,
                "subtype": "noteOff"
            },
            {
                "deltaTime": 20,
                "type": "meta",
                "subtype": "setTempo",
                "microsecondsPerBeat": 992720
            },
            {
                "deltaTime": 0,
                "channel": 2,
                "type": "channel",
                "noteNumber": 74,
                "velocity": 0,
                "subtype": "noteOff"
            },
            {
                "deltaTime": 0,
                "channel": 3,
                "type": "channel",
                "noteNumber": 71,
                "velocity": 0,
                "subtype": "noteOff"
            },
            {
                "deltaTime": 0,
                "channel": 5,
                "type": "channel",
                "noteNumber": 53,
                "velocity": 0,
                "subtype": "noteOff"
            },
            {
                "deltaTime": 0,
                "channel": 2,
                "type": "channel",
                "noteNumber": 72,
                "velocity": 58,
                "subtype": "noteOn"
            },
            {
                "deltaTime": 0,
                "channel": 4,
                "type": "channel",
                "noteNumber": 57,
                "velocity": 59,
                "subtype": "noteOn"
            },
            {
                "deltaTime": 0,
                "channel": 5,
                "type": "channel",
                "noteNumber": 52,
                "velocity": 55,
                "subtype": "noteOn"
            },
            {
                "deltaTime": 120,
                "channel": 5,
                "type": "channel",
                "noteNumber": 52,
                "velocity": 0,
                "subtype": "noteOff"
            },
            {
                "deltaTime": 0,
                "channel": 2,
                "type": "channel",
                "noteNumber": 72,
                "velocity": 0,
                "subtype": "noteOff"
            },
            {
                "deltaTime": 0,
                "channel": 2,
                "type": "channel",
                "noteNumber": 71,
                "velocity": 58,
                "subtype": "noteOn"
            },
            {
                "deltaTime": 0,
                "channel": 5,
                "type": "channel",
                "noteNumber": 50,
                "velocity": 55,
                "subtype": "noteOn"
            },
            {
                "deltaTime": 120,
                "type": "meta",
                "subtype": "setTempo",
                "microsecondsPerBeat": 1052816
            },
            {
                "deltaTime": 0,
                "channel": 5,
                "type": "channel",
                "noteNumber": 50,
                "velocity": 0,
                "subtype": "noteOff"
            },
            {
                "deltaTime": 0,
                "channel": 2,
                "type": "channel",
                "noteNumber": 71,
                "velocity": 0,
                "subtype": "noteOff"
            },
            {
                "deltaTime": 0,
                "channel": 2,
                "type": "channel",
                "noteNumber": 71,
                "velocity": 60,
                "subtype": "noteOn"
            },
            {
                "deltaTime": 0,
                "channel": 5,
                "type": "channel",
                "noteNumber": 52,
                "velocity": 58,
                "subtype": "noteOn"
            },
            {
                "deltaTime": 45,
                "channel": 2,
                "type": "channel",
                "noteNumber": 71,
                "velocity": 0,
                "subtype": "noteOff"
            },
            {
                "deltaTime": 0,
                "channel": 2,
                "type": "channel",
                "noteNumber": 72,
                "velocity": 55,
                "subtype": "noteOn"
            },
            {
                "deltaTime": 45,
                "channel": 2,
                "type": "channel",
                "noteNumber": 72,
                "velocity": 0,
                "subtype": "noteOff"
            },
            {
                "deltaTime": 0,
                "channel": 2,
                "type": "channel",
                "noteNumber": 71,
                "velocity": 60,
                "subtype": "noteOn"
            },
            {
                "deltaTime": 150,
                "channel": 4,
                "type": "channel",
                "noteNumber": 57,
                "velocity": 0,
                "subtype": "noteOff"
            },
            {
                "deltaTime": 0,
                "channel": 4,
                "type": "channel",
                "noteNumber": 56,
                "velocity": 57,
                "subtype": "noteOn"
            },
            {
                "deltaTime": 120,
                "channel": 2,
                "type": "channel",
                "noteNumber": 71,
                "velocity": 0,
                "subtype": "noteOff"
            },
            {
                "deltaTime": 0,
                "channel": 2,
                "type": "channel",
                "noteNumber": 69,
                "velocity": 57,
                "subtype": "noteOn"
            },
            {
                "deltaTime": 120,
                "type": "meta",
                "subtype": "setTempo",
                "microsecondsPerBeat": 961384
            },
            {
                "deltaTime": 0,
                "channel": 2,
                "type": "channel",
                "noteNumber": 69,
                "velocity": 0,
                "subtype": "noteOff"
            },
            {
                "deltaTime": 0,
                "channel": 4,
                "type": "channel",
                "noteNumber": 56,
                "velocity": 0,
                "subtype": "noteOff"
            },
            {
                "deltaTime": 0,
                "channel": 5,
                "type": "channel",
                "noteNumber": 52,
                "velocity": 0,
                "subtype": "noteOff"
            },
            {
                "deltaTime": 0,
                "channel": 2,
                "type": "channel",
                "noteNumber": 69,
                "velocity": 60,
                "subtype": "noteOn"
            },
            {
                "deltaTime": 0,
                "channel": 4,
                "type": "channel",
                "noteNumber": 57,
                "velocity": 60,
                "subtype": "noteOn"
            },
            {
                "deltaTime": 0,
                "channel": 5,
                "type": "channel",
                "noteNumber": 45,
                "velocity": 61,
                "subtype": "noteOn"
            },
            {
                "deltaTime": 240,
                "channel": 3,
                "type": "channel",
                "subtype": "controller",
                "controllerType": 7,
                "value": 127
            },
            {
                "deltaTime": 0,
                "channel": 3,
                "type": "channel",
                "noteNumber": 60,
                "velocity": 53,
                "subtype": "noteOn"
            },
            {
                "deltaTime": 240,
                "channel": 3,
                "type": "channel",
                "noteNumber": 60,
                "velocity": 0,
                "subtype": "noteOff"
            },
            {
                "deltaTime": 0,
                "channel": 2,
                "type": "channel",
                "noteNumber": 69,
                "velocity": 0,
                "subtype": "noteOff"
            },
            {
                "deltaTime": 0,
                "channel": 4,
                "type": "channel",
                "noteNumber": 57,
                "velocity": 0,
                "subtype": "noteOff"
            },
            {
                "deltaTime": 0,
                "channel": 5,
                "type": "channel",
                "noteNumber": 45,
                "velocity": 0,
                "subtype": "noteOff"
            },
            {
                "deltaTime": 0,
                "channel": 3,
                "type": "channel",
                "noteNumber": 62,
                "velocity": 54,
                "subtype": "noteOn"
            },
            {
                "deltaTime": 240,
                "type": "meta",
                "subtype": "setTempo",
                "microsecondsPerBeat": 1008403
            },
            {
                "deltaTime": 0,
                "channel": 3,
                "type": "channel",
                "noteNumber": 62,
                "velocity": 0,
                "subtype": "noteOff"
            },
            {
                "deltaTime": 0,
                "channel": 3,
                "type": "channel",
                "noteNumber": 64,
                "velocity": 55,
                "subtype": "noteOn"
            },
            {
                "deltaTime": 0,
                "channel": 4,
                "type": "channel",
                "noteNumber": 55,
                "velocity": 52,
                "subtype": "noteOn"
            },
            {
                "deltaTime": 240,
                "type": "meta",
                "subtype": "setTempo",
                "microsecondsPerBeat": 960000
            },
            {
                "deltaTime": 0,
                "channel": 4,
                "type": "channel",
                "noteNumber": 55,
                "velocity": 0,
                "subtype": "noteOff"
            },
            {
                "deltaTime": 0,
                "channel": 3,
                "type": "channel",
                "noteNumber": 64,
                "velocity": 0,
                "subtype": "noteOff"
            },
            {
                "deltaTime": 0,
                "channel": 3,
                "type": "channel",
                "noteNumber": 65,
                "velocity": 60,
                "subtype": "noteOn"
            },
            {
                "deltaTime": 0,
                "channel": 4,
                "type": "channel",
                "noteNumber": 57,
                "velocity": 54,
                "subtype": "noteOn"
            },
            {
                "deltaTime": 240,
                "channel": 4,
                "type": "channel",
                "noteNumber": 57,
                "velocity": 0,
                "subtype": "noteOff"
            },
            {
                "deltaTime": 0,
                "channel": 4,
                "type": "channel",
                "noteNumber": 59,
                "velocity": 56,
                "subtype": "noteOn"
            },
            {
                "deltaTime": 120,
                "type": "meta",
                "subtype": "setTempo",
                "microsecondsPerBeat": 909091
            },
            {
                "deltaTime": 0,
                "channel": 3,
                "type": "channel",
                "noteNumber": 65,
                "velocity": 0,
                "subtype": "noteOff"
            },
            {
                "deltaTime": 0,
                "channel": 3,
                "type": "channel",
                "noteNumber": 67,
                "velocity": 58,
                "subtype": "noteOn"
            },
            {
                "deltaTime": 60,
                "channel": 3,
                "type": "channel",
                "noteNumber": 67,
                "velocity": 0,
                "subtype": "noteOff"
            },
            {
                "deltaTime": 0,
                "channel": 3,
                "type": "channel",
                "noteNumber": 65,
                "velocity": 58,
                "subtype": "noteOn"
            },
            {
                "deltaTime": 60,
                "type": "meta",
                "subtype": "setTempo",
                "microsecondsPerBeat": 952381
            },
            {
                "deltaTime": 0,
                "channel": 3,
                "type": "channel",
                "noteNumber": 65,
                "velocity": 0,
                "subtype": "noteOff"
            },
            {
                "deltaTime": 0,
                "channel": 4,
                "type": "channel",
                "noteNumber": 59,
                "velocity": 0,
                "subtype": "noteOff"
            },
            {
                "deltaTime": 0,
                "channel": 3,
                "type": "channel",
                "noteNumber": 64,
                "velocity": 58,
                "subtype": "noteOn"
            },
            {
                "deltaTime": 0,
                "channel": 4,
                "type": "channel",
                "noteNumber": 60,
                "velocity": 60,
                "subtype": "noteOn"
            },
            {
                "deltaTime": 220,
                "channel": 3,
                "type": "channel",
                "noteNumber": 64,
                "velocity": 0,
                "subtype": "noteOff"
            },
            {
                "deltaTime": 20,
                "channel": 3,
                "type": "channel",
                "noteNumber": 69,
                "velocity": 60,
                "subtype": "noteOn"
            },
            {
                "deltaTime": 120,
                "channel": 4,
                "type": "channel",
                "noteNumber": 60,
                "velocity": 0,
                "subtype": "noteOff"
            },
            {
                "deltaTime": 0,
                "channel": 4,
                "type": "channel",
                "noteNumber": 62,
                "velocity": 57,
                "subtype": "noteOn"
            },
            {
                "deltaTime": 60,
                "channel": 4,
                "type": "channel",
                "noteNumber": 62,
                "velocity": 0,
                "subtype": "noteOff"
            },
            {
                "deltaTime": 0,
                "channel": 4,
                "type": "channel",
                "noteNumber": 60,
                "velocity": 57,
                "subtype": "noteOn"
            },
            {
                "deltaTime": 60,
                "type": "meta",
                "subtype": "setTempo",
                "microsecondsPerBeat": 975610
            },
            {
                "deltaTime": 0,
                "channel": 4,
                "type": "channel",
                "noteNumber": 60,
                "velocity": 0,
                "subtype": "noteOff"
            },
            {
                "deltaTime": 0,
                "channel": 3,
                "type": "channel",
                "noteNumber": 69,
                "velocity": 0,
                "subtype": "noteOff"
            },
            {
                "deltaTime": 0,
                "channel": 3,
                "type": "channel",
                "noteNumber": 62,
                "velocity": 56,
                "subtype": "noteOn"
            },
            {
                "deltaTime": 0,
                "channel": 4,
                "type": "channel",
                "noteNumber": 59,
                "velocity": 57,
                "subtype": "noteOn"
            },
            {
                "deltaTime": 220,
                "channel": 4,
                "type": "channel",
                "noteNumber": 59,
                "velocity": 0,
                "subtype": "noteOff"
            },
            {
                "deltaTime": 0,
                "channel": 3,
                "type": "channel",
                "noteNumber": 62,
                "velocity": 0,
                "subtype": "noteOff"
            },
            {
                "deltaTime": 20,
                "type": "meta",
                "subtype": "setTempo",
                "microsecondsPerBeat": 952381
            },
            {
                "deltaTime": 0,
                "channel": 3,
                "type": "channel",
                "noteNumber": 67,
                "velocity": 60,
                "subtype": "noteOn"
            },
            {
                "deltaTime": 0,
                "channel": 4,
                "type": "channel",
                "noteNumber": 64,
                "velocity": 60,
                "subtype": "noteOn"
            },
            {
                "deltaTime": 0,
                "channel": 5,
                "type": "channel",
                "subtype": "controller",
                "controllerType": 7,
                "value": 120
            },
            {
                "deltaTime": 0,
                "channel": 5,
                "type": "channel",
                "noteNumber": 43,
                "velocity": 52,
                "subtype": "noteOn"
            },
            {
                "deltaTime": 240,
                "channel": 5,
                "type": "channel",
                "noteNumber": 43,
                "velocity": 0,
                "subtype": "noteOff"
            },
            {
                "deltaTime": 0,
                "channel": 4,
                "type": "channel",
                "noteNumber": 64,
                "velocity": 0,
                "subtype": "noteOff"
            },
            {
                "deltaTime": 0,
                "channel": 4,
                "type": "channel",
                "noteNumber": 57,
                "velocity": 55,
                "subtype": "noteOn"
            },
            {
                "deltaTime": 0,
                "channel": 5,
                "type": "channel",
                "noteNumber": 45,
                "velocity": 53,
                "subtype": "noteOn"
            },
            {
                "deltaTime": 120,
                "type": "meta",
                "subtype": "setTempo",
                "microsecondsPerBeat": 923077
            },
            {
                "deltaTime": 0,
                "channel": 3,
                "type": "channel",
                "noteNumber": 67,
                "velocity": 0,
                "subtype": "noteOff"
            },
            {
                "deltaTime": 0,
                "channel": 3,
                "type": "channel",
                "noteNumber": 69,
                "velocity": 57,
                "subtype": "noteOn"
            },
            {
                "deltaTime": 100,
                "channel": 4,
                "type": "channel",
                "noteNumber": 57,
                "velocity": 0,
                "subtype": "noteOff"
            },
            {
                "deltaTime": 20,
                "channel": 3,
                "type": "channel",
                "noteNumber": 69,
                "velocity": 0,
                "subtype": "noteOff"
            },
            {
                "deltaTime": 0,
                "channel": 5,
                "type": "channel",
                "noteNumber": 45,
                "velocity": 0,
                "subtype": "noteOff"
            },
            {
                "deltaTime": 0,
                "channel": 3,
                "type": "channel",
                "noteNumber": 67,
                "velocity": 57,
                "subtype": "noteOn"
            },
            {
                "deltaTime": 0,
                "channel": 4,
                "type": "channel",
                "noteNumber": 62,
                "velocity": 60,
                "subtype": "noteOn"
            },
            {
                "deltaTime": 0,
                "channel": 5,
                "type": "channel",
                "noteNumber": 47,
                "velocity": 55,
                "subtype": "noteOn"
            },
            {
                "deltaTime": 120,
                "type": "meta",
                "subtype": "setTempo",
                "microsecondsPerBeat": 975610
            },
            {
                "deltaTime": 0,
                "channel": 3,
                "type": "channel",
                "noteNumber": 67,
                "velocity": 0,
                "subtype": "noteOff"
            },
            {
                "deltaTime": 0,
                "channel": 3,
                "type": "channel",
                "noteNumber": 65,
                "velocity": 57,
                "subtype": "noteOn"
            },
            {
                "deltaTime": 120,
                "type": "meta",
                "subtype": "setTempo",
                "microsecondsPerBeat": 952381
            },
            {
                "deltaTime": 0,
                "channel": 3,
                "type": "channel",
                "noteNumber": 65,
                "velocity": 0,
                "subtype": "noteOff"
            },
            {
                "deltaTime": 0,
                "channel": 5,
                "type": "channel",
                "noteNumber": 47,
                "velocity": 0,
                "subtype": "noteOff"
            },
            {
                "deltaTime": 0,
                "channel": 3,
                "type": "channel",
                "noteNumber": 64,
                "velocity": 57,
                "subtype": "noteOn"
            },
            {
                "deltaTime": 0,
                "channel": 5,
                "type": "channel",
                "noteNumber": 48,
                "velocity": 60,
                "subtype": "noteOn"
            },
            {
                "deltaTime": 220,
                "channel": 3,
                "type": "channel",
                "noteNumber": 64,
                "velocity": 0,
                "subtype": "noteOff"
            },
            {
                "deltaTime": 20,
                "channel": 4,
                "type": "channel",
                "noteNumber": 62,
                "velocity": 0,
                "subtype": "noteOff"
            },
            {
                "deltaTime": 0,
                "channel": 2,
                "type": "channel",
                "subtype": "controller",
                "controllerType": 7,
                "value": 127
            },
            {
                "deltaTime": 0,
                "channel": 2,
                "type": "channel",
                "noteNumber": 67,
                "velocity": 53,
                "subtype": "noteOn"
            },
            {
                "deltaTime": 0,
                "channel": 3,
                "type": "channel",
                "subtype": "controller",
                "controllerType": 7,
                "value": 110
            },
            {
                "deltaTime": 0,
                "channel": 3,
                "type": "channel",
                "noteNumber": 64,
                "velocity": 56,
                "subtype": "noteOn"
            },
            {
                "deltaTime": 0,
                "channel": 4,
                "type": "channel",
                "subtype": "controller",
                "controllerType": 7,
                "value": 100
            },
            {
                "deltaTime": 0,
                "channel": 4,
                "type": "channel",
                "noteNumber": 55,
                "velocity": 57,
                "subtype": "noteOn"
            },
            {
                "deltaTime": 120,
                "channel": 5,
                "type": "channel",
                "noteNumber": 48,
                "velocity": 0,
                "subtype": "noteOff"
            },
            {
                "deltaTime": 0,
                "channel": 5,
                "type": "channel",
                "noteNumber": 50,
                "velocity": 57,
                "subtype": "noteOn"
            },
            {
                "deltaTime": 60,
                "channel": 5,
                "type": "channel",
                "noteNumber": 50,
                "velocity": 0,
                "subtype": "noteOff"
            },
            {
                "deltaTime": 0,
                "channel": 5,
                "type": "channel",
                "noteNumber": 48,
                "velocity": 57,
                "subtype": "noteOn"
            },
            {
                "deltaTime": 60,
                "channel": 5,
                "type": "channel",
                "noteNumber": 48,
                "velocity": 0,
                "subtype": "noteOff"
            },
            {
                "deltaTime": 0,
                "channel": 2,
                "type": "channel",
                "noteNumber": 67,
                "velocity": 0,
                "subtype": "noteOff"
            },
            {
                "deltaTime": 0,
                "channel": 3,
                "type": "channel",
                "noteNumber": 64,
                "velocity": 0,
                "subtype": "noteOff"
            },
            {
                "deltaTime": 0,
                "channel": 4,
                "type": "channel",
                "noteNumber": 55,
                "velocity": 0,
                "subtype": "noteOff"
            },
            {
                "deltaTime": 0,
                "channel": 2,
                "type": "channel",
                "noteNumber": 69,
                "velocity": 54,
                "subtype": "noteOn"
            },
            {
                "deltaTime": 0,
                "channel": 3,
                "type": "channel",
                "noteNumber": 66,
                "velocity": 56,
                "subtype": "noteOn"
            },
            {
                "deltaTime": 0,
                "channel": 4,
                "type": "channel",
                "noteNumber": 62,
                "velocity": 60,
                "subtype": "noteOn"
            },
            {
                "deltaTime": 0,
                "channel": 5,
                "type": "channel",
                "noteNumber": 47,
                "velocity": 57,
                "subtype": "noteOn"
            },
            {
                "deltaTime": 220,
                "channel": 5,
                "type": "channel",
                "noteNumber": 47,
                "velocity": 0,
                "subtype": "noteOff"
            },
            {
                "deltaTime": 20,
                "type": "meta",
                "subtype": "setTempo",
                "microsecondsPerBeat": 983607
            },
            {
                "deltaTime": 0,
                "channel": 2,
                "type": "channel",
                "noteNumber": 69,
                "velocity": 0,
                "subtype": "noteOff"
            },
            {
                "deltaTime": 0,
                "channel": 3,
                "type": "channel",
                "noteNumber": 66,
                "velocity": 0,
                "subtype": "noteOff"
            },
            {
                "deltaTime": 0,
                "channel": 2,
                "type": "channel",
                "noteNumber": 71,
                "velocity": 55,
                "subtype": "noteOn"
            },
            {
                "deltaTime": 0,
                "channel": 3,
                "type": "channel",
                "noteNumber": 67,
                "velocity": 60,
                "subtype": "noteOn"
            },
            {
                "deltaTime": 0,
                "channel": 5,
                "type": "channel",
                "noteNumber": 52,
                "velocity": 60,
                "subtype": "noteOn"
            },
            {
                "deltaTime": 240,
                "type": "meta",
                "subtype": "setTempo",
                "microsecondsPerBeat": 952381
            },
            {
                "deltaTime": 0,
                "channel": 5,
                "type": "channel",
                "noteNumber": 52,
                "velocity": 0,
                "subtype": "noteOff"
            },
            {
                "deltaTime": 0,
                "channel": 4,
                "type": "channel",
                "noteNumber": 62,
                "velocity": 0,
                "subtype": "noteOff"
            },
            {
                "deltaTime": 0,
                "channel": 2,
                "type": "channel",
                "noteNumber": 71,
                "velocity": 0,
                "subtype": "noteOff"
            },
            {
                "deltaTime": 0,
                "channel": 2,
                "type": "channel",
                "noteNumber": 72,
                "velocity": 60,
                "subtype": "noteOn"
            },
            {
                "deltaTime": 0,
                "channel": 4,
                "type": "channel",
                "noteNumber": 60,
                "velocity": 57,
                "subtype": "noteOn"
            },
            {
                "deltaTime": 0,
                "channel": 5,
                "type": "channel",
                "noteNumber": 45,
                "velocity": 56,
                "subtype": "noteOn"
            },
            {
                "deltaTime": 180,
                "channel": 3,
                "type": "channel",
                "noteNumber": 67,
                "velocity": 0,
                "subtype": "noteOff"
            },
            {
                "deltaTime": 40,
                "channel": 5,
                "type": "channel",
                "noteNumber": 45,
                "velocity": 0,
                "subtype": "noteOff"
            },
            {
                "deltaTime": 0,
                "channel": 4,
                "type": "channel",
                "noteNumber": 60,
                "velocity": 0,
                "subtype": "noteOff"
            },
            {
                "deltaTime": 20,
                "channel": 3,
                "type": "channel",
                "noteNumber": 66,
                "velocity": 58,
                "subtype": "noteOn"
            },
            {
                "deltaTime": 0,
                "channel": 4,
                "type": "channel",
                "noteNumber": 57,
                "velocity": 57,
                "subtype": "noteOn"
            },
            {
                "deltaTime": 0,
                "channel": 5,
                "type": "channel",
                "noteNumber": 50,
                "velocity": 60,
                "subtype": "noteOn"
            },
            {
                "deltaTime": 120,
                "type": "meta",
                "subtype": "setTempo",
                "microsecondsPerBeat": 909091
            },
            {
                "deltaTime": 0,
                "channel": 2,
                "type": "channel",
                "noteNumber": 72,
                "velocity": 0,
                "subtype": "noteOff"
            },
            {
                "deltaTime": 0,
                "channel": 2,
                "type": "channel",
                "noteNumber": 74,
                "velocity": 57,
                "subtype": "noteOn"
            },
            {
                "deltaTime": 60,
                "channel": 2,
                "type": "channel",
                "noteNumber": 74,
                "velocity": 0,
                "subtype": "noteOff"
            },
            {
                "deltaTime": 0,
                "channel": 2,
                "type": "channel",
                "noteNumber": 72,
                "velocity": 57,
                "subtype": "noteOn"
            },
            {
                "deltaTime": 60,
                "type": "meta",
                "subtype": "setTempo",
                "microsecondsPerBeat": 975610
            },
            {
                "deltaTime": 0,
                "channel": 2,
                "type": "channel",
                "noteNumber": 72,
                "velocity": 0,
                "subtype": "noteOff"
            },
            {
                "deltaTime": 0,
                "channel": 3,
                "type": "channel",
                "noteNumber": 66,
                "velocity": 0,
                "subtype": "noteOff"
            },
            {
                "deltaTime": 0,
                "channel": 4,
                "type": "channel",
                "noteNumber": 57,
                "velocity": 0,
                "subtype": "noteOff"
            },
            {
                "deltaTime": 0,
                "channel": 2,
                "type": "channel",
                "noteNumber": 71,
                "velocity": 57,
                "subtype": "noteOn"
            },
            {
                "deltaTime": 0,
                "channel": 3,
                "type": "channel",
                "noteNumber": 68,
                "velocity": 58,
                "subtype": "noteOn"
            },
            {
                "deltaTime": 0,
                "channel": 4,
                "type": "channel",
                "noteNumber": 64,
                "velocity": 60,
                "subtype": "noteOn"
            },
            {
                "deltaTime": 120,
                "channel": 5,
                "type": "channel",
                "noteNumber": 50,
                "velocity": 0,
                "subtype": "noteOff"
            },
            {
                "deltaTime": 0,
                "channel": 5,
                "type": "channel",
                "noteNumber": 52,
                "velocity": 61,
                "subtype": "noteOn"
            },
            {
                "deltaTime": 100,
                "channel": 2,
                "type": "channel",
                "noteNumber": 71,
                "velocity": 0,
                "subtype": "noteOff"
            },
            {
                "deltaTime": 20,
                "type": "meta",
                "subtype": "setTempo",
                "microsecondsPerBeat": 952381
            },
            {
                "deltaTime": 0,
                "channel": 5,
                "type": "channel",
                "noteNumber": 52,
                "velocity": 0,
                "subtype": "noteOff"
            },
            {
                "deltaTime": 0,
                "channel": 3,
                "type": "channel",
                "noteNumber": 68,
                "velocity": 0,
                "subtype": "noteOff"
            },
            {
                "deltaTime": 0,
                "channel": 2,
                "type": "channel",
                "noteNumber": 72,
                "velocity": 53,
                "subtype": "noteOn"
            },
            {
                "deltaTime": 0,
                "channel": 3,
                "type": "channel",
                "noteNumber": 69,
                "velocity": 61,
                "subtype": "noteOn"
            },
            {
                "deltaTime": 0,
                "channel": 5,
                "type": "channel",
                "noteNumber": 50,
                "velocity": 60,
                "subtype": "noteOn"
            },
            {
                "deltaTime": 120,
                "channel": 5,
                "type": "channel",
                "noteNumber": 50,
                "velocity": 0,
                "subtype": "noteOff"
            },
            {
                "deltaTime": 0,
                "channel": 5,
                "type": "channel",
                "noteNumber": 48,
                "velocity": 59,
                "subtype": "noteOn"
            },
            {
                "deltaTime": 120,
                "channel": 5,
                "type": "channel",
                "noteNumber": 48,
                "velocity": 0,
                "subtype": "noteOff"
            },
            {
                "deltaTime": 0,
                "channel": 2,
                "type": "channel",
                "noteNumber": 72,
                "velocity": 0,
                "subtype": "noteOff"
            },
            {
                "deltaTime": 0,
                "channel": 4,
                "type": "channel",
                "noteNumber": 64,
                "velocity": 0,
                "subtype": "noteOff"
            },
            {
                "deltaTime": 0,
                "channel": 2,
                "type": "channel",
                "noteNumber": 74,
                "velocity": 56,
                "subtype": "noteOn"
            },
            {
                "deltaTime": 0,
                "channel": 4,
                "type": "channel",
                "noteNumber": 62,
                "velocity": 57,
                "subtype": "noteOn"
            },
            {
                "deltaTime": 0,
                "channel": 5,
                "type": "channel",
                "noteNumber": 47,
                "velocity": 58,
                "subtype": "noteOn"
            },
            {
                "deltaTime": 220,
                "channel": 5,
                "type": "channel",
                "noteNumber": 47,
                "velocity": 0,
                "subtype": "noteOff"
            },
            {
                "deltaTime": 20,
                "channel": 3,
                "type": "channel",
                "noteNumber": 69,
                "velocity": 0,
                "subtype": "noteOff"
            },
            {
                "deltaTime": 0,
                "channel": 2,
                "type": "channel",
                "noteNumber": 74,
                "velocity": 0,
                "subtype": "noteOff"
            },
            {
                "deltaTime": 0,
                "channel": 4,
                "type": "channel",
                "noteNumber": 62,
                "velocity": 0,
                "subtype": "noteOff"
            },
            {
                "deltaTime": 0,
                "channel": 2,
                "type": "channel",
                "noteNumber": 76,
                "velocity": 59,
                "subtype": "noteOn"
            },
            {
                "deltaTime": 0,
                "channel": 3,
                "type": "channel",
                "noteNumber": 67,
                "velocity": 57,
                "subtype": "noteOn"
            },
            {
                "deltaTime": 0,
                "channel": 5,
                "type": "channel",
                "noteNumber": 46,
                "velocity": 57,
                "subtype": "noteOn"
            },
            {
                "deltaTime": 120,
                "type": "meta",
                "subtype": "setTempo",
                "microsecondsPerBeat": 1000000
            },
            {
                "deltaTime": 120,
                "type": "meta",
                "subtype": "setTempo",
                "microsecondsPerBeat": 952381
            },
            {
                "deltaTime": 0,
                "channel": 5,
                "type": "channel",
                "noteNumber": 46,
                "velocity": 0,
                "subtype": "noteOff"
            },
            {
                "deltaTime": 0,
                "channel": 3,
                "type": "channel",
                "noteNumber": 67,
                "velocity": 0,
                "subtype": "noteOff"
            },
            {
                "deltaTime": 0,
                "channel": 2,
                "type": "channel",
                "noteNumber": 76,
                "velocity": 0,
                "subtype": "noteOff"
            },
            {
                "deltaTime": 0,
                "channel": 2,
                "type": "channel",
                "noteNumber": 77,
                "velocity": 64,
                "subtype": "noteOn"
            },
            {
                "deltaTime": 0,
                "channel": 3,
                "type": "channel",
                "noteNumber": 69,
                "velocity": 57,
                "subtype": "noteOn"
            },
            {
                "deltaTime": 0,
                "channel": 5,
                "type": "channel",
                "noteNumber": 45,
                "velocity": 57,
                "subtype": "noteOn"
            },
            {
                "deltaTime": 240,
                "channel": 5,
                "type": "channel",
                "noteNumber": 45,
                "velocity": 0,
                "subtype": "noteOff"
            },
            {
                "deltaTime": 0,
                "channel": 3,
                "type": "channel",
                "noteNumber": 69,
                "velocity": 0,
                "subtype": "noteOff"
            },
            {
                "deltaTime": 0,
                "channel": 3,
                "type": "channel",
                "noteNumber": 71,
                "velocity": 57,
                "subtype": "noteOn"
            },
            {
                "deltaTime": 0,
                "channel": 5,
                "type": "channel",
                "noteNumber": 43,
                "velocity": 56,
                "subtype": "noteOn"
            },
            {
                "deltaTime": 120,
                "type": "meta",
                "subtype": "setTempo",
                "microsecondsPerBeat": 916031
            },
            {
                "deltaTime": 0,
                "channel": 2,
                "type": "channel",
                "noteNumber": 77,
                "velocity": 0,
                "subtype": "noteOff"
            },
            {
                "deltaTime": 0,
                "channel": 2,
                "type": "channel",
                "noteNumber": 79,
                "velocity": 60,
                "subtype": "noteOn"
            },
            {
                "deltaTime": 60,
                "channel": 2,
                "type": "channel",
                "noteNumber": 79,
                "velocity": 0,
                "subtype": "noteOff"
            },
            {
                "deltaTime": 0,
                "channel": 2,
                "type": "channel",
                "noteNumber": 77,
                "velocity": 60,
                "subtype": "noteOn"
            },
            {
                "deltaTime": 60,
                "type": "meta",
                "subtype": "setTempo",
                "microsecondsPerBeat": 975610
            },
            {
                "deltaTime": 0,
                "channel": 2,
                "type": "channel",
                "noteNumber": 77,
                "velocity": 0,
                "subtype": "noteOff"
            },
            {
                "deltaTime": 0,
                "channel": 5,
                "type": "channel",
                "noteNumber": 43,
                "velocity": 0,
                "subtype": "noteOff"
            },
            {
                "deltaTime": 0,
                "channel": 3,
                "type": "channel",
                "noteNumber": 71,
                "velocity": 0,
                "subtype": "noteOff"
            },
            {
                "deltaTime": 0,
                "channel": 2,
                "type": "channel",
                "noteNumber": 76,
                "velocity": 60,
                "subtype": "noteOn"
            },
            {
                "deltaTime": 0,
                "channel": 3,
                "type": "channel",
                "noteNumber": 72,
                "velocity": 60,
                "subtype": "noteOn"
            },
            {
                "deltaTime": 0,
                "channel": 5,
                "type": "channel",
                "noteNumber": 45,
                "velocity": 56,
                "subtype": "noteOn"
            },
            {
                "deltaTime": 180,
                "channel": 5,
                "type": "channel",
                "noteNumber": 45,
                "velocity": 0,
                "subtype": "noteOff"
            },
            {
                "deltaTime": 40,
                "channel": 2,
                "type": "channel",
                "noteNumber": 76,
                "velocity": 0,
                "subtype": "noteOff"
            },
            {
                "deltaTime": 20,
                "type": "meta",
                "subtype": "setTempo",
                "microsecondsPerBeat": 952381
            },
            {
                "deltaTime": 0,
                "channel": 2,
                "type": "channel",
                "noteNumber": 81,
                "velocity": 68,
                "subtype": "noteOn"
            },
            {
                "deltaTime": 0,
                "channel": 4,
                "type": "channel",
                "noteNumber": 57,
                "velocity": 51,
                "subtype": "noteOn"
            },
            {
                "deltaTime": 0,
                "channel": 5,
                "type": "channel",
                "noteNumber": 54,
                "velocity": 60,
                "subtype": "noteOn"
            },
            {
                "deltaTime": 120,
                "channel": 3,
                "type": "channel",
                "noteNumber": 72,
                "velocity": 0,
                "subtype": "noteOff"
            },
            {
                "deltaTime": 0,
                "channel": 3,
                "type": "channel",
                "noteNumber": 74,
                "velocity": 58,
                "subtype": "noteOn"
            },
            {
                "deltaTime": 60,
                "channel": 3,
                "type": "channel",
                "noteNumber": 74,
                "velocity": 0,
                "subtype": "noteOff"
            },
            {
                "deltaTime": 0,
                "channel": 3,
                "type": "channel",
                "noteNumber": 72,
                "velocity": 58,
                "subtype": "noteOn"
            },
            {
                "deltaTime": 59,
                "channel": 5,
                "type": "channel",
                "subtype": "controller",
                "controllerType": 7,
                "value": 100
            },
            {
                "deltaTime": 1,
                "channel": 3,
                "type": "channel",
                "noteNumber": 72,
                "velocity": 0,
                "subtype": "noteOff"
            },
            {
                "deltaTime": 0,
                "channel": 2,
                "type": "channel",
                "noteNumber": 81,
                "velocity": 0,
                "subtype": "noteOff"
            },
            {
                "deltaTime": 0,
                "channel": 4,
                "type": "channel",
                "noteNumber": 57,
                "velocity": 0,
                "subtype": "noteOff"
            },
            {
                "deltaTime": 0,
                "channel": 5,
                "type": "channel",
                "noteNumber": 54,
                "velocity": 0,
                "subtype": "noteOff"
            },
            {
                "deltaTime": 0,
                "channel": 2,
                "type": "channel",
                "subtype": "controller",
                "controllerType": 7,
                "value": 110
            },
            {
                "deltaTime": 0,
                "channel": 2,
                "type": "channel",
                "noteNumber": 74,
                "velocity": 60,
                "subtype": "noteOn"
            },
            {
                "deltaTime": 0,
                "channel": 3,
                "type": "channel",
                "noteNumber": 71,
                "velocity": 58,
                "subtype": "noteOn"
            },
            {
                "deltaTime": 0,
                "channel": 4,
                "type": "channel",
                "noteNumber": 59,
                "velocity": 53,
                "subtype": "noteOn"
            },
            {
                "deltaTime": 0,
                "channel": 5,
                "type": "channel",
                "noteNumber": 55,
                "velocity": 60,
                "subtype": "noteOn"
            },
            {
                "deltaTime": 220,
                "channel": 3,
                "type": "channel",
                "noteNumber": 71,
                "velocity": 0,
                "subtype": "noteOff"
            },
            {
                "deltaTime": 0,
                "channel": 2,
                "type": "channel",
                "noteNumber": 74,
                "velocity": 0,
                "subtype": "noteOff"
            },
            {
                "deltaTime": 20,
                "channel": 4,
                "type": "channel",
                "noteNumber": 59,
                "velocity": 0,
                "subtype": "noteOff"
            },
            {
                "deltaTime": 0,
                "channel": 5,
                "type": "channel",
                "noteNumber": 55,
                "velocity": 0,
                "subtype": "noteOff"
            },
            {
                "deltaTime": 0,
                "channel": 2,
                "type": "channel",
                "noteNumber": 79,
                "velocity": 66,
                "subtype": "noteOn"
            },
            {
                "deltaTime": 0,
                "channel": 3,
                "type": "channel",
                "noteNumber": 76,
                "velocity": 60,
                "subtype": "noteOn"
            },
            {
                "deltaTime": 0,
                "channel": 4,
                "type": "channel",
                "noteNumber": 61,
                "velocity": 55,
                "subtype": "noteOn"
            },
            {
                "deltaTime": 0,
                "channel": 5,
                "type": "channel",
                "noteNumber": 52,
                "velocity": 57,
                "subtype": "noteOn"
            },
            {
                "deltaTime": 240,
                "channel": 5,
                "type": "channel",
                "noteNumber": 52,
                "velocity": 0,
                "subtype": "noteOff"
            },
            {
                "deltaTime": 0,
                "channel": 4,
                "type": "channel",
                "noteNumber": 61,
                "velocity": 0,
                "subtype": "noteOff"
            },
            {
                "deltaTime": 0,
                "channel": 3,
                "type": "channel",
                "noteNumber": 76,
                "velocity": 0,
                "subtype": "noteOff"
            },
            {
                "deltaTime": 0,
                "channel": 3,
                "type": "channel",
                "noteNumber": 69,
                "velocity": 58,
                "subtype": "noteOn"
            },
            {
                "deltaTime": 0,
                "channel": 4,
                "type": "channel",
                "noteNumber": 62,
                "velocity": 60,
                "subtype": "noteOn"
            },
            {
                "deltaTime": 0,
                "channel": 5,
                "type": "channel",
                "noteNumber": 50,
                "velocity": 57,
                "subtype": "noteOn"
            },
            {
                "deltaTime": 120,
                "channel": 2,
                "type": "channel",
                "noteNumber": 79,
                "velocity": 0,
                "subtype": "noteOff"
            },
            {
                "deltaTime": 0,
                "channel": 2,
                "type": "channel",
                "noteNumber": 81,
                "velocity": 66,
                "subtype": "noteOn"
            },
            {
                "deltaTime": 100,
                "channel": 3,
                "type": "channel",
                "noteNumber": 69,
                "velocity": 0,
                "subtype": "noteOff"
            },
            {
                "deltaTime": 20,
                "type": "meta",
                "subtype": "setTempo",
                "microsecondsPerBeat": 909091
            },
            {
                "deltaTime": 0,
                "channel": 2,
                "type": "channel",
                "noteNumber": 81,
                "velocity": 0,
                "subtype": "noteOff"
            },
            {
                "deltaTime": 0,
                "channel": 2,
                "type": "channel",
                "noteNumber": 79,
                "velocity": 64,
                "subtype": "noteOn"
            },
            {
                "deltaTime": 0,
                "channel": 3,
                "type": "channel",
                "noteNumber": 74,
                "velocity": 60,
                "subtype": "noteOn"
            },
            {
                "deltaTime": 120,
                "channel": 2,
                "type": "channel",
                "noteNumber": 79,
                "velocity": 0,
                "subtype": "noteOff"
            },
            {
                "deltaTime": 0,
                "channel": 4,
                "type": "channel",
                "noteNumber": 62,
                "velocity": 0,
                "subtype": "noteOff"
            },
            {
                "deltaTime": 0,
                "channel": 2,
                "type": "channel",
                "noteNumber": 77,
                "velocity": 63,
                "subtype": "noteOn"
            },
            {
                "deltaTime": 0,
                "channel": 4,
                "type": "channel",
                "noteNumber": 64,
                "velocity": 58,
                "subtype": "noteOn"
            },
            {
                "deltaTime": 60,
                "channel": 4,
                "type": "channel",
                "noteNumber": 64,
                "velocity": 0,
                "subtype": "noteOff"
            },
            {
                "deltaTime": 0,
                "channel": 4,
                "type": "channel",
                "noteNumber": 62,
                "velocity": 58,
                "subtype": "noteOn"
            },
            {
                "deltaTime": 40,
                "channel": 5,
                "type": "channel",
                "noteNumber": 50,
                "velocity": 0,
                "subtype": "noteOff"
            },
            {
                "deltaTime": 20,
                "type": "meta",
                "subtype": "setTempo",
                "microsecondsPerBeat": 952381
            },
            {
                "deltaTime": 0,
                "channel": 4,
                "type": "channel",
                "noteNumber": 62,
                "velocity": 0,
                "subtype": "noteOff"
            },
            {
                "deltaTime": 0,
                "channel": 2,
                "type": "channel",
                "noteNumber": 77,
                "velocity": 0,
                "subtype": "noteOff"
            },
            {
                "deltaTime": 0,
                "channel": 2,
                "type": "channel",
                "noteNumber": 76,
                "velocity": 61,
                "subtype": "noteOn"
            },
            {
                "deltaTime": 0,
                "channel": 4,
                "type": "channel",
                "noteNumber": 60,
                "velocity": 58,
                "subtype": "noteOn"
            },
            {
                "deltaTime": 0,
                "channel": 5,
                "type": "channel",
                "subtype": "controller",
                "controllerType": 7,
                "value": 120
            },
            {
                "deltaTime": 0,
                "channel": 5,
                "type": "channel",
                "noteNumber": 52,
                "velocity": 56,
                "subtype": "noteOn"
            },
            {
                "deltaTime": 120,
                "channel": 3,
                "type": "channel",
                "noteNumber": 74,
                "velocity": 0,
                "subtype": "noteOff"
            },
            {
                "deltaTime": 0,
                "channel": 3,
                "type": "channel",
                "noteNumber": 76,
                "velocity": 57,
                "subtype": "noteOn"
            },
            {
                "deltaTime": 100,
                "channel": 2,
                "type": "channel",
                "noteNumber": 76,
                "velocity": 0,
                "subtype": "noteOff"
            },
            {
                "deltaTime": 0,
                "channel": 4,
                "type": "channel",
                "noteNumber": 60,
                "velocity": 0,
                "subtype": "noteOff"
            },
            {
                "deltaTime": 20,
                "channel": 5,
                "type": "channel",
                "noteNumber": 52,
                "velocity": 0,
                "subtype": "noteOff"
            },
            {
                "deltaTime": 0,
                "channel": 3,
                "type": "channel",
                "noteNumber": 76,
                "velocity": 0,
                "subtype": "noteOff"
            },
            {
                "deltaTime": 0,
                "channel": 2,
                "type": "channel",
                "noteNumber": 81,
                "velocity": 67,
                "subtype": "noteOn"
            },
            {
                "deltaTime": 0,
                "channel": 3,
                "type": "channel",
                "noteNumber": 74,
                "velocity": 56,
                "subtype": "noteOn"
            },
            {
                "deltaTime": 0,
                "channel": 4,
                "type": "channel",
                "noteNumber": 65,
                "velocity": 60,
                "subtype": "noteOn"
            },
            {
                "deltaTime": 0,
                "channel": 5,
                "type": "channel",
                "noteNumber": 53,
                "velocity": 56,
                "subtype": "noteOn"
            },
            {
                "deltaTime": 120,
                "channel": 3,
                "type": "channel",
                "noteNumber": 74,
                "velocity": 0,
                "subtype": "noteOff"
            },
            {
                "deltaTime": 0,
                "channel": 3,
                "type": "channel",
                "noteNumber": 72,
                "velocity": 55,
                "subtype": "noteOn"
            },
            {
                "deltaTime": 120,
                "type": "meta",
                "subtype": "setTempo",
                "microsecondsPerBeat": 983607
            },
            {
                "deltaTime": 0,
                "channel": 3,
                "type": "channel",
                "noteNumber": 72,
                "velocity": 0,
                "subtype": "noteOff"
            },
            {
                "deltaTime": 0,
                "channel": 5,
                "type": "channel",
                "noteNumber": 53,
                "velocity": 0,
                "subtype": "noteOff"
            },
            {
                "deltaTime": 0,
                "channel": 4,
                "type": "channel",
                "noteNumber": 65,
                "velocity": 0,
                "subtype": "noteOff"
            },
            {
                "deltaTime": 0,
                "channel": 2,
                "type": "channel",
                "noteNumber": 81,
                "velocity": 0,
                "subtype": "noteOff"
            },
            {
                "deltaTime": 0,
                "channel": 2,
                "type": "channel",
                "noteNumber": 74,
                "velocity": 60,
                "subtype": "noteOn"
            },
            {
                "deltaTime": 0,
                "channel": 3,
                "type": "channel",
                "noteNumber": 71,
                "velocity": 54,
                "subtype": "noteOn"
            },
            {
                "deltaTime": 0,
                "channel": 4,
                "type": "channel",
                "noteNumber": 59,
                "velocity": 54,
                "subtype": "noteOn"
            },
            {
                "deltaTime": 0,
                "channel": 5,
                "type": "channel",
                "noteNumber": 55,
                "velocity": 60,
                "subtype": "noteOn"
            },
            {
                "deltaTime": 220,
                "channel": 4,
                "type": "channel",
                "noteNumber": 59,
                "velocity": 0,
                "subtype": "noteOff"
            },
            {
                "deltaTime": 0,
                "channel": 2,
                "type": "channel",
                "noteNumber": 74,
                "velocity": 0,
                "subtype": "noteOff"
            },
            {
                "deltaTime": 0,
                "channel": 3,
                "type": "channel",
                "noteNumber": 71,
                "velocity": 0,
                "subtype": "noteOff"
            },
            {
                "deltaTime": 20,
                "type": "meta",
                "subtype": "setTempo",
                "microsecondsPerBeat": 983607
            },
            {
                "deltaTime": 0,
                "channel": 2,
                "type": "channel",
                "noteNumber": 82,
                "velocity": 67,
                "subtype": "noteOn"
            },
            {
                "deltaTime": 0,
                "channel": 3,
                "type": "channel",
                "noteNumber": 79,
                "velocity": 65,
                "subtype": "noteOn"
            },
            {
                "deltaTime": 0,
                "channel": 4,
                "type": "channel",
                "noteNumber": 64,
                "velocity": 60,
                "subtype": "noteOn"
            },
            {
                "deltaTime": 120,
                "channel": 5,
                "type": "channel",
                "noteNumber": 55,
                "velocity": 0,
                "subtype": "noteOff"
            },
            {
                "deltaTime": 0,
                "channel": 5,
                "type": "channel",
                "noteNumber": 57,
                "velocity": 57,
                "subtype": "noteOn"
            },
            {
                "deltaTime": 60,
                "channel": 5,
                "type": "channel",
                "noteNumber": 57,
                "velocity": 0,
                "subtype": "noteOff"
            },
            {
                "deltaTime": 0,
                "channel": 5,
                "type": "channel",
                "noteNumber": 55,
                "velocity": 57,
                "subtype": "noteOn"
            },
            {
                "deltaTime": 60,
                "type": "meta",
                "subtype": "setTempo",
                "microsecondsPerBeat": 952381
            },
            {
                "deltaTime": 0,
                "channel": 5,
                "type": "channel",
                "noteNumber": 55,
                "velocity": 0,
                "subtype": "noteOff"
            },
            {
                "deltaTime": 0,
                "channel": 2,
                "type": "channel",
                "noteNumber": 82,
                "velocity": 0,
                "subtype": "noteOff"
            },
            {
                "deltaTime": 0,
                "channel": 3,
                "type": "channel",
                "noteNumber": 79,
                "velocity": 0,
                "subtype": "noteOff"
            },
            {
                "deltaTime": 0,
                "channel": 2,
                "type": "channel",
                "noteNumber": 81,
                "velocity": 67,
                "subtype": "noteOn"
            },
            {
                "deltaTime": 0,
                "channel": 3,
                "type": "channel",
                "noteNumber": 73,
                "velocity": 58,
                "subtype": "noteOn"
            },
            {
                "deltaTime": 0,
                "channel": 5,
                "type": "channel",
                "noteNumber": 53,
                "velocity": 57,
                "subtype": "noteOn"
            },
            {
                "deltaTime": 120,
                "channel": 4,
                "type": "channel",
                "noteNumber": 64,
                "velocity": 0,
                "subtype": "noteOff"
            },
            {
                "deltaTime": 0,
                "channel": 4,
                "type": "channel",
                "noteNumber": 65,
                "velocity": 61,
                "subtype": "noteOn"
            },
            {
                "deltaTime": 100,
                "channel": 5,
                "type": "channel",
                "noteNumber": 53,
                "velocity": 0,
                "subtype": "noteOff"
            },
            {
                "deltaTime": 20,
                "type": "meta",
                "subtype": "setTempo",
                "microsecondsPerBeat": 916031
            },
            {
                "deltaTime": 0,
                "channel": 2,
                "type": "channel",
                "noteNumber": 81,
                "velocity": 0,
                "subtype": "noteOff"
            },
            {
                "deltaTime": 0,
                "channel": 3,
                "type": "channel",
                "noteNumber": 73,
                "velocity": 0,
                "subtype": "noteOff"
            },
            {
                "deltaTime": 0,
                "channel": 4,
                "type": "channel",
                "noteNumber": 65,
                "velocity": 0,
                "subtype": "noteOff"
            },
            {
                "deltaTime": 0,
                "channel": 2,
                "type": "channel",
                "noteNumber": 79,
                "velocity": 64,
                "subtype": "noteOn"
            },
            {
                "deltaTime": 0,
                "channel": 3,
                "type": "channel",
                "noteNumber": 74,
                "velocity": 58,
                "subtype": "noteOn"
            },
            {
                "deltaTime": 0,
                "channel": 4,
                "type": "channel",
                "noteNumber": 64,
                "velocity": 59,
                "subtype": "noteOn"
            },
            {
                "deltaTime": 0,
                "channel": 5,
                "type": "channel",
                "noteNumber": 58,
                "velocity": 60,
                "subtype": "noteOn"
            },
            {
                "deltaTime": 120,
                "channel": 4,
                "type": "channel",
                "noteNumber": 64,
                "velocity": 0,
                "subtype": "noteOff"
            },
            {
                "deltaTime": 0,
                "channel": 2,
                "type": "channel",
                "noteNumber": 79,
                "velocity": 0,
                "subtype": "noteOff"
            },
            {
                "deltaTime": 0,
                "channel": 2,
                "type": "channel",
                "noteNumber": 77,
                "velocity": 61,
                "subtype": "noteOn"
            },
            {
                "deltaTime": 0,
                "channel": 4,
                "type": "channel",
                "noteNumber": 62,
                "velocity": 58,
                "subtype": "noteOn"
            },
            {
                "deltaTime": 120,
                "type": "meta",
                "subtype": "setTempo",
                "microsecondsPerBeat": 952381
            },
            {
                "deltaTime": 0,
                "channel": 4,
                "type": "channel",
                "noteNumber": 62,
                "velocity": 0,
                "subtype": "noteOff"
            },
            {
                "deltaTime": 0,
                "channel": 5,
                "type": "channel",
                "noteNumber": 58,
                "velocity": 0,
                "subtype": "noteOff"
            },
            {
                "deltaTime": 0,
                "channel": 3,
                "type": "channel",
                "noteNumber": 74,
                "velocity": 0,
                "subtype": "noteOff"
            },
            {
                "deltaTime": 0,
                "channel": 2,
                "type": "channel",
                "noteNumber": 77,
                "velocity": 0,
                "subtype": "noteOff"
            },
            {
                "deltaTime": 0,
                "channel": 2,
                "type": "channel",
                "noteNumber": 79,
                "velocity": 64,
                "subtype": "noteOn"
            },
            {
                "deltaTime": 0,
                "channel": 3,
                "type": "channel",
                "noteNumber": 76,
                "velocity": 60,
                "subtype": "noteOn"
            },
            {
                "deltaTime": 0,
                "channel": 4,
                "type": "channel",
                "noteNumber": 61,
                "velocity": 56,
                "subtype": "noteOn"
            },
            {
                "deltaTime": 0,
                "channel": 5,
                "type": "channel",
                "noteNumber": 52,
                "velocity": 55,
                "subtype": "noteOn"
            },
            {
                "deltaTime": 120,
                "channel": 2,
                "type": "channel",
                "noteNumber": 79,
                "velocity": 0,
                "subtype": "noteOff"
            },
            {
                "deltaTime": 0,
                "channel": 2,
                "type": "channel",
                "noteNumber": 77,
                "velocity": 61,
                "subtype": "noteOn"
            },
            {
                "deltaTime": 100,
                "channel": 3,
                "type": "channel",
                "noteNumber": 76,
                "velocity": 0,
                "subtype": "noteOff"
            },
            {
                "deltaTime": 0,
                "channel": 5,
                "type": "channel",
                "noteNumber": 52,
                "velocity": 0,
                "subtype": "noteOff"
            },
            {
                "deltaTime": 20,
                "channel": 4,
                "type": "channel",
                "noteNumber": 61,
                "velocity": 0,
                "subtype": "noteOff"
            },
            {
                "deltaTime": 0,
                "channel": 2,
                "type": "channel",
                "noteNumber": 77,
                "velocity": 0,
                "subtype": "noteOff"
            },
            {
                "deltaTime": 0,
                "channel": 2,
                "type": "channel",
                "noteNumber": 79,
                "velocity": 64,
                "subtype": "noteOn"
            },
            {
                "deltaTime": 0,
                "channel": 3,
                "type": "channel",
                "noteNumber": 73,
                "velocity": 56,
                "subtype": "noteOn"
            },
            {
                "deltaTime": 0,
                "channel": 5,
                "type": "channel",
                "noteNumber": 57,
                "velocity": 60,
                "subtype": "noteOn"
            },
            {
                "deltaTime": 120,
                "channel": 2,
                "type": "channel",
                "noteNumber": 79,
                "velocity": 0,
                "subtype": "noteOff"
            },
            {
                "deltaTime": 0,
                "channel": 2,
                "type": "channel",
                "noteNumber": 76,
                "velocity": 60,
                "subtype": "noteOn"
            },
            {
                "deltaTime": 120,
                "type": "meta",
                "subtype": "setTempo",
                "microsecondsPerBeat": 952381
            },
            {
                "deltaTime": 0,
                "channel": 2,
                "type": "channel",
                "noteNumber": 76,
                "velocity": 0,
                "subtype": "noteOff"
            },
            {
                "deltaTime": 0,
                "channel": 3,
                "type": "channel",
                "noteNumber": 73,
                "velocity": 0,
                "subtype": "noteOff"
            },
            {
                "deltaTime": 0,
                "channel": 2,
                "type": "channel",
                "noteNumber": 77,
                "velocity": 64,
                "subtype": "noteOn"
            },
            {
                "deltaTime": 0,
                "channel": 3,
                "type": "channel",
                "noteNumber": 74,
                "velocity": 56,
                "subtype": "noteOn"
            },
            {
                "deltaTime": 120,
                "channel": 2,
                "type": "channel",
                "noteNumber": 77,
                "velocity": 0,
                "subtype": "noteOff"
            },
            {
                "deltaTime": 0,
                "channel": 5,
                "type": "channel",
                "noteNumber": 57,
                "velocity": 0,
                "subtype": "noteOff"
            },
            {
                "deltaTime": 0,
                "channel": 2,
                "type": "channel",
                "noteNumber": 79,
                "velocity": 60,
                "subtype": "noteOn"
            },
            {
                "deltaTime": 0,
                "channel": 5,
                "type": "channel",
                "noteNumber": 58,
                "velocity": 58,
                "subtype": "noteOn"
            },
            {
                "deltaTime": 120,
                "type": "meta",
                "subtype": "setTempo",
                "microsecondsPerBeat": 991736
            },
            {
                "deltaTime": 0,
                "channel": 5,
                "type": "channel",
                "noteNumber": 58,
                "velocity": 0,
                "subtype": "noteOff"
            },
            {
                "deltaTime": 0,
                "channel": 2,
                "type": "channel",
                "noteNumber": 79,
                "velocity": 0,
                "subtype": "noteOff"
            },
            {
                "deltaTime": 0,
                "channel": 3,
                "type": "channel",
                "noteNumber": 74,
                "velocity": 0,
                "subtype": "noteOff"
            },
            {
                "deltaTime": 0,
                "channel": 2,
                "type": "channel",
                "noteNumber": 79,
                "velocity": 64,
                "subtype": "noteOn"
            },
            {
                "deltaTime": 0,
                "channel": 3,
                "type": "channel",
                "noteNumber": 76,
                "velocity": 56,
                "subtype": "noteOn"
            },
            {
                "deltaTime": 0,
                "channel": 5,
                "type": "channel",
                "noteNumber": 57,
                "velocity": 58,
                "subtype": "noteOn"
            },
            {
                "deltaTime": 30,
                "channel": 2,
                "type": "channel",
                "noteNumber": 79,
                "velocity": 0,
                "subtype": "noteOff"
            },
            {
                "deltaTime": 0,
                "channel": 2,
                "type": "channel",
                "noteNumber": 81,
                "velocity": 55,
                "subtype": "noteOn"
            },
            {
                "deltaTime": 30,
                "channel": 2,
                "type": "channel",
                "noteNumber": 81,
                "velocity": 0,
                "subtype": "noteOff"
            },
            {
                "deltaTime": 0,
                "channel": 2,
                "type": "channel",
                "noteNumber": 79,
                "velocity": 55,
                "subtype": "noteOn"
            },
            {
                "deltaTime": 30,
                "channel": 2,
                "type": "channel",
                "noteNumber": 79,
                "velocity": 0,
                "subtype": "noteOff"
            },
            {
                "deltaTime": 30,
                "channel": 5,
                "type": "channel",
                "noteNumber": 57,
                "velocity": 0,
                "subtype": "noteOff"
            },
            {
                "deltaTime": 0,
                "channel": 2,
                "type": "channel",
                "noteNumber": 77,
                "velocity": 60,
                "subtype": "noteOn"
            },
            {
                "deltaTime": 0,
                "channel": 5,
                "type": "channel",
                "noteNumber": 55,
                "velocity": 57,
                "subtype": "noteOn"
            },
            {
                "deltaTime": 60,
                "channel": 2,
                "type": "channel",
                "noteNumber": 77,
                "velocity": 0,
                "subtype": "noteOff"
            },
            {
                "deltaTime": 0,
                "channel": 2,
                "type": "channel",
                "noteNumber": 79,
                "velocity": 60,
                "subtype": "noteOn"
            },
            {
                "deltaTime": 60,
                "type": "meta",
                "subtype": "setTempo",
                "microsecondsPerBeat": 952381
            },
            {
                "deltaTime": 0,
                "channel": 2,
                "type": "channel",
                "noteNumber": 79,
                "velocity": 0,
                "subtype": "noteOff"
            },
            {
                "deltaTime": 0,
                "channel": 5,
                "type": "channel",
                "noteNumber": 55,
                "velocity": 0,
                "subtype": "noteOff"
            },
            {
                "deltaTime": 0,
                "channel": 3,
                "type": "channel",
                "noteNumber": 76,
                "velocity": 0,
                "subtype": "noteOff"
            },
            {
                "deltaTime": 0,
                "channel": 2,
                "type": "channel",
                "noteNumber": 81,
                "velocity": 67,
                "subtype": "noteOn"
            },
            {
                "deltaTime": 0,
                "channel": 3,
                "type": "channel",
                "noteNumber": 69,
                "velocity": 58,
                "subtype": "noteOn"
            },
            {
                "deltaTime": 0,
                "channel": 5,
                "type": "channel",
                "noteNumber": 53,
                "velocity": 58,
                "subtype": "noteOn"
            },
            {
                "deltaTime": 90,
                "channel": 2,
                "type": "channel",
                "noteNumber": 81,
                "velocity": 0,
                "subtype": "noteOff"
            },
            {
                "deltaTime": 30,
                "channel": 5,
                "type": "channel",
                "noteNumber": 53,
                "velocity": 0,
                "subtype": "noteOff"
            },
            {
                "deltaTime": 0,
                "channel": 2,
                "type": "channel",
                "noteNumber": 73,
                "velocity": 60,
                "subtype": "noteOn"
            },
            {
                "deltaTime": 0,
                "channel": 5,
                "type": "channel",
                "noteNumber": 52,
                "velocity": 55,
                "subtype": "noteOn"
            },
            {
                "deltaTime": 120,
                "channel": 5,
                "type": "channel",
                "noteNumber": 52,
                "velocity": 0,
                "subtype": "noteOff"
            },
            {
                "deltaTime": 0,
                "channel": 2,
                "type": "channel",
                "noteNumber": 73,
                "velocity": 0,
                "subtype": "noteOff"
            },
            {
                "deltaTime": 0,
                "channel": 3,
                "type": "channel",
                "noteNumber": 69,
                "velocity": 0,
                "subtype": "noteOff"
            },
            {
                "deltaTime": 0,
                "channel": 2,
                "type": "channel",
                "noteNumber": 74,
                "velocity": 60,
                "subtype": "noteOn"
            },
            {
                "deltaTime": 0,
                "channel": 4,
                "type": "channel",
                "subtype": "controller",
                "controllerType": 7,
                "value": 120
            },
            {
                "deltaTime": 0,
                "channel": 4,
                "type": "channel",
                "noteNumber": 57,
                "velocity": 53,
                "subtype": "noteOn"
            },
            {
                "deltaTime": 0,
                "channel": 5,
                "type": "channel",
                "subtype": "controller",
                "controllerType": 7,
                "value": 100
            },
            {
                "deltaTime": 0,
                "channel": 5,
                "type": "channel",
                "noteNumber": 53,
                "velocity": 58,
                "subtype": "noteOn"
            },
            {
                "deltaTime": 90,
                "channel": 5,
                "type": "channel",
                "noteNumber": 53,
                "velocity": 0,
                "subtype": "noteOff"
            },
            {
                "deltaTime": 30,
                "type": "meta",
                "subtype": "setTempo",
                "microsecondsPerBeat": 991736
            },
            {
                "deltaTime": 0,
                "channel": 2,
                "type": "channel",
                "noteNumber": 74,
                "velocity": 0,
                "subtype": "noteOff"
            },
            {
                "deltaTime": 0,
                "channel": 2,
                "type": "channel",
                "noteNumber": 79,
                "velocity": 60,
                "subtype": "noteOn"
            },
            {
                "deltaTime": 0,
                "channel": 5,
                "type": "channel",
                "noteNumber": 50,
                "velocity": 55,
                "subtype": "noteOn"
            },
            {
                "deltaTime": 120,
                "channel": 5,
                "type": "channel",
                "noteNumber": 50,
                "velocity": 0,
                "subtype": "noteOff"
            },
            {
                "deltaTime": 0,
                "channel": 2,
                "type": "channel",
                "noteNumber": 79,
                "velocity": 0,
                "subtype": "noteOff"
            },
            {
                "deltaTime": 0,
                "channel": 4,
                "type": "channel",
                "noteNumber": 57,
                "velocity": 0,
                "subtype": "noteOff"
            },
            {
                "deltaTime": 0,
                "channel": 2,
                "type": "channel",
                "noteNumber": 76,
                "velocity": 64,
                "subtype": "noteOn"
            },
            {
                "deltaTime": 0,
                "channel": 4,
                "type": "channel",
                "noteNumber": 59,
                "velocity": 54,
                "subtype": "noteOn"
            },
            {
                "deltaTime": 0,
                "channel": 5,
                "type": "channel",
                "noteNumber": 55,
                "velocity": 59,
                "subtype": "noteOn"
            },
            {
                "deltaTime": 45,
                "channel": 2,
                "type": "channel",
                "noteNumber": 76,
                "velocity": 0,
                "subtype": "noteOff"
            },
            {
                "deltaTime": 0,
                "channel": 2,
                "type": "channel",
                "noteNumber": 77,
                "velocity": 55,
                "subtype": "noteOn"
            },
            {
                "deltaTime": 45,
                "channel": 2,
                "type": "channel",
                "noteNumber": 77,
                "velocity": 0,
                "subtype": "noteOff"
            },
            {
                "deltaTime": 0,
                "channel": 2,
                "type": "channel",
                "noteNumber": 76,
                "velocity": 60,
                "subtype": "noteOn"
            },
            {
                "deltaTime": 150,
                "channel": 5,
                "type": "channel",
                "noteNumber": 55,
                "velocity": 0,
                "subtype": "noteOff"
            },
            {
                "deltaTime": 0,
                "channel": 4,
                "type": "channel",
                "noteNumber": 59,
                "velocity": 0,
                "subtype": "noteOff"
            },
            {
                "deltaTime": 0,
                "channel": 3,
                "type": "channel",
                "noteNumber": 64,
                "velocity": 52,
                "subtype": "noteOn"
            },
            {
                "deltaTime": 0,
                "channel": 4,
                "type": "channel",
                "noteNumber": 61,
                "velocity": 55,
                "subtype": "noteOn"
            },
            {
                "deltaTime": 0,
                "channel": 5,
                "type": "channel",
                "noteNumber": 57,
                "velocity": 59,
                "subtype": "noteOn"
            },
            {
                "deltaTime": 120,
                "channel": 2,
                "type": "channel",
                "noteNumber": 76,
                "velocity": 0,
                "subtype": "noteOff"
            },
            {
                "deltaTime": 0,
                "channel": 2,
                "type": "channel",
                "noteNumber": 74,
                "velocity": 60,
                "subtype": "noteOn"
            },
            {
                "deltaTime": 120,
                "channel": 2,
                "type": "channel",
                "noteNumber": 74,
                "velocity": 0,
                "subtype": "noteOff"
            },
            {
                "deltaTime": 0,
                "channel": 5,
                "type": "channel",
                "noteNumber": 57,
                "velocity": 0,
                "subtype": "noteOff"
            },
            {
                "deltaTime": 0,
                "channel": 4,
                "type": "channel",
                "noteNumber": 61,
                "velocity": 0,
                "subtype": "noteOff"
            },
            {
                "deltaTime": 0,
                "channel": 3,
                "type": "channel",
                "noteNumber": 64,
                "velocity": 0,
                "subtype": "noteOff"
            },
            {
                "deltaTime": 0,
                "channel": 2,
                "type": "channel",
                "noteNumber": 74,
                "velocity": 61,
                "subtype": "noteOn"
            },
            {
                "deltaTime": 0,
                "channel": 3,
                "type": "channel",
                "noteNumber": 66,
                "velocity": 53,
                "subtype": "noteOn"
            },
            {
                "deltaTime": 0,
                "channel": 4,
                "type": "channel",
                "noteNumber": 62,
                "velocity": 60,
                "subtype": "noteOn"
            },
            {
                "deltaTime": 0,
                "channel": 5,
                "type": "channel",
                "noteNumber": 50,
                "velocity": 56,
                "subtype": "noteOn"
            },
            {
                "deltaTime": 240,
                "channel": 3,
                "type": "channel",
                "noteNumber": 66,
                "velocity": 0,
                "subtype": "noteOff"
            },
            {
                "deltaTime": 0,
                "channel": 2,
                "type": "channel",
                "noteNumber": 74,
                "velocity": 0,
                "subtype": "noteOff"
            },
            {
                "deltaTime": 0,
                "channel": 3,
                "type": "channel",
                "noteNumber": 67,
                "velocity": 55,
                "subtype": "noteOn"
            },
            {
                "deltaTime": 120,
                "channel": 4,
                "type": "channel",
                "noteNumber": 62,
                "velocity": 0,
                "subtype": "noteOff"
            },
            {
                "deltaTime": 0,
                "channel": 4,
                "type": "channel",
                "noteNumber": 64,
                "velocity": 57,
                "subtype": "noteOn"
            },
            {
                "deltaTime": 60,
                "channel": 4,
                "type": "channel",
                "noteNumber": 64,
                "velocity": 0,
                "subtype": "noteOff"
            },
            {
                "deltaTime": 0,
                "channel": 4,
                "type": "channel",
                "noteNumber": 62,
                "velocity": 57,
                "subtype": "noteOn"
            },
            {
                "deltaTime": 60,
                "type": "meta",
                "subtype": "setTempo",
                "microsecondsPerBeat": 960000
            },
            {
                "deltaTime": 0,
                "channel": 4,
                "type": "channel",
                "noteNumber": 62,
                "velocity": 0,
                "subtype": "noteOff"
            },
            {
                "deltaTime": 0,
                "channel": 3,
                "type": "channel",
                "noteNumber": 67,
                "velocity": 0,
                "subtype": "noteOff"
            },
            {
                "deltaTime": 0,
                "channel": 3,
                "type": "channel",
                "noteNumber": 69,
                "velocity": 60,
                "subtype": "noteOn"
            },
            {
                "deltaTime": 0,
                "channel": 4,
                "type": "channel",
                "noteNumber": 60,
                "velocity": 57,
                "subtype": "noteOn"
            },
            {
                "deltaTime": 220,
                "channel": 4,
                "type": "channel",
                "noteNumber": 60,
                "velocity": 0,
                "subtype": "noteOff"
            },
            {
                "deltaTime": 20,
                "channel": 4,
                "type": "channel",
                "noteNumber": 66,
                "velocity": 60,
                "subtype": "noteOn"
            },
            {
                "deltaTime": 120,
                "channel": 3,
                "type": "channel",
                "noteNumber": 69,
                "velocity": 0,
                "subtype": "noteOff"
            },
            {
                "deltaTime": 0,
                "channel": 3,
                "type": "channel",
                "noteNumber": 71,
                "velocity": 58,
                "subtype": "noteOn"
            },
            {
                "deltaTime": 60,
                "channel": 3,
                "type": "channel",
                "noteNumber": 71,
                "velocity": 0,
                "subtype": "noteOff"
            },
            {
                "deltaTime": 0,
                "channel": 3,
                "type": "channel",
                "noteNumber": 69,
                "velocity": 58,
                "subtype": "noteOn"
            },
            {
                "deltaTime": 60,
                "type": "meta",
                "subtype": "setTempo",
                "microsecondsPerBeat": 960000
            },
            {
                "deltaTime": 0,
                "channel": 3,
                "type": "channel",
                "noteNumber": 69,
                "velocity": 0,
                "subtype": "noteOff"
            },
            {
                "deltaTime": 0,
                "channel": 4,
                "type": "channel",
                "noteNumber": 66,
                "velocity": 0,
                "subtype": "noteOff"
            },
            {
                "deltaTime": 0,
                "channel": 3,
                "type": "channel",
                "noteNumber": 67,
                "velocity": 58,
                "subtype": "noteOn"
            },
            {
                "deltaTime": 0,
                "channel": 4,
                "type": "channel",
                "noteNumber": 59,
                "velocity": 54,
                "subtype": "noteOn"
            },
            {
                "deltaTime": 120,
                "channel": 5,
                "type": "channel",
                "noteNumber": 50,
                "velocity": 0,
                "subtype": "noteOff"
            },
            {
                "deltaTime": 0,
                "channel": 5,
                "type": "channel",
                "noteNumber": 52,
                "velocity": 57,
                "subtype": "noteOn"
            },
            {
                "deltaTime": 100,
                "channel": 4,
                "type": "channel",
                "noteNumber": 59,
                "velocity": 0,
                "subtype": "noteOff"
            },
            {
                "deltaTime": 0,
                "channel": 3,
                "type": "channel",
                "noteNumber": 67,
                "velocity": 0,
                "subtype": "noteOff"
            },
            {
                "deltaTime": 20,
                "channel": 5,
                "type": "channel",
                "noteNumber": 52,
                "velocity": 0,
                "subtype": "noteOff"
            },
            {
                "deltaTime": 0,
                "channel": 3,
                "type": "channel",
                "noteNumber": 72,
                "velocity": 60,
                "subtype": "noteOn"
            },
            {
                "deltaTime": 0,
                "channel": 4,
                "type": "channel",
                "noteNumber": 64,
                "velocity": 60,
                "subtype": "noteOn"
            },
            {
                "deltaTime": 0,
                "channel": 5,
                "type": "channel",
                "noteNumber": 50,
                "velocity": 57,
                "subtype": "noteOn"
            },
            {
                "deltaTime": 120,
                "channel": 5,
                "type": "channel",
                "noteNumber": 50,
                "velocity": 0,
                "subtype": "noteOff"
            },
            {
                "deltaTime": 0,
                "channel": 5,
                "type": "channel",
                "noteNumber": 48,
                "velocity": 56,
                "subtype": "noteOn"
            },
            {
                "deltaTime": 120,
                "channel": 5,
                "type": "channel",
                "noteNumber": 48,
                "velocity": 0,
                "subtype": "noteOff"
            },
            {
                "deltaTime": 0,
                "channel": 3,
                "type": "channel",
                "noteNumber": 72,
                "velocity": 0,
                "subtype": "noteOff"
            },
            {
                "deltaTime": 0,
                "channel": 3,
                "type": "channel",
                "noteNumber": 66,
                "velocity": 55,
                "subtype": "noteOn"
            },
            {
                "deltaTime": 0,
                "channel": 5,
                "type": "channel",
                "noteNumber": 47,
                "velocity": 56,
                "subtype": "noteOn"
            },
            {
                "deltaTime": 118,
                "channel": 3,
                "type": "channel",
                "noteNumber": 66,
                "velocity": 0,
                "subtype": "noteOff"
            },
            {
                "deltaTime": 2,
                "type": "meta",
                "subtype": "setTempo",
                "microsecondsPerBeat": 1034483
            },
            {
                "deltaTime": 0,
                "channel": 5,
                "type": "channel",
                "noteNumber": 47,
                "velocity": 0,
                "subtype": "noteOff"
            },
            {
                "deltaTime": 0,
                "channel": 4,
                "type": "channel",
                "noteNumber": 64,
                "velocity": 0,
                "subtype": "noteOff"
            },
            {
                "deltaTime": 0,
                "channel": 4,
                "type": "channel",
                "noteNumber": 66,
                "velocity": 63,
                "subtype": "noteOn"
            },
            {
                "deltaTime": 0,
                "channel": 5,
                "type": "channel",
                "noteNumber": 45,
                "velocity": 55,
                "subtype": "noteOn"
            },
            {
                "deltaTime": 120,
                "type": "meta",
                "subtype": "setTempo",
                "microsecondsPerBeat": 967742
            },
            {
                "deltaTime": 0,
                "channel": 5,
                "type": "channel",
                "noteNumber": 45,
                "velocity": 0,
                "subtype": "noteOff"
            },
            {
                "deltaTime": 0,
                "channel": 4,
                "type": "channel",
                "noteNumber": 66,
                "velocity": 0,
                "subtype": "noteOff"
            },
            {
                "deltaTime": 0,
                "channel": 3,
                "type": "channel",
                "noteNumber": 71,
                "velocity": 60,
                "subtype": "noteOn"
            },
            {
                "deltaTime": 0,
                "channel": 4,
                "type": "channel",
                "noteNumber": 64,
                "velocity": 63,
                "subtype": "noteOn"
            },
            {
                "deltaTime": 0,
                "channel": 5,
                "type": "channel",
                "noteNumber": 43,
                "velocity": 55,
                "subtype": "noteOn"
            },
            {
                "deltaTime": 120,
                "channel": 5,
                "type": "channel",
                "noteNumber": 43,
                "velocity": 0,
                "subtype": "noteOff"
            },
            {
                "deltaTime": 0,
                "channel": 4,
                "type": "channel",
                "noteNumber": 64,
                "velocity": 0,
                "subtype": "noteOff"
            },
            {
                "deltaTime": 0,
                "channel": 4,
                "type": "channel",
                "noteNumber": 62,
                "velocity": 62,
                "subtype": "noteOn"
            },
            {
                "deltaTime": 0,
                "channel": 5,
                "type": "channel",
                "noteNumber": 42,
                "velocity": 54,
                "subtype": "noteOn"
            },
            {
                "deltaTime": 120,
                "channel": 5,
                "type": "channel",
                "noteNumber": 42,
                "velocity": 0,
                "subtype": "noteOff"
            },
            {
                "deltaTime": 0,
                "channel": 4,
                "type": "channel",
                "noteNumber": 62,
                "velocity": 0,
                "subtype": "noteOff"
            },
            {
                "deltaTime": 0,
                "channel": 4,
                "type": "channel",
                "noteNumber": 60,
                "velocity": 60,
                "subtype": "noteOn"
            },
            {
                "deltaTime": 0,
                "channel": 5,
                "type": "channel",
                "noteNumber": 40,
                "velocity": 54,
                "subtype": "noteOn"
            },
            {
                "deltaTime": 120,
                "channel": 3,
                "type": "channel",
                "noteNumber": 71,
                "velocity": 0,
                "subtype": "noteOff"
            },
            {
                "deltaTime": 0,
                "channel": 3,
                "type": "channel",
                "noteNumber": 72,
                "velocity": 57,
                "subtype": "noteOn"
            },
            {
                "deltaTime": 100,
                "channel": 5,
                "type": "channel",
                "noteNumber": 40,
                "velocity": 0,
                "subtype": "noteOff"
            },
            {
                "deltaTime": 19,
                "channel": 5,
                "type": "channel",
                "subtype": "controller",
                "controllerType": 7,
                "value": 120
            },
            {
                "deltaTime": 1,
                "type": "meta",
                "subtype": "setTempo",
                "microsecondsPerBeat": 937500
            },
            {
                "deltaTime": 0,
                "channel": 3,
                "type": "channel",
                "noteNumber": 72,
                "velocity": 0,
                "subtype": "noteOff"
            },
            {
                "deltaTime": 0,
                "channel": 3,
                "type": "channel",
                "noteNumber": 71,
                "velocity": 57,
                "subtype": "noteOn"
            },
            {
                "deltaTime": 0,
                "channel": 5,
                "type": "channel",
                "noteNumber": 52,
                "velocity": 52,
                "subtype": "noteOn"
            },
            {
                "deltaTime": 120,
                "channel": 3,
                "type": "channel",
                "noteNumber": 71,
                "velocity": 0,
                "subtype": "noteOff"
            },
            {
                "deltaTime": 0,
                "channel": 3,
                "type": "channel",
                "noteNumber": 69,
                "velocity": 56,
                "subtype": "noteOn"
            },
            {
                "deltaTime": 120,
                "type": "meta",
                "subtype": "setTempo",
                "microsecondsPerBeat": 960000
            },
            {
                "deltaTime": 0,
                "channel": 3,
                "type": "channel",
                "noteNumber": 69,
                "velocity": 0,
                "subtype": "noteOff"
            },
            {
                "deltaTime": 0,
                "channel": 5,
                "type": "channel",
                "noteNumber": 52,
                "velocity": 0,
                "subtype": "noteOff"
            },
            {
                "deltaTime": 0,
                "channel": 3,
                "type": "channel",
                "noteNumber": 67,
                "velocity": 56,
                "subtype": "noteOn"
            },
            {
                "deltaTime": 0,
                "channel": 5,
                "type": "channel",
                "noteNumber": 54,
                "velocity": 54,
                "subtype": "noteOn"
            },
            {
                "deltaTime": 120,
                "channel": 3,
                "type": "channel",
                "noteNumber": 67,
                "velocity": 0,
                "subtype": "noteOff"
            },
            {
                "deltaTime": 0,
                "channel": 3,
                "type": "channel",
                "noteNumber": 66,
                "velocity": 55,
                "subtype": "noteOn"
            },
            {
                "deltaTime": 120,
                "channel": 3,
                "type": "channel",
                "noteNumber": 66,
                "velocity": 0,
                "subtype": "noteOff"
            },
            {
                "deltaTime": 0,
                "channel": 5,
                "type": "channel",
                "noteNumber": 54,
                "velocity": 0,
                "subtype": "noteOff"
            },
            {
                "deltaTime": 0,
                "channel": 2,
                "type": "channel",
                "noteNumber": 67,
                "velocity": 51,
                "subtype": "noteOn"
            },
            {
                "deltaTime": 0,
                "channel": 3,
                "type": "channel",
                "noteNumber": 64,
                "velocity": 54,
                "subtype": "noteOn"
            },
            {
                "deltaTime": 0,
                "channel": 5,
                "type": "channel",
                "noteNumber": 55,
                "velocity": 56,
                "subtype": "noteOn"
            },
            {
                "deltaTime": 120,
                "channel": 3,
                "type": "channel",
                "noteNumber": 64,
                "velocity": 0,
                "subtype": "noteOff"
            },
            {
                "deltaTime": 0,
                "channel": 3,
                "type": "channel",
                "noteNumber": 62,
                "velocity": 54,
                "subtype": "noteOn"
            },
            {
                "deltaTime": 120,
                "channel": 3,
                "type": "channel",
                "noteNumber": 62,
                "velocity": 0,
                "subtype": "noteOff"
            },
            {
                "deltaTime": 0,
                "channel": 2,
                "type": "channel",
                "noteNumber": 67,
                "velocity": 0,
                "subtype": "noteOff"
            },
            {
                "deltaTime": 0,
                "channel": 2,
                "type": "channel",
                "noteNumber": 69,
                "velocity": 53,
                "subtype": "noteOn"
            },
            {
                "deltaTime": 0,
                "channel": 3,
                "type": "channel",
                "noteNumber": 64,
                "velocity": 57,
                "subtype": "noteOn"
            },
            {
                "deltaTime": 120,
                "channel": 4,
                "type": "channel",
                "noteNumber": 60,
                "velocity": 0,
                "subtype": "noteOff"
            },
            {
                "deltaTime": 0,
                "channel": 4,
                "type": "channel",
                "subtype": "controller",
                "controllerType": 7,
                "value": 100
            },
            {
                "deltaTime": 0,
                "channel": 4,
                "type": "channel",
                "noteNumber": 62,
                "velocity": 60,
                "subtype": "noteOn"
            },
            {
                "deltaTime": 120,
                "channel": 4,
                "type": "channel",
                "noteNumber": 62,
                "velocity": 0,
                "subtype": "noteOff"
            },
            {
                "deltaTime": 0,
                "channel": 5,
                "type": "channel",
                "noteNumber": 55,
                "velocity": 0,
                "subtype": "noteOff"
            },
            {
                "deltaTime": 0,
                "channel": 2,
                "type": "channel",
                "noteNumber": 69,
                "velocity": 0,
                "subtype": "noteOff"
            },
            {
                "deltaTime": 0,
                "channel": 2,
                "type": "channel",
                "noteNumber": 71,
                "velocity": 55,
                "subtype": "noteOn"
            },
            {
                "deltaTime": 0,
                "channel": 4,
                "type": "channel",
                "noteNumber": 60,
                "velocity": 59,
                "subtype": "noteOn"
            },
            {
                "deltaTime": 0,
                "channel": 5,
                "type": "channel",
                "noteNumber": 57,
                "velocity": 60,
                "subtype": "noteOn"
            },
            {
                "deltaTime": 120,
                "type": "meta",
                "subtype": "setTempo",
                "microsecondsPerBeat": 1008403
            },
            {
                "deltaTime": 0,
                "channel": 5,
                "type": "channel",
                "noteNumber": 57,
                "velocity": 0,
                "subtype": "noteOff"
            },
            {
                "deltaTime": 0,
                "channel": 4,
                "type": "channel",
                "noteNumber": 60,
                "velocity": 0,
                "subtype": "noteOff"
            },
            {
                "deltaTime": 0,
                "channel": 4,
                "type": "channel",
                "noteNumber": 59,
                "velocity": 58,
                "subtype": "noteOn"
            },
            {
                "deltaTime": 0,
                "channel": 5,
                "type": "channel",
                "noteNumber": 55,
                "velocity": 58,
                "subtype": "noteOn"
            },
            {
                "deltaTime": 120,
                "type": "meta",
                "subtype": "setTempo",
                "microsecondsPerBeat": 960000
            },
            {
                "deltaTime": 0,
                "channel": 5,
                "type": "channel",
                "noteNumber": 55,
                "velocity": 0,
                "subtype": "noteOff"
            },
            {
                "deltaTime": 0,
                "channel": 3,
                "type": "channel",
                "noteNumber": 64,
                "velocity": 0,
                "subtype": "noteOff"
            },
            {
                "deltaTime": 0,
                "channel": 2,
                "type": "channel",
                "noteNumber": 71,
                "velocity": 0,
                "subtype": "noteOff"
            },
            {
                "deltaTime": 0,
                "channel": 4,
                "type": "channel",
                "noteNumber": 59,
                "velocity": 0,
                "subtype": "noteOff"
            },
            {
                "deltaTime": 0,
                "channel": 2,
                "type": "channel",
                "noteNumber": 72,
                "velocity": 60,
                "subtype": "noteOn"
            },
            {
                "deltaTime": 0,
                "channel": 3,
                "type": "channel",
                "noteNumber": 62,
                "velocity": 58,
                "subtype": "noteOn"
            },
            {
                "deltaTime": 0,
                "channel": 4,
                "type": "channel",
                "noteNumber": 57,
                "velocity": 57,
                "subtype": "noteOn"
            },
            {
                "deltaTime": 0,
                "channel": 5,
                "type": "channel",
                "noteNumber": 54,
                "velocity": 60,
                "subtype": "noteOn"
            },
            {
                "deltaTime": 120,
                "channel": 4,
                "type": "channel",
                "noteNumber": 57,
                "velocity": 0,
                "subtype": "noteOff"
            },
            {
                "deltaTime": 0,
                "channel": 4,
                "type": "channel",
                "noteNumber": 55,
                "velocity": 56,
                "subtype": "noteOn"
            },
            {
                "deltaTime": 100,
                "channel": 5,
                "type": "channel",
                "noteNumber": 54,
                "velocity": 0,
                "subtype": "noteOff"
            },
            {
                "deltaTime": 20,
                "channel": 4,
                "type": "channel",
                "noteNumber": 55,
                "velocity": 0,
                "subtype": "noteOff"
            },
            {
                "deltaTime": 0,
                "channel": 4,
                "type": "channel",
                "noteNumber": 57,
                "velocity": 58,
                "subtype": "noteOn"
            },
            {
                "deltaTime": 0,
                "channel": 5,
                "type": "channel",
                "noteNumber": 50,
                "velocity": 57,
                "subtype": "noteOn"
            },
            {
                "deltaTime": 90,
                "channel": 4,
                "type": "channel",
                "noteNumber": 57,
                "velocity": 0,
                "subtype": "noteOff"
            },
            {
                "deltaTime": 30,
                "channel": 2,
                "type": "channel",
                "noteNumber": 72,
                "velocity": 0,
                "subtype": "noteOff"
            },
            {
                "deltaTime": 0,
                "channel": 2,
                "type": "channel",
                "noteNumber": 74,
                "velocity": 58,
                "subtype": "noteOn"
            },
            {
                "deltaTime": 0,
                "channel": 4,
                "type": "channel",
                "noteNumber": 54,
                "velocity": 54,
                "subtype": "noteOn"
            },
            {
                "deltaTime": 60,
                "channel": 2,
                "type": "channel",
                "noteNumber": 74,
                "velocity": 0,
                "subtype": "noteOff"
            },
            {
                "deltaTime": 0,
                "channel": 2,
                "type": "channel",
                "noteNumber": 72,
                "velocity": 58,
                "subtype": "noteOn"
            },
            {
                "deltaTime": 60,
                "type": "meta",
                "subtype": "setTempo",
                "microsecondsPerBeat": 1008403
            },
            {
                "deltaTime": 0,
                "channel": 2,
                "type": "channel",
                "noteNumber": 72,
                "velocity": 0,
                "subtype": "noteOff"
            },
            {
                "deltaTime": 0,
                "channel": 4,
                "type": "channel",
                "noteNumber": 54,
                "velocity": 0,
                "subtype": "noteOff"
            },
            {
                "deltaTime": 0,
                "channel": 5,
                "type": "channel",
                "noteNumber": 50,
                "velocity": 0,
                "subtype": "noteOff"
            },
            {
                "deltaTime": 0,
                "channel": 2,
                "type": "channel",
                "noteNumber": 71,
                "velocity": 58,
                "subtype": "noteOn"
            },
            {
                "deltaTime": 0,
                "channel": 4,
                "type": "channel",
                "noteNumber": 55,
                "velocity": 54,
                "subtype": "noteOn"
            },
            {
                "deltaTime": 0,
                "channel": 5,
                "type": "channel",
                "noteNumber": 55,
                "velocity": 59,
                "subtype": "noteOn"
            },
            {
                "deltaTime": 120,
                "channel": 3,
                "type": "channel",
                "noteNumber": 62,
                "velocity": 0,
                "subtype": "noteOff"
            },
            {
                "deltaTime": 0,
                "channel": 3,
                "type": "channel",
                "noteNumber": 69,
                "velocity": 57,
                "subtype": "noteOn"
            },
            {
                "deltaTime": 100,
                "channel": 2,
                "type": "channel",
                "noteNumber": 71,
                "velocity": 0,
                "subtype": "noteOff"
            },
            {
                "deltaTime": 0,
                "channel": 4,
                "type": "channel",
                "noteNumber": 55,
                "velocity": 0,
                "subtype": "noteOff"
            },
            {
                "deltaTime": 20,
                "type": "meta",
                "subtype": "setTempo",
                "microsecondsPerBeat": 952381
            },
            {
                "deltaTime": 0,
                "channel": 3,
                "type": "channel",
                "noteNumber": 69,
                "velocity": 0,
                "subtype": "noteOff"
            },
            {
                "deltaTime": 0,
                "channel": 2,
                "type": "channel",
                "noteNumber": 76,
                "velocity": 60,
                "subtype": "noteOn"
            },
            {
                "deltaTime": 0,
                "channel": 3,
                "type": "channel",
                "noteNumber": 67,
                "velocity": 57,
                "subtype": "noteOn"
            },
            {
                "deltaTime": 0,
                "channel": 4,
                "type": "channel",
                "subtype": "controller",
                "controllerType": 7,
                "value": 120
            },
            {
                "deltaTime": 0,
                "channel": 4,
                "type": "channel",
                "noteNumber": 59,
                "velocity": 57,
                "subtype": "noteOn"
            },
            {
                "deltaTime": 120,
                "channel": 3,
                "type": "channel",
                "noteNumber": 67,
                "velocity": 0,
                "subtype": "noteOff"
            },
            {
                "deltaTime": 0,
                "channel": 3,
                "type": "channel",
                "noteNumber": 65,
                "velocity": 56,
                "subtype": "noteOn"
            },
            {
                "deltaTime": 120,
                "channel": 3,
                "type": "channel",
                "noteNumber": 65,
                "velocity": 0,
                "subtype": "noteOff"
            },
            {
                "deltaTime": 0,
                "channel": 4,
                "type": "channel",
                "noteNumber": 59,
                "velocity": 0,
                "subtype": "noteOff"
            },
            {
                "deltaTime": 0,
                "channel": 2,
                "type": "channel",
                "noteNumber": 76,
                "velocity": 0,
                "subtype": "noteOff"
            },
            {
                "deltaTime": 0,
                "channel": 2,
                "type": "channel",
                "noteNumber": 69,
                "velocity": 57,
                "subtype": "noteOn"
            },
            {
                "deltaTime": 0,
                "channel": 3,
                "type": "channel",
                "noteNumber": 64,
                "velocity": 56,
                "subtype": "noteOn"
            },
            {
                "deltaTime": 0,
                "channel": 4,
                "type": "channel",
                "noteNumber": 60,
                "velocity": 60,
                "subtype": "noteOn"
            },
            {
                "deltaTime": 120,
                "channel": 3,
                "type": "channel",
                "noteNumber": 64,
                "velocity": 0,
                "subtype": "noteOff"
            },
            {
                "deltaTime": 0,
                "channel": 3,
                "type": "channel",
                "noteNumber": 67,
                "velocity": 60,
                "subtype": "noteOn"
            },
            {
                "deltaTime": 100,
                "channel": 2,
                "type": "channel",
                "noteNumber": 69,
                "velocity": 0,
                "subtype": "noteOff"
            },
            {
                "deltaTime": 20,
                "channel": 4,
                "type": "channel",
                "noteNumber": 60,
                "velocity": 0,
                "subtype": "noteOff"
            },
            {
                "deltaTime": 0,
                "channel": 3,
                "type": "channel",
                "noteNumber": 67,
                "velocity": 0,
                "subtype": "noteOff"
            },
            {
                "deltaTime": 0,
                "channel": 2,
                "type": "channel",
                "noteNumber": 74,
                "velocity": 60,
                "subtype": "noteOn"
            },
            {
                "deltaTime": 0,
                "channel": 3,
                "type": "channel",
                "noteNumber": 65,
                "velocity": 56,
                "subtype": "noteOn"
            },
            {
                "deltaTime": 0,
                "channel": 4,
                "type": "channel",
                "noteNumber": 62,
                "velocity": 63,
                "subtype": "noteOn"
            },
            {
                "deltaTime": 120,
                "channel": 3,
                "type": "channel",
                "noteNumber": 65,
                "velocity": 0,
                "subtype": "noteOff"
            },
            {
                "deltaTime": 0,
                "channel": 3,
                "type": "channel",
                "noteNumber": 69,
                "velocity": 56,
                "subtype": "noteOn"
            },
            {
                "deltaTime": 120,
                "channel": 3,
                "type": "channel",
                "noteNumber": 69,
                "velocity": 0,
                "subtype": "noteOff"
            },
            {
                "deltaTime": 0,
                "channel": 4,
                "type": "channel",
                "noteNumber": 62,
                "velocity": 0,
                "subtype": "noteOff"
            },
            {
                "deltaTime": 0,
                "channel": 3,
                "type": "channel",
                "noteNumber": 67,
                "velocity": 58,
                "subtype": "noteOn"
            },
            {
                "deltaTime": 0,
                "channel": 4,
                "type": "channel",
                "noteNumber": 64,
                "velocity": 66,
                "subtype": "noteOn"
            },
            {
                "deltaTime": 120,
                "channel": 2,
                "type": "channel",
                "noteNumber": 74,
                "velocity": 0,
                "subtype": "noteOff"
            },
            {
                "deltaTime": 0,
                "channel": 2,
                "type": "channel",
                "noteNumber": 76,
                "velocity": 60,
                "subtype": "noteOn"
            },
            {
                "deltaTime": 120,
                "type": "meta",
                "subtype": "setTempo",
                "microsecondsPerBeat": 916031
            },
            {
                "deltaTime": 0,
                "channel": 2,
                "type": "channel",
                "noteNumber": 76,
                "velocity": 0,
                "subtype": "noteOff"
            },
            {
                "deltaTime": 0,
                "channel": 2,
                "type": "channel",
                "noteNumber": 74,
                "velocity": 57,
                "subtype": "noteOn"
            },
            {
                "deltaTime": 120,
                "channel": 2,
                "type": "channel",
                "noteNumber": 74,
                "velocity": 0,
                "subtype": "noteOff"
            },
            {
                "deltaTime": 0,
                "channel": 4,
                "type": "channel",
                "noteNumber": 64,
                "velocity": 0,
                "subtype": "noteOff"
            },
            {
                "deltaTime": 0,
                "channel": 2,
                "type": "channel",
                "noteNumber": 72,
                "velocity": 56,
                "subtype": "noteOn"
            },
            {
                "deltaTime": 0,
                "channel": 4,
                "type": "channel",
                "noteNumber": 65,
                "velocity": 60,
                "subtype": "noteOn"
            },
            {
                "deltaTime": 60,
                "channel": 4,
                "type": "channel",
                "noteNumber": 65,
                "velocity": 0,
                "subtype": "noteOff"
            },
            {
                "deltaTime": 0,
                "channel": 4,
                "type": "channel",
                "noteNumber": 64,
                "velocity": 60,
                "subtype": "noteOn"
            },
            {
                "deltaTime": 60,
                "type": "meta",
                "subtype": "setTempo",
                "microsecondsPerBeat": 952381
            },
            {
                "deltaTime": 0,
                "channel": 4,
                "type": "channel",
                "noteNumber": 64,
                "velocity": 0,
                "subtype": "noteOff"
            },
            {
                "deltaTime": 0,
                "channel": 2,
                "type": "channel",
                "noteNumber": 72,
                "velocity": 0,
                "subtype": "noteOff"
            },
            {
                "deltaTime": 0,
                "channel": 2,
                "type": "channel",
                "noteNumber": 71,
                "velocity": 55,
                "subtype": "noteOn"
            },
            {
                "deltaTime": 0,
                "channel": 4,
                "type": "channel",
                "noteNumber": 62,
                "velocity": 60,
                "subtype": "noteOn"
            },
            {
                "deltaTime": 120,
                "channel": 2,
                "type": "channel",
                "noteNumber": 71,
                "velocity": 0,
                "subtype": "noteOff"
            },
            {
                "deltaTime": 0,
                "channel": 3,
                "type": "channel",
                "noteNumber": 67,
                "velocity": 0,
                "subtype": "noteOff"
            },
            {
                "deltaTime": 0,
                "channel": 2,
                "type": "channel",
                "noteNumber": 72,
                "velocity": 55,
                "subtype": "noteOn"
            },
            {
                "deltaTime": 0,
                "channel": 3,
                "type": "channel",
                "noteNumber": 69,
                "velocity": 56,
                "subtype": "noteOn"
            },
            {
                "deltaTime": 100,
                "channel": 4,
                "type": "channel",
                "noteNumber": 62,
                "velocity": 0,
                "subtype": "noteOff"
            },
            {
                "deltaTime": 20,
                "type": "meta",
                "subtype": "setTempo",
                "microsecondsPerBeat": 983607
            },
            {
                "deltaTime": 0,
                "channel": 3,
                "type": "channel",
                "noteNumber": 69,
                "velocity": 0,
                "subtype": "noteOff"
            },
            {
                "deltaTime": 0,
                "channel": 2,
                "type": "channel",
                "noteNumber": 72,
                "velocity": 0,
                "subtype": "noteOff"
            },
            {
                "deltaTime": 0,
                "channel": 2,
                "type": "channel",
                "noteNumber": 74,
                "velocity": 57,
                "subtype": "noteOn"
            },
            {
                "deltaTime": 0,
                "channel": 3,
                "type": "channel",
                "noteNumber": 70,
                "velocity": 56,
                "subtype": "noteOn"
            },
            {
                "deltaTime": 0,
                "channel": 4,
                "type": "channel",
                "noteNumber": 67,
                "velocity": 65,
                "subtype": "noteOn"
            },
            {
                "deltaTime": 120,
                "channel": 2,
                "type": "channel",
                "noteNumber": 74,
                "velocity": 0,
                "subtype": "noteOff"
            },
            {
                "deltaTime": 0,
                "channel": 2,
                "type": "channel",
                "noteNumber": 76,
                "velocity": 59,
                "subtype": "noteOn"
            },
            {
                "deltaTime": 120,
                "channel": 2,
                "type": "channel",
                "noteNumber": 76,
                "velocity": 0,
                "subtype": "noteOff"
            },
            {
                "deltaTime": 0,
                "channel": 4,
                "type": "channel",
                "noteNumber": 67,
                "velocity": 0,
                "subtype": "noteOff"
            },
            {
                "deltaTime": 0,
                "channel": 3,
                "type": "channel",
                "noteNumber": 70,
                "velocity": 0,
                "subtype": "noteOff"
            },
            {
                "deltaTime": 0,
                "channel": 5,
                "type": "channel",
                "noteNumber": 55,
                "velocity": 0,
                "subtype": "noteOff"
            },
            {
                "deltaTime": 0,
                "channel": 2,
                "type": "channel",
                "noteNumber": 77,
                "velocity": 61,
                "subtype": "noteOn"
            },
            {
                "deltaTime": 0,
                "channel": 3,
                "type": "channel",
                "noteNumber": 72,
                "velocity": 54,
                "subtype": "noteOn"
            },
            {
                "deltaTime": 0,
                "channel": 4,
                "type": "channel",
                "noteNumber": 60,
                "velocity": 58,
                "subtype": "noteOn"
            },
            {
                "deltaTime": 0,
                "channel": 5,
                "type": "channel",
                "subtype": "controller",
                "controllerType": 7,
                "value": 100
            },
            {
                "deltaTime": 0,
                "channel": 5,
                "type": "channel",
                "noteNumber": 57,
                "velocity": 52,
                "subtype": "noteOn"
            },
            {
                "deltaTime": 120,
                "channel": 2,
                "type": "channel",
                "noteNumber": 77,
                "velocity": 0,
                "subtype": "noteOff"
            },
            {
                "deltaTime": 0,
                "channel": 2,
                "type": "channel",
                "noteNumber": 79,
                "velocity": 61,
                "subtype": "noteOn"
            },
            {
                "deltaTime": 100,
                "channel": 4,
                "type": "channel",
                "noteNumber": 60,
                "velocity": 0,
                "subtype": "noteOff"
            },
            {
                "deltaTime": 20,
                "channel": 2,
                "type": "channel",
                "noteNumber": 79,
                "velocity": 0,
                "subtype": "noteOff"
            },
            {
                "deltaTime": 0,
                "channel": 2,
                "type": "channel",
                "noteNumber": 81,
                "velocity": 61,
                "subtype": "noteOn"
            },
            {
                "deltaTime": 0,
                "channel": 4,
                "type": "channel",
                "noteNumber": 65,
                "velocity": 66,
                "subtype": "noteOn"
            },
            {
                "deltaTime": 120,
                "channel": 2,
                "type": "channel",
                "noteNumber": 81,
                "velocity": 0,
                "subtype": "noteOff"
            },
            {
                "deltaTime": 0,
                "channel": 2,
                "type": "channel",
                "noteNumber": 79,
                "velocity": 60,
                "subtype": "noteOn"
            },
            {
                "deltaTime": 120,
                "channel": 2,
                "type": "channel",
                "noteNumber": 79,
                "velocity": 0,
                "subtype": "noteOff"
            },
            {
                "deltaTime": 0,
                "channel": 5,
                "type": "channel",
                "noteNumber": 57,
                "velocity": 0,
                "subtype": "noteOff"
            },
            {
                "deltaTime": 0,
                "channel": 3,
                "type": "channel",
                "noteNumber": 72,
                "velocity": 0,
                "subtype": "noteOff"
            },
            {
                "deltaTime": 0,
                "channel": 2,
                "type": "channel",
                "noteNumber": 77,
                "velocity": 60,
                "subtype": "noteOn"
            },
            {
                "deltaTime": 0,
                "channel": 3,
                "type": "channel",
                "noteNumber": 74,
                "velocity": 60,
                "subtype": "noteOn"
            },
            {
                "deltaTime": 0,
                "channel": 5,
                "type": "channel",
                "noteNumber": 59,
                "velocity": 57,
                "subtype": "noteOn"
            },
            {
                "deltaTime": 120,
                "channel": 2,
                "type": "channel",
                "noteNumber": 77,
                "velocity": 0,
                "subtype": "noteOff"
            },
            {
                "deltaTime": 0,
                "channel": 4,
                "type": "channel",
                "noteNumber": 65,
                "velocity": 0,
                "subtype": "noteOff"
            },
            {
                "deltaTime": 0,
                "channel": 2,
                "type": "channel",
                "noteNumber": 76,
                "velocity": 59,
                "subtype": "noteOn"
            },
            {
                "deltaTime": 0,
                "channel": 4,
                "type": "channel",
                "noteNumber": 67,
                "velocity": 62,
                "subtype": "noteOn"
            },
            {
                "deltaTime": 100,
                "channel": 3,
                "type": "channel",
                "noteNumber": 74,
                "velocity": 0,
                "subtype": "noteOff"
            },
            {
                "deltaTime": 20,
                "type": "meta",
                "subtype": "setTempo",
                "microsecondsPerBeat": 960000
            },
            {
                "deltaTime": 0,
                "channel": 5,
                "type": "channel",
                "noteNumber": 59,
                "velocity": 0,
                "subtype": "noteOff"
            },
            {
                "deltaTime": 0,
                "channel": 2,
                "type": "channel",
                "noteNumber": 76,
                "velocity": 0,
                "subtype": "noteOff"
            },
            {
                "deltaTime": 0,
                "channel": 4,
                "type": "channel",
                "noteNumber": 67,
                "velocity": 0,
                "subtype": "noteOff"
            },
            {
                "deltaTime": 0,
                "channel": 2,
                "type": "channel",
                "noteNumber": 74,
                "velocity": 59,
                "subtype": "noteOn"
            },
            {
                "deltaTime": 0,
                "channel": 3,
                "type": "channel",
                "noteNumber": 67,
                "velocity": 57,
                "subtype": "noteOn"
            },
            {
                "deltaTime": 0,
                "channel": 4,
                "type": "channel",
                "noteNumber": 65,
                "velocity": 60,
                "subtype": "noteOn"
            },
            {
                "deltaTime": 0,
                "channel": 5,
                "type": "channel",
                "noteNumber": 60,
                "velocity": 57,
                "subtype": "noteOn"
            },
            {
                "deltaTime": 120,
                "channel": 4,
                "type": "channel",
                "noteNumber": 65,
                "velocity": 0,
                "subtype": "noteOff"
            },
            {
                "deltaTime": 0,
                "channel": 2,
                "type": "channel",
                "noteNumber": 74,
                "velocity": 0,
                "subtype": "noteOff"
            },
            {
                "deltaTime": 0,
                "channel": 2,
                "type": "channel",
                "noteNumber": 72,
                "velocity": 58,
                "subtype": "noteOn"
            },
            {
                "deltaTime": 0,
                "channel": 4,
                "type": "channel",
                "noteNumber": 64,
                "velocity": 58,
                "subtype": "noteOn"
            },
            {
                "deltaTime": 120,
                "type": "meta",
                "subtype": "setTempo",
                "microsecondsPerBeat": 975610
            },
            {
                "deltaTime": 0,
                "channel": 4,
                "type": "channel",
                "noteNumber": 64,
                "velocity": 0,
                "subtype": "noteOff"
            },
            {
                "deltaTime": 0,
                "channel": 5,
                "type": "channel",
                "noteNumber": 60,
                "velocity": 0,
                "subtype": "noteOff"
            },
            {
                "deltaTime": 0,
                "channel": 3,
                "type": "channel",
                "noteNumber": 67,
                "velocity": 0,
                "subtype": "noteOff"
            },
            {
                "deltaTime": 0,
                "channel": 2,
                "type": "channel",
                "noteNumber": 72,
                "velocity": 0,
                "subtype": "noteOff"
            },
            {
                "deltaTime": 0,
                "channel": 2,
                "type": "channel",
                "noteNumber": 71,
                "velocity": 58,
                "subtype": "noteOn"
            },
            {
                "deltaTime": 0,
                "channel": 3,
                "type": "channel",
                "noteNumber": 67,
                "velocity": 60,
                "subtype": "noteOn"
            },
            {
                "deltaTime": 0,
                "channel": 4,
                "type": "channel",
                "noteNumber": 62,
                "velocity": 57,
                "subtype": "noteOn"
            },
            {
                "deltaTime": 0,
                "channel": 5,
                "type": "channel",
                "noteNumber": 53,
                "velocity": 58,
                "subtype": "noteOn"
            },
            {
                "deltaTime": 90,
                "channel": 5,
                "type": "channel",
                "noteNumber": 53,
                "velocity": 0,
                "subtype": "noteOff"
            },
            {
                "deltaTime": 30,
                "channel": 5,
                "type": "channel",
                "noteNumber": 57,
                "velocity": 60,
                "subtype": "noteOn"
            },
            {
                "deltaTime": 120,
                "channel": 5,
                "type": "channel",
                "noteNumber": 57,
                "velocity": 0,
                "subtype": "noteOff"
            },
            {
                "deltaTime": 0,
                "channel": 5,
                "type": "channel",
                "noteNumber": 55,
                "velocity": 59,
                "subtype": "noteOn"
            },
            {
                "deltaTime": 120,
                "channel": 5,
                "type": "channel",
                "noteNumber": 55,
                "velocity": 0,
                "subtype": "noteOff"
            },
            {
                "deltaTime": 0,
                "channel": 5,
                "type": "channel",
                "noteNumber": 53,
                "velocity": 58,
                "subtype": "noteOn"
            },
            {
                "deltaTime": 120,
                "channel": 5,
                "type": "channel",
                "noteNumber": 53,
                "velocity": 0,
                "subtype": "noteOff"
            },
            {
                "deltaTime": 0,
                "channel": 4,
                "type": "channel",
                "noteNumber": 62,
                "velocity": 0,
                "subtype": "noteOff"
            },
            {
                "deltaTime": 0,
                "channel": 2,
                "type": "channel",
                "noteNumber": 71,
                "velocity": 0,
                "subtype": "noteOff"
            },
            {
                "deltaTime": 0,
                "channel": 2,
                "type": "channel",
                "noteNumber": 72,
                "velocity": 57,
                "subtype": "noteOn"
            },
            {
                "deltaTime": 0,
                "channel": 4,
                "type": "channel",
                "subtype": "controller",
                "controllerType": 7,
                "value": 100
            },
            {
                "deltaTime": 0,
                "channel": 4,
                "type": "channel",
                "noteNumber": 64,
                "velocity": 60,
                "subtype": "noteOn"
            },
            {
                "deltaTime": 0,
                "channel": 5,
                "type": "channel",
                "noteNumber": 52,
                "velocity": 57,
                "subtype": "noteOn"
            },
            {
                "deltaTime": 120,
                "channel": 5,
                "type": "channel",
                "noteNumber": 52,
                "velocity": 0,
                "subtype": "noteOff"
            },
            {
                "deltaTime": 0,
                "channel": 5,
                "type": "channel",
                "noteNumber": 50,
                "velocity": 56,
                "subtype": "noteOn"
            },
            {
                "deltaTime": 120,
                "channel": 5,
                "type": "channel",
                "noteNumber": 50,
                "velocity": 0,
                "subtype": "noteOff"
            },
            {
                "deltaTime": 0,
                "channel": 4,
                "type": "channel",
                "noteNumber": 64,
                "velocity": 0,
                "subtype": "noteOff"
            },
            {
                "deltaTime": 0,
                "channel": 2,
                "type": "channel",
                "noteNumber": 72,
                "velocity": 0,
                "subtype": "noteOff"
            },
            {
                "deltaTime": 0,
                "channel": 3,
                "type": "channel",
                "noteNumber": 67,
                "velocity": 0,
                "subtype": "noteOff"
            },
            {
                "deltaTime": 0,
                "channel": 2,
                "type": "channel",
                "noteNumber": 74,
                "velocity": 57,
                "subtype": "noteOn"
            },
            {
                "deltaTime": 0,
                "channel": 3,
                "type": "channel",
                "noteNumber": 65,
                "velocity": 57,
                "subtype": "noteOn"
            },
            {
                "deltaTime": 0,
                "channel": 4,
                "type": "channel",
                "noteNumber": 62,
                "velocity": 60,
                "subtype": "noteOn"
            },
            {
                "deltaTime": 0,
                "channel": 5,
                "type": "channel",
                "noteNumber": 48,
                "velocity": 56,
                "subtype": "noteOn"
            },
            {
                "deltaTime": 120,
                "channel": 5,
                "type": "channel",
                "noteNumber": 48,
                "velocity": 0,
                "subtype": "noteOff"
            },
            {
                "deltaTime": 0,
                "channel": 5,
                "type": "channel",
                "noteNumber": 47,
                "velocity": 55,
                "subtype": "noteOn"
            },
            {
                "deltaTime": 120,
                "type": "meta",
                "subtype": "setTempo",
                "microsecondsPerBeat": 1009082
            },
            {
                "deltaTime": 0,
                "channel": 5,
                "type": "channel",
                "noteNumber": 47,
                "velocity": 0,
                "subtype": "noteOff"
            },
            {
                "deltaTime": 0,
                "channel": 2,
                "type": "channel",
                "noteNumber": 74,
                "velocity": 0,
                "subtype": "noteOff"
            },
            {
                "deltaTime": 0,
                "channel": 2,
                "type": "channel",
                "noteNumber": 67,
                "velocity": 58,
                "subtype": "noteOn"
            },
            {
                "deltaTime": 0,
                "channel": 5,
                "type": "channel",
                "noteNumber": 48,
                "velocity": 51,
                "subtype": "noteOn"
            },
            {
                "deltaTime": 120,
                "channel": 5,
                "type": "channel",
                "noteNumber": 48,
                "velocity": 0,
                "subtype": "noteOff"
            },
            {
                "deltaTime": 0,
                "channel": 5,
                "type": "channel",
                "noteNumber": 50,
                "velocity": 53,
                "subtype": "noteOn"
            },
            {
                "deltaTime": 100,
                "channel": 2,
                "type": "channel",
                "noteNumber": 67,
                "velocity": 0,
                "subtype": "noteOff"
            },
            {
                "deltaTime": 20,
                "type": "meta",
                "subtype": "setTempo",
                "microsecondsPerBeat": 1120239
            },
            {
                "deltaTime": 0,
                "channel": 3,
                "type": "channel",
                "noteNumber": 65,
                "velocity": 0,
                "subtype": "noteOff"
            },
            {
                "deltaTime": 0,
                "channel": 4,
                "type": "channel",
                "noteNumber": 62,
                "velocity": 0,
                "subtype": "noteOff"
            },
            {
                "deltaTime": 0,
                "channel": 5,
                "type": "channel",
                "noteNumber": 50,
                "velocity": 0,
                "subtype": "noteOff"
            },
            {
                "deltaTime": 0,
                "channel": 2,
                "type": "channel",
                "noteNumber": 72,
                "velocity": 60,
                "subtype": "noteOn"
            },
            {
                "deltaTime": 0,
                "channel": 3,
                "type": "channel",
                "noteNumber": 64,
                "velocity": 57,
                "subtype": "noteOn"
            },
            {
                "deltaTime": 0,
                "channel": 4,
                "type": "channel",
                "noteNumber": 55,
                "velocity": 58,
                "subtype": "noteOn"
            },
            {
                "deltaTime": 0,
                "channel": 5,
                "type": "channel",
                "noteNumber": 52,
                "velocity": 56,
                "subtype": "noteOn"
            },
            {
                "deltaTime": 120,
                "channel": 5,
                "type": "channel",
                "noteNumber": 52,
                "velocity": 0,
                "subtype": "noteOff"
            },
            {
                "deltaTime": 0,
                "channel": 5,
                "type": "channel",
                "noteNumber": 53,
                "velocity": 58,
                "subtype": "noteOn"
            },
            {
                "deltaTime": 120,
                "channel": 5,
                "type": "channel",
                "noteNumber": 53,
                "velocity": 0,
                "subtype": "noteOff"
            },
            {
                "deltaTime": 0,
                "channel": 4,
                "type": "channel",
                "noteNumber": 55,
                "velocity": 0,
                "subtype": "noteOff"
            },
            {
                "deltaTime": 0,
                "channel": 3,
                "type": "channel",
                "noteNumber": 64,
                "velocity": 0,
                "subtype": "noteOff"
            },
            {
                "deltaTime": 0,
                "channel": 3,
                "type": "channel",
                "noteNumber": 62,
                "velocity": 57,
                "subtype": "noteOn"
            },
            {
                "deltaTime": 0,
                "channel": 4,
                "type": "channel",
                "noteNumber": 55,
                "velocity": 61,
                "subtype": "noteOn"
            },
            {
                "deltaTime": 240,
                "channel": 2,
                "type": "channel",
                "noteNumber": 72,
                "velocity": 0,
                "subtype": "noteOff"
            },
            {
                "deltaTime": 0,
                "channel": 2,
                "type": "channel",
                "noteNumber": 71,
                "velocity": 57,
                "subtype": "noteOn"
            },
            {
                "deltaTime": 0,
                "channel": 5,
                "type": "channel",
                "noteNumber": 43,
                "velocity": 57,
                "subtype": "noteOn"
            },
            {
                "deltaTime": 240,
                "type": "meta",
                "subtype": "setTempo",
                "microsecondsPerBeat": 1052816
            },
            {
                "deltaTime": 0,
                "channel": 5,
                "type": "channel",
                "noteNumber": 43,
                "velocity": 0,
                "subtype": "noteOff"
            },
            {
                "deltaTime": 0,
                "channel": 2,
                "type": "channel",
                "noteNumber": 71,
                "velocity": 0,
                "subtype": "noteOff"
            },
            {
                "deltaTime": 0,
                "channel": 3,
                "type": "channel",
                "noteNumber": 62,
                "velocity": 0,
                "subtype": "noteOff"
            },
            {
                "deltaTime": 0,
                "channel": 2,
                "type": "channel",
                "noteNumber": 72,
                "velocity": 60,
                "subtype": "noteOn"
            },
            {
                "deltaTime": 0,
                "channel": 3,
                "type": "channel",
                "noteNumber": 64,
                "velocity": 56,
                "subtype": "noteOn"
            },
            {
                "deltaTime": 0,
                "channel": 5,
                "type": "channel",
                "noteNumber": 48,
                "velocity": 60,
                "subtype": "noteOn"
            },
            {
                "deltaTime": 220,
                "channel": 3,
                "type": "channel",
                "noteNumber": 64,
                "velocity": 0,
                "subtype": "noteOff"
            },
            {
                "deltaTime": 0,
                "channel": 4,
                "type": "channel",
                "noteNumber": 55,
                "velocity": 0,
                "subtype": "noteOff"
            },
            {
                "deltaTime": 20,
                "channel": 3,
                "type": "channel",
                "noteNumber": 69,
                "velocity": 68,
                "subtype": "noteOn"
            },
            {
                "deltaTime": 0,
                "channel": 4,
                "type": "channel",
                "subtype": "controller",
                "controllerType": 7,
                "value": 120
            },
            {
                "deltaTime": 0,
                "channel": 4,
                "type": "channel",
                "noteNumber": 48,
                "velocity": 51,
                "subtype": "noteOn"
            },
            {
                "deltaTime": 240,
                "channel": 4,
                "type": "channel",
                "noteNumber": 48,
                "velocity": 0,
                "subtype": "noteOff"
            },
            {
                "deltaTime": 0,
                "channel": 2,
                "type": "channel",
                "noteNumber": 72,
                "velocity": 0,
                "subtype": "noteOff"
            },
            {
                "deltaTime": 0,
                "channel": 2,
                "type": "channel",
                "noteNumber": 71,
                "velocity": 67,
                "subtype": "noteOn"
            },
            {
                "deltaTime": 0,
                "channel": 4,
                "type": "channel",
                "noteNumber": 50,
                "velocity": 53,
                "subtype": "noteOn"
            },
            {
                "deltaTime": 240,
                "channel": 4,
                "type": "channel",
                "noteNumber": 50,
                "velocity": 0,
                "subtype": "noteOff"
            },
            {
                "deltaTime": 0,
                "channel": 2,
                "type": "channel",
                "noteNumber": 71,
                "velocity": 0,
                "subtype": "noteOff"
            },
            {
                "deltaTime": 0,
                "channel": 3,
                "type": "channel",
                "noteNumber": 69,
                "velocity": 0,
                "subtype": "noteOff"
            },
            {
                "deltaTime": 0,
                "channel": 2,
                "type": "channel",
                "noteNumber": 70,
                "velocity": 67,
                "subtype": "noteOn"
            },
            {
                "deltaTime": 0,
                "channel": 3,
                "type": "channel",
                "noteNumber": 67,
                "velocity": 56,
                "subtype": "noteOn"
            },
            {
                "deltaTime": 0,
                "channel": 4,
                "type": "channel",
                "noteNumber": 52,
                "velocity": 55,
                "subtype": "noteOn"
            },
            {
                "deltaTime": 240,
                "channel": 4,
                "type": "channel",
                "noteNumber": 52,
                "velocity": 0,
                "subtype": "noteOff"
            },
            {
                "deltaTime": 0,
                "channel": 2,
                "type": "channel",
                "noteNumber": 70,
                "velocity": 0,
                "subtype": "noteOff"
            },
            {
                "deltaTime": 0,
                "channel": 2,
                "type": "channel",
                "noteNumber": 69,
                "velocity": 66,
                "subtype": "noteOn"
            },
            {
                "deltaTime": 0,
                "channel": 4,
                "type": "channel",
                "noteNumber": 53,
                "velocity": 60,
                "subtype": "noteOn"
            },
            {
                "deltaTime": 240,
                "type": "meta",
                "subtype": "setTempo",
                "microsecondsPerBeat": 1000000
            },
            {
                "deltaTime": 0,
                "channel": 2,
                "type": "channel",
                "noteNumber": 69,
                "velocity": 0,
                "subtype": "noteOff"
            },
            {
                "deltaTime": 0,
                "channel": 3,
                "type": "channel",
                "noteNumber": 67,
                "velocity": 0,
                "subtype": "noteOff"
            },
            {
                "deltaTime": 0,
                "channel": 2,
                "type": "channel",
                "noteNumber": 74,
                "velocity": 72,
                "subtype": "noteOn"
            },
            {
                "deltaTime": 0,
                "channel": 3,
                "type": "channel",
                "noteNumber": 65,
                "velocity": 56,
                "subtype": "noteOn"
            },
            {
                "deltaTime": 120,
                "type": "meta",
                "subtype": "setTempo",
                "microsecondsPerBeat": 1121495
            },
            {
                "deltaTime": 0,
                "channel": 4,
                "type": "channel",
                "noteNumber": 53,
                "velocity": 0,
                "subtype": "noteOff"
            },
            {
                "deltaTime": 0,
                "channel": 4,
                "type": "channel",
                "noteNumber": 55,
                "velocity": 56,
                "subtype": "noteOn"
            },
            {
                "deltaTime": 60,
                "channel": 4,
                "type": "channel",
                "noteNumber": 55,
                "velocity": 0,
                "subtype": "noteOff"
            },
            {
                "deltaTime": 0,
                "channel": 4,
                "type": "channel",
                "noteNumber": 53,
                "velocity": 56,
                "subtype": "noteOn"
            },
            {
                "deltaTime": 60,
                "type": "meta",
                "subtype": "setTempo",
                "microsecondsPerBeat": 1052632
            },
            {
                "deltaTime": 0,
                "channel": 4,
                "type": "channel",
                "noteNumber": 53,
                "velocity": 0,
                "subtype": "noteOff"
            },
            {
                "deltaTime": 0,
                "channel": 3,
                "type": "channel",
                "noteNumber": 65,
                "velocity": 0,
                "subtype": "noteOff"
            },
            {
                "deltaTime": 0,
                "channel": 3,
                "type": "channel",
                "noteNumber": 67,
                "velocity": 57,
                "subtype": "noteOn"
            },
            {
                "deltaTime": 0,
                "channel": 4,
                "type": "channel",
                "noteNumber": 52,
                "velocity": 57,
                "subtype": "noteOn"
            },
            {
                "deltaTime": 220,
                "channel": 4,
                "type": "channel",
                "noteNumber": 52,
                "velocity": 0,
                "subtype": "noteOff"
            },
            {
                "deltaTime": 20,
                "channel": 3,
                "type": "channel",
                "noteNumber": 67,
                "velocity": 0,
                "subtype": "noteOff"
            },
            {
                "deltaTime": 0,
                "channel": 2,
                "type": "channel",
                "noteNumber": 74,
                "velocity": 0,
                "subtype": "noteOff"
            },
            {
                "deltaTime": 0,
                "channel": 2,
                "type": "channel",
                "subtype": "controller",
                "controllerType": 7,
                "value": 127
            },
            {
                "deltaTime": 0,
                "channel": 2,
                "type": "channel",
                "noteNumber": 72,
                "velocity": 67,
                "subtype": "noteOn"
            },
            {
                "deltaTime": 0,
                "channel": 3,
                "type": "channel",
                "noteNumber": 69,
                "velocity": 57,
                "subtype": "noteOn"
            },
            {
                "deltaTime": 0,
                "channel": 4,
                "type": "channel",
                "subtype": "controller",
                "controllerType": 7,
                "value": 100
            },
            {
                "deltaTime": 0,
                "channel": 4,
                "type": "channel",
                "noteNumber": 57,
                "velocity": 60,
                "subtype": "noteOn"
            },
            {
                "deltaTime": 240,
                "channel": 4,
                "type": "channel",
                "noteNumber": 57,
                "velocity": 0,
                "subtype": "noteOff"
            },
            {
                "deltaTime": 0,
                "channel": 3,
                "type": "channel",
                "noteNumber": 69,
                "velocity": 0,
                "subtype": "noteOff"
            },
            {
                "deltaTime": 0,
                "channel": 2,
                "type": "channel",
                "noteNumber": 72,
                "velocity": 0,
                "subtype": "noteOff"
            },
            {
                "deltaTime": 0,
                "channel": 2,
                "type": "channel",
                "noteNumber": 74,
                "velocity": 67,
                "subtype": "noteOn"
            },
            {
                "deltaTime": 0,
                "channel": 3,
                "type": "channel",
                "noteNumber": 70,
                "velocity": 60,
                "subtype": "noteOn"
            },
            {
                "deltaTime": 0,
                "channel": 4,
                "type": "channel",
                "noteNumber": 50,
                "velocity": 55,
                "subtype": "noteOn"
            },
            {
                "deltaTime": 220,
                "channel": 4,
                "type": "channel",
                "noteNumber": 50,
                "velocity": 0,
                "subtype": "noteOff"
            },
            {
                "deltaTime": 20,
                "type": "meta",
                "subtype": "setTempo",
                "microsecondsPerBeat": 1008403
            },
            {
                "deltaTime": 0,
                "channel": 2,
                "type": "channel",
                "noteNumber": 74,
                "velocity": 0,
                "subtype": "noteOff"
            },
            {
                "deltaTime": 0,
                "channel": 2,
                "type": "channel",
                "noteNumber": 76,
                "velocity": 70,
                "subtype": "noteOn"
            },
            {
                "deltaTime": 0,
                "channel": 4,
                "type": "channel",
                "noteNumber": 55,
                "velocity": 60,
                "subtype": "noteOn"
            },
            {
                "deltaTime": 120,
                "type": "meta",
                "subtype": "setTempo",
                "microsecondsPerBeat": 1111111
            },
            {
                "deltaTime": 0,
                "channel": 3,
                "type": "channel",
                "noteNumber": 70,
                "velocity": 0,
                "subtype": "noteOff"
            },
            {
                "deltaTime": 0,
                "channel": 3,
                "type": "channel",
                "noteNumber": 72,
                "velocity": 57,
                "subtype": "noteOn"
            },
            {
                "deltaTime": 60,
                "channel": 3,
                "type": "channel",
                "noteNumber": 72,
                "velocity": 0,
                "subtype": "noteOff"
            },
            {
                "deltaTime": 0,
                "channel": 3,
                "type": "channel",
                "noteNumber": 70,
                "velocity": 57,
                "subtype": "noteOn"
            },
            {
                "deltaTime": 60,
                "type": "meta",
                "subtype": "setTempo",
                "microsecondsPerBeat": 1052632
            },
            {
                "deltaTime": 0,
                "channel": 3,
                "type": "channel",
                "noteNumber": 70,
                "velocity": 0,
                "subtype": "noteOff"
            },
            {
                "deltaTime": 0,
                "channel": 2,
                "type": "channel",
                "noteNumber": 76,
                "velocity": 0,
                "subtype": "noteOff"
            },
            {
                "deltaTime": 0,
                "channel": 2,
                "type": "channel",
                "noteNumber": 77,
                "velocity": 74,
                "subtype": "noteOn"
            },
            {
                "deltaTime": 0,
                "channel": 3,
                "type": "channel",
                "noteNumber": 69,
                "velocity": 57,
                "subtype": "noteOn"
            },
            {
                "deltaTime": 120,
                "channel": 4,
                "type": "channel",
                "noteNumber": 55,
                "velocity": 0,
                "subtype": "noteOff"
            },
            {
                "deltaTime": 0,
                "channel": 4,
                "type": "channel",
                "noteNumber": 57,
                "velocity": 58,
                "subtype": "noteOn"
            },
            {
                "deltaTime": 100,
                "channel": 3,
                "type": "channel",
                "noteNumber": 69,
                "velocity": 0,
                "subtype": "noteOff"
            },
            {
                "deltaTime": 20,
                "channel": 4,
                "type": "channel",
                "noteNumber": 57,
                "velocity": 0,
                "subtype": "noteOff"
            },
            {
                "deltaTime": 0,
                "channel": 3,
                "type": "channel",
                "noteNumber": 74,
                "velocity": 60,
                "subtype": "noteOn"
            },
            {
                "deltaTime": 0,
                "channel": 4,
                "type": "channel",
                "noteNumber": 55,
                "velocity": 58,
                "subtype": "noteOn"
            },
            {
                "deltaTime": 120,
                "channel": 4,
                "type": "channel",
                "noteNumber": 55,
                "velocity": 0,
                "subtype": "noteOff"
            },
            {
                "deltaTime": 0,
                "channel": 4,
                "type": "channel",
                "noteNumber": 53,
                "velocity": 57,
                "subtype": "noteOn"
            },
            {
                "deltaTime": 120,
                "channel": 4,
                "type": "channel",
                "noteNumber": 53,
                "velocity": 0,
                "subtype": "noteOff"
            },
            {
                "deltaTime": 0,
                "channel": 3,
                "type": "channel",
                "noteNumber": 74,
                "velocity": 0,
                "subtype": "noteOff"
            },
            {
                "deltaTime": 0,
                "channel": 3,
                "type": "channel",
                "noteNumber": 67,
                "velocity": 55,
                "subtype": "noteOn"
            },
            {
                "deltaTime": 0,
                "channel": 4,
                "type": "channel",
                "noteNumber": 52,
                "velocity": 57,
                "subtype": "noteOn"
            },
            {
                "deltaTime": 90,
                "channel": 4,
                "type": "channel",
                "noteNumber": 52,
                "velocity": 0,
                "subtype": "noteOff"
            },
            {
                "deltaTime": 30,
                "type": "meta",
                "subtype": "setTempo",
                "microsecondsPerBeat": 1090314
            },
            {
                "deltaTime": 0,
                "channel": 2,
                "type": "channel",
                "noteNumber": 77,
                "velocity": 0,
                "subtype": "noteOff"
            },
            {
                "deltaTime": 0,
                "channel": 2,
                "type": "channel",
                "noteNumber": 81,
                "velocity": 69,
                "subtype": "noteOn"
            },
            {
                "deltaTime": 0,
                "channel": 4,
                "type": "channel",
                "noteNumber": 50,
                "velocity": 56,
                "subtype": "noteOn"
            },
            {
                "deltaTime": 100,
                "channel": 3,
                "type": "channel",
                "noteNumber": 67,
                "velocity": 0,
                "subtype": "noteOff"
            },
            {
                "deltaTime": 20,
                "channel": 4,
                "type": "channel",
                "noteNumber": 50,
                "velocity": 0,
                "subtype": "noteOff"
            },
            {
                "deltaTime": 0,
                "channel": 2,
                "type": "channel",
                "noteNumber": 81,
                "velocity": 0,
                "subtype": "noteOff"
            },
            {
                "deltaTime": 0,
                "channel": 2,
                "type": "channel",
                "noteNumber": 79,
                "velocity": 69,
                "subtype": "noteOn"
            },
            {
                "deltaTime": 0,
                "channel": 3,
                "type": "channel",
                "noteNumber": 72,
                "velocity": 60,
                "subtype": "noteOn"
            },
            {
                "deltaTime": 0,
                "channel": 4,
                "type": "channel",
                "noteNumber": 52,
                "velocity": 56,
                "subtype": "noteOn"
            },
            {
                "deltaTime": 120,
                "channel": 4,
                "type": "channel",
                "noteNumber": 52,
                "velocity": 0,
                "subtype": "noteOff"
            },
            {
                "deltaTime": 0,
                "channel": 2,
                "type": "channel",
                "noteNumber": 79,
                "velocity": 0,
                "subtype": "noteOff"
            },
            {
                "deltaTime": 0,
                "channel": 2,
                "type": "channel",
                "noteNumber": 77,
                "velocity": 68,
                "subtype": "noteOn"
            },
            {
                "deltaTime": 0,
                "channel": 4,
                "type": "channel",
                "noteNumber": 53,
                "velocity": 56,
                "subtype": "noteOn"
            },
            {
                "deltaTime": 120,
                "channel": 4,
                "type": "channel",
                "noteNumber": 53,
                "velocity": 0,
                "subtype": "noteOff"
            },
            {
                "deltaTime": 0,
                "channel": 2,
                "type": "channel",
                "noteNumber": 77,
                "velocity": 0,
                "subtype": "noteOff"
            },
            {
                "deltaTime": 0,
                "channel": 2,
                "type": "channel",
                "noteNumber": 76,
                "velocity": 67,
                "subtype": "noteOn"
            },
            {
                "deltaTime": 0,
                "channel": 4,
                "type": "channel",
                "noteNumber": 55,
                "velocity": 57,
                "subtype": "noteOn"
            },
            {
                "deltaTime": 120,
                "channel": 4,
                "type": "channel",
                "noteNumber": 55,
                "velocity": 0,
                "subtype": "noteOff"
            },
            {
                "deltaTime": 0,
                "channel": 2,
                "type": "channel",
                "noteNumber": 76,
                "velocity": 0,
                "subtype": "noteOff"
            },
            {
                "deltaTime": 0,
                "channel": 3,
                "type": "channel",
                "noteNumber": 72,
                "velocity": 0,
                "subtype": "noteOff"
            },
            {
                "deltaTime": 0,
                "channel": 2,
                "type": "channel",
                "noteNumber": 77,
                "velocity": 69,
                "subtype": "noteOn"
            },
            {
                "deltaTime": 0,
                "channel": 3,
                "type": "channel",
                "noteNumber": 74,
                "velocity": 62,
                "subtype": "noteOn"
            },
            {
                "deltaTime": 0,
                "channel": 4,
                "type": "channel",
                "noteNumber": 57,
                "velocity": 59,
                "subtype": "noteOn"
            },
            {
                "deltaTime": 120,
                "channel": 4,
                "type": "channel",
                "noteNumber": 57,
                "velocity": 0,
                "subtype": "noteOff"
            },
            {
                "deltaTime": 0,
                "channel": 3,
                "type": "channel",
                "noteNumber": 74,
                "velocity": 0,
                "subtype": "noteOff"
            },
            {
                "deltaTime": 0,
                "channel": 2,
                "type": "channel",
                "noteNumber": 77,
                "velocity": 0,
                "subtype": "noteOff"
            },
            {
                "deltaTime": 0,
                "channel": 2,
                "type": "channel",
                "noteNumber": 76,
                "velocity": 68,
                "subtype": "noteOn"
            },
            {
                "deltaTime": 0,
                "channel": 3,
                "type": "channel",
                "noteNumber": 72,
                "velocity": 62,
                "subtype": "noteOn"
            },
            {
                "deltaTime": 0,
                "channel": 4,
                "type": "channel",
                "noteNumber": 58,
                "velocity": 63,
                "subtype": "noteOn"
            },
            {
                "deltaTime": 90,
                "channel": 4,
                "type": "channel",
                "noteNumber": 58,
                "velocity": 0,
                "subtype": "noteOff"
            },
            {
                "deltaTime": 30,
                "channel": 3,
                "type": "channel",
                "noteNumber": 72,
                "velocity": 0,
                "subtype": "noteOff"
            },
            {
                "deltaTime": 0,
                "channel": 2,
                "type": "channel",
                "noteNumber": 76,
                "velocity": 0,
                "subtype": "noteOff"
            },
            {
                "deltaTime": 0,
                "channel": 2,
                "type": "channel",
                "noteNumber": 74,
                "velocity": 67,
                "subtype": "noteOn"
            },
            {
                "deltaTime": 0,
                "channel": 3,
                "type": "channel",
                "noteNumber": 70,
                "velocity": 62,
                "subtype": "noteOn"
            },
            {
                "deltaTime": 0,
                "channel": 4,
                "type": "channel",
                "noteNumber": 55,
                "velocity": 60,
                "subtype": "noteOn"
            },
            {
                "deltaTime": 120,
                "channel": 4,
                "type": "channel",
                "noteNumber": 55,
                "velocity": 0,
                "subtype": "noteOff"
            },
            {
                "deltaTime": 0,
                "channel": 3,
                "type": "channel",
                "noteNumber": 70,
                "velocity": 0,
                "subtype": "noteOff"
            },
            {
                "deltaTime": 0,
                "channel": 2,
                "type": "channel",
                "noteNumber": 74,
                "velocity": 0,
                "subtype": "noteOff"
            },
            {
                "deltaTime": 0,
                "channel": 2,
                "type": "channel",
                "noteNumber": 72,
                "velocity": 70,
                "subtype": "noteOn"
            },
            {
                "deltaTime": 0,
                "channel": 3,
                "type": "channel",
                "noteNumber": 69,
                "velocity": 61,
                "subtype": "noteOn"
            },
            {
                "deltaTime": 0,
                "channel": 4,
                "type": "channel",
                "noteNumber": 57,
                "velocity": 60,
                "subtype": "noteOn"
            },
            {
                "deltaTime": 90,
                "channel": 4,
                "type": "channel",
                "noteNumber": 57,
                "velocity": 0,
                "subtype": "noteOff"
            },
            {
                "deltaTime": 30,
                "channel": 3,
                "type": "channel",
                "noteNumber": 69,
                "velocity": 0,
                "subtype": "noteOff"
            },
            {
                "deltaTime": 0,
                "channel": 3,
                "type": "channel",
                "noteNumber": 70,
                "velocity": 61,
                "subtype": "noteOn"
            },
            {
                "deltaTime": 0,
                "channel": 4,
                "type": "channel",
                "noteNumber": 52,
                "velocity": 63,
                "subtype": "noteOn"
            },
            {
                "deltaTime": 40,
                "type": "meta",
                "subtype": "setTempo",
                "microsecondsPerBeat": 1100110
            },
            {
                "deltaTime": 80,
                "channel": 4,
                "type": "channel",
                "noteNumber": 52,
                "velocity": 0,
                "subtype": "noteOff"
            },
            {
                "deltaTime": 0,
                "channel": 3,
                "type": "channel",
                "noteNumber": 70,
                "velocity": 0,
                "subtype": "noteOff"
            },
            {
                "deltaTime": 0,
                "channel": 3,
                "type": "channel",
                "noteNumber": 69,
                "velocity": 61,
                "subtype": "noteOn"
            },
            {
                "deltaTime": 0,
                "channel": 4,
                "type": "channel",
                "noteNumber": 53,
                "velocity": 55,
                "subtype": "noteOn"
            },
            {
                "deltaTime": 80,
                "type": "meta",
                "subtype": "setTempo",
                "microsecondsPerBeat": 1110083
            },
            {
                "deltaTime": 40,
                "channel": 4,
                "type": "channel",
                "noteNumber": 53,
                "velocity": 0,
                "subtype": "noteOff"
            },
            {
                "deltaTime": 0,
                "channel": 3,
                "type": "channel",
                "noteNumber": 69,
                "velocity": 0,
                "subtype": "noteOff"
            },
            {
                "deltaTime": 0,
                "channel": 3,
                "type": "channel",
                "noteNumber": 67,
                "velocity": 60,
                "subtype": "noteOn"
            },
            {
                "deltaTime": 0,
                "channel": 4,
                "type": "channel",
                "noteNumber": 55,
                "velocity": 57,
                "subtype": "noteOn"
            },
            {
                "deltaTime": 120,
                "type": "meta",
                "subtype": "setTempo",
                "microsecondsPerBeat": 1120239
            },
            {
                "deltaTime": 0,
                "channel": 4,
                "type": "channel",
                "noteNumber": 55,
                "velocity": 0,
                "subtype": "noteOff"
            },
            {
                "deltaTime": 0,
                "channel": 3,
                "type": "channel",
                "noteNumber": 67,
                "velocity": 0,
                "subtype": "noteOff"
            },
            {
                "deltaTime": 0,
                "channel": 3,
                "type": "channel",
                "noteNumber": 65,
                "velocity": 60,
                "subtype": "noteOn"
            },
            {
                "deltaTime": 0,
                "channel": 4,
                "type": "channel",
                "noteNumber": 57,
                "velocity": 59,
                "subtype": "noteOn"
            },
            {
                "deltaTime": 120,
                "channel": 4,
                "type": "channel",
                "noteNumber": 57,
                "velocity": 0,
                "subtype": "noteOff"
            },
            {
                "deltaTime": 0,
                "channel": 3,
                "type": "channel",
                "noteNumber": 65,
                "velocity": 0,
                "subtype": "noteOff"
            },
            {
                "deltaTime": 0,
                "channel": 3,
                "type": "channel",
                "noteNumber": 67,
                "velocity": 60,
                "subtype": "noteOn"
            },
            {
                "deltaTime": 0,
                "channel": 4,
                "type": "channel",
                "noteNumber": 59,
                "velocity": 60,
                "subtype": "noteOn"
            },
            {
                "deltaTime": 40,
                "type": "meta",
                "subtype": "setTempo",
                "microsecondsPerBeat": 1130795
            },
            {
                "deltaTime": 80,
                "channel": 4,
                "type": "channel",
                "noteNumber": 59,
                "velocity": 0,
                "subtype": "noteOff"
            },
            {
                "deltaTime": 0,
                "channel": 3,
                "type": "channel",
                "noteNumber": 67,
                "velocity": 0,
                "subtype": "noteOff"
            },
            {
                "deltaTime": 0,
                "channel": 3,
                "type": "channel",
                "noteNumber": 65,
                "velocity": 59,
                "subtype": "noteOn"
            },
            {
                "deltaTime": 0,
                "channel": 4,
                "type": "channel",
                "noteNumber": 60,
                "velocity": 62,
                "subtype": "noteOn"
            },
            {
                "deltaTime": 80,
                "type": "meta",
                "subtype": "setTempo",
                "microsecondsPerBeat": 1141335
            },
            {
                "deltaTime": 10,
                "channel": 4,
                "type": "channel",
                "noteNumber": 60,
                "velocity": 0,
                "subtype": "noteOff"
            },
            {
                "deltaTime": 30,
                "channel": 3,
                "type": "channel",
                "noteNumber": 65,
                "velocity": 0,
                "subtype": "noteOff"
            },
            {
                "deltaTime": 0,
                "channel": 3,
                "type": "channel",
                "noteNumber": 64,
                "velocity": 59,
                "subtype": "noteOn"
            },
            {
                "deltaTime": 0,
                "channel": 4,
                "type": "channel",
                "noteNumber": 57,
                "velocity": 58,
                "subtype": "noteOn"
            },
            {
                "deltaTime": 120,
                "type": "meta",
                "subtype": "setTempo",
                "microsecondsPerBeat": 1152074
            },
            {
                "deltaTime": 0,
                "channel": 4,
                "type": "channel",
                "noteNumber": 57,
                "velocity": 0,
                "subtype": "noteOff"
            },
            {
                "deltaTime": 0,
                "channel": 3,
                "type": "channel",
                "noteNumber": 64,
                "velocity": 0,
                "subtype": "noteOff"
            },
            {
                "deltaTime": 0,
                "channel": 2,
                "type": "channel",
                "noteNumber": 72,
                "velocity": 0,
                "subtype": "noteOff"
            },
            {
                "deltaTime": 0,
                "channel": 3,
                "type": "channel",
                "noteNumber": 62,
                "velocity": 59,
                "subtype": "noteOn"
            },
            {
                "deltaTime": 0,
                "channel": 4,
                "type": "channel",
                "noteNumber": 59,
                "velocity": 62,
                "subtype": "noteOn"
            },
            {
                "deltaTime": 120,
                "type": "meta",
                "subtype": "setTempo",
                "microsecondsPerBeat": 1081081
            },
            {
                "deltaTime": 0,
                "channel": 2,
                "type": "channel",
                "noteNumber": 67,
                "velocity": 56,
                "subtype": "noteOn"
            },
            {
                "deltaTime": 60,
                "channel": 2,
                "type": "channel",
                "noteNumber": 67,
                "velocity": 0,
                "subtype": "noteOff"
            },
            {
                "deltaTime": 0,
                "channel": 2,
                "type": "channel",
                "noteNumber": 69,
                "velocity": 57,
                "subtype": "noteOn"
            },
            {
                "deltaTime": 60,
                "type": "meta",
                "subtype": "setTempo",
                "microsecondsPerBeat": 1153846
            },
            {
                "deltaTime": 0,
                "channel": 2,
                "type": "channel",
                "noteNumber": 69,
                "velocity": 0,
                "subtype": "noteOff"
            },
            {
                "deltaTime": 0,
                "channel": 2,
                "type": "channel",
                "noteNumber": 71,
                "velocity": 57,
                "subtype": "noteOn"
            },
            {
                "deltaTime": 120,
                "channel": 2,
                "type": "channel",
                "noteNumber": 71,
                "velocity": 0,
                "subtype": "noteOff"
            },
            {
                "deltaTime": 0,
                "channel": 2,
                "type": "channel",
                "noteNumber": 72,
                "velocity": 59,
                "subtype": "noteOn"
            },
            {
                "deltaTime": 120,
                "channel": 2,
                "type": "channel",
                "noteNumber": 72,
                "velocity": 0,
                "subtype": "noteOff"
            },
            {
                "deltaTime": 0,
                "channel": 2,
                "type": "channel",
                "noteNumber": 74,
                "velocity": 60,
                "subtype": "noteOn"
            },
            {
                "deltaTime": 120,
                "channel": 2,
                "type": "channel",
                "noteNumber": 74,
                "velocity": 0,
                "subtype": "noteOff"
            },
            {
                "deltaTime": 0,
                "channel": 2,
                "type": "channel",
                "noteNumber": 76,
                "velocity": 62,
                "subtype": "noteOn"
            },
            {
                "deltaTime": 120,
                "channel": 2,
                "type": "channel",
                "noteNumber": 76,
                "velocity": 0,
                "subtype": "noteOff"
            },
            {
                "deltaTime": 0,
                "channel": 2,
                "type": "channel",
                "noteNumber": 77,
                "velocity": 63,
                "subtype": "noteOn"
            },
            {
                "deltaTime": 120,
                "type": "meta",
                "subtype": "setTempo",
                "microsecondsPerBeat": 1100917
            },
            {
                "deltaTime": 0,
                "channel": 3,
                "type": "channel",
                "noteNumber": 62,
                "velocity": 0,
                "subtype": "noteOff"
            },
            {
                "deltaTime": 0,
                "channel": 3,
                "type": "channel",
                "noteNumber": 67,
                "velocity": 57,
                "subtype": "noteOn"
            },
            {
                "deltaTime": 120,
                "type": "meta",
                "subtype": "setTempo",
                "microsecondsPerBeat": 1153846
            },
            {
                "deltaTime": 0,
                "channel": 3,
                "type": "channel",
                "noteNumber": 67,
                "velocity": 0,
                "subtype": "noteOff"
            },
            {
                "deltaTime": 0,
                "channel": 4,
                "type": "channel",
                "noteNumber": 59,
                "velocity": 0,
                "subtype": "noteOff"
            },
            {
                "deltaTime": 0,
                "channel": 3,
                "type": "channel",
                "noteNumber": 69,
                "velocity": 60,
                "subtype": "noteOn"
            },
            {
                "deltaTime": 0,
                "channel": 4,
                "type": "channel",
                "noteNumber": 60,
                "velocity": 60,
                "subtype": "noteOn"
            },
            {
                "deltaTime": 60,
                "channel": 2,
                "type": "channel",
                "noteNumber": 77,
                "velocity": 0,
                "subtype": "noteOff"
            },
            {
                "deltaTime": 0,
                "channel": 2,
                "type": "channel",
                "noteNumber": 72,
                "velocity": 55,
                "subtype": "noteOn"
            },
            {
                "deltaTime": 60,
                "channel": 2,
                "type": "channel",
                "noteNumber": 72,
                "velocity": 0,
                "subtype": "noteOff"
            },
            {
                "deltaTime": 0,
                "channel": 2,
                "type": "channel",
                "noteNumber": 74,
                "velocity": 57,
                "subtype": "noteOn"
            },
            {
                "deltaTime": 60,
                "channel": 2,
                "type": "channel",
                "noteNumber": 74,
                "velocity": 0,
                "subtype": "noteOff"
            },
            {
                "deltaTime": 0,
                "channel": 2,
                "type": "channel",
                "noteNumber": 76,
                "velocity": 58,
                "subtype": "noteOn"
            },
            {
                "deltaTime": 60,
                "channel": 2,
                "type": "channel",
                "noteNumber": 76,
                "velocity": 0,
                "subtype": "noteOff"
            },
            {
                "deltaTime": 0,
                "channel": 2,
                "type": "channel",
                "noteNumber": 77,
                "velocity": 59,
                "subtype": "noteOn"
            },
            {
                "deltaTime": 120,
                "channel": 2,
                "type": "channel",
                "noteNumber": 77,
                "velocity": 0,
                "subtype": "noteOff"
            },
            {
                "deltaTime": 0,
                "channel": 2,
                "type": "channel",
                "noteNumber": 79,
                "velocity": 62,
                "subtype": "noteOn"
            },
            {
                "deltaTime": 120,
                "type": "meta",
                "subtype": "setTempo",
                "microsecondsPerBeat": 1327140
            },
            {
                "deltaTime": 0,
                "channel": 2,
                "type": "channel",
                "noteNumber": 79,
                "velocity": 0,
                "subtype": "noteOff"
            },
            {
                "deltaTime": 0,
                "channel": 3,
                "type": "channel",
                "noteNumber": 69,
                "velocity": 0,
                "subtype": "noteOff"
            },
            {
                "deltaTime": 0,
                "channel": 2,
                "type": "channel",
                "noteNumber": 81,
                "velocity": 65,
                "subtype": "noteOn"
            },
            {
                "deltaTime": 120,
                "type": "meta",
                "subtype": "setTempo",
                "microsecondsPerBeat": 1586043
            },
            {
                "deltaTime": 0,
                "channel": 3,
                "type": "channel",
                "noteNumber": 77,
                "velocity": 57,
                "subtype": "noteOn"
            },
            {
                "deltaTime": 120,
                "channel": 3,
                "type": "channel",
                "noteNumber": 77,
                "velocity": 0,
                "subtype": "noteOff"
            },
            {
                "deltaTime": 0,
                "channel": 3,
                "type": "channel",
                "noteNumber": 74,
                "velocity": 57,
                "subtype": "noteOn"
            },
            {
                "deltaTime": 120,
                "type": "meta",
                "subtype": "setTempo",
                "microsecondsPerBeat": 2262443
            },
            {
                "deltaTime": 0,
                "channel": 2,
                "type": "channel",
                "noteNumber": 81,
                "velocity": 0,
                "subtype": "noteOff"
            },
            {
                "deltaTime": 0,
                "channel": 2,
                "type": "channel",
                "noteNumber": 83,
                "velocity": 64,
                "subtype": "noteOn"
            },
            {
                "deltaTime": 120,
                "channel": 2,
                "type": "channel",
                "noteNumber": 83,
                "velocity": 0,
                "subtype": "noteOff"
            },
            {
                "deltaTime": 0,
                "channel": 3,
                "type": "channel",
                "noteNumber": 74,
                "velocity": 0,
                "subtype": "noteOff"
            },
            {
                "deltaTime": 0,
                "channel": 2,
                "type": "channel",
                "noteNumber": 79,
                "velocity": 52,
                "subtype": "noteOn"
            },
            {
                "deltaTime": 0,
                "channel": 2,
                "type": "channel",
                "noteNumber": 84,
                "velocity": 56,
                "subtype": "noteOn"
            },
            {
                "deltaTime": 0,
                "channel": 3,
                "type": "channel",
                "noteNumber": 76,
                "velocity": 48,
                "subtype": "noteOn"
            },
            {
                "deltaTime": 960,
                "type": "meta",
                "subtype": "setTempo",
                "microsecondsPerBeat": 2222222
            },
            {
                "deltaTime": 0,
                "type": "meta",
                "subtype": "marker",
                "text": "Fine"
            },
            {
                "deltaTime": 0,
                "channel": 3,
                "type": "channel",
                "noteNumber": 76,
                "velocity": 0,
                "subtype": "noteOff"
            },
            {
                "deltaTime": 0,
                "channel": 2,
                "type": "channel",
                "noteNumber": 79,
                "velocity": 0,
                "subtype": "noteOff"
            },
            {
                "deltaTime": 0,
                "channel": 4,
                "type": "channel",
                "noteNumber": 60,
                "velocity": 0,
                "subtype": "noteOff"
            },
            {
                "deltaTime": 0,
                "channel": 5,
                "type": "channel",
                "noteNumber": 48,
                "velocity": 0,
                "subtype": "noteOff"
            },
            {
                "deltaTime": 0,
                "channel": 2,
                "type": "channel",
                "noteNumber": 84,
                "velocity": 0,
                "subtype": "noteOff"
            },
            {
                "deltaTime": 15360,
                "type": "meta",
                "subtype": "setTempo",
                "microsecondsPerBeat": 961384
            },
            {
                "deltaTime": 0,
                "type": "meta",
                "subtype": "endOfTrack"
            }
        ]
    ]
}